<svg width="3429" height="2966" viewBox="0 0 3429 2966" fill="none" xmlns="http://www.w3.org/2000/svg">
<path d="M2881.86 1044.15C2881.12 1042.58 2881.77 1040.79 2883.34 1040.06C2884.91 1039.32 2886.7 1039.97 2887.43 1041.54C2888.17 1043.11 2887.52 1044.9 2885.95 1045.63C2884.3 1046.19 2882.51 1045.54 2881.86 1044.15ZM2854.07 1046.97C2852.54 1046.41 2851.72 1044.67 2852.28 1043.13C2852.84 1041.6 2854.58 1040.78 2856.11 1041.34C2857.65 1041.89 2858.46 1043.64 2857.91 1045.17C2857.63 1045.94 2857.1 1046.61 2856.4 1046.94C2855.7 1047.27 2854.84 1047.24 2854.07 1046.97ZM2903.38 1023.88C2901.84 1023.32 2901.03 1021.58 2901.58 1020.04C2902.14 1018.51 2903.88 1017.69 2905.41 1018.25C2906.95 1018.81 2907.76 1020.55 2907.21 1022.08C2906.93 1022.85 2906.4 1023.52 2905.7 1023.85C2904.92 1024 2904.14 1024.16 2903.38 1023.88ZM2830.52 1025.71C2829.79 1024.14 2830.44 1022.35 2831.83 1021.7C2833.4 1020.96 2835.19 1021.61 2835.92 1023.18C2836.66 1024.75 2836.01 1026.54 2834.44 1027.27C2832.97 1027.75 2831.18 1027.1 2830.52 1025.71ZM2900.3 992.818C2899.57 991.25 2900.21 989.459 2901.61 988.806C2903.18 988.072 2904.97 988.721 2905.62 990.114C2905.62 990.114 2905.62 990.114 2905.7 990.288C2906.44 991.856 2905.79 993.647 2904.22 994.381C2902.83 995.034 2901.04 994.385 2900.3 992.818ZM2830.81 997.746C2829.28 997.19 2828.46 995.448 2829.02 993.913C2829.57 992.378 2831.31 991.563 2832.85 992.118C2834.38 992.674 2835.2 994.416 2834.64 995.951C2834.37 996.718 2833.83 997.393 2833.14 997.719C2832.36 997.872 2831.58 998.024 2830.81 997.746ZM2880.03 974.483C2878.5 973.927 2877.68 972.185 2878.24 970.651C2878.79 969.116 2880.53 968.3 2882.07 968.856C2883.6 969.412 2884.42 971.154 2883.86 972.688C2883.59 973.456 2883.05 974.13 2882.36 974.457C2881.58 974.609 2880.8 974.761 2880.03 974.483ZM2848.97 974.374C2848.23 972.806 2848.88 971.016 2850.45 970.281C2852.02 969.547 2853.81 970.195 2854.54 971.763C2855.28 973.331 2854.63 975.122 2853.23 975.774C2851.41 976.416 2849.62 975.768 2848.97 974.374Z" fill="url(#paint0_linear)" fill-opacity="0.1"/>
<path d="M2879.58 1032.47C2893.05 1026.17 2898.85 1010.13 2892.54 996.663C2886.24 983.193 2870.2 977.387 2856.73 983.695C2843.26 990.004 2837.46 1006.04 2843.76 1019.51C2850.07 1032.98 2866.11 1038.78 2879.58 1032.47Z" fill="url(#paint1_linear)" fill-opacity="0.1"/>
<path d="M1959.3 1293.09C1957.66 1293.22 1956.13 1292.24 1955.92 1290.42C1955.79 1288.78 1956.78 1287.26 1958.59 1287.05C1960.23 1286.92 1961.75 1287.9 1961.97 1289.72C1962.19 1291.1 1961.47 1292.29 1960.25 1292.86C1959.9 1293.02 1959.73 1293.1 1959.3 1293.09ZM1982.87 1279.93C1981.7 1278.78 1981.83 1276.8 1982.98 1275.63C1984.13 1274.45 1986.11 1274.59 1987.28 1275.74C1988.46 1276.89 1988.32 1278.86 1987.17 1280.04C1986.9 1280.37 1986.73 1280.46 1986.38 1280.62C1985.16 1281.19 1983.71 1280.81 1982.87 1279.93ZM1929.16 1287.24C1927.71 1286.43 1927.07 1284.6 1927.88 1283.16C1928.69 1281.72 1930.52 1281.08 1931.96 1281.89C1933.4 1282.7 1934.04 1284.53 1933.23 1285.97C1932.87 1286.56 1932.43 1286.98 1931.91 1287.22C1931.12 1287.81 1930.09 1287.87 1929.16 1287.24ZM1998.39 1255.45C1996.76 1255.16 1995.6 1253.58 1996.07 1251.87C1996.37 1250.24 1997.95 1249.08 1999.66 1249.55C2001.28 1249.85 2002.45 1251.43 2002.15 1253.06C2001.95 1254 2001.24 1254.75 2000.37 1255.16C1999.68 1255.49 1999.15 1255.73 1998.39 1255.45ZM1908.13 1265.01C1907.39 1263.45 1908.04 1261.65 1909.61 1260.92C1911.18 1260.19 1912.97 1260.83 1913.7 1262.4C1914.43 1263.97 1913.79 1265.76 1912.39 1266.41C1910.57 1267.06 1908.78 1266.41 1908.13 1265.01ZM1992.71 1225.19C1991.98 1223.62 1992.54 1221.66 1993.94 1221C1995.5 1220.27 1997.29 1220.92 1997.95 1222.31C1997.95 1222.31 1997.95 1222.31 1998.03 1222.49C1998.76 1224.05 1998.11 1225.84 1996.55 1226.58C1995.23 1227.41 1993.44 1226.76 1992.71 1225.19ZM1906.75 1238.04C1905.13 1237.74 1903.96 1236.16 1904.44 1234.45C1904.74 1232.83 1906.31 1231.66 1908.02 1232.14C1909.65 1232.44 1910.81 1234.02 1910.51 1235.64C1910.32 1236.58 1909.61 1237.34 1908.74 1237.75C1908.04 1238.08 1907.44 1238.15 1906.75 1238.04ZM1974.11 1205.43C1972.67 1204.62 1972.03 1202.8 1972.84 1201.36C1973.65 1199.92 1975.48 1199.27 1976.92 1200.09C1978.36 1200.9 1979 1202.72 1978.19 1204.16C1977.83 1204.76 1977.39 1205.17 1976.87 1205.42C1976.08 1206 1974.96 1205.89 1974.11 1205.43ZM1918.87 1211.76C1917.7 1210.61 1917.83 1208.64 1918.98 1207.46C1920.13 1206.29 1922.11 1206.42 1923.28 1207.57C1924.46 1208.72 1924.32 1210.7 1923.17 1211.87C1922.91 1212.21 1922.73 1212.29 1922.38 1212.45C1921.16 1213.02 1919.79 1212.82 1918.87 1211.76ZM1947.56 1200.45C1945.92 1200.58 1944.4 1199.59 1944.19 1197.78C1944.06 1196.14 1945.04 1194.62 1946.86 1194.41C1948.5 1194.28 1950.02 1195.26 1950.23 1197.08C1950.45 1198.46 1949.73 1199.65 1948.52 1200.22C1948.17 1200.38 1947.99 1200.46 1947.56 1200.45Z" fill="url(#paint2_linear)" fill-opacity="0.1"/>
<path d="M1966.95 1273.15C1983.21 1265.54 1990.22 1246.18 1982.61 1229.92C1974.99 1213.66 1955.64 1206.65 1939.38 1214.27C1923.12 1221.88 1916.11 1241.24 1923.72 1257.5C1931.34 1273.76 1950.69 1280.77 1966.95 1273.15Z" fill="url(#paint3_linear)" fill-opacity="0.1"/>
<path d="M1659.48 1882.55C1658.75 1880.98 1659.4 1879.19 1660.97 1878.45C1662.53 1877.72 1664.32 1878.37 1665.06 1879.93C1665.79 1881.5 1665.14 1883.29 1663.58 1884.03C1662.01 1884.76 1660.22 1884.11 1659.48 1882.55ZM1631.78 1885.53C1630.25 1884.98 1629.43 1883.24 1629.99 1881.7C1630.54 1880.17 1632.29 1879.35 1633.82 1879.91C1635.35 1880.46 1636.17 1882.2 1635.62 1883.74C1635.34 1884.51 1634.8 1885.18 1634.11 1885.51C1633.33 1885.66 1632.55 1885.81 1631.78 1885.53ZM1681.26 1862.36C1679.72 1861.81 1678.91 1860.07 1679.46 1858.53C1680.02 1857 1681.76 1856.18 1683.3 1856.74C1684.83 1857.29 1685.65 1859.03 1685.09 1860.57C1684.81 1861.34 1684.28 1862.01 1683.58 1862.34C1682.8 1862.49 1682.03 1862.64 1681.26 1862.36ZM1608.32 1864.02C1607.59 1862.45 1608.24 1860.66 1609.81 1859.93C1611.37 1859.19 1613.17 1859.84 1613.9 1861.41C1614.63 1862.98 1613.99 1864.77 1612.59 1865.42C1610.85 1866.24 1609.06 1865.59 1608.32 1864.02ZM1678.18 1831.3C1678.1 1831.13 1678.1 1831.13 1678.18 1831.3C1677.45 1829.74 1678.1 1827.95 1679.67 1827.21C1681.23 1826.48 1683.02 1827.13 1683.76 1828.69C1684.49 1830.26 1683.84 1832.05 1682.28 1832.79C1680.71 1833.52 1678.84 1832.7 1678.18 1831.3ZM1608.69 1836.23C1607.16 1835.68 1606.34 1833.93 1606.9 1832.4C1607.46 1830.87 1609.2 1830.05 1610.73 1830.61C1612.27 1831.16 1613.08 1832.9 1612.53 1834.44C1612.25 1835.21 1611.72 1835.88 1611.02 1836.21C1610.24 1836.36 1609.46 1836.51 1608.69 1836.23ZM1657.91 1812.97C1656.38 1812.41 1655.56 1810.67 1656.12 1809.14C1656.67 1807.6 1658.42 1806.79 1659.95 1807.34C1661.49 1807.9 1662.3 1809.64 1661.75 1811.18C1661.47 1811.94 1660.94 1812.62 1660.24 1812.94C1659.46 1813.1 1658.68 1813.25 1657.91 1812.97ZM1626.77 1812.69C1626.03 1811.12 1626.68 1809.33 1628.08 1808.68C1629.64 1807.94 1631.43 1808.59 1632.09 1809.98C1632.82 1811.55 1632.17 1813.34 1630.61 1814.08C1629.29 1814.9 1627.5 1814.25 1626.77 1812.69Z" fill="url(#paint4_linear)" fill-opacity="0.1"/>
<path d="M1657.38 1870.79C1670.85 1864.48 1676.65 1848.45 1670.34 1834.98C1664.04 1821.51 1648 1815.7 1634.53 1822.01C1621.06 1828.32 1615.26 1844.35 1621.56 1857.82C1627.87 1871.29 1643.91 1877.09 1657.38 1870.79Z" fill="url(#paint5_linear)" fill-opacity="0.1"/>
<path d="M494.574 2141.96C493.84 2140.39 494.488 2138.6 496.056 2137.86C497.624 2137.13 499.414 2137.78 500.067 2139.17C500.801 2140.74 500.153 2142.53 498.759 2143.18C497.099 2144.17 495.308 2143.53 494.574 2141.96ZM466.873 2144.95C465.338 2144.39 464.522 2142.65 465.078 2141.11C465.634 2139.58 467.376 2138.76 468.91 2139.32C470.445 2139.87 471.261 2141.62 470.705 2143.15C470.427 2143.92 469.894 2144.59 469.197 2144.92C468.418 2145.07 467.64 2145.22 466.873 2144.95ZM516.092 2121.68C514.558 2121.13 513.742 2119.39 514.298 2117.85C514.853 2116.32 516.595 2115.5 518.13 2116.06C519.665 2116.61 520.481 2118.35 519.925 2119.89C519.647 2120.66 519.114 2121.33 518.417 2121.66C517.72 2121.98 516.941 2122.14 516.092 2121.68ZM443.241 2123.51C442.507 2121.95 443.155 2120.16 444.723 2119.42C446.291 2118.69 448.081 2119.34 448.816 2120.9C449.55 2122.47 448.901 2124.26 447.334 2125C445.766 2125.73 443.975 2125.08 443.241 2123.51ZM513.099 2090.8C513.017 2090.62 513.017 2090.62 513.099 2090.8C512.365 2089.23 513.013 2087.44 514.407 2086.79C515.975 2086.05 517.765 2086.7 518.418 2088.1C518.418 2088.1 518.418 2088.1 518.5 2088.27C519.234 2089.84 518.585 2091.63 517.018 2092.36C515.542 2092.84 513.752 2092.19 513.099 2090.8ZM443.529 2095.55C441.994 2095 441.178 2093.25 441.734 2091.72C442.289 2090.18 444.032 2089.37 445.566 2089.92C447.101 2090.48 447.917 2092.22 447.361 2093.76C447.083 2094.52 446.55 2095.2 445.853 2095.53C445.156 2095.85 444.296 2095.83 443.529 2095.55ZM492.923 2072.21C491.388 2071.65 490.572 2069.91 491.128 2068.38C491.683 2066.84 493.426 2066.03 494.96 2066.58C496.495 2067.14 497.311 2068.88 496.755 2070.41C496.477 2071.18 495.944 2071.86 495.247 2072.18C494.55 2072.51 493.772 2072.66 492.923 2072.21ZM461.684 2072.18C460.95 2070.61 461.599 2068.82 463.166 2068.09C464.734 2067.35 466.525 2068 467.259 2069.57C467.993 2071.14 467.345 2072.93 465.951 2073.58C464.209 2074.4 462.419 2073.75 461.684 2072.18Z" fill="url(#paint6_linear)" fill-opacity="0.1"/>
<path d="M492.292 2130.28C505.761 2123.97 511.567 2107.94 505.259 2094.47C498.951 2081 482.918 2075.19 469.448 2081.5C455.978 2087.81 450.172 2103.84 456.48 2117.31C462.788 2130.78 478.822 2136.59 492.292 2130.28Z" fill="url(#paint7_linear)" fill-opacity="0.1"/>
<path d="M1213.26 1883.13C1211.7 1883.44 1210.01 1882.53 1209.62 1880.8C1209.32 1879.25 1210.22 1877.55 1211.95 1877.16C1213.51 1876.86 1215.21 1877.76 1215.59 1879.49C1215.81 1880.88 1215.18 1882.24 1213.96 1882.81C1213.61 1882.97 1213.43 1883.05 1213.26 1883.13ZM1237.19 1869.38C1236.19 1868.15 1236.33 1866.17 1237.73 1865.09C1238.96 1864.09 1240.94 1864.22 1242.02 1865.63C1243.02 1866.86 1242.89 1868.84 1241.48 1869.92C1241.31 1870 1241.13 1870.08 1240.79 1870.24C1239.57 1870.82 1238.11 1870.43 1237.19 1869.38ZM1182.03 1882.68C1180.41 1882.38 1179.42 1880.72 1179.89 1879.01C1180.19 1877.38 1181.85 1876.39 1183.56 1876.86C1185.19 1877.16 1186.18 1878.82 1185.7 1880.53C1185.51 1881.48 1184.8 1882.23 1184.1 1882.56C1183.58 1882.8 1182.8 1882.96 1182.03 1882.68ZM1257.13 1847.08C1255.69 1846.27 1255.04 1844.45 1255.68 1843.09C1256.49 1841.65 1258.32 1841 1259.68 1841.64C1261.12 1842.45 1261.76 1844.28 1261.12 1845.64C1260.76 1846.23 1260.32 1846.65 1259.63 1846.98C1258.76 1847.38 1257.9 1847.36 1257.13 1847.08ZM1154.16 1868.97C1152.81 1867.9 1152.6 1866.09 1153.66 1864.74C1154.73 1863.39 1156.54 1863.18 1157.89 1864.24C1159.24 1865.31 1159.46 1867.12 1158.39 1868.47C1158.12 1868.81 1157.85 1869.15 1157.33 1869.39C1156.29 1869.88 1155.17 1869.77 1154.16 1868.97ZM1265.35 1818.38C1263.63 1818.34 1262.38 1817.01 1262.42 1815.29C1262.46 1813.57 1263.79 1812.32 1265.51 1812.36C1267.23 1812.4 1268.48 1813.73 1268.44 1815.45C1268.41 1816.74 1267.78 1817.67 1266.74 1818.16C1266.13 1818.23 1265.78 1818.39 1265.35 1818.38ZM1135 1844.38C1134.26 1842.81 1134.91 1841.02 1136.48 1840.29C1138.05 1839.55 1139.84 1840.2 1140.57 1841.77C1141.31 1843.34 1140.66 1845.13 1139.26 1845.78C1137.52 1846.59 1135.73 1845.95 1135 1844.38ZM1256.25 1787.6C1256.25 1787.6 1256.16 1787.42 1256.25 1787.6C1256.16 1787.42 1256.16 1787.42 1256.25 1787.6C1255.43 1785.85 1256.08 1784.06 1257.65 1783.33C1259.21 1782.6 1261.01 1783.24 1261.74 1784.81L1261.82 1784.99L1261.9 1785.16C1262.64 1786.73 1261.99 1788.52 1260.42 1789.25C1258.69 1789.64 1256.9 1788.99 1256.25 1787.6ZM1131.31 1817C1129.59 1816.96 1128.33 1815.64 1128.38 1813.92C1128.42 1812.2 1129.75 1810.94 1131.47 1810.98C1133.19 1811.03 1134.44 1812.35 1134.4 1814.07C1134.36 1815.36 1133.74 1816.29 1132.69 1816.78C1132.17 1817.03 1131.74 1817.01 1131.31 1817ZM1238.59 1764.85C1237.24 1763.79 1237.03 1761.97 1238.09 1760.62C1239.16 1759.27 1240.97 1759.06 1242.32 1760.13C1243.67 1761.2 1243.88 1763.01 1242.82 1764.36C1242.55 1764.7 1242.11 1765.12 1241.76 1765.28C1240.71 1765.77 1239.6 1765.65 1238.59 1764.85ZM1136.97 1787.8C1135.52 1786.99 1134.88 1785.17 1135.52 1783.81C1136.33 1782.37 1138.15 1781.72 1139.51 1782.36C1140.96 1783.17 1141.6 1785 1140.96 1786.36C1140.6 1786.95 1140.16 1787.37 1139.46 1787.7C1138.67 1788.28 1137.81 1788.26 1136.97 1787.8ZM1213 1752.41C1211.38 1752.11 1210.39 1750.45 1210.69 1748.82C1210.99 1747.19 1212.65 1746.2 1214.35 1746.68C1215.98 1746.98 1216.97 1748.64 1216.5 1750.35C1216.3 1751.29 1215.59 1752.04 1214.9 1752.37C1214.29 1752.44 1213.69 1752.51 1213 1752.41ZM1154.62 1763.82C1153.62 1762.59 1153.76 1760.61 1155.16 1759.53C1156.39 1758.53 1158.37 1758.66 1159.45 1760.07C1160.45 1761.3 1160.31 1763.27 1158.91 1764.36C1158.74 1764.44 1158.56 1764.52 1158.21 1764.68C1156.99 1765.25 1155.54 1764.87 1154.62 1763.82ZM1184.61 1752.11C1183.05 1752.41 1181.36 1751.51 1180.97 1749.78C1180.67 1748.22 1181.57 1746.52 1183.3 1746.14C1184.86 1745.83 1186.56 1746.74 1186.94 1748.47C1187.17 1749.85 1186.53 1751.21 1185.31 1751.78C1185.04 1752.12 1184.79 1752.03 1184.61 1752.11Z" fill="url(#paint8_linear)" fill-opacity="0.1"/>
<path d="M1218.15 1856.84C1241.44 1845.94 1251.47 1818.22 1240.57 1794.94C1229.66 1771.65 1201.95 1761.62 1178.67 1772.52C1155.38 1783.43 1145.35 1811.14 1156.25 1834.43C1167.15 1857.71 1194.87 1867.74 1218.15 1856.84Z" fill="url(#paint9_linear)" fill-opacity="0.1"/>
<path d="M2049.29 1994.62C2055.35 1991.78 2057.96 1984.56 2055.12 1978.5C2052.28 1972.44 2045.07 1969.83 2039.01 1972.67C2032.94 1975.51 2030.33 1982.72 2033.17 1988.78C2036.01 1994.84 2043.22 1997.46 2049.29 1994.62Z" fill="url(#paint10_linear)" fill-opacity="0.1"/>
<path d="M1875.31 1638.09C1881.37 1635.25 1883.98 1628.04 1881.15 1621.98C1878.31 1615.91 1871.09 1613.3 1865.03 1616.14C1858.97 1618.98 1856.36 1626.19 1859.2 1632.25C1862.03 1638.32 1869.25 1640.93 1875.31 1638.09Z" fill="url(#paint11_linear)" fill-opacity="0.1"/>
<path d="M1484.72 1382.37C1490.78 1379.53 1493.4 1372.31 1490.56 1366.25C1487.72 1360.19 1480.5 1357.58 1474.44 1360.42C1468.38 1363.25 1465.77 1370.47 1468.61 1376.53C1471.45 1382.59 1478.66 1385.21 1484.72 1382.37Z" fill="url(#paint12_linear)" fill-opacity="0.1"/>
<path d="M216.51 1512.36C219.366 1518.46 216.772 1525.62 210.675 1528.48C204.577 1531.33 197.415 1528.74 194.56 1522.64C191.704 1516.55 194.298 1509.38 200.395 1506.53C206.492 1503.67 213.655 1506.27 216.51 1512.36Z" fill="url(#paint13_linear)" fill-opacity="0.1"/>
<path d="M249.484 1454.86C255.546 1452.02 258.158 1444.81 255.32 1438.75C252.481 1432.69 245.266 1430.07 239.205 1432.91C233.143 1435.75 230.531 1442.97 233.369 1449.03C236.208 1455.09 243.423 1457.7 249.484 1454.86Z" fill="url(#paint14_linear)" fill-opacity="0.1"/>
<path d="M296.597 1774.49C293.813 1768.4 286.622 1765.72 280.535 1768.5C274.447 1771.29 271.769 1778.48 274.553 1784.57C277.336 1790.65 284.527 1793.33 290.615 1790.55C296.702 1787.76 299.38 1780.57 296.597 1774.49Z" fill="url(#paint15_linear)" fill-opacity="0.1"/>
<path d="M1001.91 1474.01C1004.77 1480.11 1002.17 1487.27 996.074 1490.13C989.977 1492.98 982.815 1490.39 979.959 1484.29C977.104 1478.19 979.697 1471.03 985.795 1468.18C991.892 1465.32 999.054 1467.91 1001.91 1474.01Z" fill="url(#paint16_linear)" fill-opacity="0.1"/>
<path d="M1069.62 2426.43C1075.68 2423.59 1078.29 2416.37 1075.46 2410.31C1072.62 2404.25 1065.4 2401.64 1059.34 2404.48C1053.28 2407.32 1050.67 2414.53 1053.51 2420.59C1056.34 2426.65 1063.56 2429.27 1069.62 2426.43Z" fill="url(#paint17_linear)" fill-opacity="0.1"/>
<path d="M1450.69 2034.07C1456.75 2031.23 1459.36 2024.01 1456.52 2017.95C1453.69 2011.89 1446.47 2009.28 1440.41 2012.12C1434.35 2014.95 1431.74 2022.17 1434.57 2028.23C1437.41 2034.29 1444.63 2036.9 1450.69 2034.07Z" fill="url(#paint18_linear)" fill-opacity="0.1"/>
<path d="M1682.9 1155.1C1688.96 1152.26 1691.57 1145.05 1688.73 1138.98C1685.89 1132.92 1678.68 1130.31 1672.62 1133.15C1666.56 1135.99 1663.94 1143.2 1666.78 1149.26C1669.62 1155.33 1676.84 1157.94 1682.9 1155.1Z" fill="url(#paint19_linear)" fill-opacity="0.1"/>
<path d="M1363.28 1322.62C1369.34 1319.78 1371.95 1312.57 1369.11 1306.51C1366.28 1300.45 1359.06 1297.83 1353 1300.67C1346.94 1303.51 1344.33 1310.73 1347.16 1316.79C1350 1322.85 1357.22 1325.46 1363.28 1322.62Z" fill="url(#paint20_linear)" fill-opacity="0.1"/>
<path d="M893.904 1829.41C896.759 1835.51 894.166 1842.67 888.068 1845.52C881.971 1848.38 874.809 1845.79 871.953 1839.69C869.098 1833.59 871.691 1826.43 877.789 1823.57C883.886 1820.72 891.048 1823.31 893.904 1829.41Z" fill="url(#paint21_linear)" fill-opacity="0.1"/>
<path d="M653.539 2312.22C656.395 2318.31 653.801 2325.48 647.704 2328.33C641.607 2331.19 634.444 2328.59 631.589 2322.5C628.734 2316.4 631.327 2309.24 637.424 2306.38C643.522 2303.53 650.684 2306.12 653.539 2312.22Z" fill="url(#paint22_linear)" fill-opacity="0.1"/>
<path d="M715.77 2613.38C721.832 2610.54 724.444 2603.33 721.606 2597.27C718.767 2591.2 711.552 2588.59 705.491 2591.43C699.429 2594.27 696.817 2601.48 699.655 2607.55C702.494 2613.61 709.709 2616.22 715.77 2613.38Z" fill="url(#paint23_linear)" fill-opacity="0.1"/>
<path d="M456.801 1742.89C459.657 1748.98 457.063 1756.14 450.966 1759C444.868 1761.86 437.706 1759.26 434.851 1753.16C431.995 1747.07 434.589 1739.91 440.686 1737.05C446.784 1734.19 453.946 1736.79 456.801 1742.89Z" fill="url(#paint24_linear)" fill-opacity="0.1"/>
<path d="M2424.23 1653.13C2430.29 1650.29 2432.9 1643.08 2430.06 1637.02C2427.23 1630.95 2420.01 1628.34 2413.95 1631.18C2407.89 1634.02 2405.27 1641.23 2408.11 1647.3C2410.95 1653.36 2418.17 1655.97 2424.23 1653.13Z" fill="url(#paint25_linear)" fill-opacity="0.1"/>
<path d="M1682.7 1987.01C1685.56 1993.11 1682.97 2000.27 1676.87 2003.13C1670.77 2005.98 1663.61 2003.39 1660.75 1997.29C1657.9 1991.19 1660.49 1984.03 1666.59 1981.18C1672.69 1978.32 1679.85 1980.91 1682.7 1987.01Z" fill="url(#paint26_linear)" fill-opacity="0.1"/>
<path d="M2205.17 930.907C2211.23 928.068 2213.84 920.853 2211 914.792C2208.17 908.73 2200.95 906.118 2194.89 908.956C2188.83 911.795 2186.22 919.01 2189.05 925.071C2191.89 931.133 2199.11 933.745 2205.17 930.907Z" fill="url(#paint27_linear)" fill-opacity="0.1"/>
<path d="M2495.9 648.186C2501.96 645.348 2504.58 638.133 2501.74 632.071C2498.9 626.01 2491.68 623.397 2485.62 626.236C2479.56 629.075 2476.95 636.29 2479.79 642.351C2482.63 648.413 2489.84 651.025 2495.9 648.186Z" fill="url(#paint28_linear)" fill-opacity="0.1"/>
<path d="M3024.47 1033.44C3030.53 1030.6 3033.15 1023.39 3030.31 1017.33C3027.47 1011.26 3020.25 1008.65 3014.19 1011.49C3008.13 1014.33 3005.52 1021.54 3008.36 1027.61C3011.2 1033.67 3018.41 1036.28 3024.47 1033.44Z" fill="url(#paint29_linear)" fill-opacity="0.1"/>
<path d="M2870.95 648.006C2877.01 645.167 2879.62 637.952 2876.78 631.891C2873.94 625.829 2866.73 623.217 2860.67 626.055C2854.61 628.894 2851.99 636.109 2854.83 642.171C2857.67 648.232 2864.88 650.845 2870.95 648.006Z" fill="url(#paint30_linear)" fill-opacity="0.1"/>
<path d="M2713.72 369.876C2716.57 375.973 2713.98 383.135 2707.88 385.991C2701.79 388.846 2694.62 386.253 2691.77 380.155C2688.91 374.058 2691.51 366.896 2697.6 364.04C2703.7 361.185 2710.86 363.778 2713.72 369.876Z" fill="url(#paint31_linear)" fill-opacity="0.1"/>
<path d="M2291.85 665.149C2294.71 671.247 2292.12 678.409 2286.02 681.264C2279.92 684.12 2272.76 681.526 2269.9 675.429C2267.05 669.332 2269.64 662.169 2275.74 659.314C2281.84 656.458 2289 659.052 2291.85 665.149Z" fill="url(#paint32_linear)" fill-opacity="0.1"/>
<path d="M3006.48 1274.89C3009.34 1280.98 3006.74 1288.15 3000.65 1291C2994.55 1293.86 2987.39 1291.26 2984.53 1285.17C2981.68 1279.07 2984.27 1271.91 2990.37 1269.05C2996.46 1266.2 3003.63 1268.79 3006.48 1274.89Z" fill="url(#paint33_linear)" fill-opacity="0.1"/>
<path d="M3147.68 1195.38C3153.74 1192.54 3156.35 1185.33 3153.51 1179.27C3150.68 1173.2 3143.46 1170.59 3137.4 1173.43C3131.34 1176.27 3128.72 1183.48 3131.56 1189.55C3134.4 1195.61 3141.62 1198.22 3147.68 1195.38Z" fill="url(#paint34_linear)" fill-opacity="0.1"/>
<path d="M3235.08 1511.74C3241.14 1508.9 3243.75 1501.68 3240.91 1495.62C3238.08 1489.56 3230.86 1486.95 3224.8 1489.78C3218.74 1492.62 3216.12 1499.84 3218.96 1505.9C3221.8 1511.96 3229.02 1514.57 3235.08 1511.74Z" fill="url(#paint35_linear)" fill-opacity="0.1"/>
<path d="M2919.45 1456.9C2925.51 1454.06 2928.13 1446.85 2925.29 1440.79C2922.45 1434.72 2915.23 1432.11 2909.17 1434.95C2903.11 1437.79 2900.5 1445 2903.34 1451.07C2906.17 1457.13 2913.39 1459.74 2919.45 1456.9Z" fill="url(#paint36_linear)" fill-opacity="0.1"/>
<path d="M691.171 1718.09C697.232 1715.26 699.845 1708.04 697.006 1701.98C694.168 1695.92 686.953 1693.31 680.891 1696.14C674.83 1698.98 672.217 1706.2 675.056 1712.26C677.894 1718.32 685.109 1720.93 691.171 1718.09Z" fill="url(#paint37_linear)" fill-opacity="0.1"/>
<path d="M788.143 2248.12C794.205 2245.28 796.818 2238.06 793.979 2232C791.14 2225.94 783.925 2223.33 777.864 2226.17C771.802 2229.01 769.19 2236.22 772.028 2242.28C774.867 2248.34 782.082 2250.96 788.143 2248.12Z" fill="url(#paint38_linear)" fill-opacity="0.1"/>
<path d="M2321.08 1561.24L2320.05 1561.3L1870.06 1628.23L1869.72 1627.96L1479.8 1372.77L1198.73 1815.38L1198.3 1815.37L883.673 1835.69L783.934 2237.77L783.586 2237.93L643.146 2318.14L642.156 2316.48L782.247 2236.43L882.09 1833.67L882.694 1833.6L1197.66 1813.54L1479.18 1370.09L1480.03 1370.54L1870.54 1626.09L2318.8 1559.55L2198.68 918.863L2200.05 919.071L2867.15 1006.85L2864.85 637.264L2701.95 375.597L2703.53 374.433L2866.76 636.797L2866.84 636.971L2869.07 1009.14L2867.96 1009.03L2201.29 921.254L2321.08 1561.24Z" fill="url(#paint39_linear)" fill-opacity="0.1"/>
<path d="M1647.3 1847.46L1198.82 1815.55L783.319 2238.27L782.726 2237.91L478.802 2106.01L882.46 1832.64L990.652 1476.73L1198.95 1813.58L1644.35 1845.24L1478.21 1371.18L1677.46 1142.14L1678.98 1143.55L1480.52 1371.59L1647.3 1847.46ZM483.031 2105.52L782.781 2235.76L1197.13 1814.22L991.135 1481.39L884.147 1833.98L883.799 1834.14L483.031 2105.52Z" fill="url(#paint40_linear)" fill-opacity="0.1"/>
<path d="M2045.8 1989.45L1869.87 1628.74L1646.45 1847.01L1445.6 2024.56L1444.92 2024.02L1198.79 1816.41L1064.64 2419.42L880.837 1835.53L882.661 1834.89L1064.41 2411.66L1197.6 1812.51L1445.58 2021.8L1645.37 1845.61L1870.64 1625.41L2042.49 1977.84L1952.35 1245.15L1479.47 1372.51L1357.77 1312.67L1358.67 1310.97L1479.6 1370.53L1952.06 1243.16L1952.66 1243.09L2199.35 919.398L2199.53 919.316L2602.02 748.242L2488.38 636.203L2490.88 636.095L2870.82 635.955L2605.8 748.597L2870.21 1008.4L2868.48 1008.78L1954.35 1244.43L2045.8 1989.45ZM1955.61 1242.14L2866.11 1007.34L2603.71 749.576L2200.69 920.895L1955.61 1242.14ZM2604.11 747.263L2860.96 638.025L2493.32 638.137L2604.11 747.263Z" fill="url(#paint41_linear)" fill-opacity="0.1"/>
<path d="M3229.15 1501.34L2995.52 1279.6L2752.25 1201.92L2320.04 1561.73L2319.36 1561.2L1953.81 1245.53L1871.09 1628.17L1870.15 1627.97L1523.45 1569.85L1198.74 1815.38L1198.56 1815.46L740.78 2001.38L784.544 2240.88L629.033 2046.7L478.584 2107.81L556.661 1956.12L202.788 1513.9L685.716 1705.99L990.619 1478.02L991.049 1478.04L1523 1567.51L1952.23 1243.08L1952.52 1241.88L1953.54 1242.69L2748.17 1200.01L2198.81 920.502L2199.09 919.735L2279.86 669.918L2281.82 670.485L2201.33 919.534L2752.3 1199.77L2996.6 1277.82L2996.68 1277.99L3230.65 1500L3229.15 1501.34ZM1955.72 1244.63L2320.02 1558.98L2748.98 1201.75L1955.72 1244.63ZM631.205 2045.9L781.291 2233.48L739.038 2002.19L631.205 2045.9ZM1525.65 1568.18L1869.43 1625.98L1951.55 1246.16L1525.65 1568.18ZM740.487 1999.39L1197.75 1813.72L1520.88 1569.35L991.25 1480.28L687.751 1707.16L888.415 1835.38L703.971 1799.4L740.487 1999.39ZM629.959 2044.14L738.664 2000.03L701.832 1798.92L645.488 1787.92L559.078 1955.84L629.959 2044.14ZM483.076 2103.8L627.961 2044.87L558.255 1957.71L483.076 2103.8ZM703.596 1797.24L878.45 1831.34L687.44 1709.22L703.596 1797.24ZM209.035 1518.63L557.658 1954.16L643.431 1787.61L440.063 1747.96L682.254 1706.76L209.035 1518.63ZM646.567 1786.14L701.457 1796.76L685.605 1710.29L646.567 1786.14ZM451.335 1747.99L644.428 1785.65L684.104 1708.45L451.335 1747.99Z" fill="url(#paint42_linear)" fill-opacity="0.1"/>
<path d="M2914.96 1447.32L2913.32 1447.45L2322.55 1561.19L2419.62 1641.48L2418.46 1643.09L2317.34 1559.6L2319.84 1559.49L2911.57 1445.51L2750.82 1200.68L2867.58 1006.87L2868.27 1006.97L3018.17 1020.89L3017.86 1022.94L2868.56 1008.96L2753.14 1200.65L2914.96 1447.32Z" fill="url(#paint43_linear)" fill-opacity="0.1"/>
<path d="M2756.99 1211.6C2763.05 1208.76 2765.67 1201.54 2762.83 1195.48C2759.99 1189.42 2752.77 1186.81 2746.71 1189.65C2740.65 1192.48 2738.04 1199.7 2740.88 1205.76C2743.71 1211.82 2750.93 1214.43 2756.99 1211.6Z" fill="url(#paint44_linear)" fill-opacity="0.1"/>
<path d="M2044.97 1984.96L2043.95 1984.59L1645.58 1847.42L1461.15 1743.89L1446.56 2023.89L1445.86 2024.22L1044.87 2153.59L1065.63 2417.46L1063.85 2416.38L780.69 2236.74L1042.67 2152.07L989.688 1477.4L991.386 1478.3L1459.17 1740.57L1478.58 1370.16L1479.78 1370.45L2112.26 1512.68L2143.56 1299.2L1951 1244.08L2173.39 1096.18L2199.56 918.026L2200.91 919.093L2307.52 1007.03L2869.16 633.761L2866.91 637.576L2536.56 1196.3L2917.77 1448.77L2427.44 1380.58L2320.38 1561.57L2319.7 1561.46L2113.83 1515.13L2044.97 1984.96ZM1461.21 1741.74L1646.4 1845.55L2043.32 1982.33L2111.87 1514.56L1480.58 1372.62L1461.21 1741.74ZM785.409 2237.29L1063.33 2413.44L1043.05 2154.23L785.409 2237.29ZM2428.52 1378.81L2909.02 1444.16L2535.4 1197.9L2428.52 1378.81ZM1044.75 2151.52L1444.62 2022.46L1459.2 1742.89L992.005 1480.99L1044.75 2151.52ZM2114.15 1513.07L2319.5 1559.22L2425.48 1380.02L2145.35 1299.85L2114.15 1513.07ZM2145.66 1297.79L2426.55 1378.24L2533.79 1196.74L2307.1 1009.77L2175.07 1097.52L2145.66 1297.79ZM2308.85 1008.53L2534.87 1194.96L2862.88 640.312L2308.85 1008.53ZM1955.58 1243.43L2143.7 1297.22L2172.8 1099.01L1955.58 1243.43ZM2200.75 921.929L2175.31 1094.85L2305.41 1008.44L2200.75 921.929Z" fill="url(#paint45_linear)" fill-opacity="0.1"/>
<path d="M782.35 2236.82L709.991 2602.16L711.878 2602.53L784.237 2237.19L782.35 2236.82Z" fill="url(#paint46_linear)" fill-opacity="0.1"/>
<path d="M243.561 1443.44L205.083 1515.8L206.782 1516.7L245.26 1444.34L243.561 1443.44Z" fill="url(#paint47_linear)" fill-opacity="0.1"/>
<path d="M285.422 1778.48L285.793 1780.37L446.046 1748.91L445.675 1747.02L285.422 1778.48Z" fill="url(#paint48_linear)" fill-opacity="0.1"/>
<path d="M1644.93 1846.68L1670.74 1992.54L1672.64 1992.21L1646.82 1846.35L1644.93 1846.68Z" fill="url(#paint49_linear)" fill-opacity="0.1"/>
<path d="M3142.19 1183.31L2995.76 1277.84L2996.81 1279.46L3143.23 1184.93L3142.19 1183.31Z" fill="url(#paint50_linear)" fill-opacity="0.1"/>
<path d="M1448.94 2021.72L1448.51 2021.7L480.069 2106.9L444.721 1747.48L445.418 1747.15L994.707 1476.32L483.227 2104.58L1447.61 2019.79L1949.99 1246.47L883.717 1833.97L882.727 1832.31L1956.08 1240.86L1953.84 1244.24L1448.94 2021.72ZM446.756 1748.65L481.796 2103.33L987.498 1482.25L446.756 1748.65Z" fill="url(#paint51_linear)" fill-opacity="0.1"/>
<path d="M2865.17 636.344L1869.54 1626.34L1870.89 1627.71L2866.53 637.708L2865.17 636.344Z" fill="url(#paint52_linear)" fill-opacity="0.1"/>
<path d="M2331.53 1613.49C2330.23 1613.89 2328.96 1612.99 2328.74 1611.61C2328.34 1610.31 2329.23 1609.04 2330.62 1608.82C2331.92 1608.42 2333.19 1609.32 2333.41 1610.7C2333.72 1611.82 2333.18 1612.93 2332.13 1613.42C2331.88 1613.33 2331.7 1613.41 2331.53 1613.49ZM2350.48 1602.7C2349.74 1601.56 2349.94 1600.19 2350.83 1599.36C2351.88 1598.44 2353.34 1598.82 2354.17 1599.7C2354.92 1600.84 2354.71 1602.21 2353.83 1603.05C2353.65 1603.13 2353.48 1603.21 2353.31 1603.29C2352.26 1603.78 2351.06 1603.49 2350.48 1602.7ZM2307.18 1613.21C2305.99 1612.92 2305.16 1611.61 2305.45 1610.41C2305.74 1609.21 2307.05 1608.39 2308.25 1608.67C2309.44 1608.96 2310.27 1610.28 2309.98 1611.47C2309.88 1612.16 2309.34 1612.83 2308.65 1613.16C2308.3 1613.32 2307.69 1613.39 2307.18 1613.21ZM2365.9 1585.28C2364.8 1584.74 2364.32 1583.26 2364.86 1582.16C2365.41 1581.06 2366.88 1580.58 2367.99 1581.12C2369.09 1581.67 2369.57 1583.14 2369.03 1584.25C2368.84 1584.76 2368.4 1585.18 2367.88 1585.42C2367.27 1585.49 2366.67 1585.56 2365.9 1585.28ZM2285.34 1602.41C2284.33 1601.61 2284.28 1600.14 2285.08 1599.13C2285.88 1598.12 2287.35 1598.07 2288.36 1598.87C2289.37 1599.67 2289.42 1601.13 2288.62 1602.15C2288.35 1602.48 2288.01 1602.65 2287.83 1602.73C2286.96 1603.14 2286.02 1602.94 2285.34 1602.41ZM2372.33 1562.73C2371.04 1562.7 2369.95 1561.72 2369.98 1560.43C2370.02 1559.14 2370.99 1558.05 2372.28 1558.08C2373.57 1558.12 2374.66 1559.09 2374.63 1560.38C2374.61 1561.24 2374.16 1562.09 2373.29 1562.5C2373.11 1562.58 2372.76 1562.74 2372.33 1562.73ZM2270.18 1583.17C2269.6 1581.95 2270.07 1580.67 2271.29 1580.1C2272.51 1579.53 2273.79 1579.99 2274.36 1581.21C2274.93 1582.43 2274.46 1583.71 2273.24 1584.28C2272.28 1584.95 2270.75 1584.39 2270.18 1583.17ZM2365.29 1538.63C2365.21 1538.45 2365.21 1538.45 2365.29 1538.63C2364.64 1537.23 2365.1 1535.95 2366.32 1535.38C2367.54 1534.81 2368.82 1535.27 2369.39 1536.49C2369.39 1536.49 2369.39 1536.49 2369.47 1536.67C2369.47 1536.67 2369.47 1536.67 2369.56 1536.84C2370.13 1538.06 2369.66 1539.34 2368.44 1539.91C2367.32 1540.23 2365.86 1539.85 2365.29 1538.63ZM2267.37 1561.76C2266.08 1561.72 2264.98 1560.75 2265.02 1559.46C2265.05 1558.17 2266.03 1557.07 2267.32 1557.11C2268.61 1557.14 2269.7 1558.12 2269.67 1559.41C2269.64 1560.27 2269.02 1561.2 2268.32 1561.52C2267.97 1561.69 2267.8 1561.77 2267.37 1561.76ZM2351.46 1520.89C2350.45 1520.09 2350.4 1518.62 2351.2 1517.61C2352 1516.6 2353.47 1516.55 2354.48 1517.35C2355.49 1518.15 2355.54 1519.62 2354.74 1520.63C2354.47 1520.96 2354.13 1521.13 2353.95 1521.21C2353.25 1521.54 2352.14 1521.42 2351.46 1520.89ZM2271.74 1538.89C2270.64 1538.35 2270.16 1536.87 2270.7 1535.77C2271.25 1534.66 2272.72 1534.18 2273.83 1534.73C2274.93 1535.27 2275.41 1536.75 2274.87 1537.85C2274.68 1538.36 2274.24 1538.78 2273.72 1539.03C2273.11 1539.1 2272.51 1539.17 2271.74 1538.89ZM2331.32 1510.99C2330.12 1510.7 2329.3 1509.39 2329.59 1508.19C2329.88 1506.99 2331.19 1506.17 2332.39 1506.46C2333.58 1506.74 2334.41 1508.06 2334.12 1509.25C2334.02 1509.94 2333.48 1510.61 2332.79 1510.94C2332.44 1511.1 2332.01 1511.09 2331.32 1510.99ZM2285.65 1520.06C2284.91 1518.92 2285.11 1517.55 2286 1516.71C2287.13 1515.97 2288.5 1516.17 2289.34 1517.05C2290.26 1518.11 2289.88 1519.56 2289 1520.4C2288.82 1520.48 2288.65 1520.57 2288.48 1520.65C2287.43 1521.14 2286.23 1520.85 2285.65 1520.06ZM2309.13 1510.76C2307.82 1511.16 2306.56 1510.27 2306.33 1508.89C2305.94 1507.58 2306.83 1506.32 2308.21 1506.09C2309.51 1505.7 2310.78 1506.59 2311 1507.97C2311.32 1509.1 2310.77 1510.2 2309.73 1510.69C2309.56 1510.78 2309.38 1510.86 2309.13 1510.76Z" fill="url(#paint53_linear)" fill-opacity="0.1"/>
<path d="M2335.5 1592.94C2353.78 1584.38 2361.66 1562.62 2353.1 1544.34C2344.54 1526.06 2322.78 1518.18 2304.5 1526.74C2286.22 1535.3 2278.34 1557.06 2286.9 1575.34C2295.46 1593.62 2317.22 1601.5 2335.5 1592.94Z" fill="url(#paint54_linear)" fill-opacity="0.1"/>
<defs>
<linearGradient id="paint0_linear" x1="2850.45" y1="970.281" x2="2885.78" y2="1045.71" gradientUnits="userSpaceOnUse">
<stop stop-color="white"/>
<stop offset="1" stop-color="#FCFCFC" stop-opacity="0"/>
</linearGradient>
<linearGradient id="paint1_linear" x1="2856.73" y1="983.695" x2="2879.58" y2="1032.47" gradientUnits="userSpaceOnUse">
<stop stop-color="white"/>
<stop offset="1" stop-color="#FCFCFC" stop-opacity="0"/>
</linearGradient>
<linearGradient id="paint2_linear" x1="1932.94" y1="1200.74" x2="1973.23" y2="1286.78" gradientUnits="userSpaceOnUse">
<stop stop-color="white"/>
<stop offset="1" stop-color="#FCFCFC" stop-opacity="0"/>
</linearGradient>
<linearGradient id="paint3_linear" x1="1939.38" y1="1214.27" x2="1966.95" y2="1273.15" gradientUnits="userSpaceOnUse">
<stop stop-color="white"/>
<stop offset="1" stop-color="#FCFCFC" stop-opacity="0"/>
</linearGradient>
<linearGradient id="paint4_linear" x1="1628.34" y1="1808.55" x2="1663.66" y2="1883.99" gradientUnits="userSpaceOnUse">
<stop stop-color="white"/>
<stop offset="1" stop-color="#FCFCFC" stop-opacity="0"/>
</linearGradient>
<linearGradient id="paint5_linear" x1="1634.53" y1="1822.01" x2="1657.38" y2="1870.79" gradientUnits="userSpaceOnUse">
<stop stop-color="white"/>
<stop offset="1" stop-color="#FCFCFC" stop-opacity="0"/>
</linearGradient>
<linearGradient id="paint6_linear" x1="463.166" y1="2068.09" x2="498.419" y2="2143.36" gradientUnits="userSpaceOnUse">
<stop stop-color="white"/>
<stop offset="1" stop-color="#FCFCFC" stop-opacity="0"/>
</linearGradient>
<linearGradient id="paint7_linear" x1="469.448" y1="2081.5" x2="492.292" y2="2130.28" gradientUnits="userSpaceOnUse">
<stop stop-color="white"/>
<stop offset="1" stop-color="#FCFCFC" stop-opacity="0"/>
</linearGradient>
<linearGradient id="paint8_linear" x1="1169.33" y1="1752.6" x2="1227.37" y2="1876.53" gradientUnits="userSpaceOnUse">
<stop stop-color="white"/>
<stop offset="1" stop-color="#FCFCFC" stop-opacity="0"/>
</linearGradient>
<linearGradient id="paint9_linear" x1="1178.67" y1="1772.52" x2="1218.15" y2="1856.84" gradientUnits="userSpaceOnUse">
<stop stop-color="white"/>
<stop offset="1" stop-color="#FCFCFC" stop-opacity="0"/>
</linearGradient>
<linearGradient id="paint10_linear" x1="2039.01" y1="1972.67" x2="2049.29" y2="1994.62" gradientUnits="userSpaceOnUse">
<stop stop-color="white"/>
<stop offset="1" stop-color="#FCFCFC" stop-opacity="0"/>
</linearGradient>
<linearGradient id="paint11_linear" x1="1865.03" y1="1616.14" x2="1875.31" y2="1638.09" gradientUnits="userSpaceOnUse">
<stop stop-color="white"/>
<stop offset="1" stop-color="#FCFCFC" stop-opacity="0"/>
</linearGradient>
<linearGradient id="paint12_linear" x1="1474.44" y1="1360.42" x2="1484.72" y2="1382.37" gradientUnits="userSpaceOnUse">
<stop stop-color="white"/>
<stop offset="1" stop-color="#FCFCFC" stop-opacity="0"/>
</linearGradient>
<linearGradient id="paint13_linear" x1="200.395" y1="1506.53" x2="210.675" y2="1528.48" gradientUnits="userSpaceOnUse">
<stop stop-color="white"/>
<stop offset="1" stop-color="#FCFCFC" stop-opacity="0"/>
</linearGradient>
<linearGradient id="paint14_linear" x1="239.205" y1="1432.91" x2="249.484" y2="1454.86" gradientUnits="userSpaceOnUse">
<stop stop-color="white"/>
<stop offset="1" stop-color="#FCFCFC" stop-opacity="0"/>
</linearGradient>
<linearGradient id="paint15_linear" x1="274.553" y1="1784.57" x2="296.597" y2="1774.49" gradientUnits="userSpaceOnUse">
<stop stop-color="white"/>
<stop offset="1" stop-color="#FCFCFC" stop-opacity="0"/>
</linearGradient>
<linearGradient id="paint16_linear" x1="985.795" y1="1468.18" x2="996.074" y2="1490.13" gradientUnits="userSpaceOnUse">
<stop stop-color="white"/>
<stop offset="1" stop-color="#FCFCFC" stop-opacity="0"/>
</linearGradient>
<linearGradient id="paint17_linear" x1="1059.34" y1="2404.48" x2="1069.62" y2="2426.43" gradientUnits="userSpaceOnUse">
<stop stop-color="white"/>
<stop offset="1" stop-color="#FCFCFC" stop-opacity="0"/>
</linearGradient>
<linearGradient id="paint18_linear" x1="1440.41" y1="2012.12" x2="1450.69" y2="2034.07" gradientUnits="userSpaceOnUse">
<stop stop-color="white"/>
<stop offset="1" stop-color="#FCFCFC" stop-opacity="0"/>
</linearGradient>
<linearGradient id="paint19_linear" x1="1672.62" y1="1133.15" x2="1682.9" y2="1155.1" gradientUnits="userSpaceOnUse">
<stop stop-color="white"/>
<stop offset="1" stop-color="#FCFCFC" stop-opacity="0"/>
</linearGradient>
<linearGradient id="paint20_linear" x1="1353" y1="1300.67" x2="1363.28" y2="1322.62" gradientUnits="userSpaceOnUse">
<stop stop-color="white"/>
<stop offset="1" stop-color="#FCFCFC" stop-opacity="0"/>
</linearGradient>
<linearGradient id="paint21_linear" x1="877.789" y1="1823.57" x2="888.068" y2="1845.52" gradientUnits="userSpaceOnUse">
<stop stop-color="white"/>
<stop offset="1" stop-color="#FCFCFC" stop-opacity="0"/>
</linearGradient>
<linearGradient id="paint22_linear" x1="637.424" y1="2306.38" x2="647.704" y2="2328.33" gradientUnits="userSpaceOnUse">
<stop stop-color="white"/>
<stop offset="1" stop-color="#FCFCFC" stop-opacity="0"/>
</linearGradient>
<linearGradient id="paint23_linear" x1="705.491" y1="2591.43" x2="715.77" y2="2613.38" gradientUnits="userSpaceOnUse">
<stop stop-color="white"/>
<stop offset="1" stop-color="#FCFCFC" stop-opacity="0"/>
</linearGradient>
<linearGradient id="paint24_linear" x1="440.686" y1="1737.05" x2="450.966" y2="1759" gradientUnits="userSpaceOnUse">
<stop stop-color="white"/>
<stop offset="1" stop-color="#FCFCFC" stop-opacity="0"/>
</linearGradient>
<linearGradient id="paint25_linear" x1="2413.95" y1="1631.18" x2="2424.23" y2="1653.13" gradientUnits="userSpaceOnUse">
<stop stop-color="white"/>
<stop offset="1" stop-color="#FCFCFC" stop-opacity="0"/>
</linearGradient>
<linearGradient id="paint26_linear" x1="1666.59" y1="1981.18" x2="1676.87" y2="2003.13" gradientUnits="userSpaceOnUse">
<stop stop-color="white"/>
<stop offset="1" stop-color="#FCFCFC" stop-opacity="0"/>
</linearGradient>
<linearGradient id="paint27_linear" x1="2194.89" y1="908.956" x2="2205.17" y2="930.907" gradientUnits="userSpaceOnUse">
<stop stop-color="white"/>
<stop offset="1" stop-color="#FCFCFC" stop-opacity="0"/>
</linearGradient>
<linearGradient id="paint28_linear" x1="2485.62" y1="626.236" x2="2495.9" y2="648.186" gradientUnits="userSpaceOnUse">
<stop stop-color="white"/>
<stop offset="1" stop-color="#FCFCFC" stop-opacity="0"/>
</linearGradient>
<linearGradient id="paint29_linear" x1="3014.19" y1="1011.49" x2="3024.47" y2="1033.44" gradientUnits="userSpaceOnUse">
<stop stop-color="white"/>
<stop offset="1" stop-color="#FCFCFC" stop-opacity="0"/>
</linearGradient>
<linearGradient id="paint30_linear" x1="2860.67" y1="626.055" x2="2870.95" y2="648.006" gradientUnits="userSpaceOnUse">
<stop stop-color="white"/>
<stop offset="1" stop-color="#FCFCFC" stop-opacity="0"/>
</linearGradient>
<linearGradient id="paint31_linear" x1="2697.6" y1="364.04" x2="2707.88" y2="385.991" gradientUnits="userSpaceOnUse">
<stop stop-color="white"/>
<stop offset="1" stop-color="#FCFCFC" stop-opacity="0"/>
</linearGradient>
<linearGradient id="paint32_linear" x1="2275.74" y1="659.314" x2="2286.02" y2="681.264" gradientUnits="userSpaceOnUse">
<stop stop-color="white"/>
<stop offset="1" stop-color="#FCFCFC" stop-opacity="0"/>
</linearGradient>
<linearGradient id="paint33_linear" x1="2990.37" y1="1269.05" x2="3000.65" y2="1291" gradientUnits="userSpaceOnUse">
<stop stop-color="white"/>
<stop offset="1" stop-color="#FCFCFC" stop-opacity="0"/>
</linearGradient>
<linearGradient id="paint34_linear" x1="3137.4" y1="1173.43" x2="3147.68" y2="1195.38" gradientUnits="userSpaceOnUse">
<stop stop-color="white"/>
<stop offset="1" stop-color="#FCFCFC" stop-opacity="0"/>
</linearGradient>
<linearGradient id="paint35_linear" x1="3224.8" y1="1489.78" x2="3235.08" y2="1511.74" gradientUnits="userSpaceOnUse">
<stop stop-color="white"/>
<stop offset="1" stop-color="#FCFCFC" stop-opacity="0"/>
</linearGradient>
<linearGradient id="paint36_linear" x1="2909.17" y1="1434.95" x2="2919.45" y2="1456.9" gradientUnits="userSpaceOnUse">
<stop stop-color="white"/>
<stop offset="1" stop-color="#FCFCFC" stop-opacity="0"/>
</linearGradient>
<linearGradient id="paint37_linear" x1="680.891" y1="1696.14" x2="691.171" y2="1718.09" gradientUnits="userSpaceOnUse">
<stop stop-color="white"/>
<stop offset="1" stop-color="#FCFCFC" stop-opacity="0"/>
</linearGradient>
<linearGradient id="paint38_linear" x1="777.864" y1="2226.17" x2="788.143" y2="2248.12" gradientUnits="userSpaceOnUse">
<stop stop-color="white"/>
<stop offset="1" stop-color="#FCFCFC" stop-opacity="0"/>
</linearGradient>
<linearGradient id="paint39_linear" x1="1501.83" y1="937.2" x2="1888.87" y2="1763.65" gradientUnits="userSpaceOnUse">
<stop stop-color="white"/>
<stop offset="1" stop-color="#FCFCFC" stop-opacity="0"/>
</linearGradient>
<linearGradient id="paint40_linear" x1="1001.18" y1="1458.85" x2="1266.65" y2="2025.73" gradientUnits="userSpaceOnUse">
<stop stop-color="white"/>
<stop offset="1" stop-color="#FCFCFC" stop-opacity="0"/>
</linearGradient>
<linearGradient id="paint41_linear" x1="1718.98" y1="996.519" x2="2159.13" y2="1936.38" gradientUnits="userSpaceOnUse">
<stop stop-color="white"/>
<stop offset="1" stop-color="#FCFCFC" stop-opacity="0"/>
</linearGradient>
<linearGradient id="paint42_linear" x1="1446.12" y1="931.639" x2="1985.64" y2="2083.69" gradientUnits="userSpaceOnUse">
<stop stop-color="white"/>
<stop offset="1" stop-color="#FCFCFC" stop-opacity="0"/>
</linearGradient>
<linearGradient id="paint43_linear" x1="2594.86" y1="1134.59" x2="2772.55" y2="1514.01" gradientUnits="userSpaceOnUse">
<stop stop-color="white"/>
<stop offset="1" stop-color="#FCFCFC" stop-opacity="0"/>
</linearGradient>
<linearGradient id="paint44_linear" x1="2746.71" y1="1189.65" x2="2756.99" y2="1211.6" gradientUnits="userSpaceOnUse">
<stop stop-color="white"/>
<stop offset="1" stop-color="#FCFCFC" stop-opacity="0"/>
</linearGradient>
<linearGradient id="paint45_linear" x1="1690.88" y1="1149.02" x2="2075.63" y2="1970.6" gradientUnits="userSpaceOnUse">
<stop stop-color="white"/>
<stop offset="1" stop-color="#FCFCFC" stop-opacity="0"/>
</linearGradient>
<linearGradient id="paint46_linear" x1="746.171" y1="2419.49" x2="748.058" y2="2419.86" gradientUnits="userSpaceOnUse">
<stop stop-color="white"/>
<stop offset="1" stop-color="#FCFCFC" stop-opacity="0"/>
</linearGradient>
<linearGradient id="paint47_linear" x1="224.322" y1="1479.62" x2="226.021" y2="1480.52" gradientUnits="userSpaceOnUse">
<stop stop-color="white"/>
<stop offset="1" stop-color="#FCFCFC" stop-opacity="0"/>
</linearGradient>
<linearGradient id="paint48_linear" x1="285.608" y1="1779.43" x2="445.86" y2="1747.97" gradientUnits="userSpaceOnUse">
<stop stop-color="white"/>
<stop offset="1" stop-color="#FCFCFC" stop-opacity="0"/>
</linearGradient>
<linearGradient id="paint49_linear" x1="1657.83" y1="1919.61" x2="1659.73" y2="1919.28" gradientUnits="userSpaceOnUse">
<stop stop-color="white"/>
<stop offset="1" stop-color="#FCFCFC" stop-opacity="0"/>
</linearGradient>
<linearGradient id="paint50_linear" x1="3068.98" y1="1230.58" x2="3070.02" y2="1232.19" gradientUnits="userSpaceOnUse">
<stop stop-color="white"/>
<stop offset="1" stop-color="#FCFCFC" stop-opacity="0"/>
</linearGradient>
<linearGradient id="paint51_linear" x1="1102.02" y1="1426.07" x2="1393.19" y2="2047.82" gradientUnits="userSpaceOnUse">
<stop stop-color="white"/>
<stop offset="1" stop-color="#FCFCFC" stop-opacity="0"/>
</linearGradient>
<linearGradient id="paint52_linear" x1="2367.36" y1="1131.34" x2="2368.71" y2="1132.71" gradientUnits="userSpaceOnUse">
<stop stop-color="white"/>
<stop offset="1" stop-color="#FCFCFC" stop-opacity="0"/>
</linearGradient>
<linearGradient id="paint53_linear" x1="2297.02" y1="1511.23" x2="2342.59" y2="1608.52" gradientUnits="userSpaceOnUse">
<stop stop-color="white"/>
<stop offset="1" stop-color="#FCFCFC" stop-opacity="0"/>
</linearGradient>
<linearGradient id="paint54_linear" x1="2304.5" y1="1526.74" x2="2335.5" y2="1592.94" gradientUnits="userSpaceOnUse">
<stop stop-color="white"/>
<stop offset="1" stop-color="#FCFCFC" stop-opacity="0"/>
</linearGradient>
</defs>
</svg>
