<svg width="603" height="836" viewBox="0 0 603 836" fill="none" xmlns="http://www.w3.org/2000/svg">
<g opacity="0.3">
<path d="M500.122 822.677C490.521 822.677 480.794 822.271 471.287 821.426C469.254 821.239 467.159 821.051 465.032 820.832C464.094 820.738 463.124 820.644 462.186 820.519L461.623 820.457C461.31 820.425 460.966 820.394 460.622 820.332L459.152 820.144L457.62 819.956H457.526C453.21 819.393 448.926 818.768 444.766 818.08C444.141 817.986 443.515 817.861 442.89 817.767C441.607 817.548 440.231 817.298 438.73 817.017C429.973 815.39 421.185 813.389 412.584 811.074C409.363 810.199 406.173 809.292 403.108 808.354C400.857 807.665 398.542 806.946 396.228 806.196C394.633 805.695 393.007 805.132 391.318 804.538C388.785 803.662 386.251 802.755 383.781 801.848C381.091 800.848 378.401 799.816 375.806 798.783C209.416 732.364 124.53 546.967 182.967 377.609C184.186 374.075 185.531 370.416 186.907 366.757C190.504 357.406 194.538 348.117 198.948 339.173C202.232 332.48 205.797 325.819 209.55 319.313C211.427 316.03 213.459 312.683 215.524 309.368C220.684 301.112 226.282 292.949 232.162 285.162C235.758 280.408 239.542 275.654 243.42 271.026C249.738 263.52 256.462 256.201 263.405 249.29L263.499 249.196C266.345 246.381 269.159 243.66 271.943 241.096C400.168 122.101 598.299 121.583 727.144 239.907C730.115 242.628 732.992 245.38 735.682 248.039C742.812 255.044 749.693 262.488 756.167 270.119C760.107 274.778 763.954 279.563 767.582 284.38C773.524 292.23 779.216 300.486 784.47 308.868C786.659 312.37 788.786 315.904 790.756 319.345C794.447 325.756 797.981 332.355 801.233 338.954C805.674 347.992 809.771 357.343 813.399 366.788C814.775 370.416 816.12 374.106 817.402 377.734C875.548 546.501 791.417 731.254 625.939 798.189C623.219 799.284 620.498 800.347 617.871 801.348C615.243 802.349 612.46 803.318 609.739 804.288C608.175 804.819 606.862 805.257 605.642 805.664C603.359 806.414 601.014 807.165 598.637 807.884C586.74 811.534 574.649 814.52 562.421 816.829C561.013 817.079 559.606 817.361 558.199 817.611C558.011 817.642 557.229 817.798 557.229 817.798C557.157 817.813 557.084 817.824 557.01 817.83C552.757 818.549 548.472 819.206 544.313 819.769L542.78 819.956C542.217 820.019 541.654 820.113 541.092 820.175L539.653 820.332L536.494 820.707C534.211 820.957 531.959 821.176 529.77 821.364C520.138 822.208 510.38 822.646 500.747 822.677L500.122 822.677Z" fill="url(#paint0_linear)"/>
<g opacity="0.15">
<path opacity="0.15" d="M326.056 522.029C328.402 521.057 329.516 518.368 328.544 516.022C327.572 513.676 324.883 512.562 322.537 513.534C320.191 514.506 319.077 517.195 320.049 519.541C321.021 521.887 323.71 523.001 326.056 522.029Z" fill="url(#paint1_linear)"/>
<path opacity="0.15" d="M268.221 488.04C270.76 488.04 272.818 485.981 272.818 483.442C272.818 480.903 270.76 478.845 268.221 478.845C265.682 478.845 263.624 480.903 263.624 483.442C263.624 485.981 265.682 488.04 268.221 488.04Z" fill="url(#paint2_linear)"/>
<path opacity="0.15" d="M238.448 474.748C240.987 474.748 243.045 472.69 243.045 470.151C243.045 467.612 240.987 465.553 238.448 465.553C235.909 465.553 233.851 467.612 233.851 470.151C233.851 472.69 235.909 474.748 238.448 474.748Z" fill="url(#paint3_linear)"/>
<path opacity="0.15" d="M246.798 443.254C249.337 443.254 251.395 441.196 251.395 438.657C251.395 436.118 249.337 434.06 246.798 434.06C244.259 434.06 242.201 436.118 242.201 438.657C242.201 441.196 244.259 443.254 246.798 443.254Z" fill="url(#paint4_linear)"/>
<path opacity="0.15" d="M250.864 403.129C250.864 402.22 251.134 401.331 251.639 400.575C252.144 399.819 252.862 399.23 253.702 398.882C254.542 398.534 255.466 398.443 256.358 398.62C257.25 398.797 258.069 399.235 258.712 399.878C259.355 400.521 259.793 401.34 259.97 402.232C260.148 403.124 260.057 404.048 259.709 404.888C259.361 405.728 258.772 406.446 258.016 406.952C257.26 407.457 256.371 407.726 255.461 407.726H255.461C254.243 407.725 253.074 407.24 252.212 406.378C251.351 405.516 250.866 404.348 250.864 403.129Z" fill="url(#paint5_linear)"/>
<path opacity="0.15" d="M189.253 437.969C189.253 437.06 189.523 436.171 190.028 435.415C190.533 434.659 191.251 434.07 192.091 433.722C192.931 433.374 193.855 433.283 194.747 433.46C195.639 433.637 196.458 434.075 197.101 434.718C197.744 435.361 198.182 436.18 198.359 437.072C198.537 437.964 198.446 438.888 198.098 439.728C197.75 440.568 197.16 441.286 196.404 441.791C195.648 442.297 194.76 442.566 193.85 442.566H193.85C192.632 442.565 191.463 442.08 190.601 441.218C189.739 440.356 189.255 439.188 189.253 437.969Z" fill="url(#paint6_linear)"/>
<path opacity="0.15" d="M207.486 395.123C207.486 394.214 207.756 393.325 208.261 392.569C208.766 391.813 209.484 391.223 210.324 390.875C211.164 390.528 212.089 390.436 212.98 390.614C213.872 390.791 214.691 391.229 215.334 391.872C215.977 392.515 216.415 393.334 216.592 394.226C216.77 395.118 216.679 396.042 216.331 396.882C215.983 397.722 215.394 398.44 214.638 398.945C213.882 399.451 212.993 399.72 212.083 399.72H212.083C210.865 399.719 209.696 399.234 208.834 398.372C207.973 397.51 207.488 396.342 207.486 395.123Z" fill="url(#paint7_linear)"/>
<path opacity="0.15" d="M209.55 328.789C209.55 327.88 209.82 326.991 210.325 326.235C210.83 325.479 211.548 324.89 212.388 324.542C213.228 324.194 214.153 324.103 215.045 324.28C215.936 324.458 216.756 324.896 217.398 325.539C218.041 326.181 218.479 327.001 218.657 327.892C218.834 328.784 218.743 329.709 218.395 330.549C218.047 331.389 217.458 332.107 216.702 332.612C215.946 333.117 215.057 333.387 214.148 333.387H214.148C212.929 333.385 211.76 332.9 210.899 332.038C210.037 331.177 209.552 330.008 209.55 328.789Z" fill="url(#paint8_linear)"/>
<path opacity="0.15" d="M146.907 356.311C146.907 355.402 147.177 354.513 147.682 353.757C148.187 353.001 148.905 352.412 149.745 352.064C150.585 351.716 151.51 351.625 152.401 351.802C153.293 351.979 154.112 352.417 154.755 353.06C155.398 353.703 155.836 354.522 156.014 355.414C156.191 356.306 156.1 357.23 155.752 358.07C155.404 358.91 154.815 359.628 154.059 360.134C153.303 360.639 152.414 360.908 151.505 360.908H151.505C150.286 360.907 149.117 360.422 148.256 359.56C147.394 358.698 146.909 357.53 146.907 356.311Z" fill="url(#paint9_linear)"/>
<path opacity="0.15" d="M118.666 319.126C118.666 318.216 118.936 317.327 119.441 316.571C119.946 315.815 120.664 315.226 121.504 314.878C122.344 314.53 123.269 314.439 124.161 314.617C125.052 314.794 125.872 315.232 126.515 315.875C127.158 316.518 127.595 317.337 127.773 318.229C127.95 319.12 127.859 320.045 127.511 320.885C127.163 321.725 126.574 322.443 125.818 322.948C125.062 323.453 124.173 323.723 123.264 323.723H123.264C122.045 323.721 120.877 323.236 120.015 322.375C119.153 321.513 118.668 320.344 118.666 319.126Z" fill="url(#paint10_linear)"/>
<path opacity="0.15" d="M122.576 281.283C122.576 280.374 122.845 279.485 123.35 278.729C123.856 277.973 124.574 277.384 125.414 277.036C126.254 276.688 127.178 276.597 128.07 276.774C128.962 276.952 129.781 277.39 130.424 278.033C131.067 278.676 131.505 279.495 131.682 280.386C131.859 281.278 131.768 282.203 131.42 283.043C131.072 283.883 130.483 284.601 129.727 285.106C128.971 285.611 128.082 285.881 127.173 285.881H127.173C125.954 285.879 124.786 285.394 123.924 284.532C123.062 283.671 122.577 282.502 122.576 281.283Z" fill="url(#paint11_linear)"/>
<path opacity="0.15" d="M167.548 254.419C167.548 253.509 167.818 252.621 168.323 251.865C168.828 251.108 169.546 250.519 170.386 250.171C171.226 249.823 172.151 249.732 173.043 249.91C173.934 250.087 174.754 250.525 175.397 251.168C176.039 251.811 176.477 252.63 176.655 253.522C176.832 254.414 176.741 255.338 176.393 256.178C176.045 257.018 175.456 257.736 174.7 258.241C173.944 258.746 173.055 259.016 172.146 259.016H172.146C170.927 259.014 169.759 258.529 168.897 257.668C168.035 256.806 167.55 255.637 167.548 254.419Z" fill="url(#paint12_linear)"/>
<path opacity="0.15" d="M108.346 253.043C108.346 252.133 108.615 251.244 109.12 250.488C109.626 249.732 110.344 249.143 111.184 248.795C112.024 248.447 112.948 248.356 113.84 248.534C114.732 248.711 115.551 249.149 116.194 249.792C116.837 250.435 117.275 251.254 117.452 252.146C117.629 253.037 117.538 253.962 117.19 254.802C116.843 255.642 116.253 256.36 115.497 256.865C114.741 257.37 113.852 257.64 112.943 257.64H112.943C111.724 257.638 110.556 257.153 109.694 256.292C108.832 255.43 108.347 254.261 108.346 253.043Z" fill="url(#paint13_linear)"/>
<path opacity="0.15" d="M133.115 181.424C133.115 180.515 133.385 179.626 133.89 178.87C134.395 178.114 135.113 177.524 135.953 177.176C136.793 176.828 137.718 176.737 138.609 176.915C139.501 177.092 140.32 177.53 140.963 178.173C141.606 178.816 142.044 179.635 142.222 180.527C142.399 181.419 142.308 182.343 141.96 183.183C141.612 184.023 141.023 184.741 140.267 185.246C139.511 185.752 138.622 186.021 137.713 186.021H137.713C136.494 186.019 135.325 185.535 134.464 184.673C133.602 183.811 133.117 182.643 133.115 181.424Z" fill="url(#paint14_linear)"/>
<path opacity="0.15" d="M173.741 221.361C173.741 220.452 174.01 219.563 174.516 218.807C175.021 218.051 175.739 217.462 176.579 217.114C177.419 216.766 178.343 216.675 179.235 216.852C180.127 217.03 180.946 217.468 181.589 218.111C182.232 218.754 182.67 219.573 182.847 220.464C183.024 221.356 182.933 222.281 182.585 223.121C182.238 223.961 181.648 224.679 180.892 225.184C180.136 225.689 179.247 225.959 178.338 225.959H178.338C177.119 225.957 175.951 225.472 175.089 224.61C174.227 223.749 173.742 222.58 173.741 221.361Z" fill="url(#paint15_linear)"/>
<path opacity="0.15" d="M212.99 180.736C212.99 179.827 213.26 178.938 213.765 178.182C214.27 177.426 214.988 176.836 215.828 176.488C216.669 176.14 217.593 176.049 218.485 176.227C219.377 176.404 220.196 176.842 220.839 177.485C221.482 178.128 221.919 178.947 222.097 179.839C222.274 180.731 222.183 181.655 221.835 182.495C221.487 183.335 220.898 184.053 220.142 184.558C219.386 185.064 218.497 185.333 217.588 185.333H217.588C216.369 185.332 215.201 184.847 214.339 183.985C213.477 183.123 212.992 181.955 212.99 180.736Z" fill="url(#paint16_linear)"/>
<path opacity="0.15" d="M283.233 200.032C283.233 199.123 283.503 198.234 284.008 197.478C284.513 196.722 285.231 196.133 286.071 195.785C286.911 195.437 287.836 195.346 288.727 195.523C289.619 195.701 290.438 196.139 291.081 196.781C291.724 197.424 292.162 198.244 292.34 199.135C292.517 200.027 292.426 200.952 292.078 201.792C291.73 202.632 291.141 203.35 290.385 203.855C289.629 204.36 288.74 204.63 287.831 204.63H287.831C286.612 204.628 285.443 204.143 284.582 203.281C283.72 202.419 283.235 201.251 283.233 200.032Z" fill="url(#paint17_linear)"/>
<path opacity="0.15" d="M320.387 205.537C320.387 204.627 320.657 203.738 321.162 202.982C321.667 202.226 322.385 201.637 323.225 201.289C324.065 200.941 324.99 200.85 325.881 201.028C326.773 201.205 327.592 201.643 328.235 202.286C328.878 202.929 329.316 203.748 329.494 204.64C329.671 205.531 329.58 206.456 329.232 207.296C328.884 208.136 328.295 208.854 327.539 209.359C326.783 209.864 325.894 210.134 324.985 210.134H324.985C323.766 210.132 322.597 209.647 321.736 208.786C320.874 207.924 320.389 206.755 320.387 205.537Z" fill="url(#paint18_linear)"/>
<path opacity="0.15" d="M328.835 244.834C329.241 242.328 327.539 239.967 325.033 239.56C322.527 239.153 320.165 240.855 319.759 243.362C319.352 245.868 321.054 248.229 323.56 248.636C326.066 249.043 328.428 247.341 328.835 244.834Z" fill="url(#paint19_linear)"/>
<path opacity="0.15" d="M270.817 283.348C270.817 282.438 271.087 281.55 271.592 280.793C272.097 280.037 272.815 279.448 273.655 279.1C274.495 278.752 275.419 278.661 276.311 278.839C277.203 279.016 278.022 279.454 278.665 280.097C279.308 280.74 279.746 281.559 279.923 282.451C280.101 283.342 280.01 284.267 279.662 285.107C279.314 285.947 278.724 286.665 277.968 287.17C277.212 287.675 276.324 287.945 275.414 287.945H275.414C274.195 287.943 273.027 287.458 272.165 286.597C271.303 285.735 270.819 284.566 270.817 283.348Z" fill="url(#paint20_linear)"/>
<path opacity="0.15" d="M295.618 370.791C295.618 369.882 295.888 368.993 296.393 368.237C296.898 367.481 297.616 366.892 298.456 366.544C299.296 366.196 300.22 366.105 301.112 366.282C302.004 366.46 302.823 366.897 303.466 367.54C304.109 368.183 304.547 369.003 304.724 369.894C304.902 370.786 304.811 371.71 304.463 372.551C304.115 373.391 303.525 374.109 302.769 374.614C302.013 375.119 301.125 375.389 300.215 375.389H300.215C298.996 375.387 297.828 374.902 296.966 374.04C296.104 373.178 295.62 372.01 295.618 370.791Z" fill="url(#paint21_linear)"/>
<path opacity="0.15" d="M330.051 348.055C330.051 347.145 330.321 346.257 330.826 345.5C331.331 344.744 332.049 344.155 332.889 343.807C333.729 343.459 334.653 343.368 335.545 343.546C336.437 343.723 337.256 344.161 337.899 344.804C338.542 345.447 338.98 346.266 339.157 347.158C339.335 348.05 339.244 348.974 338.896 349.814C338.548 350.654 337.959 351.372 337.203 351.877C336.446 352.382 335.558 352.652 334.648 352.652H334.648C333.43 352.65 332.261 352.165 331.399 351.304C330.538 350.442 330.053 349.273 330.051 348.055Z" fill="url(#paint22_linear)"/>
<path opacity="0.15" d="M379.621 312.245C379.621 311.336 379.891 310.447 380.396 309.691C380.901 308.935 381.619 308.346 382.459 307.998C383.299 307.65 384.224 307.559 385.115 307.736C386.007 307.914 386.826 308.351 387.469 308.994C388.112 309.637 388.55 310.456 388.727 311.348C388.905 312.24 388.814 313.164 388.466 314.005C388.118 314.845 387.529 315.563 386.773 316.068C386.017 316.573 385.128 316.843 384.218 316.843H384.218C383 316.841 381.831 316.356 380.969 315.494C380.108 314.632 379.623 313.464 379.621 312.245Z" fill="url(#paint23_linear)"/>
<path opacity="0.15" d="M390.63 283.348C390.63 282.438 390.9 281.55 391.405 280.793C391.91 280.037 392.628 279.448 393.468 279.1C394.308 278.752 395.232 278.661 396.124 278.839C397.016 279.016 397.835 279.454 398.478 280.097C399.121 280.74 399.559 281.559 399.736 282.451C399.914 283.342 399.823 284.267 399.475 285.107C399.127 285.947 398.537 286.665 397.781 287.17C397.025 287.675 396.137 287.945 395.227 287.945H395.227C394.008 287.943 392.84 287.458 391.978 286.597C391.116 285.735 390.632 284.566 390.63 283.348Z" fill="url(#paint24_linear)"/>
<path opacity="0.15" d="M373.429 242.034C373.429 241.125 373.698 240.236 374.204 239.48C374.709 238.724 375.427 238.134 376.267 237.786C377.107 237.439 378.031 237.347 378.923 237.525C379.815 237.702 380.634 238.14 381.277 238.783C381.92 239.426 382.358 240.245 382.535 241.137C382.712 242.029 382.621 242.953 382.273 243.793C381.926 244.633 381.336 245.351 380.58 245.856C379.824 246.362 378.935 246.631 378.026 246.631H378.026C376.807 246.63 375.639 246.145 374.777 245.283C373.915 244.421 373.43 243.253 373.429 242.034Z" fill="url(#paint25_linear)"/>
<path opacity="0.15" d="M351.38 207.601C351.38 206.691 351.65 205.802 352.155 205.046C352.66 204.29 353.378 203.701 354.218 203.353C355.058 203.005 355.983 202.914 356.875 203.092C357.766 203.269 358.586 203.707 359.229 204.35C359.872 204.993 360.309 205.812 360.487 206.704C360.664 207.595 360.573 208.52 360.225 209.36C359.877 210.2 359.288 210.918 358.532 211.423C357.776 211.928 356.887 212.198 355.978 212.198H355.978C354.759 212.196 353.591 211.711 352.729 210.85C351.867 209.988 351.382 208.819 351.38 207.601Z" fill="url(#paint26_linear)"/>
<path opacity="0.15" d="M422.999 213.793C422.999 212.884 423.269 211.995 423.774 211.239C424.279 210.483 424.997 209.893 425.837 209.546C426.677 209.198 427.601 209.107 428.493 209.284C429.385 209.461 430.204 209.899 430.847 210.542C431.49 211.185 431.928 212.004 432.105 212.896C432.283 213.788 432.192 214.712 431.844 215.552C431.496 216.392 430.907 217.11 430.151 217.615C429.395 218.121 428.506 218.39 427.596 218.39H427.596C426.378 218.389 425.209 217.904 424.347 217.042C423.486 216.18 423.001 215.012 422.999 213.793Z" fill="url(#paint27_linear)"/>
<path opacity="0.15" d="M373.429 175.482C373.429 174.572 373.698 173.684 374.204 172.927C374.709 172.171 375.427 171.582 376.267 171.234C377.107 170.886 378.031 170.795 378.923 170.973C379.815 171.15 380.634 171.588 381.277 172.231C381.92 172.874 382.358 173.693 382.535 174.585C382.712 175.477 382.621 176.401 382.273 177.241C381.926 178.081 381.336 178.799 380.58 179.304C379.824 179.809 378.935 180.079 378.026 180.079H378.026C376.807 180.077 375.639 179.592 374.777 178.731C373.915 177.869 373.43 176.7 373.429 175.482Z" fill="url(#paint28_linear)"/>
<path opacity="0.15" d="M425.063 175.231C425.063 174.322 425.333 173.433 425.838 172.677C426.343 171.921 427.061 171.332 427.901 170.984C428.741 170.636 429.666 170.545 430.558 170.722C431.449 170.9 432.268 171.338 432.911 171.981C433.554 172.624 433.992 173.443 434.17 174.334C434.347 175.226 434.256 176.151 433.908 176.991C433.56 177.831 432.971 178.549 432.215 179.054C431.459 179.559 430.57 179.829 429.661 179.829C428.442 179.827 427.273 179.342 426.412 178.48C425.55 177.619 425.065 176.45 425.063 175.231Z" fill="url(#paint29_linear)"/>
<path opacity="0.15" d="M493.21 189.712C493.21 188.802 493.48 187.913 493.985 187.157C494.49 186.401 495.208 185.812 496.048 185.464C496.889 185.116 497.813 185.025 498.705 185.203C499.597 185.38 500.416 185.818 501.059 186.461C501.702 187.104 502.139 187.923 502.317 188.815C502.494 189.707 502.403 190.631 502.055 191.471C501.707 192.311 501.118 193.029 500.362 193.534C499.606 194.039 498.717 194.309 497.808 194.309C496.589 194.307 495.421 193.822 494.559 192.961C493.697 192.099 493.212 190.93 493.21 189.712Z" fill="url(#paint30_linear)"/>
<path opacity="0.15" d="M534.524 291.604C534.524 290.695 534.794 289.806 535.299 289.05C535.804 288.294 536.522 287.705 537.362 287.357C538.202 287.009 539.126 286.918 540.018 287.095C540.91 287.272 541.729 287.71 542.372 288.353C543.015 288.996 543.453 289.815 543.63 290.707C543.808 291.599 543.717 292.523 543.369 293.363C543.021 294.203 542.431 294.921 541.675 295.427C540.919 295.932 540.031 296.201 539.121 296.201C537.902 296.2 536.734 295.715 535.872 294.853C535.01 293.991 534.526 292.823 534.524 291.604Z" fill="url(#paint31_linear)"/>
<path opacity="0.15" d="M555.885 250.978C555.885 250.069 556.154 249.18 556.659 248.424C557.164 247.668 557.882 247.079 558.723 246.731C559.563 246.383 560.487 246.292 561.379 246.469C562.271 246.647 563.09 247.085 563.733 247.728C564.376 248.371 564.814 249.19 564.991 250.082C565.168 250.973 565.077 251.898 564.729 252.738C564.381 253.578 563.792 254.296 563.036 254.801C562.28 255.306 561.391 255.576 560.482 255.576C559.263 255.574 558.095 255.089 557.233 254.227C556.371 253.366 555.886 252.197 555.885 250.978Z" fill="url(#paint32_linear)"/>
<path opacity="0.15" d="M571.709 372.167C571.709 371.258 571.979 370.369 572.484 369.613C572.989 368.857 573.707 368.268 574.548 367.92C575.388 367.572 576.312 367.481 577.204 367.658C578.096 367.836 578.915 368.274 579.558 368.916C580.201 369.559 580.638 370.379 580.816 371.27C580.993 372.162 580.902 373.087 580.554 373.927C580.206 374.767 579.617 375.485 578.861 375.99C578.105 376.495 577.216 376.765 576.307 376.765C575.088 376.763 573.92 376.278 573.058 375.416C572.196 374.554 571.711 373.386 571.709 372.167Z" fill="url(#paint33_linear)"/>
<path opacity="0.15" d="M510.443 400.721C510.443 399.812 510.712 398.923 511.217 398.167C511.723 397.411 512.441 396.821 513.281 396.473C514.121 396.126 515.045 396.034 515.937 396.212C516.829 396.389 517.648 396.827 518.291 397.47C518.934 398.113 519.372 398.932 519.549 399.824C519.726 400.716 519.635 401.64 519.287 402.48C518.939 403.32 518.35 404.038 517.594 404.543C516.838 405.049 515.949 405.318 515.04 405.318C513.821 405.317 512.653 404.832 511.791 403.97C510.929 403.108 510.444 401.94 510.443 400.721Z" fill="url(#paint34_linear)"/>
<path opacity="0.15" d="M454.649 420.361C454.649 419.452 454.919 418.563 455.424 417.807C455.929 417.051 456.647 416.462 457.487 416.114C458.327 415.766 459.251 415.675 460.143 415.852C461.035 416.03 461.854 416.468 462.497 417.11C463.14 417.753 463.578 418.573 463.755 419.464C463.933 420.356 463.842 421.281 463.494 422.121C463.146 422.961 462.556 423.679 461.8 424.184C461.044 424.689 460.156 424.959 459.246 424.959H459.246C458.027 424.957 456.859 424.472 455.997 423.61C455.135 422.748 454.651 421.58 454.649 420.361Z" fill="url(#paint35_linear)"/>
<path opacity="0.15" d="M411.271 481.628C411.271 480.719 411.541 479.83 412.046 479.074C412.551 478.318 413.269 477.729 414.109 477.381C414.949 477.033 415.873 476.942 416.765 477.119C417.657 477.297 418.476 477.734 419.119 478.377C419.762 479.02 420.2 479.84 420.377 480.731C420.555 481.623 420.464 482.548 420.116 483.388C419.768 484.228 419.179 484.946 418.423 485.451C417.666 485.956 416.778 486.226 415.868 486.226H415.868C414.65 486.224 413.481 485.739 412.619 484.877C411.758 484.015 411.273 482.847 411.271 481.628Z" fill="url(#paint36_linear)"/>
<path opacity="0.15" d="M414.711 417.171C414.711 416.262 414.981 415.373 415.486 414.617C415.991 413.861 416.709 413.272 417.549 412.924C418.389 412.576 419.314 412.485 420.205 412.662C421.097 412.84 421.916 413.278 422.559 413.921C423.202 414.563 423.64 415.383 423.818 416.274C423.995 417.166 423.904 418.091 423.556 418.931C423.208 419.771 422.619 420.489 421.863 420.994C421.107 421.499 420.218 421.769 419.309 421.769H419.309C418.09 421.767 416.921 421.282 416.06 420.42C415.198 419.559 414.713 418.39 414.711 417.171Z" fill="url(#paint37_linear)"/>
<path opacity="0.15" d="M385.813 443.067C385.813 442.157 386.083 441.268 386.588 440.512C387.093 439.756 387.811 439.167 388.652 438.819C389.492 438.471 390.416 438.38 391.308 438.558C392.2 438.735 393.019 439.173 393.662 439.816C394.305 440.459 394.742 441.278 394.92 442.17C395.097 443.061 395.006 443.986 394.658 444.826C394.31 445.666 393.721 446.384 392.965 446.889C392.209 447.394 391.32 447.664 390.411 447.664C389.192 447.662 388.024 447.177 387.162 446.316C386.3 445.454 385.815 444.285 385.813 443.067Z" fill="url(#paint38_linear)"/>
<path opacity="0.15" d="M356.885 476.124C356.885 475.215 357.154 474.326 357.659 473.57C358.164 472.814 358.882 472.224 359.723 471.876C360.563 471.528 361.487 471.437 362.379 471.615C363.271 471.792 364.09 472.23 364.733 472.873C365.376 473.516 365.814 474.335 365.991 475.227C366.168 476.119 366.077 477.043 365.729 477.883C365.381 478.723 364.792 479.441 364.036 479.946C363.28 480.452 362.391 480.721 361.482 480.721C360.263 480.72 359.095 480.235 358.233 479.373C357.371 478.511 356.886 477.343 356.885 476.124Z" fill="url(#paint39_linear)"/>
<path opacity="0.15" d="M479.449 521.566C479.449 520.656 479.719 519.768 480.224 519.011C480.729 518.255 481.447 517.666 482.287 517.318C483.128 516.97 484.052 516.879 484.944 517.057C485.835 517.234 486.655 517.672 487.298 518.315C487.941 518.958 488.378 519.777 488.556 520.669C488.733 521.561 488.642 522.485 488.294 523.325C487.946 524.165 487.357 524.883 486.601 525.388C485.845 525.893 484.956 526.163 484.047 526.163C483.443 526.163 482.845 526.044 482.287 525.813C481.73 525.582 481.223 525.243 480.796 524.816C480.369 524.39 480.03 523.883 479.799 523.325C479.568 522.767 479.449 522.169 479.449 521.566Z" fill="url(#paint40_linear)"/>
<path opacity="0.15" d="M467.065 558.063C467.065 557.154 467.334 556.265 467.839 555.509C468.345 554.753 469.063 554.164 469.903 553.816C470.743 553.468 471.667 553.377 472.559 553.554C473.451 553.732 474.27 554.169 474.913 554.812C475.556 555.455 475.994 556.274 476.171 557.166C476.348 558.058 476.257 558.982 475.909 559.823C475.562 560.663 474.972 561.381 474.216 561.886C473.46 562.391 472.571 562.661 471.662 562.661H471.662C470.443 562.659 469.275 562.174 468.413 561.312C467.551 560.45 467.066 559.282 467.065 558.063Z" fill="url(#paint41_linear)"/>
<path opacity="0.15" d="M510.443 594.561C510.443 593.651 510.712 592.763 511.217 592.007C511.723 591.251 512.441 590.661 513.281 590.313C514.121 589.965 515.045 589.874 515.937 590.052C516.829 590.229 517.648 590.667 518.291 591.31C518.934 591.953 519.372 592.772 519.549 593.664C519.726 594.556 519.635 595.48 519.287 596.32C518.939 597.16 518.35 597.878 517.594 598.383C516.838 598.888 515.949 599.158 515.04 599.158C513.821 599.156 512.653 598.672 511.791 597.81C510.929 596.948 510.444 595.779 510.443 594.561Z" fill="url(#paint42_linear)"/>
<path opacity="0.15" d="M462.468 617.954C462.468 617.045 462.737 616.156 463.242 615.4C463.747 614.644 464.466 614.055 465.306 613.707C466.146 613.359 467.07 613.268 467.962 613.445C468.854 613.622 469.673 614.06 470.316 614.703C470.959 615.346 471.397 616.165 471.574 617.057C471.751 617.949 471.66 618.873 471.312 619.713C470.964 620.553 470.375 621.271 469.619 621.777C468.863 622.282 467.974 622.551 467.065 622.551H467.065C465.846 622.55 464.678 622.065 463.816 621.203C462.954 620.341 462.469 619.173 462.468 617.954Z" fill="url(#paint43_linear)"/>
<path opacity="0.15" d="M457.87 642.755C457.87 641.845 458.14 640.957 458.645 640.201C459.15 639.445 459.868 638.855 460.708 638.507C461.548 638.159 462.473 638.068 463.364 638.246C464.256 638.423 465.075 638.861 465.718 639.504C466.361 640.147 466.799 640.966 466.976 641.858C467.154 642.75 467.063 643.674 466.715 644.514C466.367 645.354 465.778 646.072 465.022 646.577C464.266 647.082 463.377 647.352 462.467 647.352H462.467C461.249 647.35 460.08 646.866 459.218 646.004C458.357 645.142 457.872 643.974 457.87 642.755Z" fill="url(#paint44_linear)"/>
<path opacity="0.15" d="M404.391 615.89C404.391 614.981 404.66 614.092 405.165 613.336C405.671 612.58 406.389 611.991 407.229 611.643C408.069 611.295 408.993 611.204 409.885 611.381C410.777 611.558 411.596 611.996 412.239 612.639C412.882 613.282 413.32 614.101 413.497 614.993C413.674 615.885 413.583 616.809 413.235 617.649C412.887 618.489 412.298 619.207 411.542 619.712C410.786 620.218 409.897 620.487 408.988 620.487H408.988C407.769 620.486 406.601 620.001 405.739 619.139C404.877 618.277 404.392 617.109 404.391 615.89Z" fill="url(#paint45_linear)"/>
<path opacity="0.15" d="M334.867 620.487C334.867 619.578 335.137 618.689 335.642 617.933C336.147 617.177 336.865 616.588 337.705 616.24C338.546 615.892 339.47 615.801 340.362 615.978C341.254 616.156 342.073 616.593 342.716 617.236C343.359 617.879 343.796 618.699 343.974 619.59C344.151 620.482 344.06 621.407 343.712 622.247C343.364 623.087 342.775 623.805 342.019 624.31C341.263 624.815 340.374 625.085 339.465 625.085H339.465C338.246 625.083 337.078 624.598 336.216 623.736C335.354 622.874 334.869 621.706 334.867 620.487Z" fill="url(#paint46_linear)"/>
<path opacity="0.15" d="M394.758 690.011C394.758 689.101 395.028 688.213 395.533 687.456C396.038 686.7 396.756 686.111 397.596 685.763C398.436 685.415 399.361 685.324 400.253 685.502C401.144 685.679 401.964 686.117 402.606 686.76C403.249 687.403 403.687 688.222 403.865 689.114C404.042 690.006 403.951 690.93 403.603 691.77C403.255 692.61 402.666 693.328 401.91 693.833C401.154 694.338 400.265 694.608 399.356 694.608H399.356C398.137 694.606 396.968 694.122 396.107 693.26C395.245 692.398 394.76 691.229 394.758 690.011Z" fill="url(#paint47_linear)"/>
<path opacity="0.15" d="M324.516 679.909C324.516 679 324.785 678.111 325.29 677.355C325.796 676.599 326.514 676.009 327.354 675.662C328.194 675.314 329.118 675.222 330.01 675.4C330.902 675.577 331.721 676.015 332.364 676.658C333.007 677.301 333.445 678.12 333.622 679.012C333.799 679.904 333.708 680.828 333.36 681.668C333.012 682.508 332.423 683.226 331.667 683.731C330.911 684.237 330.022 684.506 329.113 684.506C327.894 684.505 326.726 684.02 325.864 683.158C325.002 682.296 324.517 681.128 324.516 679.909Z" fill="url(#paint48_linear)"/>
<path opacity="0.15" d="M272.881 655.14C272.881 654.23 273.151 653.341 273.656 652.585C274.161 651.829 274.879 651.24 275.719 650.892C276.559 650.544 277.484 650.453 278.376 650.631C279.267 650.808 280.087 651.246 280.73 651.889C281.372 652.532 281.81 653.351 281.988 654.243C282.165 655.134 282.074 656.059 281.726 656.899C281.378 657.739 280.789 658.457 280.033 658.962C279.277 659.467 278.388 659.737 277.479 659.737H277.479C276.26 659.735 275.092 659.25 274.23 658.389C273.368 657.527 272.883 656.358 272.881 655.14Z" fill="url(#paint49_linear)"/>
<path opacity="0.15" d="M223.311 582.145C223.311 581.235 223.581 580.346 224.086 579.59C224.591 578.834 225.309 578.245 226.149 577.897C226.989 577.549 227.913 577.458 228.805 577.636C229.697 577.813 230.516 578.251 231.159 578.894C231.802 579.537 232.24 580.356 232.417 581.248C232.595 582.139 232.504 583.064 232.156 583.904C231.808 584.744 231.219 585.462 230.463 585.967C229.707 586.472 228.818 586.742 227.908 586.742H227.908C226.69 586.74 225.521 586.255 224.659 585.394C223.798 584.532 223.313 583.363 223.311 582.145Z" fill="url(#paint50_linear)"/>
<path opacity="0.15" d="M187.345 580.08C187.345 579.171 187.615 578.282 188.12 577.526C188.625 576.77 189.343 576.181 190.183 575.833C191.023 575.485 191.948 575.394 192.839 575.571C193.731 575.749 194.55 576.187 195.193 576.83C195.836 577.472 196.274 578.292 196.452 579.183C196.629 580.075 196.538 581 196.19 581.84C195.842 582.68 195.253 583.398 194.497 583.903C193.741 584.408 192.852 584.678 191.943 584.678H191.943C190.724 584.676 189.555 584.191 188.694 583.329C187.832 582.468 187.347 581.299 187.345 580.08Z" fill="url(#paint51_linear)"/>
<path opacity="0.15" d="M291.49 551.871C291.49 550.962 291.759 550.073 292.264 549.317C292.769 548.561 293.487 547.971 294.328 547.623C295.168 547.275 296.092 547.184 296.984 547.362C297.876 547.539 298.695 547.977 299.338 548.62C299.981 549.263 300.418 550.082 300.596 550.974C300.773 551.866 300.682 552.79 300.334 553.63C299.986 554.47 299.397 555.188 298.641 555.693C297.885 556.198 296.996 556.468 296.087 556.468H296.087C294.868 556.467 293.7 555.982 292.838 555.12C291.976 554.258 291.491 553.09 291.49 551.871Z" fill="url(#paint52_linear)"/>
<path opacity="0.15" d="M297.682 584.678C297.682 583.769 297.952 582.88 298.457 582.124C298.962 581.368 299.68 580.778 300.52 580.43C301.36 580.082 302.284 579.991 303.176 580.169C304.068 580.346 304.887 580.784 305.53 581.427C306.173 582.07 306.611 582.889 306.788 583.781C306.966 584.673 306.875 585.597 306.527 586.437C306.179 587.277 305.589 587.995 304.833 588.5C304.077 589.006 303.189 589.275 302.279 589.275H302.279C301.06 589.274 299.892 588.789 299.03 587.927C298.168 587.065 297.684 585.897 297.682 584.678Z" fill="url(#paint53_linear)"/>
<path opacity="0.15" d="M228.127 690.261C228.127 689.351 228.397 688.463 228.902 687.707C229.407 686.951 230.125 686.361 230.965 686.013C231.805 685.665 232.73 685.574 233.621 685.752C234.513 685.929 235.332 686.367 235.975 687.01C236.618 687.653 237.056 688.472 237.234 689.364C237.411 690.256 237.32 691.18 236.972 692.02C236.624 692.86 236.035 693.578 235.279 694.083C234.523 694.588 233.634 694.858 232.725 694.858H232.725C231.506 694.856 230.337 694.371 229.476 693.51C228.614 692.648 228.129 691.48 228.127 690.261Z" fill="url(#paint54_linear)"/>
<path opacity="0.15" d="M209.55 715.03C209.55 714.121 209.82 713.232 210.325 712.476C210.83 711.72 211.548 711.131 212.388 710.783C213.228 710.435 214.153 710.344 215.045 710.521C215.936 710.699 216.756 711.136 217.398 711.779C218.041 712.422 218.479 713.241 218.657 714.133C218.834 715.025 218.743 715.949 218.395 716.789C218.047 717.63 217.458 718.348 216.702 718.853C215.946 719.358 215.057 719.628 214.148 719.628H214.148C212.929 719.626 211.76 719.141 210.899 718.279C210.037 717.417 209.552 716.249 209.55 715.03Z" fill="url(#paint55_linear)"/>
<path opacity="0.15" d="M138.62 683.349C138.62 682.44 138.889 681.551 139.394 680.795C139.9 680.039 140.618 679.449 141.458 679.101C142.298 678.753 143.222 678.662 144.114 678.84C145.006 679.017 145.825 679.455 146.468 680.098C147.111 680.741 147.549 681.56 147.726 682.452C147.903 683.344 147.812 684.268 147.464 685.108C147.116 685.948 146.527 686.666 145.771 687.171C145.015 687.677 144.126 687.946 143.217 687.946H143.217C141.998 687.945 140.83 687.46 139.968 686.598C139.106 685.736 138.621 684.568 138.62 683.349Z" fill="url(#paint56_linear)"/>
<path opacity="0.15" d="M128.987 665.46C128.987 664.551 129.257 663.662 129.762 662.906C130.267 662.15 130.985 661.561 131.825 661.213C132.665 660.865 133.589 660.774 134.481 660.951C135.373 661.129 136.192 661.566 136.835 662.209C137.478 662.852 137.916 663.671 138.093 664.563C138.271 665.455 138.18 666.379 137.832 667.219C137.484 668.059 136.894 668.777 136.138 669.283C135.382 669.788 134.494 670.057 133.584 670.057H133.584C132.366 670.056 131.197 669.571 130.335 668.709C129.473 667.847 128.989 666.679 128.987 665.46Z" fill="url(#paint57_linear)"/>
<path opacity="0.15" d="M144.843 595.468C144.843 594.558 145.113 593.669 145.618 592.913C146.123 592.157 146.841 591.568 147.681 591.22C148.521 590.872 149.446 590.781 150.338 590.959C151.229 591.136 152.048 591.574 152.691 592.217C153.334 592.86 153.772 593.679 153.95 594.571C154.127 595.462 154.036 596.387 153.688 597.227C153.34 598.067 152.751 598.785 151.995 599.29C151.239 599.795 150.35 600.065 149.441 600.065H149.441C148.222 600.063 147.053 599.578 146.192 598.717C145.33 597.855 144.845 596.686 144.843 595.468Z" fill="url(#paint58_linear)"/>
<path opacity="0.15" d="M97.6499 580.08C97.6499 579.171 97.9195 578.282 98.4247 577.526C98.9298 576.77 99.6479 576.181 100.488 575.833C101.328 575.485 102.252 575.394 103.144 575.571C104.036 575.749 104.855 576.187 105.498 576.83C106.141 577.472 106.579 578.292 106.756 579.183C106.934 580.075 106.843 581 106.495 581.84C106.147 582.68 105.557 583.398 104.801 583.903C104.045 584.408 103.157 584.678 102.247 584.678H102.247C101.028 584.676 99.8601 584.191 98.9983 583.329C98.1365 582.468 97.6516 581.299 97.6499 580.08Z" fill="url(#paint59_linear)"/>
<path opacity="0.15" d="M214.147 831.403C214.147 830.494 214.417 829.605 214.922 828.849C215.427 828.093 216.145 827.503 216.985 827.155C217.826 826.807 218.75 826.716 219.642 826.894C220.533 827.071 221.353 827.509 221.996 828.152C222.639 828.795 223.076 829.614 223.254 830.506C223.431 831.398 223.34 832.322 222.992 833.162C222.644 834.002 222.055 834.72 221.299 835.225C220.543 835.73 219.654 836 218.745 836H218.745C217.526 835.999 216.358 835.514 215.496 834.652C214.634 833.79 214.149 832.622 214.147 831.403Z" fill="url(#paint60_linear)"/>
<path opacity="0.15" d="M354.821 831.403C354.821 830.494 355.09 829.605 355.595 828.849C356.1 828.093 356.818 827.503 357.659 827.155C358.499 826.807 359.423 826.716 360.315 826.894C361.207 827.071 362.026 827.509 362.669 828.152C363.312 828.795 363.75 829.614 363.927 830.506C364.104 831.398 364.013 832.322 363.665 833.162C363.317 834.002 362.728 834.72 361.972 835.225C361.216 835.73 360.327 836 359.418 836H359.418C358.199 835.999 357.031 835.514 356.169 834.652C355.307 833.79 354.822 832.622 354.821 831.403Z" fill="url(#paint61_linear)"/>
<path opacity="0.15" d="M456.713 142.894C456.713 141.984 456.982 141.095 457.488 140.339C457.993 139.583 458.711 138.994 459.551 138.646C460.391 138.298 461.315 138.207 462.207 138.384C463.099 138.562 463.918 139 464.561 139.643C465.204 140.286 465.642 141.105 465.819 141.997C465.997 142.888 465.906 143.813 465.558 144.653C465.21 145.493 464.62 146.211 463.864 146.716C463.108 147.221 462.22 147.491 461.31 147.491H461.31C460.091 147.489 458.923 147.004 458.061 146.143C457.199 145.281 456.715 144.112 456.713 142.894Z" fill="url(#paint62_linear)"/>
<path opacity="0.15" d="M357.573 142.894C357.573 141.984 357.842 141.095 358.347 140.339C358.852 139.583 359.57 138.994 360.411 138.646C361.251 138.298 362.175 138.207 363.067 138.384C363.959 138.562 364.778 139 365.421 139.643C366.064 140.286 366.501 141.105 366.679 141.997C366.856 142.888 366.765 143.813 366.417 144.653C366.069 145.493 365.48 146.211 364.724 146.716C363.968 147.221 363.079 147.491 362.17 147.491H362.17C360.951 147.489 359.783 147.004 358.921 146.143C358.059 145.281 357.574 144.112 357.573 142.894Z" fill="url(#paint63_linear)"/>
<path opacity="0.15" d="M250.864 142.894C250.864 141.984 251.134 141.095 251.639 140.339C252.144 139.583 252.862 138.994 253.702 138.646C254.542 138.298 255.466 138.207 256.358 138.384C257.25 138.562 258.069 139 258.712 139.643C259.355 140.286 259.793 141.105 259.97 141.997C260.148 142.888 260.057 143.813 259.709 144.653C259.361 145.493 258.772 146.211 258.016 146.716C257.26 147.221 256.371 147.491 255.461 147.491H255.461C254.243 147.489 253.074 147.004 252.212 146.143C251.351 145.281 250.866 144.112 250.864 142.894Z" fill="url(#paint64_linear)"/>
<path opacity="0.15" d="M193.381 142.894C193.381 141.984 193.651 141.095 194.156 140.339C194.661 139.583 195.379 138.994 196.219 138.646C197.059 138.298 197.984 138.207 198.876 138.384C199.767 138.562 200.587 139 201.23 139.643C201.872 140.286 202.31 141.105 202.488 141.997C202.665 142.888 202.574 143.813 202.226 144.653C201.878 145.493 201.289 146.211 200.533 146.716C199.777 147.221 198.888 147.491 197.979 147.491H197.979C196.76 147.489 195.592 147.004 194.73 146.143C193.868 145.281 193.383 144.112 193.381 142.894Z" fill="url(#paint65_linear)"/>
<path opacity="0.15" d="M4.6081 437.969C4.60877 436.912 4.24528 435.887 3.57881 435.067C2.91235 434.247 1.98362 433.681 0.948975 433.465C0.980249 436.436 1.01152 439.439 1.0428 442.41C2.05502 442.188 2.96085 441.627 3.60953 440.819C4.25821 440.011 4.61062 439.005 4.6081 437.969Z" fill="url(#paint66_linear)"/>
<path opacity="0.15" d="M33.975 399.689C33.975 398.78 34.2446 397.891 34.7498 397.135C35.2549 396.379 35.9729 395.789 36.813 395.442C37.6531 395.094 38.5774 395.003 39.4692 395.18C40.361 395.357 41.1802 395.795 41.8231 396.438C42.4661 397.081 42.904 397.9 43.0814 398.792C43.2587 399.684 43.1677 400.608 42.8197 401.448C42.4718 402.288 41.8825 403.006 41.1265 403.511C40.3705 404.017 39.4816 404.286 38.5724 404.286H38.5723C37.3535 404.285 36.1852 403.8 35.3233 402.938C34.4615 402.076 33.9766 400.908 33.975 399.689Z" fill="url(#paint67_linear)"/>
<path opacity="0.15" d="M64.968 355.623C64.968 354.714 65.2377 353.825 65.7428 353.069C66.248 352.313 66.966 351.724 67.806 351.376C68.6461 351.028 69.5705 350.937 70.4623 351.114C71.3541 351.291 72.1732 351.729 72.8162 352.372C73.4591 353.015 73.897 353.834 74.0744 354.726C74.2518 355.618 74.1607 356.542 73.8128 357.382C73.4648 358.222 72.8756 358.94 72.1195 359.446C71.3635 359.951 70.4747 360.22 69.5654 360.22H69.5654C68.3466 360.219 67.1782 359.734 66.3164 358.872C65.4546 358.01 64.9697 356.842 64.968 355.623Z" fill="url(#paint68_linear)"/>
<path opacity="0.15" d="M80.7928 325.349C80.7928 324.44 81.0625 323.551 81.5676 322.795C82.0728 322.039 82.7908 321.45 83.6309 321.102C84.4709 320.754 85.3953 320.663 86.2871 320.84C87.1789 321.018 87.9981 321.455 88.641 322.098C89.284 322.741 89.7218 323.561 89.8992 324.452C90.0766 325.344 89.9856 326.269 89.6376 327.109C89.2897 327.949 88.7004 328.667 87.9444 329.172C87.1883 329.677 86.2995 329.947 85.3902 329.947H85.3902C84.1714 329.945 83.003 329.46 82.1412 328.598C81.2794 327.736 80.7945 326.568 80.7928 325.349Z" fill="url(#paint69_linear)"/>
<path opacity="0.15" d="M45.6716 326.725C45.6716 325.816 45.9413 324.927 46.4464 324.171C46.9516 323.415 47.6696 322.826 48.5096 322.478C49.3497 322.13 50.2741 322.039 51.1659 322.216C52.0577 322.394 52.8768 322.832 53.5198 323.474C54.1628 324.117 54.6006 324.937 54.778 325.828C54.9554 326.72 54.8644 327.645 54.5164 328.485C54.1684 329.325 53.5792 330.043 52.8232 330.548C52.0671 331.053 51.1783 331.323 50.269 331.323H50.269C49.0502 331.321 47.8818 330.836 47.02 329.974C46.1582 329.112 45.6733 327.944 45.6716 326.725Z" fill="url(#paint70_linear)"/>
<path opacity="0.15" d="M33.2869 271.62C33.2869 270.71 33.5565 269.822 34.0616 269.066C34.5668 268.31 35.2848 267.72 36.1249 267.372C36.9649 267.024 37.8893 266.933 38.7811 267.111C39.6729 267.288 40.4921 267.726 41.135 268.369C41.778 269.012 42.2158 269.831 42.3932 270.723C42.5706 271.615 42.4796 272.539 42.1316 273.379C41.7837 274.219 41.1944 274.937 40.4384 275.442C39.6824 275.947 38.7935 276.217 37.8842 276.217H37.8842C36.6654 276.215 35.497 275.731 34.6352 274.869C33.7734 274.007 33.2885 272.838 33.2869 271.62Z" fill="url(#paint71_linear)"/>
<path opacity="0.15" d="M17.2743 306.991C18.1982 306.692 19.0026 306.107 19.5707 305.319C20.1388 304.532 20.4409 303.584 20.433 302.613C20.4368 302.013 20.3197 301.419 20.0886 300.865C19.8576 300.312 19.5173 299.81 19.0882 299.391C18.6761 301.967 18.0697 304.507 17.2743 306.991Z" fill="url(#paint72_linear)"/>
<path opacity="0.15" d="M31.9108 361.815C31.9108 360.906 32.1804 360.017 32.6856 359.261C33.1907 358.505 33.9087 357.916 34.7488 357.568C35.5888 357.22 36.5132 357.129 37.405 357.306C38.2968 357.484 39.116 357.922 39.7589 358.565C40.4019 359.207 40.8398 360.027 41.0171 360.918C41.1945 361.81 41.1035 362.735 40.7555 363.575C40.4076 364.415 39.8183 365.133 39.0623 365.638C38.3063 366.143 37.4174 366.413 36.5081 366.413H36.5081C35.2893 366.411 34.1209 365.926 33.2591 365.064C32.3973 364.203 31.9124 363.034 31.9108 361.815Z" fill="url(#paint73_linear)"/>
<path opacity="0.15" d="M19.7763 255.482C20.8772 255.283 21.8672 254.688 22.5591 253.809C23.2511 252.93 23.597 251.828 23.5316 250.711C23.4661 249.595 22.9938 248.541 22.2039 247.748C21.4139 246.956 20.3612 246.481 19.2446 246.412C19.4636 249.446 19.6199 252.448 19.7763 255.482Z" fill="url(#paint74_linear)"/>
<path opacity="0.15" d="M39.4792 175.231C39.4792 174.322 39.7489 173.433 40.254 172.677C40.7592 171.921 41.4772 171.332 42.3173 170.984C43.1573 170.636 44.0817 170.545 44.9735 170.722C45.8653 170.9 46.6845 171.338 47.3274 171.981C47.9704 172.624 48.4082 173.443 48.5856 174.334C48.763 175.226 48.672 176.151 48.324 176.991C47.9761 177.831 47.3868 178.549 46.6308 179.054C45.8748 179.559 44.9859 179.829 44.0766 179.829H44.0766C42.8578 179.827 41.6894 179.342 40.8276 178.48C39.9658 177.619 39.4809 176.45 39.4792 175.231Z" fill="url(#paint75_linear)"/>
<path opacity="0.15" d="M58.7756 230.337C58.7756 229.428 59.0453 228.539 59.5504 227.783C60.0556 227.027 60.7736 226.438 61.6136 226.09C62.4537 225.742 63.3781 225.651 64.2699 225.828C65.1617 226.006 65.9809 226.443 66.6238 227.086C67.2668 227.729 67.7046 228.549 67.882 229.44C68.0594 230.332 67.9684 231.256 67.6204 232.097C67.2725 232.937 66.6832 233.655 65.9272 234.16C65.1711 234.665 64.2823 234.935 63.373 234.935H63.373C62.1542 234.933 60.9858 234.448 60.124 233.586C59.2622 232.724 58.7773 231.556 58.7756 230.337Z" fill="url(#paint76_linear)"/>
<path opacity="0.15" d="M73.9125 457.766C73.9125 456.856 74.1821 455.968 74.6873 455.212C75.1924 454.456 75.9104 453.866 76.7505 453.518C77.5905 453.17 78.5149 453.079 79.4067 453.257C80.2985 453.434 81.1177 453.872 81.7606 454.515C82.4036 455.158 82.8415 455.977 83.0189 456.869C83.1962 457.761 83.1052 458.685 82.7572 459.525C82.4093 460.365 81.82 461.083 81.064 461.588C80.308 462.093 79.4191 462.363 78.5099 462.363H78.5098C77.291 462.361 76.1227 461.877 75.2608 461.015C74.399 460.153 73.9141 458.984 73.9125 457.766Z" fill="url(#paint77_linear)"/>
<path opacity="0.15" d="M179.933 732.951C179.933 732.041 180.203 731.152 180.708 730.396C181.213 729.64 181.931 729.051 182.771 728.703C183.611 728.355 184.536 728.264 185.427 728.441C186.319 728.619 187.138 729.057 187.781 729.7C188.424 730.343 188.862 731.162 189.039 732.054C189.217 732.945 189.126 733.87 188.778 734.71C188.43 735.55 187.841 736.268 187.085 736.773C186.329 737.278 185.44 737.548 184.53 737.548H184.53C183.312 737.546 182.143 737.061 181.281 736.199C180.42 735.338 179.935 734.169 179.933 732.951Z" fill="url(#paint78_linear)"/>
<path opacity="0.15" d="M240.543 770.105C240.543 769.195 240.813 768.307 241.318 767.551C241.823 766.795 242.541 766.205 243.381 765.857C244.222 765.509 245.146 765.418 246.038 765.596C246.929 765.773 247.749 766.211 248.392 766.854C249.035 767.497 249.472 768.316 249.65 769.208C249.827 770.1 249.736 771.024 249.388 771.864C249.04 772.704 248.451 773.422 247.695 773.927C246.939 774.432 246.05 774.702 245.141 774.702H245.141C243.922 774.7 242.754 774.215 241.892 773.354C241.03 772.492 240.545 771.324 240.543 770.105Z" fill="url(#paint79_linear)"/>
<path opacity="0.15" d="M277.01 761.848C277.01 760.939 277.279 760.05 277.784 759.294C278.289 758.538 279.007 757.949 279.848 757.601C280.688 757.253 281.612 757.162 282.504 757.339C283.396 757.516 284.215 757.954 284.858 758.597C285.501 759.24 285.938 760.059 286.116 760.951C286.293 761.843 286.202 762.767 285.854 763.607C285.506 764.447 284.917 765.165 284.161 765.671C283.405 766.176 282.516 766.445 281.607 766.445H281.607C280.388 766.444 279.22 765.959 278.358 765.097C277.496 764.235 277.011 763.067 277.01 761.848Z" fill="url(#paint80_linear)"/>
<path opacity="0.15" d="M294.93 807.978C294.93 807.069 295.199 806.18 295.704 805.424C296.21 804.668 296.928 804.079 297.768 803.731C298.608 803.383 299.532 803.292 300.424 803.469C301.316 803.646 302.135 804.084 302.778 804.727C303.421 805.37 303.859 806.189 304.036 807.081C304.213 807.973 304.122 808.897 303.774 809.737C303.427 810.577 302.837 811.295 302.081 811.801C301.325 812.306 300.436 812.575 299.527 812.575H299.527C298.308 812.574 297.14 812.089 296.278 811.227C295.416 810.365 294.931 809.197 294.93 807.978Z" fill="url(#paint81_linear)"/>
<path opacity="0.15" d="M510.443 485.756C510.443 484.847 510.712 483.958 511.217 483.202C511.723 482.446 512.441 481.857 513.281 481.509C514.121 481.161 515.045 481.07 515.937 481.247C516.829 481.425 517.648 481.863 518.291 482.506C518.934 483.149 519.372 483.968 519.549 484.86C519.726 485.751 519.635 486.676 519.287 487.516C518.939 488.356 518.35 489.074 517.594 489.579C516.838 490.084 515.949 490.354 515.04 490.354C513.821 490.352 512.653 489.867 511.791 489.005C510.929 488.144 510.444 486.975 510.443 485.756Z" fill="url(#paint82_linear)"/>
<path opacity="0.15" d="M548.973 318.437C548.973 317.528 549.242 316.639 549.747 315.883C550.253 315.127 550.971 314.538 551.811 314.19C552.651 313.842 553.575 313.751 554.467 313.928C555.359 314.106 556.178 314.544 556.821 315.187C557.464 315.83 557.902 316.649 558.079 317.541C558.256 318.432 558.165 319.357 557.817 320.197C557.469 321.037 556.88 321.755 556.124 322.26C555.368 322.765 554.479 323.035 553.57 323.035C552.351 323.033 551.183 322.548 550.321 321.686C549.459 320.825 548.974 319.656 548.973 318.437Z" fill="url(#paint83_linear)"/>
<path opacity="0.15" d="M600.638 779.081C600.638 778.171 600.908 777.282 601.413 776.526C601.918 775.77 602.636 775.181 603.476 774.833C604.317 774.485 605.241 774.394 606.133 774.572C607.024 774.749 607.844 775.187 608.487 775.83C609.13 776.473 609.567 777.292 609.745 778.184C609.922 779.075 609.831 780 609.483 780.84C609.135 781.68 608.546 782.398 607.79 782.903C607.034 783.408 606.145 783.678 605.236 783.678C604.017 783.676 602.849 783.191 601.987 782.329C601.125 781.468 600.64 780.299 600.638 779.081Z" fill="url(#paint84_linear)"/>
<path opacity="0.15" d="M526.956 786.649C526.956 785.74 527.225 784.851 527.73 784.095C528.236 783.339 528.954 782.75 529.794 782.402C530.634 782.054 531.558 781.963 532.45 782.14C533.342 782.317 534.161 782.755 534.804 783.398C535.447 784.041 535.885 784.86 536.062 785.752C536.239 786.644 536.148 787.568 535.8 788.408C535.452 789.249 534.863 789.967 534.107 790.472C533.351 790.977 532.462 791.246 531.553 791.246C530.334 791.245 529.166 790.76 528.304 789.898C527.442 789.036 526.957 787.868 526.956 786.649Z" fill="url(#paint85_linear)"/>
<path opacity="0.15" d="M561.389 760.472C561.389 759.563 561.659 758.674 562.164 757.918C562.669 757.162 563.387 756.573 564.227 756.225C565.067 755.877 565.991 755.786 566.883 755.963C567.775 756.14 568.594 756.578 569.237 757.221C569.88 757.864 570.318 758.683 570.495 759.575C570.673 760.467 570.582 761.391 570.234 762.231C569.886 763.072 569.296 763.789 568.54 764.295C567.784 764.8 566.896 765.069 565.986 765.069C564.767 765.068 563.599 764.583 562.737 763.721C561.875 762.859 561.391 761.691 561.389 760.472Z" fill="url(#paint86_linear)"/>
<path opacity="0.15" d="M590.287 704.71C590.287 703.801 590.556 702.912 591.061 702.156C591.567 701.4 592.285 700.81 593.125 700.462C593.965 700.114 594.889 700.023 595.781 700.201C596.673 700.378 597.492 700.816 598.135 701.459C598.778 702.102 599.216 702.921 599.393 703.813C599.57 704.705 599.479 705.629 599.131 706.469C598.783 707.309 598.194 708.027 597.438 708.532C596.682 709.038 595.793 709.307 594.884 709.307C593.665 709.305 592.497 708.821 591.635 707.959C590.773 707.097 590.288 705.929 590.287 704.71Z" fill="url(#paint87_linear)"/>
<path opacity="0.15" d="M584.094 572.512C584.094 571.603 584.364 570.714 584.869 569.958C585.374 569.202 586.092 568.613 586.932 568.265C587.772 567.917 588.697 567.826 589.588 568.003C590.48 568.181 591.299 568.618 591.942 569.261C592.585 569.904 593.023 570.723 593.201 571.615C593.378 572.507 593.287 573.431 592.939 574.271C592.591 575.112 592.002 575.83 591.246 576.335C590.49 576.84 589.601 577.109 588.692 577.109C587.473 577.108 586.304 576.623 585.443 575.761C584.581 574.899 584.096 573.731 584.094 572.512Z" fill="url(#paint88_linear)"/>
<path opacity="0.15" d="M551.037 593.184C551.037 592.275 551.307 591.386 551.812 590.63C552.317 589.874 553.035 589.285 553.875 588.937C554.715 588.589 555.639 588.498 556.531 588.675C557.423 588.853 558.242 589.291 558.885 589.934C559.528 590.576 559.966 591.396 560.143 592.287C560.321 593.179 560.23 594.104 559.882 594.944C559.534 595.784 558.944 596.502 558.188 597.007C557.432 597.512 556.544 597.782 555.634 597.782C554.415 597.78 553.247 597.295 552.385 596.433C551.523 595.572 551.039 594.403 551.037 593.184Z" fill="url(#paint89_linear)"/>
<path opacity="0.15" d="M499.309 629.307C499.309 628.397 499.579 627.509 500.084 626.753C500.589 625.997 501.307 625.407 502.147 625.059C502.987 624.711 503.912 624.62 504.803 624.798C505.695 624.975 506.514 625.413 507.157 626.056C507.8 626.699 508.238 627.518 508.415 628.41C508.593 629.302 508.502 630.226 508.154 631.066C507.806 631.906 507.217 632.624 506.461 633.129C505.705 633.634 504.816 633.904 503.906 633.904C502.688 633.902 501.519 633.418 500.657 632.556C499.796 631.694 499.311 630.525 499.309 629.307Z" fill="url(#paint90_linear)"/>
<path opacity="0.15" d="M471.193 677.501C471.193 676.592 471.463 675.703 471.968 674.947C472.473 674.191 473.191 673.601 474.031 673.253C474.871 672.906 475.796 672.815 476.687 672.992C477.579 673.169 478.398 673.607 479.041 674.25C479.684 674.893 480.122 675.712 480.299 676.604C480.477 677.496 480.386 678.42 480.038 679.26C479.69 680.1 479.101 680.818 478.345 681.323C477.589 681.829 476.7 682.098 475.79 682.098C474.572 682.097 473.403 681.612 472.541 680.75C471.68 679.888 471.195 678.72 471.193 677.501Z" fill="url(#paint91_linear)"/>
<path opacity="0.15" d="M440.2 685.445C440.2 684.535 440.47 683.646 440.975 682.89C441.48 682.134 442.198 681.545 443.038 681.197C443.878 680.849 444.803 680.758 445.694 680.935C446.586 681.113 447.405 681.551 448.048 682.194C448.691 682.837 449.129 683.656 449.307 684.548C449.484 685.439 449.393 686.364 449.045 687.204C448.697 688.044 448.108 688.762 447.352 689.267C446.596 689.772 445.707 690.042 444.798 690.042H444.798C443.579 690.04 442.41 689.555 441.549 688.694C440.687 687.832 440.202 686.663 440.2 685.445Z" fill="url(#paint92_linear)"/>
<path opacity="0.15" d="M470.505 793.529C470.505 792.62 470.775 791.731 471.28 790.975C471.785 790.219 472.503 789.63 473.343 789.282C474.183 788.934 475.108 788.843 475.999 789.02C476.891 789.198 477.71 789.636 478.353 790.279C478.996 790.922 479.434 791.741 479.612 792.633C479.789 793.524 479.698 794.449 479.35 795.289C479.002 796.129 478.413 796.847 477.657 797.352C476.901 797.857 476.012 798.127 475.103 798.127H475.102C473.884 798.125 472.715 797.64 471.853 796.778C470.992 795.917 470.507 794.748 470.505 793.529Z" fill="url(#paint93_linear)"/>
<path opacity="0.15" d="M406.455 805.226C406.455 804.317 406.724 803.428 407.23 802.672C407.735 801.916 408.453 801.327 409.293 800.979C410.133 800.631 411.057 800.54 411.949 800.717C412.841 800.894 413.66 801.332 414.303 801.975C414.946 802.618 415.384 803.437 415.561 804.329C415.739 805.221 415.648 806.145 415.3 806.985C414.952 807.825 414.362 808.543 413.606 809.049C412.85 809.554 411.961 809.823 411.052 809.823C409.833 809.822 408.665 809.337 407.803 808.475C406.941 807.613 406.456 806.445 406.455 805.226Z" fill="url(#paint94_linear)"/>
<path opacity="0.15" d="M369.958 720.535C369.958 719.625 370.227 718.737 370.732 717.98C371.237 717.224 371.955 716.635 372.796 716.287C373.636 715.939 374.56 715.848 375.452 716.026C376.344 716.203 377.163 716.641 377.806 717.284C378.449 717.927 378.887 718.746 379.064 719.638C379.241 720.529 379.15 721.454 378.802 722.294C378.454 723.134 377.865 723.852 377.109 724.357C376.353 724.862 375.464 725.132 374.555 725.132H374.555C373.336 725.13 372.168 724.645 371.306 723.784C370.444 722.922 369.959 721.753 369.958 720.535Z" fill="url(#paint95_linear)"/>
<path opacity="0.15" d="M359.637 747.399C359.637 746.49 359.906 745.601 360.412 744.845C360.917 744.089 361.635 743.5 362.475 743.152C363.315 742.804 364.239 742.713 365.131 742.89C366.023 743.068 366.842 743.506 367.485 744.149C368.128 744.792 368.566 745.611 368.743 746.503C368.92 747.394 368.829 748.319 368.482 749.159C368.134 749.999 367.544 750.717 366.788 751.222C366.032 751.727 365.143 751.997 364.234 751.997H364.234C363.015 751.995 361.847 751.51 360.985 750.648C360.123 749.787 359.638 748.618 359.637 747.399Z" fill="url(#paint96_linear)"/>
<path opacity="0.15" d="M421.623 244.098C421.623 243.189 421.893 242.3 422.398 241.544C422.903 240.788 423.621 240.199 424.461 239.851C425.301 239.503 426.225 239.412 427.117 239.589C428.009 239.766 428.828 240.204 429.471 240.847C430.114 241.49 430.552 242.309 430.729 243.201C430.907 244.093 430.816 245.017 430.468 245.857C430.12 246.697 429.531 247.415 428.775 247.921C428.019 248.426 427.13 248.695 426.22 248.695C425.002 248.694 423.833 248.209 422.971 247.347C422.11 246.485 421.625 245.317 421.623 244.098Z" fill="url(#paint97_linear)"/>
<path opacity="0.15" d="M272.193 166.287C272.193 165.378 272.463 164.489 272.968 163.733C273.473 162.977 274.191 162.388 275.031 162.04C275.871 161.692 276.796 161.601 277.687 161.778C278.579 161.955 279.398 162.393 280.041 163.036C280.684 163.679 281.122 164.498 281.299 165.39C281.477 166.282 281.386 167.206 281.038 168.046C280.69 168.886 280.101 169.604 279.345 170.11C278.589 170.615 277.7 170.884 276.79 170.884H276.79C275.572 170.883 274.403 170.398 273.541 169.536C272.68 168.674 272.195 167.506 272.193 166.287Z" fill="url(#paint98_linear)"/>
<path opacity="0.15" d="M357.573 170.884C357.573 169.975 357.842 169.086 358.347 168.33C358.852 167.574 359.57 166.985 360.411 166.637C361.251 166.289 362.175 166.198 363.067 166.375C363.959 166.553 364.778 166.991 365.421 167.634C366.064 168.276 366.501 169.096 366.679 169.987C366.856 170.879 366.765 171.804 366.417 172.644C366.069 173.484 365.48 174.202 364.724 174.707C363.968 175.212 363.079 175.482 362.17 175.482H362.17C360.951 175.48 359.783 174.995 358.921 174.133C358.059 173.272 357.574 172.103 357.573 170.884Z" fill="url(#paint99_linear)"/>
<path opacity="0.15" d="M223.999 240.658C223.999 239.749 224.269 238.86 224.774 238.104C225.279 237.348 225.997 236.758 226.837 236.411C227.677 236.063 228.601 235.971 229.493 236.149C230.385 236.326 231.204 236.764 231.847 237.407C232.49 238.05 232.928 238.869 233.105 239.761C233.283 240.653 233.192 241.577 232.844 242.417C232.496 243.257 231.907 243.975 231.151 244.48C230.395 244.986 229.506 245.255 228.596 245.255H228.596C227.378 245.254 226.209 244.769 225.347 243.907C224.486 243.045 224.001 241.877 223.999 240.658Z" fill="url(#paint100_linear)"/>
<path opacity="0.15" d="M117.978 387.304C117.978 386.395 118.248 385.506 118.753 384.75C119.258 383.994 119.976 383.405 120.816 383.057C121.656 382.709 122.581 382.618 123.473 382.795C124.364 382.973 125.183 383.41 125.826 384.053C126.469 384.696 126.907 385.515 127.085 386.407C127.262 387.299 127.171 388.223 126.823 389.063C126.475 389.904 125.886 390.622 125.13 391.127C124.374 391.632 123.485 391.902 122.576 391.902H122.576C121.357 391.9 120.188 391.415 119.327 390.553C118.465 389.691 117.98 388.523 117.978 387.304Z" fill="url(#paint101_linear)"/>
<path opacity="0.15" d="M182.748 497.797C182.748 496.888 183.018 495.999 183.523 495.243C184.028 494.487 184.746 493.898 185.586 493.55C186.426 493.202 187.35 493.111 188.242 493.288C189.134 493.465 189.953 493.903 190.596 494.546C191.239 495.189 191.677 496.008 191.854 496.9C192.032 497.792 191.941 498.716 191.593 499.556C191.245 500.396 190.656 501.114 189.9 501.62C189.144 502.125 188.255 502.394 187.345 502.394H187.345C186.127 502.393 184.958 501.908 184.096 501.046C183.235 500.184 182.75 499.016 182.748 497.797Z" fill="url(#paint102_linear)"/>
<path opacity="0.15" d="M133.365 488.884C133.365 487.974 133.635 487.086 134.14 486.33C134.645 485.574 135.363 484.984 136.203 484.636C137.043 484.288 137.968 484.197 138.859 484.375C139.751 484.552 140.57 484.99 141.213 485.633C141.856 486.276 142.294 487.095 142.472 487.987C142.649 488.879 142.558 489.803 142.21 490.643C141.862 491.483 141.273 492.201 140.517 492.706C139.761 493.211 138.872 493.481 137.963 493.481H137.963C136.744 493.479 135.575 492.995 134.714 492.133C133.852 491.271 133.367 490.103 133.365 488.884Z" fill="url(#paint103_linear)"/>
<path opacity="0.15" d="M106 474.404C106 473.495 106.27 472.606 106.775 471.85C107.28 471.094 107.998 470.504 108.838 470.156C109.678 469.808 110.603 469.717 111.494 469.895C112.386 470.072 113.205 470.51 113.848 471.153C114.491 471.796 114.929 472.615 115.106 473.507C115.284 474.399 115.193 475.323 114.845 476.163C114.497 477.003 113.908 477.721 113.152 478.226C112.396 478.731 111.507 479.001 110.598 479.001H110.597C109.379 478.999 108.21 478.515 107.348 477.653C106.487 476.791 106.002 475.623 106 474.404Z" fill="url(#paint104_linear)"/>
<path opacity="0.15" d="M279.167 421.769C279.167 420.859 279.437 419.971 279.942 419.215C280.447 418.459 281.165 417.869 282.006 417.521C282.846 417.173 283.77 417.082 284.662 417.26C285.554 417.437 286.373 417.875 287.016 418.518C287.659 419.161 288.096 419.98 288.274 420.872C288.451 421.764 288.36 422.688 288.012 423.528C287.664 424.368 287.075 425.086 286.319 425.591C285.563 426.096 284.674 426.366 283.765 426.366H283.765C282.546 426.364 281.378 425.88 280.516 425.018C279.654 424.156 279.169 422.988 279.167 421.769Z" fill="url(#paint105_linear)"/>
</g>
<g opacity="0.8">
<path d="M438.699 817.079C429.88 815.452 421.154 813.451 412.554 811.137C409.364 810.261 406.205 809.385 403.077 808.416C400.763 807.728 398.48 807.008 396.166 806.258C394.539 805.726 392.882 805.163 391.256 804.6C388.722 803.725 386.22 802.849 383.718 801.911C381.029 800.91 378.371 799.909 375.743 798.846L370.364 700.206L381.936 644.6L438.011 815.015L438.699 817.079Z" fill="url(#paint106_linear)"/>
<path d="M631.632 700.206L625.909 798.283C623.219 799.378 620.53 800.41 617.84 801.442C615.15 802.474 612.429 803.443 609.709 804.382C608.364 804.851 606.988 805.32 605.612 805.758C603.297 806.54 600.952 807.259 598.606 807.978C586.698 811.627 574.597 814.614 562.359 816.923L562.547 816.297L562.609 816.047L619.372 642.035L631.632 700.206Z" fill="url(#paint107_linear)"/>
<path d="M574.587 771.105L544.251 819.831L542.718 820.019C542.156 820.081 541.593 820.175 541.03 820.238C540.561 820.3 540.06 820.363 539.591 820.394L536.432 820.769C534.181 821.02 531.96 821.238 529.708 821.426C520.117 822.271 510.443 822.708 500.685 822.74H500.123C490.459 822.74 480.826 822.333 471.287 821.489C469.192 821.301 467.097 821.113 465.001 820.894C464.063 820.801 463.093 820.707 462.155 820.582L460.623 820.394L459.153 820.206L457.527 820.019L427.253 771.074L420.56 651.574L452.429 738.111L490.334 744.96L514.352 744.897L550.318 737.829L577.683 654.795L574.587 771.105Z" fill="url(#paint108_linear)"/>
<path d="M544.689 433.841L593.102 461.706L593.227 493.731L544.689 433.841Z" fill="url(#paint109_linear)"/>
<path d="M593.227 493.731L598.168 545.741L621.874 511.214L649.677 467.304L593.227 493.731Z" fill="url(#paint110_linear)"/>
<path d="M714.228 447.664L674.447 458.172L649.677 467.304L621.874 511.214L598.168 545.741L630.913 547.43L692.461 535.858L731.929 492.887L714.228 447.664Z" fill="url(#paint111_linear)"/>
<path d="M574.618 565.569L598.168 545.741L605.017 565.6L574.618 565.569Z" fill="url(#paint112_linear)"/>
<path d="M598.168 545.741L630.913 547.43L605.017 565.6L598.168 545.741Z" fill="url(#paint113_linear)"/>
<path d="M574.618 565.569L605.017 565.6L572.46 589.181L574.618 565.569Z" fill="url(#paint114_linear)"/>
<path d="M544.689 433.841L593.227 493.731L563.36 523.004L544.689 433.841Z" fill="url(#paint115_linear)"/>
<path d="M574.618 565.569L598.168 545.741L563.359 523.004L574.618 565.569Z" fill="url(#paint116_linear)"/>
<path d="M593.227 493.731L598.168 545.741L563.359 523.004L593.227 493.731Z" fill="url(#paint117_linear)"/>
<path d="M563.36 523.004L534.399 609.729L572.461 589.181L574.619 565.569L563.36 523.004Z" fill="url(#paint118_linear)"/>
<path d="M565.799 618.173L572.461 589.181L534.399 609.729L550.944 656.39L575.557 661.863L565.799 618.173Z" fill="url(#paint119_linear)"/>
<path d="M544.783 689.353L520.482 725.069L514.353 744.897L550.318 737.829L544.783 689.353Z" fill="url(#paint120_linear)"/>
<path d="M407.706 494.044L407.456 462.019L455.556 433.965L407.706 494.044Z" fill="url(#paint121_linear)"/>
<path d="M268.566 493.669L251.959 440.189L285.767 448.289L268.566 493.669Z" fill="url(#paint122_linear)"/>
<path d="M407.706 494.044L402.452 546.116L379.215 511.62L350.787 467.773L407.706 494.044Z" fill="url(#paint123_linear)"/>
<path d="M285.767 448.289L325.829 458.704L350.786 467.773L379.215 511.62L402.452 546.116L370.615 547.93L308.691 536.577L268.566 493.669L285.767 448.289Z" fill="url(#paint124_linear)"/>
<path d="M396.76 566.038L402.452 546.116L427.222 565.85L396.76 566.038Z" fill="url(#paint125_linear)"/>
<path d="M396.76 566.038L370.614 547.93L402.452 546.116L396.76 566.038Z" fill="url(#paint126_linear)"/>
<path d="M429.692 589.494L396.76 566.038L427.222 565.851L429.692 589.494Z" fill="url(#paint127_linear)"/>
<path d="M437.98 523.254L407.706 494.044L455.556 433.965L437.98 523.254Z" fill="url(#paint128_linear)"/>
<path d="M437.98 523.254L402.452 546.116L427.221 565.85L437.98 523.254Z" fill="url(#paint129_linear)"/>
<path d="M437.98 523.255L402.452 546.116L407.706 494.044L437.98 523.255Z" fill="url(#paint130_linear)"/>
<path d="M437.98 523.254L466.095 609.447L429.692 589.494L427.221 565.85L437.98 523.254Z" fill="url(#paint131_linear)"/>
<path d="M458.621 689.604L452.053 656.64L501.78 660.55L458.621 689.604Z" fill="url(#paint132_linear)"/>
<path d="M429.692 589.494L437.667 616.953L423.75 663.083L452.053 656.64L466.096 609.447L429.692 589.494Z" fill="url(#paint133_linear)"/>
<path d="M458.621 689.604L482.14 725.163L490.333 744.991L452.429 738.111L458.621 689.604Z" fill="url(#paint134_linear)"/>
<path d="M520.482 725.069L501.561 723.161V723.099L501.311 723.13L501.061 723.099V723.161L482.14 725.163L490.334 744.991L514.352 744.897L520.482 725.069Z" fill="url(#paint135_linear)"/>
<path d="M544.782 689.353L501.78 660.894V660.55L501.53 660.706L501.279 660.55V660.894L458.621 689.604L482.139 725.163L501.311 723.13L520.482 725.069L544.782 689.353Z" fill="url(#paint136_linear)"/>
<path d="M534.399 609.729L563.359 523.004L500.716 526.882L437.979 523.255L466.095 609.447L452.053 656.641L501.279 660.519V660.55L501.529 660.519L501.78 660.55V660.519L550.943 656.39L534.399 609.729Z" fill="url(#paint137_linear)"/>
<path d="M500.966 526.882L563.359 523.004L544.688 433.841L499.966 444.255L455.556 433.966L437.979 523.255L500.466 526.882V526.914L500.716 526.882L500.966 526.914V526.882Z" fill="url(#paint138_linear)"/>
<path d="M550.943 656.39L544.782 689.354L550.318 737.829L575.556 661.863L550.943 656.39Z" fill="url(#paint139_linear)"/>
<path d="M452.053 656.64L423.75 663.083L452.429 738.11L458.621 689.604L452.053 656.64Z" fill="url(#paint140_linear)"/>
<path d="M452.054 656.64L423.75 663.083L396.76 566.038L429.692 589.494L451.241 617.078L452.054 656.64Z" fill="url(#paint141_linear)"/>
<path d="M550.944 656.39L575.557 661.863L605.017 565.6L572.461 589.181L551.788 620.956L550.944 656.39Z" fill="url(#paint142_linear)"/>
<path d="M501.28 660.55L550.943 656.39L544.782 689.354L501.28 660.55Z" fill="url(#paint143_linear)"/>
<path d="M480.763 674.217H525.017L501.28 660.55L480.763 674.217Z" fill="url(#paint144_linear)"/>
<path d="M847.332 375.044L828.536 382.331L823.907 377.922L825.377 366.475L908.787 273.934L973.4 141.861L960.89 138.64L907.223 243.191L908.724 226.553L927.395 108.241L913.509 3.3151L901.937 0L906.941 91.5093L873.978 247.632L831.601 304.927L826.753 266.553L854.181 198.374L859.873 105.614L850.209 105.208L843.204 171.979L817.559 234.872L807.207 244.473L800.42 232.902L799.232 165.599L789.099 166.568L786.315 250.822L789.13 321.721L758.544 348.086L700.436 374.106L657.996 379.36L705.033 317.124L701.968 281.909L697.715 282.378L694.274 297.953L627.472 386.616L592.257 396.061L544.938 434.278L593.101 461.706L614.806 435.717L637.292 429.525L685.142 420.987L713.758 415.889L766.519 412.793L825.909 409.321L922.516 337.796L914.885 325.975L847.332 375.044Z" fill="url(#paint145_linear)"/>
<path d="M371.615 386.991L304.5 298.484L300.966 282.972L296.744 282.503L293.929 317.593L341.154 379.704L298.871 374.419L240.981 348.43L210.426 322.128L212.741 251.51L209.425 167.6L199.355 166.662L198.636 233.683L192.005 245.193L181.654 235.654L155.821 173.105L148.44 106.615L138.87 107.053L145.125 199.344L172.772 267.178L168.174 305.396L125.86 248.351L92.2084 93.1356L96.5243 2.12671L85.1404 5.47309L72.0676 109.836L91.3327 227.429L92.8964 243.973L39.198 140.11L26.8446 143.331L91.5829 274.528L174.742 366.663L176.274 378.047L171.74 382.425L153.069 375.169L85.8597 326.287L78.4163 338.047L174.523 409.29L233.476 412.887L285.892 416.045L314.383 421.206L362.108 429.806L384.563 436.03L407.456 462.019L455.556 433.966L406.768 396.467L371.615 386.991Z" fill="url(#paint146_linear)"/>
<path d="M459.153 820.237L457.526 820.05C453.242 819.487 448.988 818.861 444.766 818.173C444.141 818.079 443.515 817.954 442.89 817.86L438.73 817.11C429.911 815.484 421.185 813.482 412.585 811.168C409.395 810.292 406.236 809.416 403.109 808.447C400.794 807.759 398.511 807.04 396.197 806.289L386.564 758.189L381.967 644.662L396.791 566.1L423.781 663.145L427.284 771.168L459.153 820.237Z" fill="url(#paint147_linear)"/>
<path d="M619.872 644.6L615.275 758.126L615.087 758.314L605.58 805.726C603.266 806.508 600.92 807.227 598.575 807.947C586.667 811.596 574.566 814.582 562.327 816.891C560.92 817.141 559.513 817.423 558.105 817.673L557.105 817.861C557.042 817.861 557.011 817.892 556.948 817.892C552.726 818.611 548.473 819.268 544.188 819.831L542.656 820.019L574.493 771.074L575.463 661.832L604.955 565.6L619.341 642.066L619.872 644.6Z" fill="url(#paint148_linear)"/>
</g>
</g>
<defs>
<linearGradient id="paint0_linear" x1="533.022" y1="-225.228" x2="541.99" y2="822.62" gradientUnits="userSpaceOnUse">
<stop offset="0.386703" stop-color="#00386B"/>
<stop offset="1" stop-color="#00E0B5"/>
</linearGradient>
<linearGradient id="paint1_linear" x1="1119.66" y1="803.261" x2="-583.725" y2="191.861" gradientUnits="userSpaceOnUse">
<stop stop-color="#12ABA0"/>
<stop offset="1" stop-color="#009C9E"/>
</linearGradient>
<linearGradient id="paint2_linear" x1="-29320.2" y1="-32762.6" x2="-79399.4" y2="-50737.6" gradientUnits="userSpaceOnUse">
<stop stop-color="#12ABA0"/>
<stop offset="1" stop-color="#009C9E"/>
</linearGradient>
<linearGradient id="paint3_linear" x1="-29266.1" y1="-32817.1" x2="-79345.3" y2="-50792.2" gradientUnits="userSpaceOnUse">
<stop stop-color="#12ABA0"/>
<stop offset="1" stop-color="#009C9E"/>
</linearGradient>
<linearGradient id="paint4_linear" x1="-28952.1" y1="-33683.9" x2="-79031.2" y2="-51659" gradientUnits="userSpaceOnUse">
<stop stop-color="#12ABA0"/>
<stop offset="1" stop-color="#009C9E"/>
</linearGradient>
<linearGradient id="paint5_linear" x1="-28599.2" y1="-34654.7" x2="-78679.2" y2="-52630" gradientUnits="userSpaceOnUse">
<stop stop-color="#12ABA0"/>
<stop offset="1" stop-color="#009C9E"/>
</linearGradient>
<linearGradient id="paint6_linear" x1="-29070.3" y1="-33206.3" x2="-79149.7" y2="-51181.4" gradientUnits="userSpaceOnUse">
<stop stop-color="#12ABA0"/>
<stop offset="1" stop-color="#009C9E"/>
</linearGradient>
<linearGradient id="paint7_linear" x1="-28627" y1="-34449.9" x2="-78706.1" y2="-52424.9" gradientUnits="userSpaceOnUse">
<stop stop-color="#12ABA0"/>
<stop offset="1" stop-color="#009C9E"/>
</linearGradient>
<linearGradient id="paint8_linear" x1="-28001.8" y1="-36130.4" x2="-78081.3" y2="-54105.5" gradientUnits="userSpaceOnUse">
<stop stop-color="#12ABA0"/>
<stop offset="1" stop-color="#009C9E"/>
</linearGradient>
<linearGradient id="paint9_linear" x1="-28406.9" y1="-34855.6" x2="-78486" y2="-52830.6" gradientUnits="userSpaceOnUse">
<stop stop-color="#12ABA0"/>
<stop offset="1" stop-color="#009C9E"/>
</linearGradient>
<linearGradient id="paint10_linear" x1="-28125.5" y1="-35522.8" x2="-78205.1" y2="-53498" gradientUnits="userSpaceOnUse">
<stop stop-color="#12ABA0"/>
<stop offset="1" stop-color="#009C9E"/>
</linearGradient>
<linearGradient id="paint11_linear" x1="-27762.7" y1="-36507.1" x2="-77842" y2="-54482.3" gradientUnits="userSpaceOnUse">
<stop stop-color="#12ABA0"/>
<stop offset="1" stop-color="#009C9E"/>
</linearGradient>
<linearGradient id="paint12_linear" x1="-27405.2" y1="-37600.2" x2="-77485.1" y2="-55575.5" gradientUnits="userSpaceOnUse">
<stop stop-color="#12ABA0"/>
<stop offset="1" stop-color="#009C9E"/>
</linearGradient>
<linearGradient id="paint13_linear" x1="-27532.1" y1="-37081.4" x2="-77611.6" y2="-55056.5" gradientUnits="userSpaceOnUse">
<stop stop-color="#12ABA0"/>
<stop offset="1" stop-color="#009C9E"/>
</linearGradient>
<linearGradient id="paint14_linear" x1="-26804" y1="-39106.5" x2="-76883.9" y2="-57081.8" gradientUnits="userSpaceOnUse">
<stop stop-color="#12ABA0"/>
<stop offset="1" stop-color="#009C9E"/>
</linearGradient>
<linearGradient id="paint15_linear" x1="-27081.8" y1="-38486.1" x2="-77161.5" y2="-56461.3" gradientUnits="userSpaceOnUse">
<stop stop-color="#12ABA0"/>
<stop offset="1" stop-color="#009C9E"/>
</linearGradient>
<linearGradient id="paint16_linear" x1="-26609.3" y1="-39870.4" x2="-76689.4" y2="-57845.7" gradientUnits="userSpaceOnUse">
<stop stop-color="#12ABA0"/>
<stop offset="1" stop-color="#009C9E"/>
</linearGradient>
<linearGradient id="paint17_linear" x1="-26624.3" y1="-40043.8" x2="-76704.3" y2="-58019.1" gradientUnits="userSpaceOnUse">
<stop stop-color="#12ABA0"/>
<stop offset="1" stop-color="#009C9E"/>
</linearGradient>
<linearGradient id="paint18_linear" x1="-26588.7" y1="-40253.4" x2="-76667.9" y2="-58228.5" gradientUnits="userSpaceOnUse">
<stop stop-color="#12ABA0"/>
<stop offset="1" stop-color="#009C9E"/>
</linearGradient>
<linearGradient id="paint19_linear" x1="-26950.8" y1="-39281.1" x2="-77030.1" y2="-57256.2" gradientUnits="userSpaceOnUse">
<stop stop-color="#12ABA0"/>
<stop offset="1" stop-color="#009C9E"/>
</linearGradient>
<linearGradient id="paint20_linear" x1="-27432.8" y1="-37841.3" x2="-77512.1" y2="-55816.3" gradientUnits="userSpaceOnUse">
<stop stop-color="#12ABA0"/>
<stop offset="1" stop-color="#009C9E"/>
</linearGradient>
<linearGradient id="paint21_linear" x1="-28192" y1="-35883.2" x2="-78271" y2="-53858.2" gradientUnits="userSpaceOnUse">
<stop stop-color="#12ABA0"/>
<stop offset="1" stop-color="#009C9E"/>
</linearGradient>
<linearGradient id="paint22_linear" x1="-27898.2" y1="-36774.5" x2="-77977.1" y2="-54749.3" gradientUnits="userSpaceOnUse">
<stop stop-color="#12ABA0"/>
<stop offset="1" stop-color="#009C9E"/>
</linearGradient>
<linearGradient id="paint23_linear" x1="-27446.3" y1="-38134.5" x2="-77526" y2="-56109.7" gradientUnits="userSpaceOnUse">
<stop stop-color="#12ABA0"/>
<stop offset="1" stop-color="#009C9E"/>
</linearGradient>
<linearGradient id="paint24_linear" x1="-27150.6" y1="-38961.3" x2="-77229.8" y2="-56936.3" gradientUnits="userSpaceOnUse">
<stop stop-color="#12ABA0"/>
<stop offset="1" stop-color="#009C9E"/>
</linearGradient>
<linearGradient id="paint25_linear" x1="-26804.9" y1="-39835.1" x2="-76884.2" y2="-57810.3" gradientUnits="userSpaceOnUse">
<stop stop-color="#12ABA0"/>
<stop offset="1" stop-color="#009C9E"/>
</linearGradient>
<linearGradient id="paint26_linear" x1="-26535" y1="-40491.4" x2="-76614.1" y2="-58466.5" gradientUnits="userSpaceOnUse">
<stop stop-color="#12ABA0"/>
<stop offset="1" stop-color="#009C9E"/>
</linearGradient>
<linearGradient id="paint27_linear" x1="-26424.2" y1="-41005.9" x2="-76503.3" y2="-58980.9" gradientUnits="userSpaceOnUse">
<stop stop-color="#12ABA0"/>
<stop offset="1" stop-color="#009C9E"/>
</linearGradient>
<linearGradient id="paint28_linear" x1="-26182.7" y1="-41501.9" x2="-76262.2" y2="-59477.1" gradientUnits="userSpaceOnUse">
<stop stop-color="#12ABA0"/>
<stop offset="1" stop-color="#009C9E"/>
</linearGradient>
<linearGradient id="paint29_linear" x1="-26058.7" y1="-41990.9" x2="-76138.2" y2="-59966" gradientUnits="userSpaceOnUse">
<stop stop-color="#12ABA0"/>
<stop offset="1" stop-color="#009C9E"/>
</linearGradient>
<linearGradient id="paint30_linear" x1="-26033.7" y1="-42265.3" x2="-76112.8" y2="-60240.4" gradientUnits="userSpaceOnUse">
<stop stop-color="#12ABA0"/>
<stop offset="1" stop-color="#009C9E"/>
</linearGradient>
<linearGradient id="paint31_linear" x1="-26888.5" y1="-40099.5" x2="-76968.5" y2="-58074.8" gradientUnits="userSpaceOnUse">
<stop stop-color="#12ABA0"/>
<stop offset="1" stop-color="#009C9E"/>
</linearGradient>
<linearGradient id="paint32_linear" x1="-26458.5" y1="-41316.7" x2="-76538.5" y2="-59292" gradientUnits="userSpaceOnUse">
<stop stop-color="#12ABA0"/>
<stop offset="1" stop-color="#009C9E"/>
</linearGradient>
<linearGradient id="paint33_linear" x1="-27554.4" y1="-38429.6" x2="-77633.5" y2="-56404.6" gradientUnits="userSpaceOnUse">
<stop stop-color="#12ABA0"/>
<stop offset="1" stop-color="#009C9E"/>
</linearGradient>
<linearGradient id="paint34_linear" x1="-27965.6" y1="-37141.8" x2="-78044.9" y2="-55116.9" gradientUnits="userSpaceOnUse">
<stop stop-color="#12ABA0"/>
<stop offset="1" stop-color="#009C9E"/>
</linearGradient>
<linearGradient id="paint35_linear" x1="-28280.4" y1="-36128.2" x2="-78360.5" y2="-54103.6" gradientUnits="userSpaceOnUse">
<stop stop-color="#12ABA0"/>
<stop offset="1" stop-color="#009C9E"/>
</linearGradient>
<linearGradient id="paint36_linear" x1="-28955.6" y1="-34188.4" x2="-79034.7" y2="-52163.4" gradientUnits="userSpaceOnUse">
<stop stop-color="#12ABA0"/>
<stop offset="1" stop-color="#009C9E"/>
</linearGradient>
<linearGradient id="paint37_linear" x1="-28345" y1="-35834.9" x2="-78424.1" y2="-53809.9" gradientUnits="userSpaceOnUse">
<stop stop-color="#12ABA0"/>
<stop offset="1" stop-color="#009C9E"/>
</linearGradient>
<linearGradient id="paint38_linear" x1="-28654.9" y1="-34916.1" x2="-78734.5" y2="-52891.3" gradientUnits="userSpaceOnUse">
<stop stop-color="#12ABA0"/>
<stop offset="1" stop-color="#009C9E"/>
</linearGradient>
<linearGradient id="paint39_linear" x1="-29031.9" y1="-33817.7" x2="-79112" y2="-51793.1" gradientUnits="userSpaceOnUse">
<stop stop-color="#12ABA0"/>
<stop offset="1" stop-color="#009C9E"/>
</linearGradient>
<linearGradient id="paint40_linear" x1="-29168.2" y1="-33825.5" x2="-79247.8" y2="-51800.6" gradientUnits="userSpaceOnUse">
<stop stop-color="#12ABA0"/>
<stop offset="1" stop-color="#009C9E"/>
</linearGradient>
<linearGradient id="paint41_linear" x1="-29538.7" y1="-32795.7" x2="-79617.9" y2="-50770.7" gradientUnits="userSpaceOnUse">
<stop stop-color="#12ABA0"/>
<stop offset="1" stop-color="#009C9E"/>
</linearGradient>
<linearGradient id="paint42_linear" x1="-29777.6" y1="-32287" x2="-79856.8" y2="-50262.1" gradientUnits="userSpaceOnUse">
<stop stop-color="#12ABA0"/>
<stop offset="1" stop-color="#009C9E"/>
</linearGradient>
<linearGradient id="paint43_linear" x1="-30109.4" y1="-31252.8" x2="-80188.7" y2="-49227.8" gradientUnits="userSpaceOnUse">
<stop stop-color="#12ABA0"/>
<stop offset="1" stop-color="#009C9E"/>
</linearGradient>
<linearGradient id="paint44_linear" x1="-30352" y1="-30588.6" x2="-80431.4" y2="-48563.8" gradientUnits="userSpaceOnUse">
<stop stop-color="#12ABA0"/>
<stop offset="1" stop-color="#009C9E"/>
</linearGradient>
<linearGradient id="paint45_linear" x1="-30226.8" y1="-30761.5" x2="-80306.2" y2="-48736.6" gradientUnits="userSpaceOnUse">
<stop stop-color="#12ABA0"/>
<stop offset="1" stop-color="#009C9E"/>
</linearGradient>
<linearGradient id="paint46_linear" x1="-30433.7" y1="-29996.5" x2="-80512.9" y2="-47971.5" gradientUnits="userSpaceOnUse">
<stop stop-color="#12ABA0"/>
<stop offset="1" stop-color="#009C9E"/>
</linearGradient>
<linearGradient id="paint47_linear" x1="-30942.5" y1="-28815.1" x2="-81021.7" y2="-46790.2" gradientUnits="userSpaceOnUse">
<stop stop-color="#12ABA0"/>
<stop offset="1" stop-color="#009C9E"/>
</linearGradient>
<linearGradient id="paint48_linear" x1="-31013.6" y1="-28411.6" x2="-81092.8" y2="-46386.6" gradientUnits="userSpaceOnUse">
<stop stop-color="#12ABA0"/>
<stop offset="1" stop-color="#009C9E"/>
</linearGradient>
<linearGradient id="paint49_linear" x1="-30903.6" y1="-28549.1" x2="-80982.9" y2="-46524.2" gradientUnits="userSpaceOnUse">
<stop stop-color="#12ABA0"/>
<stop offset="1" stop-color="#009C9E"/>
</linearGradient>
<linearGradient id="paint50_linear" x1="-30338" y1="-29913.9" x2="-80417.2" y2="-47889" gradientUnits="userSpaceOnUse">
<stop stop-color="#12ABA0"/>
<stop offset="1" stop-color="#009C9E"/>
</linearGradient>
<linearGradient id="paint51_linear" x1="-30403.4" y1="-29629.4" x2="-80482.7" y2="-47604.4" gradientUnits="userSpaceOnUse">
<stop stop-color="#12ABA0"/>
<stop offset="1" stop-color="#009C9E"/>
</linearGradient>
<linearGradient id="paint52_linear" x1="-29894" y1="-31309.4" x2="-79974" y2="-49284.7" gradientUnits="userSpaceOnUse">
<stop stop-color="#12ABA0"/>
<stop offset="1" stop-color="#009C9E"/>
</linearGradient>
<linearGradient id="paint53_linear" x1="-30186.4" y1="-30545.7" x2="-80265.9" y2="-48520.8" gradientUnits="userSpaceOnUse">
<stop stop-color="#12ABA0"/>
<stop offset="1" stop-color="#009C9E"/>
</linearGradient>
<linearGradient id="paint54_linear" x1="-31337.2" y1="-27251.2" x2="-81416.7" y2="-45226.3" gradientUnits="userSpaceOnUse">
<stop stop-color="#12ABA0"/>
<stop offset="1" stop-color="#009C9E"/>
</linearGradient>
<linearGradient id="paint55_linear" x1="-31612.5" y1="-26457.1" x2="-81692" y2="-44432.3" gradientUnits="userSpaceOnUse">
<stop stop-color="#12ABA0"/>
<stop offset="1" stop-color="#009C9E"/>
</linearGradient>
<linearGradient id="paint56_linear" x1="-31483.5" y1="-26587.6" x2="-81562.8" y2="-44562.7" gradientUnits="userSpaceOnUse">
<stop stop-color="#12ABA0"/>
<stop offset="1" stop-color="#009C9E"/>
</linearGradient>
<linearGradient id="paint57_linear" x1="-31339.1" y1="-26945.5" x2="-81418.2" y2="-44920.6" gradientUnits="userSpaceOnUse">
<stop stop-color="#12ABA0"/>
<stop offset="1" stop-color="#009C9E"/>
</linearGradient>
<linearGradient id="paint58_linear" x1="-30647.1" y1="-28846.6" x2="-80726.8" y2="-46821.8" gradientUnits="userSpaceOnUse">
<stop stop-color="#12ABA0"/>
<stop offset="1" stop-color="#009C9E"/>
</linearGradient>
<linearGradient id="paint59_linear" x1="-30614.5" y1="-28790.8" x2="-80694" y2="-46766" gradientUnits="userSpaceOnUse">
<stop stop-color="#12ABA0"/>
<stop offset="1" stop-color="#009C9E"/>
</linearGradient>
<linearGradient id="paint60_linear" x1="-32689.6" y1="-23585.8" x2="-82768.9" y2="-41560.7" gradientUnits="userSpaceOnUse">
<stop stop-color="#12ABA0"/>
<stop offset="1" stop-color="#009C9E"/>
</linearGradient>
<linearGradient id="paint61_linear" x1="-32358.1" y1="-24900.7" x2="-82437.9" y2="-42875.9" gradientUnits="userSpaceOnUse">
<stop stop-color="#12ABA0"/>
<stop offset="1" stop-color="#009C9E"/>
</linearGradient>
<linearGradient id="paint62_linear" x1="-25681.7" y1="-43096.6" x2="-75761.1" y2="-61071.7" gradientUnits="userSpaceOnUse">
<stop stop-color="#12ABA0"/>
<stop offset="1" stop-color="#009C9E"/>
</linearGradient>
<linearGradient id="paint63_linear" x1="-25915.3" y1="-42169.9" x2="-75994.6" y2="-60144.8" gradientUnits="userSpaceOnUse">
<stop stop-color="#12ABA0"/>
<stop offset="1" stop-color="#009C9E"/>
</linearGradient>
<linearGradient id="paint64_linear" x1="-26166.4" y1="-41172.2" x2="-76246.4" y2="-59147.6" gradientUnits="userSpaceOnUse">
<stop stop-color="#12ABA0"/>
<stop offset="1" stop-color="#009C9E"/>
</linearGradient>
<linearGradient id="paint65_linear" x1="-26302.1" y1="-40634.9" x2="-76381.6" y2="-58610.1" gradientUnits="userSpaceOnUse">
<stop stop-color="#12ABA0"/>
<stop offset="1" stop-color="#009C9E"/>
</linearGradient>
<linearGradient id="paint66_linear" x1="-10434.7" y1="-30509.1" x2="-32456.9" y2="-33742.7" gradientUnits="userSpaceOnUse">
<stop stop-color="#12ABA0"/>
<stop offset="1" stop-color="#009C9E"/>
</linearGradient>
<linearGradient id="paint67_linear" x1="-29078.4" y1="-32713.6" x2="-79157.5" y2="-50688.5" gradientUnits="userSpaceOnUse">
<stop stop-color="#12ABA0"/>
<stop offset="1" stop-color="#009C9E"/>
</linearGradient>
<linearGradient id="paint68_linear" x1="-28593.2" y1="-34106.8" x2="-78672.6" y2="-52081.9" gradientUnits="userSpaceOnUse">
<stop stop-color="#12ABA0"/>
<stop offset="1" stop-color="#009C9E"/>
</linearGradient>
<linearGradient id="paint69_linear" x1="-28272.7" y1="-35012.9" x2="-78352.6" y2="-52988.1" gradientUnits="userSpaceOnUse">
<stop stop-color="#12ABA0"/>
<stop offset="1" stop-color="#009C9E"/>
</linearGradient>
<linearGradient id="paint70_linear" x1="-28368.8" y1="-34650.2" x2="-78447.8" y2="-52625.2" gradientUnits="userSpaceOnUse">
<stop stop-color="#12ABA0"/>
<stop offset="1" stop-color="#009C9E"/>
</linearGradient>
<linearGradient id="paint71_linear" x1="-27882.5" y1="-35914.4" x2="-77962" y2="-53889.6" gradientUnits="userSpaceOnUse">
<stop stop-color="#12ABA0"/>
<stop offset="1" stop-color="#009C9E"/>
</linearGradient>
<linearGradient id="paint72_linear" x1="-8273.02" y1="-28592.1" x2="-27271.4" y2="-31426.5" gradientUnits="userSpaceOnUse">
<stop stop-color="#12ABA0"/>
<stop offset="1" stop-color="#009C9E"/>
</linearGradient>
<linearGradient id="paint73_linear" x1="-28728.6" y1="-33642.5" x2="-78808.6" y2="-51617.9" gradientUnits="userSpaceOnUse">
<stop stop-color="#12ABA0"/>
<stop offset="1" stop-color="#009C9E"/>
</linearGradient>
<linearGradient id="paint74_linear" x1="-11799.6" y1="-35746.4" x2="-37463.4" y2="-40108.4" gradientUnits="userSpaceOnUse">
<stop stop-color="#12ABA0"/>
<stop offset="1" stop-color="#009C9E"/>
</linearGradient>
<linearGradient id="paint75_linear" x1="-26967.1" y1="-38386.4" x2="-77046.3" y2="-56361.4" gradientUnits="userSpaceOnUse">
<stop stop-color="#12ABA0"/>
<stop offset="1" stop-color="#009C9E"/>
</linearGradient>
<linearGradient id="paint76_linear" x1="-27436.8" y1="-37186.7" x2="-77515.9" y2="-55161.7" gradientUnits="userSpaceOnUse">
<stop stop-color="#12ABA0"/>
<stop offset="1" stop-color="#009C9E"/>
</linearGradient>
<linearGradient id="paint77_linear" x1="-29527.1" y1="-31632.3" x2="-79606.4" y2="-49607.4" gradientUnits="userSpaceOnUse">
<stop stop-color="#12ABA0"/>
<stop offset="1" stop-color="#009C9E"/>
</linearGradient>
<linearGradient id="paint78_linear" x1="-31849.9" y1="-25731.6" x2="-81929.2" y2="-43706.6" gradientUnits="userSpaceOnUse">
<stop stop-color="#12ABA0"/>
<stop offset="1" stop-color="#009C9E"/>
</linearGradient>
<linearGradient id="paint79_linear" x1="-32054.4" y1="-25367.6" x2="-82133.8" y2="-43342.7" gradientUnits="userSpaceOnUse">
<stop stop-color="#12ABA0"/>
<stop offset="1" stop-color="#009C9E"/>
</linearGradient>
<linearGradient id="paint80_linear" x1="-31891.2" y1="-25915.3" x2="-81970.8" y2="-43890.4" gradientUnits="userSpaceOnUse">
<stop stop-color="#12ABA0"/>
<stop offset="1" stop-color="#009C9E"/>
</linearGradient>
<linearGradient id="paint81_linear" x1="-32280.1" y1="-24927.5" x2="-82360.1" y2="-42902.7" gradientUnits="userSpaceOnUse">
<stop stop-color="#12ABA0"/>
<stop offset="1" stop-color="#009C9E"/>
</linearGradient>
<linearGradient id="paint82_linear" x1="-28760.3" y1="-35011.8" x2="-78839.7" y2="-52987" gradientUnits="userSpaceOnUse">
<stop stop-color="#12ABA0"/>
<stop offset="1" stop-color="#009C9E"/>
</linearGradient>
<linearGradient id="paint83_linear" x1="-27105.6" y1="-39562.7" x2="-77185" y2="-57537.8" gradientUnits="userSpaceOnUse">
<stop stop-color="#12ABA0"/>
<stop offset="1" stop-color="#009C9E"/>
</linearGradient>
<linearGradient id="paint84_linear" x1="-31290.1" y1="-28509" x2="-81369" y2="-46483.9" gradientUnits="userSpaceOnUse">
<stop stop-color="#12ABA0"/>
<stop offset="1" stop-color="#009C9E"/>
</linearGradient>
<linearGradient id="paint85_linear" x1="-31534.5" y1="-27630.6" x2="-81613.6" y2="-45605.7" gradientUnits="userSpaceOnUse">
<stop stop-color="#12ABA0"/>
<stop offset="1" stop-color="#009C9E"/>
</linearGradient>
<linearGradient id="paint86_linear" x1="-31208.6" y1="-28608.1" x2="-81287.5" y2="-46583" gradientUnits="userSpaceOnUse">
<stop stop-color="#12ABA0"/>
<stop offset="1" stop-color="#009C9E"/>
</linearGradient>
<linearGradient id="paint87_linear" x1="-30619.1" y1="-30274.7" x2="-80699.1" y2="-48250.1" gradientUnits="userSpaceOnUse">
<stop stop-color="#12ABA0"/>
<stop offset="1" stop-color="#009C9E"/>
</linearGradient>
<linearGradient id="paint88_linear" x1="-29398" y1="-33527.7" x2="-79477.1" y2="-51502.8" gradientUnits="userSpaceOnUse">
<stop stop-color="#12ABA0"/>
<stop offset="1" stop-color="#009C9E"/>
</linearGradient>
<linearGradient id="paint89_linear" x1="-29668.9" y1="-32700.9" x2="-79749" y2="-50676.2" gradientUnits="userSpaceOnUse">
<stop stop-color="#12ABA0"/>
<stop offset="1" stop-color="#009C9E"/>
</linearGradient>
<linearGradient id="paint90_linear" x1="-30128.6" y1="-31312.7" x2="-80207.6" y2="-49287.7" gradientUnits="userSpaceOnUse">
<stop stop-color="#12ABA0"/>
<stop offset="1" stop-color="#009C9E"/>
</linearGradient>
<linearGradient id="paint91_linear" x1="-30645.2" y1="-29842.8" x2="-80725.2" y2="-47818.2" gradientUnits="userSpaceOnUse">
<stop stop-color="#12ABA0"/>
<stop offset="1" stop-color="#009C9E"/>
</linearGradient>
<linearGradient id="paint92_linear" x1="-30792.5" y1="-29354.3" x2="-80872.4" y2="-47329.5" gradientUnits="userSpaceOnUse">
<stop stop-color="#12ABA0"/>
<stop offset="1" stop-color="#009C9E"/>
</linearGradient>
<linearGradient id="paint93_linear" x1="-31731.8" y1="-26930.6" x2="-81811" y2="-44905.7" gradientUnits="userSpaceOnUse">
<stop stop-color="#12ABA0"/>
<stop offset="1" stop-color="#009C9E"/>
</linearGradient>
<linearGradient id="paint94_linear" x1="-31992" y1="-26039.1" x2="-82071.3" y2="-44014.1" gradientUnits="userSpaceOnUse">
<stop stop-color="#12ABA0"/>
<stop offset="1" stop-color="#009C9E"/>
</linearGradient>
<linearGradient id="paint95_linear" x1="-31286" y1="-27818.8" x2="-81366.1" y2="-45794.2" gradientUnits="userSpaceOnUse">
<stop stop-color="#12ABA0"/>
<stop offset="1" stop-color="#009C9E"/>
</linearGradient>
<linearGradient id="paint96_linear" x1="-31561.7" y1="-27049.5" x2="-81641.1" y2="-45024.7" gradientUnits="userSpaceOnUse">
<stop stop-color="#12ABA0"/>
<stop offset="1" stop-color="#009C9E"/>
</linearGradient>
<linearGradient id="paint97_linear" x1="-26710.7" y1="-40234" x2="-76790" y2="-58209.1" gradientUnits="userSpaceOnUse">
<stop stop-color="#12ABA0"/>
<stop offset="1" stop-color="#009C9E"/>
</linearGradient>
<linearGradient id="paint98_linear" x1="-26335.2" y1="-40785.8" x2="-76414.6" y2="-58761" gradientUnits="userSpaceOnUse">
<stop stop-color="#12ABA0"/>
<stop offset="1" stop-color="#009C9E"/>
</linearGradient>
<linearGradient id="paint99_linear" x1="-26177" y1="-41468.9" x2="-76256.2" y2="-59443.8" gradientUnits="userSpaceOnUse">
<stop stop-color="#12ABA0"/>
<stop offset="1" stop-color="#009C9E"/>
</linearGradient>
<linearGradient id="paint100_linear" x1="-27144" y1="-38472.8" x2="-77223.2" y2="-56447.8" gradientUnits="userSpaceOnUse">
<stop stop-color="#12ABA0"/>
<stop offset="1" stop-color="#009C9E"/>
</linearGradient>
<linearGradient id="paint101_linear" x1="-28764.7" y1="-33808.9" x2="-78843.8" y2="-51784" gradientUnits="userSpaceOnUse">
<stop stop-color="#12ABA0"/>
<stop offset="1" stop-color="#009C9E"/>
</linearGradient>
<linearGradient id="paint102_linear" x1="-29645" y1="-31647.1" x2="-79724.2" y2="-49622.1" gradientUnits="userSpaceOnUse">
<stop stop-color="#12ABA0"/>
<stop offset="1" stop-color="#009C9E"/>
</linearGradient>
<linearGradient id="paint103_linear" x1="-29677.5" y1="-31408.6" x2="-79757.5" y2="-49383.9" gradientUnits="userSpaceOnUse">
<stop stop-color="#12ABA0"/>
<stop offset="1" stop-color="#009C9E"/>
</linearGradient>
<linearGradient id="paint104_linear" x1="-29607.1" y1="-31515.6" x2="-79686.3" y2="-49490.6" gradientUnits="userSpaceOnUse">
<stop stop-color="#12ABA0"/>
<stop offset="1" stop-color="#009C9E"/>
</linearGradient>
<linearGradient id="paint105_linear" x1="-28707.2" y1="-34452.6" x2="-78786.3" y2="-52427.7" gradientUnits="userSpaceOnUse">
<stop stop-color="#12ABA0"/>
<stop offset="1" stop-color="#009C9E"/>
</linearGradient>
<linearGradient id="paint106_linear" x1="404.532" y1="353.074" x2="404.532" y2="887.04" gradientUnits="userSpaceOnUse">
<stop stop-color="#00E0A4"/>
<stop offset="1" stop-color="#00182E"/>
</linearGradient>
<linearGradient id="paint107_linear" x1="167493" y1="-342905" x2="167493" y2="-44311" gradientUnits="userSpaceOnUse">
<stop stop-color="#00E0A4"/>
<stop offset="1" stop-color="#00182E"/>
</linearGradient>
<linearGradient id="paint108_linear" x1="499.122" y1="912.354" x2="499.122" y2="531.236" gradientUnits="userSpaceOnUse">
<stop stop-color="#00E0B5"/>
<stop offset="1" stop-color="#000B08"/>
</linearGradient>
<linearGradient id="paint109_linear" x1="553.678" y1="428.077" x2="603.997" y2="486.433" gradientUnits="userSpaceOnUse">
<stop stop-color="#00917B"/>
<stop offset="1" stop-color="#00BD86"/>
</linearGradient>
<linearGradient id="paint110_linear" x1="584.542" y1="530.223" x2="686.703" y2="446.807" gradientUnits="userSpaceOnUse">
<stop stop-color="#00E0A3"/>
<stop offset="1" stop-color="#00298F"/>
</linearGradient>
<linearGradient id="paint111_linear" x1="630.363" y1="536.414" x2="802.958" y2="395.488" gradientUnits="userSpaceOnUse">
<stop stop-color="#00E094"/>
<stop offset="1" stop-color="#000051"/>
</linearGradient>
<linearGradient id="paint112_linear" x1="607.161" y1="554.092" x2="577.059" y2="562.626" gradientUnits="userSpaceOnUse">
<stop stop-color="#005773"/>
<stop offset="1" stop-color="#003B1B"/>
</linearGradient>
<linearGradient id="paint113_linear" x1="827360" y1="-648154" x2="828304" y2="-645940" gradientUnits="userSpaceOnUse">
<stop stop-color="#00E094"/>
<stop offset="1" stop-color="#000051"/>
</linearGradient>
<linearGradient id="paint114_linear" x1="578.668" y1="566.295" x2="602.592" y2="599.017" gradientUnits="userSpaceOnUse">
<stop stop-color="#000700"/>
<stop offset="1" stop-color="#002B16"/>
</linearGradient>
<linearGradient id="paint115_linear" x1="544.159" y1="435.79" x2="617.505" y2="490.538" gradientUnits="userSpaceOnUse">
<stop stop-color="#00ABB5"/>
<stop offset="1" stop-color="#00AD95"/>
</linearGradient>
<linearGradient id="paint116_linear" x1="564.429" y1="524.074" x2="603.864" y2="565.463" gradientUnits="userSpaceOnUse">
<stop stop-color="#00C77A"/>
<stop offset="1" stop-color="#00C797"/>
</linearGradient>
<linearGradient id="paint117_linear" x1="564.773" y1="488.929" x2="610.106" y2="536.507" gradientUnits="userSpaceOnUse">
<stop stop-color="#00D4B0"/>
<stop offset="1" stop-color="#00A1B5"/>
</linearGradient>
<linearGradient id="paint118_linear" x1="454.329" y1="650.278" x2="588.992" y2="540.327" gradientUnits="userSpaceOnUse">
<stop stop-color="#00E088"/>
<stop offset="1" stop-color="#00E0B5"/>
</linearGradient>
<linearGradient id="paint119_linear" x1="523.873" y1="664.509" x2="604.107" y2="590.446" gradientUnits="userSpaceOnUse">
<stop stop-color="#00E094"/>
<stop offset="1" stop-color="#00E0B5"/>
</linearGradient>
<linearGradient id="paint120_linear" x1="72691.4" y1="-15526.4" x2="83661.9" y2="-21153.5" gradientUnits="userSpaceOnUse">
<stop stop-color="#00C77A"/>
<stop offset="1" stop-color="#00C797"/>
</linearGradient>
<linearGradient id="paint121_linear" x1="-2.48261e+06" y1="-3.97045e+06" x2="-2.49204e+06" y2="-3.96157e+06" gradientUnits="userSpaceOnUse">
<stop stop-color="#00917B"/>
<stop offset="1" stop-color="#00BD86"/>
</linearGradient>
<linearGradient id="paint122_linear" x1="-1.33602e+06" y1="-3.62952e+06" x2="-1.34203e+06" y2="-3.62656e+06" gradientUnits="userSpaceOnUse">
<stop stop-color="#004F75"/>
<stop offset="1" stop-color="#006186"/>
</linearGradient>
<linearGradient id="paint123_linear" x1="-397299" y1="-89056.3" x2="-421081" y2="-102727" gradientUnits="userSpaceOnUse">
<stop stop-color="#00E0A3"/>
<stop offset="1" stop-color="#00298F"/>
</linearGradient>
<linearGradient id="paint124_linear" x1="-939307" y1="-65095.1" x2="-994107" y2="-124342" gradientUnits="userSpaceOnUse">
<stop stop-color="#00E094"/>
<stop offset="1" stop-color="#000051"/>
</linearGradient>
<linearGradient id="paint125_linear" x1="51828.7" y1="-24066.8" x2="54017.3" y2="-22557.3" gradientUnits="userSpaceOnUse">
<stop stop-color="#005773"/>
<stop offset="1" stop-color="#003B1B"/>
</linearGradient>
<linearGradient id="paint126_linear" x1="-952579" y1="-642292" x2="-953872" y2="-639320" gradientUnits="userSpaceOnUse">
<stop stop-color="#00E094"/>
<stop offset="1" stop-color="#000051"/>
</linearGradient>
<linearGradient id="paint127_linear" x1="-915424" y1="-700379" x2="-916983" y2="-697291" gradientUnits="userSpaceOnUse">
<stop stop-color="#000700"/>
<stop offset="1" stop-color="#002B16"/>
</linearGradient>
<linearGradient id="paint128_linear" x1="-3.06586e+06" y1="-9.53719e+06" x2="-3.08001e+06" y2="-9.53091e+06" gradientUnits="userSpaceOnUse">
<stop stop-color="#00ABB5"/>
<stop offset="1" stop-color="#00AD95"/>
</linearGradient>
<linearGradient id="paint129_linear" x1="-1.28216e+06" y1="-2.08099e+06" x2="-1.28743e+06" y2="-2.0763e+06" gradientUnits="userSpaceOnUse">
<stop stop-color="#00C77A"/>
<stop offset="1" stop-color="#00C797"/>
</linearGradient>
<linearGradient id="paint130_linear" x1="-1.33475e+06" y1="-2.57591e+06" x2="-1.34165e+06" y2="-2.57082e+06" gradientUnits="userSpaceOnUse">
<stop stop-color="#00D4B0"/>
<stop offset="1" stop-color="#00A1B5"/>
</linearGradient>
<linearGradient id="paint131_linear" x1="-258353" y1="-80978.2" x2="-284385" y2="-89519.7" gradientUnits="userSpaceOnUse">
<stop stop-color="#00E088"/>
<stop offset="1" stop-color="#00E0B5"/>
</linearGradient>
<linearGradient id="paint132_linear" x1="-2.03059e+06" y1="-1.12922e+06" x2="-2.03263e+06" y2="-1.12311e+06" gradientUnits="userSpaceOnUse">
<stop stop-color="#00E094"/>
<stop offset="1" stop-color="#00E0B5"/>
</linearGradient>
<linearGradient id="paint133_linear" x1="72170.9" y1="-63116.4" x2="89419.4" y2="-73041.7" gradientUnits="userSpaceOnUse">
<stop stop-color="#00E094"/>
<stop offset="1" stop-color="#00E0B5"/>
</linearGradient>
<linearGradient id="paint134_linear" x1="-250841" y1="-22125.7" x2="-262233" y2="-28253.7" gradientUnits="userSpaceOnUse">
<stop stop-color="#00C77A"/>
<stop offset="1" stop-color="#00C797"/>
</linearGradient>
<linearGradient id="paint135_linear" x1="80719.2" y1="-14483.9" x2="82284.2" y2="-17224.9" gradientUnits="userSpaceOnUse">
<stop stop-color="#00C77A"/>
<stop offset="1" stop-color="#00C797"/>
</linearGradient>
<linearGradient id="paint136_linear" x1="542.03" y1="692.856" x2="462.561" y2="692.856" gradientUnits="userSpaceOnUse">
<stop stop-color="#004D45"/>
<stop offset="0.11" stop-color="#003630"/>
<stop offset="0.24" stop-color="#00221E"/>
<stop offset="0.37" stop-color="#001613"/>
<stop offset="0.5" stop-color="#00120F"/>
<stop offset="0.67" stop-color="#001512"/>
<stop offset="0.78" stop-color="#001E1A"/>
<stop offset="0.88" stop-color="#002D28"/>
<stop offset="0.97" stop-color="#00423B"/>
<stop offset="1" stop-color="#004D45"/>
</linearGradient>
<linearGradient id="paint137_linear" x1="500.669" y1="655.533" x2="500.669" y2="525.569" gradientUnits="userSpaceOnUse">
<stop stop-color="#00C584"/>
<stop offset="1" stop-color="#00E0A9"/>
</linearGradient>
<linearGradient id="paint138_linear" x1="500.12" y1="536.853" x2="505.394" y2="405.009" gradientUnits="userSpaceOnUse">
<stop stop-color="#00C7B5"/>
<stop offset="1" stop-color="#00ABB5"/>
</linearGradient>
<linearGradient id="paint139_linear" x1="560.169" y1="740.96" x2="560.169" y2="651.818" gradientUnits="userSpaceOnUse">
<stop stop-color="#007F9B"/>
<stop offset="1" stop-color="#00C693"/>
</linearGradient>
<linearGradient id="paint140_linear" x1="67081.6" y1="-59801.6" x2="67081.6" y2="-81753.7" gradientUnits="userSpaceOnUse">
<stop stop-color="#007F9B"/>
<stop offset="1" stop-color="#00C693"/>
</linearGradient>
<linearGradient id="paint141_linear" x1="489.556" y1="676.978" x2="351.451" y2="565.581" gradientUnits="userSpaceOnUse">
<stop stop-color="#00C696"/>
<stop offset="1" stop-color="#00959B"/>
</linearGradient>
<linearGradient id="paint142_linear" x1="115227" y1="-56795" x2="149691" y2="-71820.7" gradientUnits="userSpaceOnUse">
<stop stop-color="#00C696"/>
<stop offset="1" stop-color="#00959B"/>
</linearGradient>
<linearGradient id="paint143_linear" x1="1.79592e+06" y1="-1.14753e+06" x2="1.79799e+06" y2="-1.14142e+06" gradientUnits="userSpaceOnUse">
<stop stop-color="#00E094"/>
<stop offset="1" stop-color="#00E0B5"/>
</linearGradient>
<linearGradient id="paint144_linear" x1="90650.5" y1="-32782.5" x2="90851.4" y2="-31389.8" gradientUnits="userSpaceOnUse">
<stop stop-color="#00E094"/>
<stop offset="1" stop-color="#00E0B5"/>
</linearGradient>
<linearGradient id="paint145_linear" x1="1.25505e+06" y1="-736119" x2="1.25505e+06" y2="-1.65891e+06" gradientUnits="userSpaceOnUse">
<stop stop-color="#00E094"/>
<stop offset="1" stop-color="#000051"/>
</linearGradient>
<linearGradient id="paint146_linear" x1="545233" y1="-733221" x2="545233" y2="-1.65239e+06" gradientUnits="userSpaceOnUse">
<stop stop-color="#00E094"/>
<stop offset="1" stop-color="#000051"/>
</linearGradient>
<linearGradient id="paint147_linear" x1="420.56" y1="844.935" x2="420.56" y2="575.952" gradientUnits="userSpaceOnUse">
<stop stop-color="#00E0AB"/>
<stop offset="1" stop-color="#00182E"/>
</linearGradient>
<linearGradient id="paint148_linear" x1="182732" y1="-99222.4" x2="182732" y2="-318228" gradientUnits="userSpaceOnUse">
<stop stop-color="#00E0AB"/>
<stop offset="1" stop-color="#00182E"/>
</linearGradient>
</defs>
</svg>
