<svg width="58" height="58" viewBox="0 0 58 58" fill="none" xmlns="http://www.w3.org/2000/svg">
<g filter="url(#filter0_d)">
<circle cx="29" cy="24.9998" r="24.5" fill="white" stroke="#00E094"/>
<path d="M28.632 39.6379C29.2858 39.9789 30.084 39.1879 29.7366 38.5347C29.5348 38.0022 28.7698 37.8606 28.3791 38.2665C27.9651 38.656 28.1001 39.426 28.632 39.6379ZM21.5992 38.8798C21.9964 39.0433 22.4992 38.6794 22.4587 38.2465C22.5009 37.7766 21.9262 37.4307 21.5214 37.654C20.985 37.8618 21.0463 38.7325 21.5992 38.8798ZM36.0031 37.6408C35.3824 37.7158 35.2842 38.6917 35.8818 38.8882C36.3453 39.1143 36.7705 38.6904 36.8384 38.251C36.7411 37.8759 36.427 37.5324 36.0031 37.6408ZM23.1994 35.8866C23.8635 36.3066 24.811 35.6811 24.7089 34.9098C24.6744 34.131 23.64 33.6798 23.0563 34.2063C22.492 34.6198 22.5775 35.5686 23.1994 35.8866ZM33.3366 35.4409C33.6328 36.2044 34.8333 36.2275 35.1705 35.4843C35.5038 34.9059 35.0938 34.1896 34.5 33.993C33.7134 33.8461 32.9662 34.6965 33.3366 35.4409ZM27.7851 34.0363C27.7786 34.6926 28.3764 35.1816 29.0001 35.2263C29.4138 35.1433 29.8647 34.9671 30.0421 34.5496C30.3729 33.9738 30.0792 33.1809 29.4816 32.9166C29.2083 32.7634 28.8852 32.8209 28.5876 32.8387C28.1326 33.0621 27.7495 33.5001 27.7851 34.0363ZM17.3263 33.0801C17.9329 33.453 18.7513 32.7724 18.5216 32.1135C18.3952 31.5435 17.629 31.3116 17.191 31.6755C16.7234 32.0164 16.7975 32.8362 17.3263 33.0801ZM39.7851 33.0813C40.2998 33.4809 41.1491 33.0225 41.0877 32.3727C41.1222 31.7802 40.388 31.3333 39.8771 31.6384C39.3144 31.8913 39.257 32.757 39.7851 33.0813ZM30.7263 31.9015C31.5756 32.2066 32.5843 31.8415 33.0684 31.0843C33.7069 30.1587 33.3672 28.749 32.3763 28.2178C31.3495 27.5896 29.8503 28.1221 29.4711 29.2687C29.0406 30.2952 29.6677 31.5798 30.7263 31.9015ZM25.7433 31.8006C26.6845 32.2449 27.9513 31.8721 28.4059 30.9093C28.941 29.9721 28.5273 28.6671 27.5707 28.1832C26.613 27.6393 25.2618 28.0516 24.7983 29.0578C24.2785 30.0309 24.7401 31.3525 25.7433 31.8006ZM20.7538 30.0948C20.8253 30.7012 21.3975 31.0959 21.9747 31.1367C22.5966 31.0617 23.0934 30.5787 23.161 29.9493C23.1202 29.3262 22.6387 28.7172 21.9784 28.7209C21.252 28.6584 20.615 29.3811 20.7538 30.0948ZM35.491 31.0048C36.2368 31.4389 37.2725 30.807 37.2393 29.9502C37.2905 29.0424 36.1443 28.4026 35.4016 28.9351C34.6302 29.3785 34.6903 30.6273 35.491 31.0048ZM23.7154 27.8053C24.5877 28.0453 25.585 27.6342 26.0128 26.8324C26.4814 26.0254 26.2899 24.9043 25.5621 24.3124C24.6286 23.4442 22.9071 23.7928 22.4103 24.9776C21.8394 26.0638 22.5328 27.5194 23.7154 27.8053ZM33.1668 27.8098C34.0147 28.0524 35.0109 27.7255 35.4667 26.953C36.0694 26.0695 35.7817 24.7517 34.8844 24.1822C33.9445 23.5208 32.4886 23.8681 31.9714 24.9022C31.3444 25.9718 31.9753 27.4836 33.1668 27.8098ZM18.1052 26.8018C18.8587 27.0868 19.6939 26.2554 19.3886 25.5083C19.2022 24.8278 18.2431 24.5762 17.7476 25.078C17.1679 25.5491 17.3825 26.5975 18.1052 26.8018ZM38.5278 25.7177C38.5061 26.3421 38.9628 26.895 39.603 26.9295C40.119 26.8477 40.6208 26.4314 40.58 25.8697C40.6272 25.1278 39.7332 24.6235 39.1011 24.9721C38.8049 25.1227 38.6529 25.4266 38.5278 25.7177ZM14.4005 26.4354C14.8538 26.6332 15.4145 26.2403 15.311 25.7369C15.2867 25.1669 14.4452 24.9478 14.1361 25.424C13.8629 25.7548 14.0264 26.2648 14.4005 26.4354ZM42.9821 26.4468C43.3013 26.674 43.8134 26.5107 43.9398 26.1378C44.1543 25.7305 43.761 25.1725 43.3026 25.2413C42.6591 25.1827 42.4509 26.1634 42.9821 26.4468ZM26.1775 23.7106C27.3703 24.0208 28.6525 23.0261 28.66 21.7979C28.7379 20.5568 27.475 19.4563 26.254 19.7429C25.3102 19.8949 24.5697 20.804 24.6003 21.7577C24.5977 22.6699 25.2861 23.5177 26.1775 23.7106ZM30.9013 23.7131C32.112 24.0515 33.4324 23.039 33.4132 21.7825C33.4771 20.5643 32.2537 19.5008 31.0582 19.7425C29.9332 19.888 29.1031 21.124 29.4172 22.2157C29.5758 22.9432 30.1836 23.5348 30.9013 23.7131ZM21.7935 22.9571C22.6312 23.1001 23.4166 22.1654 23.0769 21.37C22.8291 20.5223 21.5955 20.2924 21.0501 20.9848C20.4103 21.6497 20.8879 22.8653 21.7935 22.9571ZM35.6467 22.9198C36.3937 23.2327 37.3107 22.5865 37.2533 21.7757C37.2833 20.8832 36.1512 20.2678 35.4207 20.7887C34.5933 21.2564 34.7439 22.6328 35.6467 22.9198ZM39.5189 19.036C39.2264 19.5812 39.7577 20.3039 40.3631 20.203C40.6644 20.2081 40.8752 19.9706 41.0681 19.7714C41.1077 19.4483 41.1741 19.0628 40.9059 18.8138C40.5417 18.3529 39.7167 18.4844 39.5189 19.036ZM17.3237 20.0512C17.8895 20.4278 18.7037 19.8661 18.5765 19.2046C18.5089 18.6196 17.7719 18.2852 17.2865 18.6172C16.7656 18.9185 16.7848 19.7765 17.3237 20.0512ZM28.5018 18.8266C29.2425 19.1534 30.1861 18.5086 30.1159 17.6927C30.1708 16.7912 29.0037 16.1669 28.2795 16.7083C27.475 17.1731 27.6091 18.5407 28.5018 18.8266ZM23.3245 17.6188C23.9554 17.9507 24.802 17.3774 24.7446 16.6714C24.7638 16.0916 24.198 15.5975 23.6259 15.6832C23.152 15.6934 22.843 16.1182 22.6911 16.5221C22.6989 16.9624 22.8801 17.4527 23.3245 17.6188ZM33.8116 17.6086C34.4604 18.0095 35.3824 17.4337 35.3211 16.6786C35.3377 15.8894 34.2957 15.3839 33.6916 15.9023C33.1068 16.3087 33.1782 17.2855 33.8116 17.6086ZM35.6353 13.1C35.3467 13.5367 35.6865 14.0627 36.1551 14.1623C36.5319 14.0857 36.9303 13.8023 36.8511 13.3655C36.7962 12.7744 35.9316 12.593 35.6353 13.1ZM21.1587 13.4792C21.2736 13.8253 21.552 14.1692 21.9594 14.0792C22.5532 14.0371 22.7295 13.142 22.2097 12.8662C21.7423 12.551 21.2001 12.9826 21.1587 13.4792ZM28.1428 13.0822C28.2565 13.5941 28.9192 13.8431 29.356 13.5712C29.6446 13.4473 29.7289 13.1243 29.803 12.8498C29.7634 12.7069 29.728 12.5638 29.6932 12.4208C29.5144 12.2089 29.2846 11.9969 28.987 12.0046C28.434 11.9398 27.9351 12.565 28.1428 13.0822Z" fill="#12ABA0"/>
</g>
<defs>
<filter id="filter0_d" x="0" y="-0.000244141" width="58" height="58" filterUnits="userSpaceOnUse" color-interpolation-filters="sRGB">
<feFlood flood-opacity="0" result="BackgroundImageFix"/>
<feColorMatrix in="SourceAlpha" type="matrix" values="0 0 0 0 0 0 0 0 0 0 0 0 0 0 0 0 0 0 127 0"/>
<feOffset dy="4"/>
<feGaussianBlur stdDeviation="2"/>
<feColorMatrix type="matrix" values="0 0 0 0 0 0 0 0 0 0 0 0 0 0 0 0 0 0 0.25 0"/>
<feBlend mode="normal" in2="BackgroundImageFix" result="effect1_dropShadow"/>
<feBlend mode="normal" in="SourceGraphic" in2="effect1_dropShadow" result="shape"/>
</filter>
</defs>
</svg>
