<svg width="58" height="58" viewBox="0 0 58 58" fill="none" xmlns="http://www.w3.org/2000/svg">
<g filter="url(#filter0_d)">
<circle cx="29" cy="25" r="24.5" fill="white" stroke="#00E094"/>
<path d="M36 21.3334H34.8333V19C34.8333 15.78 32.22 13.1667 29 13.1667C25.78 13.1667 23.1666 15.78 23.1666 19V21.3334H22C20.7166 21.3334 19.6666 22.3834 19.6666 23.6667V35.3334C19.6666 36.6167 20.7166 37.6667 22 37.6667H36C37.2833 37.6667 38.3333 36.6167 38.3333 35.3334V23.6667C38.3333 22.3834 37.2833 21.3334 36 21.3334ZM25.5 19C25.5 17.0634 27.0633 15.5 29 15.5C30.9366 15.5 32.5 17.0634 32.5 19V21.3334H25.5V19ZM36 35.3334H22V23.6667H36V35.3334ZM29 31.8334C30.2833 31.8334 31.3333 30.7834 31.3333 29.5C31.3333 28.2167 30.2833 27.1667 29 27.1667C27.7166 27.1667 26.6666 28.2167 26.6666 29.5C26.6666 30.7834 27.7166 31.8334 29 31.8334Z" fill="#12ABA0"/>
</g>
<defs>
<filter id="filter0_d" x="0" y="0" width="58" height="58" filterUnits="userSpaceOnUse" color-interpolation-filters="sRGB">
<feFlood flood-opacity="0" result="BackgroundImageFix"/>
<feColorMatrix in="SourceAlpha" type="matrix" values="0 0 0 0 0 0 0 0 0 0 0 0 0 0 0 0 0 0 127 0"/>
<feOffset dy="4"/>
<feGaussianBlur stdDeviation="2"/>
<feColorMatrix type="matrix" values="0 0 0 0 0 0 0 0 0 0 0 0 0 0 0 0 0 0 0.25 0"/>
<feBlend mode="normal" in2="BackgroundImageFix" result="effect1_dropShadow"/>
<feBlend mode="normal" in="SourceGraphic" in2="effect1_dropShadow" result="shape"/>
</filter>
</defs>
</svg>
