<svg width="60" height="60" viewBox="0 0 60 60" fill="none" xmlns="http://www.w3.org/2000/svg">
<g filter="url(#filter0_d)">
<circle cx="30" cy="26" r="24.5" fill="white" stroke="#00E094"/>
<path d="M40 33H34V29H31.32C30.18 31.42 27.72 33 25 33C21.14 33 18 29.86 18 26C18 22.14 21.14 19 25 19C27.72 19 30.17 20.58 31.32 23H42V29H40V33ZM36 31H38V27H40V25H29.94L29.71 24.33C29.01 22.34 27.11 21 25 21C22.24 21 20 23.24 20 26C20 28.76 22.24 31 25 31C27.11 31 29.01 29.66 29.71 27.67L29.94 27H36V31ZM25 29C23.35 29 22 27.65 22 26C22 24.35 23.35 23 25 23C26.65 23 28 24.35 28 26C28 27.65 26.65 29 25 29ZM25 25C24.45 25 24 25.45 24 26C24 26.55 24.45 27 25 27C25.55 27 26 26.55 26 26C26 25.45 25.55 25 25 25Z" fill="#12ABA0"/>
</g>
<defs>
<filter id="filter0_d" x="0" y="0" width="60" height="60" filterUnits="userSpaceOnUse" color-interpolation-filters="sRGB">
<feFlood flood-opacity="0" result="BackgroundImageFix"/>
<feColorMatrix in="SourceAlpha" type="matrix" values="0 0 0 0 0 0 0 0 0 0 0 0 0 0 0 0 0 0 127 0"/>
<feOffset dy="4"/>
<feGaussianBlur stdDeviation="2.5"/>
<feColorMatrix type="matrix" values="0 0 0 0 0 0 0 0 0 0 0 0 0 0 0 0 0 0 0.25 0"/>
<feBlend mode="normal" in2="BackgroundImageFix" result="effect1_dropShadow"/>
<feBlend mode="normal" in="SourceGraphic" in2="effect1_dropShadow" result="shape"/>
</filter>
</defs>
</svg>
