<svg width="1011" height="879" viewBox="0 0 1011 879" fill="none" xmlns="http://www.w3.org/2000/svg">
<g opacity="0.3">
<g opacity="0.8">
<path d="M439.656 872.234C430.241 870.498 420.926 868.361 411.745 865.891C408.34 864.956 404.968 864.021 401.629 862.986C399.159 862.252 396.722 861.484 394.251 860.683C392.515 860.115 390.746 859.514 389.01 858.913C386.305 857.978 383.635 857.044 380.964 856.042C378.093 854.974 375.255 853.905 372.45 852.77L366.708 747.472L379.061 688.112L438.921 870.031L439.656 872.234Z" fill="url(#paint0_linear)"/>
<path d="M645.612 747.472L639.503 852.17C636.632 853.338 633.76 854.44 630.889 855.542C628.018 856.643 625.114 857.678 622.209 858.68C620.773 859.181 619.304 859.681 617.835 860.149C615.365 860.983 612.861 861.751 610.357 862.519C597.645 866.415 584.728 869.602 571.663 872.068L571.863 871.4L571.93 871.133L632.525 685.375L645.612 747.472Z" fill="url(#paint1_linear)"/>
<path d="M584.716 823.157L552.332 875.172L550.697 875.373C550.096 875.44 549.495 875.54 548.894 875.606C548.393 875.673 547.859 875.74 547.358 875.773L543.986 876.174C541.582 876.441 539.212 876.675 536.808 876.875C526.57 877.777 516.242 878.244 505.826 878.277H505.225C494.909 878.277 484.626 877.843 474.444 876.942C472.207 876.742 469.97 876.541 467.733 876.308C466.732 876.207 465.697 876.107 464.695 875.974L463.059 875.773L461.49 875.573L459.754 875.373L427.437 823.124L420.292 695.557L454.312 787.936L494.775 795.247L520.416 795.18L558.809 787.635L588.022 698.996L584.716 823.157Z" fill="url(#paint2_linear)"/>
<path d="M552.801 463.126L604.482 492.873L604.615 527.06L552.801 463.126Z" fill="url(#paint3_linear)"/>
<path d="M733.784 477.883L769.574 469.136L752.681 526.158L733.784 477.883Z" fill="url(#paint4_linear)"/>
<path d="M604.614 527.06L609.889 582.58L635.196 545.722L664.875 498.849L604.614 527.06Z" fill="url(#paint5_linear)"/>
<path d="M733.784 477.883L691.317 489.1L664.876 498.849L635.196 545.722L609.89 582.58L644.844 584.383L710.548 572.03L752.68 526.158L733.784 477.883Z" fill="url(#paint6_linear)"/>
<path d="M584.75 603.747L609.889 582.58L617.201 603.78L584.75 603.747Z" fill="url(#paint7_linear)"/>
<path d="M609.89 582.58L644.844 584.383L617.201 603.78L609.89 582.58Z" fill="url(#paint8_linear)"/>
<path d="M584.75 603.747L617.201 603.78L582.446 628.953L584.75 603.747Z" fill="url(#paint9_linear)"/>
<path d="M552.801 463.126L604.615 527.06L572.732 558.309L552.801 463.126Z" fill="url(#paint10_linear)"/>
<path d="M584.75 603.747L609.89 582.58L572.731 558.309L584.75 603.747Z" fill="url(#paint11_linear)"/>
<path d="M604.615 527.06L609.89 582.58L572.731 558.309L604.615 527.06Z" fill="url(#paint12_linear)"/>
<path d="M572.732 558.309L541.816 650.887L582.447 628.953L584.75 603.747L572.732 558.309Z" fill="url(#paint13_linear)"/>
<path d="M575.336 659.901L582.447 628.953L541.816 650.887L559.477 700.699L585.752 706.541L575.336 659.901Z" fill="url(#paint14_linear)"/>
<path d="M552.9 735.887L526.96 774.013L520.416 795.18L558.81 787.635L552.9 735.887Z" fill="url(#paint15_linear)"/>
<path d="M406.571 527.393L406.304 493.207L457.651 463.26L406.571 527.393Z" fill="url(#paint16_linear)"/>
<path d="M258.038 526.993L240.311 469.903L276.4 478.55L258.038 526.993Z" fill="url(#paint17_linear)"/>
<path d="M406.572 527.394L400.963 582.981L376.157 546.156L345.81 499.35L406.572 527.394Z" fill="url(#paint18_linear)"/>
<path d="M276.4 478.55L319.167 489.668L345.809 499.35L376.157 546.156L400.962 582.981L366.976 584.917L300.872 572.798L258.038 526.993L276.4 478.55Z" fill="url(#paint19_linear)"/>
<path d="M394.886 604.247L400.962 582.98L427.403 604.047L394.886 604.247Z" fill="url(#paint20_linear)"/>
<path d="M394.885 604.247L366.975 584.917L400.961 582.98L394.885 604.247Z" fill="url(#paint21_linear)"/>
<path d="M430.041 629.287L394.886 604.248L427.403 604.047L430.041 629.287Z" fill="url(#paint22_linear)"/>
<path d="M438.889 558.576L406.571 527.393L457.651 463.26L438.889 558.576Z" fill="url(#paint23_linear)"/>
<path d="M438.888 558.576L400.962 582.981L427.403 604.047L438.888 558.576Z" fill="url(#paint24_linear)"/>
<path d="M438.888 558.576L400.962 582.981L406.571 527.394L438.888 558.576Z" fill="url(#paint25_linear)"/>
<path d="M438.888 558.576L468.902 650.587L430.041 629.287L427.403 604.047L438.888 558.576Z" fill="url(#paint26_linear)"/>
<path d="M460.923 736.154L453.912 700.966L506.995 705.139L460.923 736.154Z" fill="url(#paint27_linear)"/>
<path d="M430.041 629.287L438.554 658.599L423.697 707.843L453.911 700.966L468.901 650.587L430.041 629.287Z" fill="url(#paint28_linear)"/>
<path d="M460.923 736.154L486.029 774.114L494.776 795.28L454.312 787.935L460.923 736.154Z" fill="url(#paint29_linear)"/>
<path d="M526.96 774.013L506.762 771.977V771.91L506.495 771.943L506.228 771.91V771.977L486.029 774.114L494.776 795.28L520.417 795.18L526.96 774.013Z" fill="url(#paint30_linear)"/>
<path d="M552.9 735.887L506.995 705.506V705.139L506.728 705.306L506.461 705.139V705.506L460.923 736.154L486.029 774.113L506.494 771.943L526.96 774.013L552.9 735.887Z" fill="url(#paint31_linear)"/>
<path d="M541.817 650.887L572.732 558.309L505.86 562.449L438.889 558.576L468.902 650.587L453.912 700.966L506.461 705.106V705.139L506.728 705.106L506.995 705.139V705.106L559.478 700.699L541.817 650.887Z" fill="url(#paint32_linear)"/>
<path d="M506.127 562.449L572.732 558.309L552.801 463.126L505.059 474.244L457.651 463.26L438.889 558.576L505.593 562.449V562.482L505.86 562.449L506.127 562.482V562.449Z" fill="url(#paint33_linear)"/>
<path d="M559.477 700.699L552.9 735.887L558.81 787.635L585.752 706.541L559.477 700.699Z" fill="url(#paint34_linear)"/>
<path d="M453.911 700.966L423.697 707.843L454.312 787.935L460.922 736.154L453.911 700.966Z" fill="url(#paint35_linear)"/>
<path d="M453.912 700.966L423.698 707.843L394.886 604.248L430.041 629.287L453.044 658.733L453.912 700.966Z" fill="url(#paint36_linear)"/>
<path d="M559.478 700.699L585.752 706.541L617.201 603.78L582.447 628.953L560.379 662.873L559.478 700.699Z" fill="url(#paint37_linear)"/>
<path d="M506.461 705.139L559.477 700.699L552.9 735.887L506.461 705.139Z" fill="url(#paint38_linear)"/>
<path d="M484.56 719.728H531.8L506.461 705.139L484.56 719.728Z" fill="url(#paint39_linear)"/>
<path d="M875.874 400.361L855.809 408.14L850.868 403.433L852.437 391.213L941.476 292.425L1010.45 151.437L997.097 147.999L939.807 259.607L941.41 241.846L961.341 115.548L946.518 3.53888L934.165 0L939.507 97.6865L904.318 264.348L859.081 325.51L853.906 284.546L883.185 211.765L889.261 112.743L878.945 112.309L871.467 183.588L844.09 250.726L833.04 260.976L825.795 248.623L824.526 176.777L813.709 177.812L810.738 267.753L813.743 343.438L781.092 371.583L719.061 399.359L673.757 404.968L723.969 338.531L720.697 300.938L716.156 301.439L712.484 318.065L641.172 412.714L603.58 422.796L553.067 463.593L604.481 492.873L627.651 465.129L651.655 458.519L702.735 449.405L733.283 443.963L789.605 440.658L853.004 436.952L956.133 360.599L947.987 347.979L875.874 400.361Z" fill="url(#paint40_linear)"/>
<path d="M368.044 413.114L296.398 318.633L292.625 302.074L288.118 301.573L285.114 339.032L335.526 405.336L290.389 399.693L228.592 371.95L195.974 343.873L198.444 268.488L194.906 178.914L184.155 177.912L183.388 249.458L176.31 261.744L165.259 251.561L137.683 184.79L129.804 113.812L119.588 114.279L126.265 212.8L155.778 285.214L150.87 326.011L105.699 265.116L69.7761 99.4226L74.3833 2.27026L62.2309 5.84253L48.2757 117.251L68.8413 242.781L70.5106 260.442L13.1873 149.568L0 153.007L69.1084 293.06L157.881 391.414L159.517 403.566L154.676 408.24L134.745 400.495L62.9988 348.313L55.053 360.866L157.647 436.918L220.579 440.758L276.534 444.13L306.948 449.638L357.894 458.819L381.865 465.463L406.304 493.207L457.651 463.26L405.569 423.23L368.044 413.114Z" fill="url(#paint41_linear)"/>
<path d="M461.491 875.606L459.755 875.406C455.181 874.805 450.64 874.137 446.133 873.403C445.465 873.302 444.798 873.169 444.13 873.069L439.69 872.267C430.275 870.531 420.96 868.395 411.779 865.924C408.374 864.989 405.002 864.055 401.663 863.02C399.193 862.285 396.756 861.517 394.285 860.716L384.002 809.369L379.095 688.179L394.92 604.314L423.731 707.91L427.471 823.224L461.491 875.606Z" fill="url(#paint42_linear)"/>
<path d="M633.06 688.112L628.152 809.302L627.952 809.502L617.803 860.115C615.332 860.95 612.828 861.718 610.324 862.486C597.613 866.381 584.695 869.569 571.63 872.034C570.128 872.301 568.626 872.601 567.123 872.869L566.055 873.069C565.988 873.069 565.955 873.102 565.888 873.102C561.381 873.87 556.841 874.571 552.267 875.172L550.631 875.373L584.617 823.124L585.652 706.508L617.135 603.78L632.493 685.408L633.06 688.112Z" fill="url(#paint43_linear)"/>
</g>
</g>
<defs>
<linearGradient id="paint0_linear" x1="403.182" y1="376.907" x2="403.182" y2="946.918" gradientUnits="userSpaceOnUse">
<stop stop-color="#00E0A4"/>
<stop offset="1" stop-color="#00182E"/>
</linearGradient>
<linearGradient id="paint1_linear" x1="178771" y1="-366052" x2="178771" y2="-47302.2" gradientUnits="userSpaceOnUse">
<stop stop-color="#00E0A4"/>
<stop offset="1" stop-color="#00182E"/>
</linearGradient>
<linearGradient id="paint2_linear" x1="504.157" y1="973.941" x2="504.157" y2="567.096" gradientUnits="userSpaceOnUse">
<stop stop-color="#00E0B5"/>
<stop offset="1" stop-color="#000B08"/>
</linearGradient>
<linearGradient id="paint3_linear" x1="562.397" y1="456.973" x2="616.112" y2="519.268" gradientUnits="userSpaceOnUse">
<stop stop-color="#00917B"/>
<stop offset="1" stop-color="#00BD86"/>
</linearGradient>
<linearGradient id="paint4_linear" x1="742.198" y1="455.7" x2="791.71" y2="491.464" gradientUnits="userSpaceOnUse">
<stop stop-color="#004F75"/>
<stop offset="1" stop-color="#006186"/>
</linearGradient>
<linearGradient id="paint5_linear" x1="595.343" y1="566.015" x2="704.401" y2="476.968" gradientUnits="userSpaceOnUse">
<stop stop-color="#00E0A3"/>
<stop offset="1" stop-color="#00298F"/>
</linearGradient>
<linearGradient id="paint6_linear" x1="644.258" y1="572.623" x2="828.503" y2="422.184" gradientUnits="userSpaceOnUse">
<stop stop-color="#00E094"/>
<stop offset="1" stop-color="#000051"/>
</linearGradient>
<linearGradient id="paint7_linear" x1="619.49" y1="591.495" x2="587.355" y2="600.605" gradientUnits="userSpaceOnUse">
<stop stop-color="#005773"/>
<stop offset="1" stop-color="#003B1B"/>
</linearGradient>
<linearGradient id="paint8_linear" x1="883181" y1="-691906" x2="884188" y2="-689543" gradientUnits="userSpaceOnUse">
<stop stop-color="#00E094"/>
<stop offset="1" stop-color="#000051"/>
</linearGradient>
<linearGradient id="paint9_linear" x1="589.073" y1="604.522" x2="614.612" y2="639.453" gradientUnits="userSpaceOnUse">
<stop stop-color="#000700"/>
<stop offset="1" stop-color="#002B16"/>
</linearGradient>
<linearGradient id="paint10_linear" x1="552.236" y1="465.208" x2="630.532" y2="523.651" gradientUnits="userSpaceOnUse">
<stop stop-color="#00ABB5"/>
<stop offset="1" stop-color="#00AD95"/>
</linearGradient>
<linearGradient id="paint11_linear" x1="573.873" y1="559.451" x2="615.971" y2="603.634" gradientUnits="userSpaceOnUse">
<stop stop-color="#00C77A"/>
<stop offset="1" stop-color="#00C797"/>
</linearGradient>
<linearGradient id="paint12_linear" x1="574.24" y1="521.933" x2="622.634" y2="572.723" gradientUnits="userSpaceOnUse">
<stop stop-color="#00D4B0"/>
<stop offset="1" stop-color="#00A1B5"/>
</linearGradient>
<linearGradient id="paint13_linear" x1="456.341" y1="694.174" x2="600.094" y2="576.801" gradientUnits="userSpaceOnUse">
<stop stop-color="#00E088"/>
<stop offset="1" stop-color="#00E0B5"/>
</linearGradient>
<linearGradient id="paint14_linear" x1="530.579" y1="709.365" x2="616.229" y2="630.303" gradientUnits="userSpaceOnUse">
<stop stop-color="#00E094"/>
<stop offset="1" stop-color="#00E0B5"/>
</linearGradient>
<linearGradient id="paint15_linear" x1="77569.6" y1="-16574.5" x2="89280.7" y2="-22581.5" gradientUnits="userSpaceOnUse">
<stop stop-color="#00C77A"/>
<stop offset="1" stop-color="#00C797"/>
</linearGradient>
<linearGradient id="paint16_linear" x1="-2.65023e+06" y1="-4.23847e+06" x2="-2.66029e+06" y2="-4.22899e+06" gradientUnits="userSpaceOnUse">
<stop stop-color="#00917B"/>
<stop offset="1" stop-color="#00BD86"/>
</linearGradient>
<linearGradient id="paint17_linear" x1="-1.42624e+06" y1="-3.87452e+06" x2="-1.43265e+06" y2="-3.87136e+06" gradientUnits="userSpaceOnUse">
<stop stop-color="#004F75"/>
<stop offset="1" stop-color="#006186"/>
</linearGradient>
<linearGradient id="paint18_linear" x1="-424147" y1="-95067.9" x2="-449534" y2="-109661" gradientUnits="userSpaceOnUse">
<stop stop-color="#00E0A3"/>
<stop offset="1" stop-color="#00298F"/>
</linearGradient>
<linearGradient id="paint19_linear" x1="-1.00274e+06" y1="-69489.2" x2="-1.06124e+06" y2="-132735" gradientUnits="userSpaceOnUse">
<stop stop-color="#00E094"/>
<stop offset="1" stop-color="#000051"/>
</linearGradient>
<linearGradient id="paint20_linear" x1="55298.7" y1="-25691.4" x2="57635" y2="-24080" gradientUnits="userSpaceOnUse">
<stop stop-color="#005773"/>
<stop offset="1" stop-color="#003B1B"/>
</linearGradient>
<linearGradient id="paint21_linear" x1="-1.01691e+06" y1="-685649" x2="-1.01829e+06" y2="-682476" gradientUnits="userSpaceOnUse">
<stop stop-color="#00E094"/>
<stop offset="1" stop-color="#000051"/>
</linearGradient>
<linearGradient id="paint22_linear" x1="-977246" y1="-747656" x2="-978911" y2="-744360" gradientUnits="userSpaceOnUse">
<stop stop-color="#000700"/>
<stop offset="1" stop-color="#002B16"/>
</linearGradient>
<linearGradient id="paint23_linear" x1="-3.27284e+06" y1="-1.0181e+07" x2="-3.28795e+06" y2="-1.01743e+07" gradientUnits="userSpaceOnUse">
<stop stop-color="#00ABB5"/>
<stop offset="1" stop-color="#00AD95"/>
</linearGradient>
<linearGradient id="paint24_linear" x1="-1.36874e+06" y1="-2.22146e+06" x2="-1.37436e+06" y2="-2.21646e+06" gradientUnits="userSpaceOnUse">
<stop stop-color="#00C77A"/>
<stop offset="1" stop-color="#00C797"/>
</linearGradient>
<linearGradient id="paint25_linear" x1="-1.42488e+06" y1="-2.74979e+06" x2="-1.43224e+06" y2="-2.74436e+06" gradientUnits="userSpaceOnUse">
<stop stop-color="#00D4B0"/>
<stop offset="1" stop-color="#00A1B5"/>
</linearGradient>
<linearGradient id="paint26_linear" x1="-275822" y1="-86444.4" x2="-303610" y2="-95562.6" gradientUnits="userSpaceOnUse">
<stop stop-color="#00E088"/>
<stop offset="1" stop-color="#00E0B5"/>
</linearGradient>
<linearGradient id="paint27_linear" x1="-2.16769e+06" y1="-1.20544e+06" x2="-2.16986e+06" y2="-1.19892e+06" gradientUnits="userSpaceOnUse">
<stop stop-color="#00E094"/>
<stop offset="1" stop-color="#00E0B5"/>
</linearGradient>
<linearGradient id="paint28_linear" x1="77014.1" y1="-67376.9" x2="95426.8" y2="-77972.3" gradientUnits="userSpaceOnUse">
<stop stop-color="#00E094"/>
<stop offset="1" stop-color="#00E0B5"/>
</linearGradient>
<linearGradient id="paint29_linear" x1="-267802" y1="-23619.3" x2="-279963" y2="-30160.9" gradientUnits="userSpaceOnUse">
<stop stop-color="#00C77A"/>
<stop offset="1" stop-color="#00C797"/>
</linearGradient>
<linearGradient id="paint30_linear" x1="86139.4" y1="-15461.7" x2="87810" y2="-18387.7" gradientUnits="userSpaceOnUse">
<stop stop-color="#00C77A"/>
<stop offset="1" stop-color="#00C797"/>
</linearGradient>
<linearGradient id="paint31_linear" x1="549.962" y1="739.626" x2="465.129" y2="739.626" gradientUnits="userSpaceOnUse">
<stop stop-color="#004D45"/>
<stop offset="0.11" stop-color="#003630"/>
<stop offset="0.24" stop-color="#00221E"/>
<stop offset="0.37" stop-color="#001613"/>
<stop offset="0.5" stop-color="#00120F"/>
<stop offset="0.67" stop-color="#001512"/>
<stop offset="0.78" stop-color="#001E1A"/>
<stop offset="0.88" stop-color="#002D28"/>
<stop offset="0.97" stop-color="#00423B"/>
<stop offset="1" stop-color="#004D45"/>
</linearGradient>
<linearGradient id="paint32_linear" x1="505.81" y1="699.784" x2="505.81" y2="561.047" gradientUnits="userSpaceOnUse">
<stop stop-color="#00C584"/>
<stop offset="1" stop-color="#00E0A9"/>
</linearGradient>
<linearGradient id="paint33_linear" x1="505.224" y1="573.093" x2="510.854" y2="432.349" gradientUnits="userSpaceOnUse">
<stop stop-color="#00C7B5"/>
<stop offset="1" stop-color="#00ABB5"/>
</linearGradient>
<linearGradient id="paint34_linear" x1="569.326" y1="790.977" x2="569.326" y2="695.818" gradientUnits="userSpaceOnUse">
<stop stop-color="#007F9B"/>
<stop offset="1" stop-color="#00C693"/>
</linearGradient>
<linearGradient id="paint35_linear" x1="71581.2" y1="-63838.4" x2="71581.2" y2="-87272.4" gradientUnits="userSpaceOnUse">
<stop stop-color="#007F9B"/>
<stop offset="1" stop-color="#00C693"/>
</linearGradient>
<linearGradient id="paint36_linear" x1="493.946" y1="722.677" x2="346.517" y2="603.76" gradientUnits="userSpaceOnUse">
<stop stop-color="#00C696"/>
<stop offset="1" stop-color="#00959B"/>
</linearGradient>
<linearGradient id="paint37_linear" x1="122976" y1="-60628.8" x2="159767" y2="-76668.8" gradientUnits="userSpaceOnUse">
<stop stop-color="#00C696"/>
<stop offset="1" stop-color="#00959B"/>
</linearGradient>
<linearGradient id="paint38_linear" x1="1.91712e+06" y1="-1.225e+06" x2="1.91933e+06" y2="-1.21847e+06" gradientUnits="userSpaceOnUse">
<stop stop-color="#00E094"/>
<stop offset="1" stop-color="#00E0B5"/>
</linearGradient>
<linearGradient id="paint39_linear" x1="96741" y1="-34995.5" x2="96955.5" y2="-33508.7" gradientUnits="userSpaceOnUse">
<stop stop-color="#00E094"/>
<stop offset="1" stop-color="#00E0B5"/>
</linearGradient>
<linearGradient id="paint40_linear" x1="1.33974e+06" y1="-785809" x2="1.33974e+06" y2="-1.77089e+06" gradientUnits="userSpaceOnUse">
<stop stop-color="#00E094"/>
<stop offset="1" stop-color="#000051"/>
</linearGradient>
<linearGradient id="paint41_linear" x1="582009" y1="-782716" x2="582009" y2="-1.76393e+06" gradientUnits="userSpaceOnUse">
<stop stop-color="#00E094"/>
<stop offset="1" stop-color="#000051"/>
</linearGradient>
<linearGradient id="paint42_linear" x1="420.293" y1="901.971" x2="420.293" y2="614.831" gradientUnits="userSpaceOnUse">
<stop stop-color="#00E0AB"/>
<stop offset="1" stop-color="#00182E"/>
</linearGradient>
<linearGradient id="paint43_linear" x1="195038" y1="-105920" x2="195038" y2="-339710" gradientUnits="userSpaceOnUse">
<stop stop-color="#00E0AB"/>
<stop offset="1" stop-color="#00182E"/>
</linearGradient>
</defs>
</svg>
