<svg width="50" height="50" viewBox="0 0 50 50" fill="none" xmlns="http://www.w3.org/2000/svg">
<circle cx="25" cy="25" r="25" fill="url(#paint0_radial)"/>
<g style="mix-blend-mode:overlay" clip-path="url(#clip0)">
<g clip-path="url(#clip1)">
<path d="M24.632 41.6381C25.2858 41.979 26.084 41.1881 25.7366 40.5348C25.5348 40.0023 24.7698 39.8607 24.3791 40.2666C23.9651 40.6562 24.1001 41.4261 24.632 41.6381ZM17.5992 40.88C17.9964 41.0435 18.4992 40.6796 18.4587 40.2467C18.5009 39.7767 17.9262 39.4308 17.5214 39.6542C16.985 39.8619 17.0463 40.7327 17.5992 40.88ZM32.0031 39.641C31.3824 39.716 31.2842 40.6919 31.8818 40.8884C32.3453 41.1144 32.7705 40.6905 32.8384 40.2512C32.7411 39.876 32.427 39.5325 32.0031 39.641ZM19.1994 37.8867C19.8635 38.3067 20.811 37.6812 20.7089 36.9099C20.6744 36.1311 19.64 35.6799 19.0563 36.2064C18.492 36.6199 18.5775 37.5687 19.1994 37.8867ZM29.3366 37.4411C29.6328 38.2046 30.8333 38.2277 31.1705 37.4844C31.5038 36.906 31.0938 36.1897 30.5 35.9931C29.7134 35.8462 28.9662 36.6966 29.3366 37.4411ZM23.7851 36.0364C23.7786 36.6927 24.3764 37.1817 25.0001 37.2264C25.4138 37.1434 25.8647 36.9672 26.0421 36.5497C26.3729 35.9739 26.0792 35.181 25.4816 34.9167C25.2083 34.7635 24.8852 34.821 24.5876 34.8388C24.1326 35.0622 23.7495 35.5002 23.7851 36.0364ZM13.3263 35.0802C13.9329 35.4531 14.7513 34.7725 14.5216 34.1136C14.3952 33.5436 13.629 33.3117 13.191 33.6756C12.7234 34.0165 12.7975 34.8363 13.3263 35.0802ZM35.7851 35.0814C36.2998 35.481 37.1491 35.0226 37.0877 34.3728C37.1222 33.7803 36.388 33.3334 35.8771 33.6385C35.3144 33.8914 35.257 34.7571 35.7851 35.0814ZM26.7263 33.9016C27.5756 34.2067 28.5843 33.8416 29.0684 33.0844C29.7069 32.1588 29.3672 30.7491 28.3763 30.2179C27.3495 29.5897 25.8503 30.1222 25.4711 31.2688C25.0406 32.2953 25.6677 33.5799 26.7263 33.9016ZM21.7433 33.8007C22.6845 34.245 23.9513 33.8722 24.4059 32.9094C24.941 31.9722 24.5273 30.6672 23.5707 30.1833C22.613 29.6394 21.2618 30.0517 20.7983 31.0579C20.2785 32.031 20.7401 33.3526 21.7433 33.8007ZM16.7538 32.0949C16.8253 32.7013 17.3975 33.096 17.9747 33.1368C18.5966 33.0618 19.0934 32.5788 19.161 31.9494C19.1202 31.3263 18.6387 30.7173 17.9784 30.721C17.252 30.6585 16.615 31.3812 16.7538 32.0949ZM31.491 33.0049C32.2368 33.439 33.2725 32.8071 33.2393 31.9503C33.2905 31.0425 32.1443 30.4027 31.4016 30.9352C30.6302 31.3786 30.6903 32.6274 31.491 33.0049ZM19.7154 29.8054C20.5877 30.0454 21.585 29.6343 22.0128 28.8325C22.4814 28.0255 22.2899 26.9044 21.5621 26.3125C20.6286 25.4443 18.9071 25.7929 18.4103 26.9778C17.8394 28.0639 18.5328 29.5195 19.7154 29.8054ZM29.1668 29.8099C30.0147 30.0525 31.0109 29.7256 31.4667 28.9531C32.0694 28.0696 31.7817 26.7519 30.8844 26.1823C29.9445 25.521 28.4886 25.8682 27.9714 26.9023C27.3444 27.972 27.9753 29.4837 29.1668 29.8099ZM14.1052 28.8019C14.8587 29.0869 15.6939 28.2555 15.3886 27.5085C15.2022 26.8279 14.2431 26.5764 13.7476 27.0781C13.1679 27.5493 13.3825 28.5976 14.1052 28.8019ZM34.5278 27.7179C34.5061 28.3422 34.9628 28.8951 35.603 28.9296C36.119 28.8478 36.6208 28.4316 36.58 27.8698C36.6272 27.1279 35.7332 26.6236 35.1011 26.9722C34.8049 27.1228 34.6529 27.4267 34.5278 27.7179ZM10.4005 28.4355C10.8538 28.6333 11.4145 28.2405 11.311 27.7371C11.2867 27.1671 10.4452 26.9479 10.1361 27.4242C9.86293 27.7549 10.0264 28.2649 10.4005 28.4355ZM38.9821 28.4469C39.3013 28.6741 39.8134 28.5108 39.9398 28.1379C40.1543 27.7306 39.761 27.1726 39.3026 27.2415C38.6591 27.1828 38.4509 28.1635 38.9821 28.4469ZM22.1775 25.7107C23.3703 26.0209 24.6525 25.0263 24.66 23.7981C24.7379 22.557 23.475 21.4564 22.254 21.7431C21.3102 21.895 20.5697 22.8042 20.6003 23.7579C20.5977 24.67 21.2861 25.5178 22.1775 25.7107ZM26.9013 25.7133C28.112 26.0517 29.4324 25.0392 29.4132 23.7826C29.4771 22.5645 28.2537 21.501 27.0582 21.7426C25.9332 21.8881 25.1031 23.1241 25.4172 24.2158C25.5758 24.9433 26.1836 25.5349 26.9013 25.7133ZM17.7935 24.9573C18.6312 25.1002 19.4166 24.1656 19.0769 23.3701C18.8291 22.5225 17.5955 22.2925 17.0501 22.9849C16.4103 23.6499 16.8879 24.8655 17.7935 24.9573ZM31.6467 24.9199C32.3937 25.2328 33.3107 24.5866 33.2533 23.7759C33.2833 22.8834 32.1512 22.2679 31.4207 22.7889C30.5933 23.2566 30.7439 24.633 31.6467 24.9199ZM35.5189 21.0361C35.2264 21.5814 35.7577 22.3041 36.3631 22.2031C36.6644 22.2082 36.8752 21.9708 37.0681 21.7716C37.1077 21.4485 37.1741 21.063 36.9059 20.8139C36.5417 20.353 35.7167 20.4845 35.5189 21.0361ZM13.3237 22.0513C13.8895 22.428 14.7037 21.8662 14.5765 21.2047C14.5089 20.6197 13.7719 20.2853 13.2865 20.6173C12.7656 20.9187 12.7848 21.7767 13.3237 22.0513ZM24.5018 20.8267C25.2425 21.1536 26.1861 20.5087 26.1159 19.6928C26.1708 18.7913 25.0037 18.167 24.2795 18.7084C23.475 19.1732 23.6091 20.5408 24.5018 20.8267ZM19.3245 19.6189C19.9554 19.9508 20.802 19.3775 20.7446 18.6715C20.7638 18.0917 20.198 17.5976 19.6259 17.6833C19.152 17.6935 18.843 18.1183 18.6911 18.5222C18.6989 18.9625 18.8801 19.4528 19.3245 19.6189ZM29.8116 19.6087C30.4604 20.0096 31.3824 19.4338 31.3211 18.6787C31.3377 17.8895 30.2957 17.384 29.6916 17.9024C29.1068 18.3088 29.1782 19.2856 29.8116 19.6087ZM31.6353 15.1001C31.3467 15.5368 31.6865 16.0628 32.1551 16.1624C32.5319 16.0858 32.9303 15.8024 32.8511 15.3656C32.7962 14.7745 31.9316 14.5931 31.6353 15.1001ZM17.1587 15.4793C17.2736 15.8254 17.552 16.1693 17.9594 16.0793C18.5532 16.0372 18.7295 15.1421 18.2097 14.8663C17.7423 14.5511 17.2001 14.9827 17.1587 15.4793ZM24.1428 15.0823C24.2565 15.5942 24.9192 15.8432 25.356 15.5713C25.6446 15.4474 25.7289 15.1244 25.803 14.8499C25.7634 14.707 25.728 14.5639 25.6932 14.4209C25.5144 14.209 25.2846 13.997 24.987 14.0047C24.434 13.9399 23.9351 14.5651 24.1428 15.0823Z" fill="white"/>
</g>
</g>
<defs>
<radialGradient id="paint0_radial" cx="0" cy="0" r="1" gradientUnits="userSpaceOnUse" gradientTransform="translate(7.5) rotate(53.231) scale(56.8001)">
<stop stop-color="#098BD8" stop-opacity="0.9"/>
<stop offset="1" stop-color="#00E094" stop-opacity="0"/>
</radialGradient>
<clipPath id="clip0">
<rect width="24" height="24" fill="white" transform="translate(13 14)"/>
</clipPath>
<clipPath id="clip1">
<rect width="28" height="28" fill="white" transform="translate(11 12)"/>
</clipPath>
</defs>
</svg>
