<svg width="1440" height="1625" viewBox="0 0 1440 1625" fill="none" xmlns="http://www.w3.org/2000/svg">
<path d="M992.297 1293.09C990.658 1293.22 989.135 1292.23 988.923 1290.42C988.793 1288.78 989.779 1287.26 991.591 1287.05C993.23 1286.92 994.754 1287.9 994.965 1289.72C995.188 1291.1 994.469 1292.29 993.25 1292.86C992.901 1293.02 992.727 1293.1 992.297 1293.09ZM1015.87 1279.93C1014.7 1278.78 1014.83 1276.8 1015.98 1275.63C1017.13 1274.45 1019.11 1274.59 1020.28 1275.74C1021.46 1276.89 1021.32 1278.86 1020.17 1280.04C1019.9 1280.37 1019.73 1280.46 1019.38 1280.62C1018.16 1281.19 1016.71 1280.81 1015.87 1279.93ZM962.155 1287.24C960.713 1286.43 960.071 1284.6 960.883 1283.16C961.694 1281.72 963.518 1281.08 964.96 1281.89C966.402 1282.7 967.044 1284.52 966.232 1285.97C965.873 1286.56 965.432 1286.98 964.909 1287.22C964.12 1287.81 963.086 1287.87 962.155 1287.24ZM1031.39 1255.45C1029.76 1255.15 1028.6 1253.58 1029.07 1251.87C1029.37 1250.24 1030.95 1249.07 1032.66 1249.55C1034.28 1249.85 1035.45 1251.43 1035.15 1253.06C1034.95 1254 1034.24 1254.75 1033.37 1255.16C1032.68 1255.49 1032.15 1255.73 1031.39 1255.45ZM941.125 1265.01C940.391 1263.44 941.039 1261.65 942.607 1260.92C944.175 1260.19 945.966 1260.83 946.7 1262.4C947.434 1263.97 946.786 1265.76 945.392 1266.41C943.569 1267.05 941.778 1266.41 941.125 1265.01ZM1025.71 1225.19C1024.98 1223.62 1025.54 1221.66 1026.94 1221C1028.5 1220.27 1030.29 1220.92 1030.95 1222.31C1030.95 1222.31 1030.95 1222.31 1031.03 1222.49C1031.76 1224.05 1031.11 1225.84 1029.55 1226.58C1028.23 1227.4 1026.44 1226.76 1025.71 1225.19ZM939.752 1238.04C938.125 1237.74 936.961 1236.16 937.435 1234.45C937.735 1232.83 939.314 1231.66 941.023 1232.14C942.65 1232.44 943.814 1234.01 943.515 1235.64C943.318 1236.58 942.61 1237.34 941.739 1237.75C941.042 1238.07 940.438 1238.14 939.752 1238.04ZM1007.11 1205.43C1005.67 1204.62 1005.03 1202.8 1005.84 1201.36C1006.65 1199.91 1008.48 1199.27 1009.92 1200.08C1011.36 1200.9 1012 1202.72 1011.19 1204.16C1010.83 1204.75 1010.39 1205.17 1009.87 1205.42C1009.08 1206 1007.96 1205.89 1007.11 1205.43ZM951.873 1211.76C950.698 1210.61 950.834 1208.64 951.983 1207.46C953.132 1206.29 955.108 1206.42 956.283 1207.57C957.459 1208.72 957.322 1210.7 956.173 1211.87C955.906 1212.21 955.732 1212.29 955.384 1212.45C954.164 1213.02 952.792 1212.82 951.873 1211.76ZM980.562 1200.45C978.924 1200.58 977.4 1199.59 977.189 1197.78C977.059 1196.14 978.044 1194.62 979.857 1194.41C981.495 1194.28 983.019 1195.26 983.231 1197.08C983.453 1198.46 982.734 1199.64 981.515 1200.22C981.167 1200.38 980.992 1200.46 980.562 1200.45Z" fill="url(#paint0_linear)" fill-opacity="0.2"/>
<path d="M999.951 1273.15C1016.21 1265.53 1023.22 1246.18 1015.61 1229.92C1007.99 1213.66 988.636 1206.65 972.376 1214.27C956.116 1221.88 949.108 1241.24 956.722 1257.5C964.337 1273.76 983.691 1280.76 999.951 1273.15Z" fill="url(#paint1_linear)" fill-opacity="0.2"/>
<path d="M908.31 1638.09C914.372 1635.25 916.984 1628.04 914.146 1621.97C911.307 1615.91 904.092 1613.3 898.031 1616.14C891.969 1618.98 889.357 1626.19 892.195 1632.25C895.034 1638.32 902.249 1640.93 908.31 1638.09Z" fill="url(#paint2_linear)" fill-opacity="0.2"/>
<path d="M517.722 1382.37C523.783 1379.53 526.396 1372.31 523.557 1366.25C520.719 1360.19 513.504 1357.58 507.442 1360.42C501.381 1363.25 498.768 1370.47 501.607 1376.53C504.445 1382.59 511.66 1385.2 517.722 1382.37Z" fill="url(#paint3_linear)" fill-opacity="0.2"/>
<path d="M34.9096 1474.01C37.765 1480.11 35.1715 1487.27 29.0742 1490.13C22.9768 1492.98 15.8146 1490.39 12.9591 1484.29C10.1037 1478.19 12.6972 1471.03 18.7946 1468.18C24.8919 1465.32 32.0542 1467.91 34.9096 1474.01Z" fill="url(#paint4_linear)" fill-opacity="0.2"/>
<path d="M715.897 1155.1C721.958 1152.26 724.571 1145.05 721.732 1138.98C718.893 1132.92 711.678 1130.31 705.617 1133.15C699.555 1135.99 696.943 1143.2 699.781 1149.26C702.62 1155.32 709.835 1157.94 715.897 1155.1Z" fill="url(#paint5_linear)" fill-opacity="0.2"/>
<path d="M396.28 1322.62C402.341 1319.78 404.954 1312.57 402.115 1306.51C399.276 1300.45 392.061 1297.83 386 1300.67C379.939 1303.51 377.326 1310.72 380.165 1316.79C383.003 1322.85 390.218 1325.46 396.28 1322.62Z" fill="url(#paint6_linear)" fill-opacity="0.2"/>
<path d="M1238.17 930.906C1244.23 928.067 1246.84 920.852 1244 914.791C1241.17 908.73 1233.95 906.117 1227.89 908.956C1221.83 911.794 1219.22 919.009 1222.05 925.071C1224.89 931.132 1232.11 933.745 1238.17 930.906Z" fill="url(#paint7_linear)" fill-opacity="0.2"/>
<path d="M1324.85 665.149C1327.71 671.246 1325.12 678.408 1319.02 681.264C1312.92 684.119 1305.76 681.526 1302.9 675.428C1300.05 669.331 1302.64 662.169 1308.74 659.313C1314.84 656.458 1322 659.051 1324.85 665.149Z" fill="url(#paint8_linear)" fill-opacity="0.2"/>
<path d="M1354.08 1561.24L1353.05 1561.3L903.056 1628.23L902.718 1627.96L512.804 1372.77L231.735 1815.38L231.305 1815.37L-83.3267 1835.69L-183.065 2237.77L-183.414 2237.93L-323.854 2318.14L-324.844 2316.48L-184.752 2236.43L-84.9099 1833.67L-84.3057 1833.6L230.663 1813.54L512.185 1370.09L513.034 1370.54L903.541 1626.09L1351.8 1559.55L1231.68 918.863L1233.05 919.07L1900.15 1006.85L1897.85 637.264L1734.95 375.597L1736.53 374.432L1899.76 636.796L1899.84 636.97L1902.07 1009.14L1900.96 1009.03L1234.29 921.253L1354.08 1561.24Z" fill="url(#paint9_linear)" fill-opacity="0.2"/>
<path d="M680.303 1847.46L231.817 1815.55L-183.68 2238.27L-184.273 2237.91L-488.198 2106.01L-84.539 1832.64L23.6523 1476.73L231.954 1813.58L677.348 1845.24L511.21 1371.18L710.463 1142.14L711.976 1143.55L513.524 1371.59L680.303 1847.46ZM-483.968 2105.52L-184.218 2235.76L230.13 1814.22L24.135 1481.39L-82.8521 1833.98L-83.2006 1834.14L-483.968 2105.52Z" fill="url(#paint10_linear)" fill-opacity="0.2"/>
<path d="M1078.8 1989.45L902.87 1628.74L679.454 1847.01L478.598 2024.55L477.923 2024.02L231.794 1816.41L97.6369 2419.41L-86.1626 1835.53L-84.3389 1834.89L97.4057 2411.66L230.604 1812.51L478.583 2021.8L678.371 1845.61L903.644 1625.41L1075.49 1977.83L985.353 1245.15L512.467 1372.51L390.769 1312.67L391.673 1310.97L512.604 1370.53L985.06 1243.16L985.664 1243.09L1232.36 919.397L1232.53 919.315L1635.02 748.242L1521.38 636.203L1523.88 636.095L1903.83 635.954L1638.8 748.597L1903.21 1008.4L1901.48 1008.78L987.351 1244.43L1078.8 1989.45ZM988.614 1242.14L1899.11 1007.34L1636.71 749.576L1233.69 920.894L988.614 1242.14ZM1637.11 747.263L1893.96 638.025L1526.32 638.137L1637.11 747.263Z" fill="url(#paint11_linear)" fill-opacity="0.2"/>
<path d="M2262.15 1501.34L2028.52 1279.6L1785.25 1201.92L1353.04 1561.73L1352.36 1561.2L986.806 1245.53L904.09 1628.17L903.148 1627.97L556.453 1569.85L231.735 1815.38L231.561 1815.46L-226.22 2001.38L-182.456 2240.88L-337.967 2046.7L-488.416 2107.81L-410.339 1956.12L-764.212 1513.9L-281.284 1705.99L23.619 1478.02L24.0491 1478.03L555.996 1567.51L985.234 1243.08L985.523 1241.88L986.535 1242.68L1781.17 1200.01L1231.81 920.501L1232.09 919.734L1312.86 669.918L1314.82 670.485L1234.33 919.533L1785.3 1199.77L2029.6 1277.82L2029.68 1277.99L2263.65 1500L2262.15 1501.34ZM988.723 1244.63L1353.02 1558.98L1781.98 1201.75L988.723 1244.63ZM-335.795 2045.9L-185.709 2233.48L-227.962 2002.19L-335.795 2045.9ZM558.647 1568.18L902.425 1625.98L984.553 1246.16L558.647 1568.18ZM-226.513 1999.39L230.745 1813.72L553.884 1569.35L24.2497 1480.28L-279.249 1707.16L-78.5853 1835.38L-263.029 1799.4L-226.513 1999.39ZM-337.041 2044.14L-228.337 2000.03L-265.168 1798.92L-321.512 1787.92L-407.922 1955.84L-337.041 2044.14ZM-483.924 2103.8L-339.039 2044.87L-408.745 1957.71L-483.924 2103.8ZM-263.404 1797.24L-88.5502 1831.34L-279.56 1709.22L-263.404 1797.24ZM-757.965 1518.62L-409.342 1954.16L-323.569 1787.61L-526.938 1747.96L-284.747 1706.76L-757.965 1518.62ZM-320.433 1786.14L-265.543 1796.76L-281.395 1710.29L-320.433 1786.14ZM-515.665 1747.99L-322.572 1785.65L-282.897 1708.45L-515.665 1747.99Z" fill="url(#paint12_linear)" fill-opacity="0.2"/>
<path d="M1947.96 1447.32L1946.32 1447.45L1355.55 1561.19L1452.62 1641.48L1451.46 1643.09L1350.34 1559.6L1352.84 1559.49L1944.57 1445.51L1783.82 1200.68L1900.58 1006.86L1901.27 1006.97L2051.17 1020.89L2050.86 1022.94L1901.56 1008.96L1786.14 1200.65L1947.96 1447.32Z" fill="url(#paint13_linear)" fill-opacity="0.2"/>
<path d="M1077.97 1984.96L1076.95 1984.58L678.583 1847.42L494.152 1743.89L479.562 2023.89L478.865 2024.22L77.871 2153.59L98.6337 2417.46L96.8541 2416.38L-186.309 2236.74L75.6726 2152.07L22.6881 1477.4L24.3861 1478.3L492.172 1740.57L511.58 1370.16L512.778 1370.45L1145.26 1512.68L1176.56 1299.2L984.003 1244.08L1206.39 1096.18L1232.56 918.026L1233.91 919.093L1340.52 1007.03L1902.16 633.76L1899.91 637.575L1569.56 1196.3L1950.77 1448.77L1460.44 1380.58L1353.38 1561.57L1352.7 1561.46L1146.83 1515.13L1077.97 1984.96ZM494.208 1741.74L679.405 1845.55L1076.32 1982.33L1144.87 1514.56L513.583 1372.62L494.208 1741.74ZM-181.59 2237.29L96.3272 2413.44L76.0473 2154.23L-181.59 2237.29ZM1461.52 1378.8L1942.02 1444.15L1568.4 1197.9L1461.52 1378.8ZM77.7519 2151.52L477.619 2022.46L492.199 1742.89L25.0056 1480.99L77.7519 2151.52ZM1147.15 1513.07L1352.5 1559.22L1458.48 1380.02L1178.35 1299.85L1147.15 1513.07ZM1178.66 1297.79L1459.55 1378.24L1566.8 1196.74L1340.1 1009.77L1208.07 1097.51L1178.66 1297.79ZM1341.86 1008.52L1567.87 1194.96L1895.88 640.312L1341.86 1008.52ZM988.581 1243.43L1176.7 1297.22L1205.8 1099.01L988.581 1243.43ZM1233.75 921.929L1208.31 1094.85L1338.42 1008.44L1233.75 921.929Z" fill="url(#paint14_linear)" fill-opacity="0.2"/>
<path d="M481.941 2021.71L481.511 2021.7L-486.93 2106.9L-522.279 1747.48L-521.582 1747.15L27.7069 1476.32L-483.772 2104.57L480.613 2019.79L982.995 1246.47L-83.2829 1833.97L-84.273 1832.31L989.077 1240.86L986.839 1244.24L481.941 2021.71ZM-520.243 1748.65L-485.204 2103.33L20.4979 1482.25L-520.243 1748.65Z" fill="url(#paint15_linear)" fill-opacity="0.2"/>
<path d="M1898.17 636.344L902.538 1626.34L903.895 1627.71L1899.53 637.708L1898.17 636.344Z" fill="url(#paint16_linear)" fill-opacity="0.2"/>
<path d="M1364.53 1613.49C1363.23 1613.89 1361.96 1612.99 1361.74 1611.61C1361.34 1610.31 1362.23 1609.04 1363.62 1608.82C1364.92 1608.42 1366.19 1609.31 1366.41 1610.7C1366.72 1611.82 1366.18 1612.93 1365.13 1613.42C1364.88 1613.33 1364.7 1613.41 1364.53 1613.49ZM1383.48 1602.7C1382.74 1601.56 1382.94 1600.19 1383.83 1599.35C1384.88 1598.44 1386.34 1598.82 1387.17 1599.7C1387.92 1600.84 1387.71 1602.21 1386.83 1603.05C1386.65 1603.13 1386.48 1603.21 1386.31 1603.29C1385.26 1603.78 1384.06 1603.49 1383.48 1602.7ZM1340.18 1613.21C1338.99 1612.92 1338.16 1611.61 1338.45 1610.41C1338.74 1609.21 1340.05 1608.39 1341.25 1608.67C1342.44 1608.96 1343.27 1610.28 1342.98 1611.47C1342.88 1612.16 1342.34 1612.83 1341.65 1613.16C1341.3 1613.32 1340.69 1613.39 1340.18 1613.21ZM1398.9 1585.28C1397.8 1584.74 1397.32 1583.26 1397.86 1582.16C1398.41 1581.05 1399.88 1580.58 1400.99 1581.12C1402.09 1581.67 1402.57 1583.14 1402.03 1584.25C1401.84 1584.76 1401.4 1585.18 1400.88 1585.42C1400.27 1585.49 1399.67 1585.56 1398.9 1585.28ZM1318.34 1602.41C1317.33 1601.61 1317.28 1600.14 1318.08 1599.13C1318.88 1598.12 1320.35 1598.07 1321.36 1598.87C1322.37 1599.67 1322.42 1601.13 1321.62 1602.15C1321.35 1602.48 1321.01 1602.65 1320.83 1602.73C1319.96 1603.14 1319.02 1602.94 1318.34 1602.41ZM1405.33 1562.73C1404.04 1562.7 1402.95 1561.72 1402.98 1560.43C1403.02 1559.14 1403.99 1558.05 1405.28 1558.08C1406.57 1558.11 1407.66 1559.09 1407.63 1560.38C1407.61 1561.24 1407.16 1562.09 1406.29 1562.5C1406.11 1562.58 1405.76 1562.74 1405.33 1562.73ZM1303.18 1583.17C1302.6 1581.95 1303.07 1580.67 1304.29 1580.1C1305.51 1579.53 1306.79 1579.99 1307.36 1581.21C1307.93 1582.43 1307.46 1583.71 1306.24 1584.28C1305.28 1584.95 1303.75 1584.39 1303.18 1583.17ZM1398.29 1538.63C1398.21 1538.45 1398.21 1538.45 1398.29 1538.63C1397.64 1537.23 1398.1 1535.95 1399.32 1535.38C1400.54 1534.81 1401.82 1535.27 1402.39 1536.49C1402.39 1536.49 1402.39 1536.49 1402.47 1536.67C1402.47 1536.67 1402.47 1536.67 1402.56 1536.84C1403.13 1538.06 1402.66 1539.34 1401.44 1539.91C1400.32 1540.23 1398.86 1539.84 1398.29 1538.63ZM1300.37 1561.76C1299.08 1561.72 1297.98 1560.75 1298.02 1559.46C1298.05 1558.17 1299.03 1557.07 1300.32 1557.11C1301.61 1557.14 1302.7 1558.12 1302.67 1559.41C1302.64 1560.27 1302.02 1561.2 1301.32 1561.52C1300.97 1561.69 1300.8 1561.77 1300.37 1561.76ZM1384.46 1520.89C1383.45 1520.09 1383.4 1518.62 1384.2 1517.61C1385 1516.6 1386.47 1516.55 1387.48 1517.35C1388.49 1518.15 1388.54 1519.61 1387.74 1520.63C1387.47 1520.96 1387.13 1521.13 1386.95 1521.21C1386.25 1521.53 1385.14 1521.42 1384.46 1520.89ZM1304.74 1538.89C1303.64 1538.35 1303.16 1536.87 1303.7 1535.77C1304.25 1534.66 1305.72 1534.18 1306.83 1534.73C1307.93 1535.27 1308.41 1536.75 1307.87 1537.85C1307.68 1538.36 1307.24 1538.78 1306.72 1539.03C1306.11 1539.1 1305.51 1539.17 1304.74 1538.89ZM1364.32 1510.99C1363.12 1510.7 1362.3 1509.39 1362.59 1508.19C1362.88 1506.99 1364.19 1506.17 1365.39 1506.46C1366.58 1506.74 1367.41 1508.06 1367.12 1509.25C1367.02 1509.94 1366.48 1510.61 1365.79 1510.94C1365.44 1511.1 1365.01 1511.09 1364.32 1510.99ZM1318.65 1520.06C1317.91 1518.92 1318.11 1517.55 1319 1516.71C1320.13 1515.96 1321.5 1516.17 1322.34 1517.05C1323.26 1518.11 1322.88 1519.56 1322 1520.4C1321.82 1520.48 1321.65 1520.56 1321.48 1520.65C1320.43 1521.14 1319.23 1520.85 1318.65 1520.06ZM1342.13 1510.76C1340.82 1511.16 1339.56 1510.27 1339.33 1508.88C1338.94 1507.58 1339.83 1506.32 1341.21 1506.09C1342.51 1505.7 1343.78 1506.59 1344 1507.97C1344.32 1509.1 1343.77 1510.2 1342.73 1510.69C1342.56 1510.77 1342.38 1510.86 1342.13 1510.76Z" fill="url(#paint17_linear)" fill-opacity="0.2"/>
<path d="M1368.5 1592.94C1386.78 1584.38 1394.66 1562.62 1386.1 1544.34C1377.54 1526.06 1355.78 1518.18 1337.5 1526.74C1319.22 1535.3 1311.34 1557.06 1319.9 1575.34C1328.46 1593.62 1350.22 1601.5 1368.5 1592.94Z" fill="url(#paint18_linear)" fill-opacity="0.2"/>
<defs>
<linearGradient id="paint0_linear" x1="965.935" y1="1200.74" x2="1006.23" y2="1286.78" gradientUnits="userSpaceOnUse">
<stop stop-color="white"/>
<stop offset="1" stop-color="#FCFCFC" stop-opacity="0"/>
</linearGradient>
<linearGradient id="paint1_linear" x1="972.376" y1="1214.27" x2="999.952" y2="1273.15" gradientUnits="userSpaceOnUse">
<stop stop-color="white"/>
<stop offset="1" stop-color="#FCFCFC" stop-opacity="0"/>
</linearGradient>
<linearGradient id="paint2_linear" x1="898.031" y1="1616.14" x2="908.31" y2="1638.09" gradientUnits="userSpaceOnUse">
<stop stop-color="white"/>
<stop offset="1" stop-color="#FCFCFC" stop-opacity="0"/>
</linearGradient>
<linearGradient id="paint3_linear" x1="507.442" y1="1360.42" x2="517.722" y2="1382.37" gradientUnits="userSpaceOnUse">
<stop stop-color="white"/>
<stop offset="1" stop-color="#FCFCFC" stop-opacity="0"/>
</linearGradient>
<linearGradient id="paint4_linear" x1="18.7946" y1="1468.18" x2="29.0742" y2="1490.13" gradientUnits="userSpaceOnUse">
<stop stop-color="white"/>
<stop offset="1" stop-color="#FCFCFC" stop-opacity="0"/>
</linearGradient>
<linearGradient id="paint5_linear" x1="705.617" y1="1133.15" x2="715.896" y2="1155.1" gradientUnits="userSpaceOnUse">
<stop stop-color="white"/>
<stop offset="1" stop-color="#FCFCFC" stop-opacity="0"/>
</linearGradient>
<linearGradient id="paint6_linear" x1="386" y1="1300.67" x2="396.28" y2="1322.62" gradientUnits="userSpaceOnUse">
<stop stop-color="white"/>
<stop offset="1" stop-color="#FCFCFC" stop-opacity="0"/>
</linearGradient>
<linearGradient id="paint7_linear" x1="1227.89" y1="908.956" x2="1238.17" y2="930.906" gradientUnits="userSpaceOnUse">
<stop stop-color="white"/>
<stop offset="1" stop-color="#FCFCFC" stop-opacity="0"/>
</linearGradient>
<linearGradient id="paint8_linear" x1="1308.74" y1="659.313" x2="1319.02" y2="681.264" gradientUnits="userSpaceOnUse">
<stop stop-color="white"/>
<stop offset="1" stop-color="#FCFCFC" stop-opacity="0"/>
</linearGradient>
<linearGradient id="paint9_linear" x1="534.833" y1="937.199" x2="921.867" y2="1763.65" gradientUnits="userSpaceOnUse">
<stop stop-color="white"/>
<stop offset="1" stop-color="#FCFCFC" stop-opacity="0"/>
</linearGradient>
<linearGradient id="paint10_linear" x1="34.1803" y1="1458.85" x2="299.655" y2="2025.73" gradientUnits="userSpaceOnUse">
<stop stop-color="white"/>
<stop offset="1" stop-color="#FCFCFC" stop-opacity="0"/>
</linearGradient>
<linearGradient id="paint11_linear" x1="751.981" y1="996.518" x2="1192.13" y2="1936.38" gradientUnits="userSpaceOnUse">
<stop stop-color="white"/>
<stop offset="1" stop-color="#FCFCFC" stop-opacity="0"/>
</linearGradient>
<linearGradient id="paint12_linear" x1="479.124" y1="931.638" x2="1018.64" y2="2083.69" gradientUnits="userSpaceOnUse">
<stop stop-color="white"/>
<stop offset="1" stop-color="#FCFCFC" stop-opacity="0"/>
</linearGradient>
<linearGradient id="paint13_linear" x1="1627.86" y1="1134.58" x2="1805.55" y2="1514.01" gradientUnits="userSpaceOnUse">
<stop stop-color="white"/>
<stop offset="1" stop-color="#FCFCFC" stop-opacity="0"/>
</linearGradient>
<linearGradient id="paint14_linear" x1="723.883" y1="1149.02" x2="1108.63" y2="1970.6" gradientUnits="userSpaceOnUse">
<stop stop-color="white"/>
<stop offset="1" stop-color="#FCFCFC" stop-opacity="0"/>
</linearGradient>
<linearGradient id="paint15_linear" x1="135.02" y1="1426.07" x2="426.193" y2="2047.82" gradientUnits="userSpaceOnUse">
<stop stop-color="white"/>
<stop offset="1" stop-color="#FCFCFC" stop-opacity="0"/>
</linearGradient>
<linearGradient id="paint16_linear" x1="1400.36" y1="1131.34" x2="1401.71" y2="1132.71" gradientUnits="userSpaceOnUse">
<stop stop-color="white"/>
<stop offset="1" stop-color="#FCFCFC" stop-opacity="0"/>
</linearGradient>
<linearGradient id="paint17_linear" x1="1330.02" y1="1511.22" x2="1375.59" y2="1608.52" gradientUnits="userSpaceOnUse">
<stop stop-color="white"/>
<stop offset="1" stop-color="#FCFCFC" stop-opacity="0"/>
</linearGradient>
<linearGradient id="paint18_linear" x1="1337.5" y1="1526.74" x2="1368.5" y2="1592.94" gradientUnits="userSpaceOnUse">
<stop stop-color="white"/>
<stop offset="1" stop-color="#FCFCFC" stop-opacity="0"/>
</linearGradient>
</defs>
</svg>
