<svg width="24" height="24" viewBox="0 0 24 24" fill="none" xmlns="http://www.w3.org/2000/svg">
<path opacity="0.1" fill-rule="evenodd" clip-rule="evenodd" d="M0 12C0 5.37258 5.37258 0 12 0C18.6274 0 24 5.37258 24 12C24 18.6274 18.6274 24 12 24C5.37258 24 0 18.6274 0 12Z" fill="#009C9E"/>
<path d="M5.24345 11.754L8.41927 12.9392L9.6485 16.8925C9.72717 17.1456 10.0368 17.2392 10.2422 17.0711L12.0125 15.6281C12.198 15.4768 12.4624 15.4693 12.6562 15.6101L15.8492 17.9282C16.069 18.0879 16.3805 17.9675 16.4355 17.7019L18.7746 6.4511C18.8347 6.16092 18.5497 5.91887 18.2734 6.02576L5.23977 11.0538C4.91809 11.1777 4.92085 11.6331 5.24345 11.754ZM9.45038 12.3084L15.6571 8.48567C15.7686 8.4172 15.8834 8.56802 15.7875 8.65688L10.6653 13.4183C10.4852 13.5858 10.369 13.8102 10.3361 14.0537L10.1617 15.3467C10.1385 15.5194 9.89611 15.5364 9.84837 15.3694L9.17731 13.0114C9.10052 12.7425 9.21249 12.4552 9.45038 12.3084Z" fill="white"/>
</svg>
