<svg width="1440" height="2966" viewBox="0 0 1440 2966" fill="none" xmlns="http://www.w3.org/2000/svg">
<path d="M944.297 1293.09C942.658 1293.22 941.135 1292.24 940.923 1290.42C940.793 1288.78 941.779 1287.26 943.591 1287.05C945.23 1286.92 946.754 1287.9 946.965 1289.72C947.188 1291.1 946.469 1292.29 945.25 1292.86C944.901 1293.02 944.727 1293.1 944.297 1293.09ZM967.87 1279.93C966.695 1278.78 966.832 1276.8 967.981 1275.63C969.13 1274.45 971.106 1274.59 972.281 1275.74C973.456 1276.89 973.319 1278.86 972.17 1280.04C971.904 1280.37 971.729 1280.46 971.381 1280.62C970.162 1281.19 968.708 1280.81 967.87 1279.93ZM914.155 1287.24C912.713 1286.43 912.071 1284.6 912.883 1283.16C913.694 1281.72 915.518 1281.08 916.96 1281.89C918.402 1282.7 919.044 1284.53 918.232 1285.97C917.873 1286.56 917.432 1286.98 916.909 1287.22C916.12 1287.81 915.086 1287.87 914.155 1287.24ZM983.387 1255.45C981.759 1255.16 980.595 1253.58 981.069 1251.87C981.369 1250.24 982.948 1249.08 984.657 1249.55C986.285 1249.85 987.449 1251.43 987.149 1253.06C986.953 1254 986.245 1254.75 985.374 1255.16C984.677 1255.49 984.154 1255.73 983.387 1255.45ZM893.125 1265.01C892.391 1263.45 893.039 1261.65 894.607 1260.92C896.175 1260.19 897.966 1260.83 898.7 1262.4C899.434 1263.97 898.786 1265.76 897.392 1266.41C895.569 1267.06 893.778 1266.41 893.125 1265.01ZM977.71 1225.19C976.975 1223.62 977.542 1221.66 978.936 1221C980.504 1220.27 982.294 1220.92 982.947 1222.31C982.947 1222.31 982.947 1222.31 983.029 1222.49C983.763 1224.05 983.114 1225.84 981.547 1226.58C980.234 1227.41 978.444 1226.76 977.71 1225.19ZM891.752 1238.04C890.125 1237.74 888.961 1236.16 889.435 1234.45C889.735 1232.83 891.314 1231.66 893.023 1232.14C894.65 1232.44 895.814 1234.02 895.515 1235.64C895.318 1236.58 894.61 1237.34 893.739 1237.75C893.042 1238.08 892.438 1238.15 891.752 1238.04ZM959.112 1205.43C957.67 1204.62 957.028 1202.8 957.84 1201.36C958.652 1199.92 960.475 1199.27 961.917 1200.09C963.36 1200.9 964.001 1202.72 963.19 1204.16C962.83 1204.76 962.389 1205.17 961.866 1205.42C961.077 1206 959.961 1205.89 959.112 1205.43ZM903.873 1211.76C902.698 1210.61 902.834 1208.64 903.983 1207.46C905.132 1206.29 907.108 1206.42 908.283 1207.57C909.459 1208.72 909.322 1210.7 908.173 1211.87C907.906 1212.21 907.732 1212.29 907.384 1212.45C906.164 1213.03 904.792 1212.82 903.873 1211.76ZM932.562 1200.45C930.924 1200.58 929.4 1199.59 929.189 1197.78C929.059 1196.14 930.044 1194.62 931.857 1194.41C933.495 1194.28 935.019 1195.26 935.231 1197.08C935.453 1198.46 934.734 1199.65 933.515 1200.22C933.167 1200.38 932.992 1200.46 932.562 1200.45Z" fill="url(#paint0_linear)" fill-opacity="0.15"/>
<path d="M951.951 1273.15C968.212 1265.54 975.22 1246.18 967.605 1229.92C959.991 1213.66 940.636 1206.65 924.376 1214.27C908.116 1221.88 901.108 1241.24 908.722 1257.5C916.337 1273.76 935.691 1280.77 951.951 1273.15Z" fill="url(#paint1_linear)" fill-opacity="0.15"/>
<path d="M644.483 1882.55C643.749 1880.98 644.397 1879.19 645.965 1878.45C647.533 1877.72 649.324 1878.37 650.058 1879.93C650.792 1881.5 650.144 1883.29 648.576 1884.03C647.008 1884.76 645.218 1884.11 644.483 1882.55ZM616.782 1885.53C615.247 1884.98 614.431 1883.24 614.987 1881.7C615.543 1880.17 617.285 1879.35 618.82 1879.91C620.355 1880.46 621.17 1882.2 620.615 1883.74C620.337 1884.51 619.803 1885.18 619.106 1885.51C618.328 1885.66 617.549 1885.81 616.782 1885.53ZM666.258 1862.36C664.723 1861.81 663.907 1860.07 664.463 1858.53C665.019 1857 666.761 1856.18 668.295 1856.74C669.83 1857.29 670.646 1859.03 670.09 1860.57C669.812 1861.34 669.279 1862.01 668.582 1862.34C667.803 1862.49 667.025 1862.64 666.258 1862.36ZM593.324 1864.02C592.59 1862.45 593.239 1860.66 594.806 1859.93C596.374 1859.19 598.165 1859.84 598.899 1861.41C599.633 1862.98 598.985 1864.77 597.591 1865.42C595.849 1866.24 594.059 1865.59 593.324 1864.02ZM663.183 1831.3C663.101 1831.13 663.101 1831.13 663.183 1831.3C662.448 1829.74 663.097 1827.95 664.665 1827.21C666.233 1826.48 668.023 1827.13 668.757 1828.69C669.492 1830.26 668.843 1832.05 667.275 1832.79C665.707 1833.52 663.835 1832.7 663.183 1831.3ZM593.694 1836.23C592.159 1835.68 591.343 1833.93 591.899 1832.4C592.455 1830.87 594.197 1830.05 595.732 1830.61C597.266 1831.16 598.082 1832.9 597.526 1834.44C597.249 1835.21 596.715 1835.88 596.018 1836.21C595.24 1836.36 594.461 1836.51 593.694 1836.23ZM642.914 1812.97C641.379 1812.41 640.563 1810.67 641.119 1809.14C641.674 1807.6 643.417 1806.79 644.951 1807.34C646.486 1807.9 647.302 1809.64 646.746 1811.18C646.468 1811.94 645.935 1812.62 645.238 1812.94C644.459 1813.1 643.681 1813.25 642.914 1812.97ZM611.768 1812.69C611.034 1811.12 611.682 1809.33 613.076 1808.68C614.644 1807.94 616.434 1808.59 617.087 1809.98C617.821 1811.55 617.173 1813.34 615.605 1814.08C614.293 1814.9 612.502 1814.25 611.768 1812.69Z" fill="url(#paint2_linear)" fill-opacity="0.15"/>
<path d="M642.375 1870.79C655.845 1864.48 661.651 1848.45 655.343 1834.98C649.035 1821.51 633.002 1815.7 619.532 1822.01C606.062 1828.32 600.256 1844.35 606.564 1857.82C612.872 1871.29 628.905 1877.09 642.375 1870.79Z" fill="url(#paint3_linear)" fill-opacity="0.15"/>
<path d="M198.26 1883.13C196.703 1883.44 195.005 1882.53 194.619 1880.8C194.315 1879.25 195.219 1877.55 196.95 1877.16C198.507 1876.86 200.205 1877.76 200.591 1879.49C200.813 1880.88 200.176 1882.24 198.957 1882.81C198.608 1882.97 198.434 1883.05 198.26 1883.13ZM222.193 1869.38C221.192 1868.15 221.328 1866.17 222.733 1865.09C223.964 1864.09 225.94 1864.22 227.022 1865.63C228.023 1866.86 227.887 1868.84 226.482 1869.92C226.308 1870 226.133 1870.08 225.785 1870.24C224.566 1870.82 223.112 1870.43 222.193 1869.38ZM167.033 1882.68C165.405 1882.38 164.415 1880.72 164.889 1879.01C165.189 1877.38 166.85 1876.39 168.559 1876.86C170.186 1877.16 171.176 1878.82 170.702 1880.53C170.506 1881.48 169.798 1882.23 169.101 1882.56C168.579 1882.8 167.8 1882.96 167.033 1882.68ZM242.128 1847.08C240.686 1846.27 240.044 1844.45 240.682 1843.09C241.493 1841.65 243.317 1841 244.678 1841.64C246.12 1842.45 246.761 1844.28 246.124 1845.64C245.765 1846.23 245.323 1846.65 244.627 1846.98C243.756 1847.38 242.896 1847.36 242.128 1847.08ZM139.158 1868.97C137.808 1867.9 137.597 1866.09 138.664 1864.74C139.731 1863.39 141.544 1863.18 142.894 1864.24C144.243 1865.31 144.455 1867.12 143.387 1868.47C143.121 1868.81 142.854 1869.15 142.331 1869.39C141.286 1869.88 140.17 1869.77 139.158 1868.97ZM250.352 1818.38C248.632 1818.34 247.375 1817.01 247.42 1815.29C247.464 1813.57 248.787 1812.32 250.507 1812.36C252.227 1812.4 253.484 1813.73 253.44 1815.45C253.407 1816.74 252.78 1817.67 251.735 1818.16C251.131 1818.23 250.782 1818.39 250.352 1818.38ZM119.996 1844.38C119.262 1842.81 119.91 1841.02 121.478 1840.29C123.046 1839.55 124.837 1840.2 125.571 1841.77C126.305 1843.34 125.657 1845.13 124.263 1845.78C122.521 1846.59 120.73 1845.95 119.996 1844.38ZM241.246 1787.6C241.246 1787.6 241.165 1787.42 241.246 1787.6C241.165 1787.42 241.165 1787.42 241.246 1787.6C240.43 1785.85 241.079 1784.06 242.647 1783.33C244.215 1782.6 246.005 1783.24 246.739 1784.81L246.821 1784.99L246.902 1785.16C247.637 1786.73 246.988 1788.52 245.42 1789.25C243.689 1789.64 241.899 1788.99 241.246 1787.6ZM116.31 1817C114.59 1816.96 113.333 1815.64 113.377 1813.92C113.422 1812.2 114.745 1810.94 116.465 1810.98C118.185 1811.03 119.442 1812.35 119.397 1814.07C119.364 1815.36 118.738 1816.29 117.693 1816.78C117.17 1817.03 116.74 1817.01 116.31 1817ZM223.586 1764.85C222.236 1763.79 222.025 1761.97 223.092 1760.62C224.16 1759.27 225.972 1759.06 227.322 1760.13C228.671 1761.2 228.883 1763.01 227.815 1764.36C227.549 1764.7 227.108 1765.12 226.759 1765.28C225.714 1765.77 224.598 1765.65 223.586 1764.85ZM121.965 1787.8C120.523 1786.99 119.881 1785.17 120.519 1783.81C121.33 1782.37 123.154 1781.72 124.515 1782.36C125.957 1783.17 126.598 1785 125.961 1786.36C125.602 1786.95 125.16 1787.37 124.464 1787.7C123.674 1788.28 122.814 1788.26 121.965 1787.8ZM198.002 1752.41C196.375 1752.11 195.385 1750.45 195.685 1748.82C195.985 1747.19 197.645 1746.2 199.354 1746.68C200.982 1746.98 201.972 1748.64 201.498 1750.35C201.301 1751.29 200.593 1752.04 199.897 1752.37C199.292 1752.44 198.688 1752.51 198.002 1752.41ZM139.621 1763.82C138.619 1762.59 138.756 1760.61 140.161 1759.53C141.391 1758.53 143.367 1758.66 144.45 1760.07C145.451 1761.3 145.314 1763.27 143.91 1764.36C143.735 1764.44 143.561 1764.52 143.213 1764.68C141.993 1765.25 140.54 1764.87 139.621 1763.82ZM169.611 1752.11C168.054 1752.41 166.356 1751.51 165.97 1749.78C165.666 1748.22 166.57 1746.52 168.301 1746.14C169.858 1745.83 171.556 1746.74 171.942 1748.47C172.165 1749.85 171.527 1751.21 170.308 1751.78C170.041 1752.12 169.785 1752.03 169.611 1752.11Z" fill="url(#paint4_linear)" fill-opacity="0.15"/>
<path d="M203.152 1856.84C226.436 1845.94 236.472 1818.22 225.568 1794.94C214.664 1771.65 186.949 1761.62 163.666 1772.52C140.382 1783.43 130.346 1811.14 141.25 1834.43C152.154 1857.71 179.869 1867.74 203.152 1856.84Z" fill="url(#paint5_linear)" fill-opacity="0.15"/>
<path d="M1034.29 1994.62C1040.35 1991.78 1042.96 1984.56 1040.12 1978.5C1037.28 1972.44 1030.07 1969.83 1024.01 1972.67C1017.94 1975.51 1015.33 1982.72 1018.17 1988.78C1021.01 1994.84 1028.22 1997.46 1034.29 1994.62Z" fill="url(#paint6_linear)" fill-opacity="0.15"/>
<path d="M860.31 1638.09C866.372 1635.25 868.984 1628.04 866.146 1621.98C863.307 1615.91 856.092 1613.3 850.031 1616.14C843.969 1618.98 841.357 1626.19 844.195 1632.25C847.034 1638.32 854.249 1640.93 860.31 1638.09Z" fill="url(#paint7_linear)" fill-opacity="0.15"/>
<path d="M469.722 1382.37C475.783 1379.53 478.396 1372.31 475.557 1366.25C472.719 1360.19 465.504 1357.58 459.442 1360.42C453.381 1363.25 450.768 1370.47 453.607 1376.53C456.445 1382.59 463.66 1385.21 469.722 1382.37Z" fill="url(#paint8_linear)" fill-opacity="0.15"/>
<path d="M435.689 2034.07C441.751 2031.23 444.363 2024.01 441.525 2017.95C438.686 2011.89 431.471 2009.28 425.41 2012.12C419.348 2014.95 416.736 2022.17 419.574 2028.23C422.413 2034.29 429.628 2036.9 435.689 2034.07Z" fill="url(#paint9_linear)" fill-opacity="0.15"/>
<path d="M667.897 1155.1C673.958 1152.26 676.571 1145.05 673.732 1138.98C670.893 1132.92 663.678 1130.31 657.617 1133.15C651.555 1135.99 648.943 1143.2 651.781 1149.26C654.62 1155.33 661.835 1157.94 667.897 1155.1Z" fill="url(#paint10_linear)" fill-opacity="0.15"/>
<path d="M348.28 1322.62C354.341 1319.78 356.954 1312.57 354.115 1306.51C351.276 1300.45 344.061 1297.83 338 1300.67C331.939 1303.51 329.326 1310.73 332.165 1316.79C335.003 1322.85 342.218 1325.46 348.28 1322.62Z" fill="url(#paint11_linear)" fill-opacity="0.15"/>
<path d="M1409.23 1653.13C1415.29 1650.29 1417.9 1643.08 1415.06 1637.02C1412.23 1630.95 1405.01 1628.34 1398.95 1631.18C1392.89 1634.02 1390.28 1641.23 1393.11 1647.3C1395.95 1653.36 1403.17 1655.97 1409.23 1653.13Z" fill="url(#paint12_linear)" fill-opacity="0.15"/>
<path d="M667.704 1987.01C670.559 1993.11 667.966 2000.27 661.868 2003.13C655.771 2005.98 648.609 2003.39 645.753 1997.29C642.898 1991.19 645.492 1984.03 651.589 1981.18C657.686 1978.32 664.849 1980.91 667.704 1987.01Z" fill="url(#paint13_linear)" fill-opacity="0.15"/>
<path d="M1190.17 930.907C1196.23 928.068 1198.84 920.853 1196 914.792C1193.17 908.73 1185.95 906.118 1179.89 908.956C1173.83 911.795 1171.22 919.01 1174.05 925.071C1176.89 931.133 1184.11 933.745 1190.17 930.907Z" fill="url(#paint14_linear)" fill-opacity="0.15"/>
<path d="M1276.85 665.149C1279.71 671.247 1277.12 678.409 1271.02 681.264C1264.92 684.12 1257.76 681.526 1254.9 675.429C1252.05 669.332 1254.64 662.169 1260.74 659.314C1266.84 656.458 1274 659.052 1276.85 665.149Z" fill="url(#paint15_linear)" fill-opacity="0.15"/>
<path d="M1306.08 1561.24L1305.05 1561.3L855.056 1628.23L854.718 1627.96L464.804 1372.77L183.735 1815.38L183.305 1815.37L-131.327 1835.69L-231.065 2237.77L-231.414 2237.93L-371.854 2318.14L-372.844 2316.48L-232.752 2236.43L-132.91 1833.67L-132.306 1833.6L182.663 1813.54L464.185 1370.09L465.034 1370.54L855.541 1626.09L1303.8 1559.55L1183.68 918.863L1185.05 919.071L1852.15 1006.85L1849.85 637.264L1686.95 375.597L1688.53 374.433L1851.76 636.797L1851.84 636.971L1854.07 1009.14L1852.96 1009.03L1186.29 921.254L1306.08 1561.24Z" fill="url(#paint16_linear)" fill-opacity="0.15"/>
<path d="M632.303 1847.46L183.817 1815.55L-231.68 2238.27L-232.273 2237.91L-536.198 2106.01L-132.539 1832.64L-24.3477 1476.73L183.954 1813.58L629.348 1845.24L463.21 1371.18L662.463 1142.14L663.976 1143.55L465.524 1371.59L632.303 1847.46ZM-531.968 2105.52L-232.218 2235.76L182.13 1814.22L-23.865 1481.39L-130.852 1833.98L-131.201 1834.14L-531.968 2105.52Z" fill="url(#paint17_linear)" fill-opacity="0.15"/>
<path d="M1030.8 1989.45L854.87 1628.74L631.454 1847.01L430.598 2024.56L429.923 2024.02L183.794 1816.41L58.9999 2206L-134.163 1835.53L-132.339 1834.89L58.7687 2198.25L182.604 1812.51L430.583 2021.8L630.371 1845.61L855.644 1625.41L1027.49 1977.84L937.353 1245.15L464.467 1372.51L342.769 1312.67L343.673 1310.97L464.604 1370.53L937.06 1243.16L937.664 1243.09L1184.36 919.398L1184.53 919.316L1587.02 748.242L1473.38 636.203L1475.88 636.095L1855.82 635.955L1590.8 748.598L1855.21 1008.4L1853.48 1008.78L939.351 1244.43L1030.8 1989.45ZM940.614 1242.14L1851.11 1007.34L1588.71 749.576L1185.69 920.895L940.614 1242.14ZM1589.11 747.263L1845.96 638.025L1478.32 638.137L1589.11 747.263Z" fill="url(#paint18_linear)" fill-opacity="0.15"/>
<path d="M2214.15 1501.34L1980.52 1279.6L1737.25 1201.92L1305.04 1561.73L1304.36 1561.2L938.806 1245.53L856.09 1628.17L855.148 1627.97L508.453 1569.85L183.735 1815.38L183.561 1815.46L-274.22 2001.38L-230.456 2240.88L-385.967 2046.7L-536.416 2107.81L-458.339 1956.12L-812.212 1513.9L-329.284 1705.99L-24.381 1478.02L-23.9509 1478.04L507.996 1567.51L937.234 1243.08L937.523 1241.88L938.535 1242.69L1733.17 1200.01L1183.81 920.502L1184.09 919.735L1264.86 669.918L1266.82 670.485L1186.33 919.534L1737.3 1199.77L1981.6 1277.82L1981.68 1277.99L2215.65 1500L2214.15 1501.34ZM940.723 1244.63L1305.02 1558.98L1733.98 1201.75L940.723 1244.63ZM-383.795 2045.9L-233.709 2233.48L-275.962 2002.19L-383.795 2045.9ZM510.647 1568.18L854.425 1625.98L936.553 1246.16L510.647 1568.18ZM-274.513 1999.39L182.745 1813.72L505.884 1569.35L-23.7503 1480.28L-327.249 1707.16L-126.585 1835.38L-311.029 1799.4L-274.513 1999.39ZM-385.041 2044.14L-276.337 2000.03L-313.168 1798.92L-369.512 1787.92L-455.922 1955.84L-385.041 2044.14ZM-531.924 2103.8L-387.039 2044.87L-456.745 1957.71L-531.924 2103.8ZM-311.404 1797.24L-136.55 1831.34L-327.56 1709.22L-311.404 1797.24ZM-805.965 1518.63L-457.342 1954.16L-371.569 1787.61L-574.938 1747.96L-332.747 1706.76L-805.965 1518.63ZM-368.433 1786.14L-313.543 1796.76L-329.395 1710.29L-368.433 1786.14ZM-563.665 1747.99L-370.572 1785.65L-330.897 1708.45L-563.665 1747.99Z" fill="url(#paint19_linear)" fill-opacity="0.15"/>
<path d="M1899.96 1447.32L1898.32 1447.45L1307.55 1561.19L1404.62 1641.48L1403.46 1643.09L1302.34 1559.6L1304.84 1559.49L1896.57 1445.51L1735.82 1200.68L1852.58 1006.87L1853.27 1006.97L2003.17 1020.89L2002.86 1022.94L1853.56 1008.96L1738.14 1200.65L1899.96 1447.32Z" fill="url(#paint20_linear)" fill-opacity="0.15"/>
<path d="M1029.97 1984.96L1028.95 1984.59L630.583 1847.42L446.152 1743.89L431.562 2023.89L430.865 2024.22L29.871 2153.59L130.306 2184.02L128.527 2182.94L-234.309 2236.74L27.6726 2152.07L-25.3119 1477.4L-23.6139 1478.3L444.172 1740.57L463.58 1370.16L464.778 1370.45L1097.26 1512.68L1128.56 1299.2L936.003 1244.08L1158.39 1096.18L1184.56 918.026L1185.91 919.093L1292.52 1007.03L1854.16 633.761L1851.91 637.576L1521.56 1196.3L1902.77 1448.77L1412.44 1380.58L1305.38 1561.57L1304.7 1561.46L1098.83 1515.13L1029.97 1984.96ZM446.208 1741.74L631.405 1845.55L1028.32 1982.33L1096.87 1514.56L465.583 1372.62L446.208 1741.74ZM-229.59 2237.29L128 2180L28.0473 2154.23L-229.59 2237.29ZM1413.52 1378.81L1894.02 1444.16L1520.4 1197.9L1413.52 1378.81ZM29.7519 2151.52L429.619 2022.46L444.199 1742.89L-22.9944 1480.99L29.7519 2151.52ZM1099.15 1513.07L1304.5 1559.22L1410.48 1380.02L1130.35 1299.85L1099.15 1513.07ZM1130.66 1297.79L1411.55 1378.24L1518.8 1196.74L1292.1 1009.77L1160.07 1097.52L1130.66 1297.79ZM1293.86 1008.53L1519.87 1194.96L1847.88 640.312L1293.86 1008.53ZM940.581 1243.43L1128.7 1297.22L1157.8 1099.01L940.581 1243.43ZM1185.75 921.929L1160.31 1094.85L1290.42 1008.44L1185.75 921.929Z" fill="url(#paint21_linear)" fill-opacity="0.15"/>
<path d="M629.926 1846.68L655.741 1992.54L657.636 1992.21L631.821 1846.35L629.926 1846.68Z" fill="url(#paint22_linear)" fill-opacity="0.15"/>
<path d="M433.941 2021.72L433.511 2021.7L-534.93 2106.9L-570.279 1747.48L-569.582 1747.15L-20.2931 1476.32L-531.772 2104.58L432.613 2019.79L934.995 1246.47L-131.283 1833.97L-132.273 1832.31L941.077 1240.86L938.839 1244.24L433.941 2021.72ZM-568.243 1748.65L-533.204 2103.33L-27.5021 1482.25L-568.243 1748.65Z" fill="url(#paint23_linear)" fill-opacity="0.15"/>
<path d="M1850.17 636.344L854.538 1626.34L855.895 1627.71L1851.53 637.708L1850.17 636.344Z" fill="url(#paint24_linear)" fill-opacity="0.15"/>
<path d="M1316.53 1613.49C1315.23 1613.89 1313.96 1612.99 1313.74 1611.61C1313.34 1610.31 1314.23 1609.04 1315.62 1608.82C1316.92 1608.42 1318.19 1609.32 1318.41 1610.7C1318.72 1611.82 1318.18 1612.93 1317.13 1613.42C1316.88 1613.33 1316.7 1613.41 1316.53 1613.49ZM1335.48 1602.7C1334.74 1601.56 1334.94 1600.19 1335.83 1599.36C1336.88 1598.44 1338.34 1598.82 1339.17 1599.7C1339.92 1600.84 1339.71 1602.21 1338.83 1603.05C1338.65 1603.13 1338.48 1603.21 1338.31 1603.29C1337.26 1603.78 1336.06 1603.49 1335.48 1602.7ZM1292.18 1613.21C1290.99 1612.92 1290.16 1611.61 1290.45 1610.41C1290.74 1609.21 1292.05 1608.39 1293.25 1608.67C1294.44 1608.96 1295.27 1610.28 1294.98 1611.47C1294.88 1612.16 1294.34 1612.83 1293.65 1613.16C1293.3 1613.32 1292.69 1613.39 1292.18 1613.21ZM1350.9 1585.28C1349.8 1584.74 1349.32 1583.26 1349.86 1582.16C1350.41 1581.06 1351.88 1580.58 1352.99 1581.12C1354.09 1581.67 1354.57 1583.14 1354.03 1584.25C1353.84 1584.76 1353.4 1585.18 1352.88 1585.42C1352.27 1585.49 1351.67 1585.56 1350.9 1585.28ZM1270.34 1602.41C1269.33 1601.61 1269.28 1600.14 1270.08 1599.13C1270.88 1598.12 1272.35 1598.07 1273.36 1598.87C1274.37 1599.67 1274.42 1601.13 1273.62 1602.15C1273.35 1602.48 1273.01 1602.65 1272.83 1602.73C1271.96 1603.14 1271.02 1602.94 1270.34 1602.41ZM1357.33 1562.73C1356.04 1562.7 1354.95 1561.72 1354.98 1560.43C1355.02 1559.14 1355.99 1558.05 1357.28 1558.08C1358.57 1558.12 1359.66 1559.09 1359.63 1560.38C1359.61 1561.24 1359.16 1562.09 1358.29 1562.5C1358.11 1562.58 1357.76 1562.74 1357.33 1562.73ZM1255.18 1583.17C1254.6 1581.95 1255.07 1580.67 1256.29 1580.1C1257.51 1579.53 1258.79 1579.99 1259.36 1581.21C1259.93 1582.43 1259.46 1583.71 1258.24 1584.28C1257.28 1584.95 1255.75 1584.39 1255.18 1583.17ZM1350.29 1538.63C1350.21 1538.45 1350.21 1538.45 1350.29 1538.63C1349.64 1537.23 1350.1 1535.95 1351.32 1535.38C1352.54 1534.81 1353.82 1535.27 1354.39 1536.49C1354.39 1536.49 1354.39 1536.49 1354.47 1536.67C1354.47 1536.67 1354.47 1536.67 1354.56 1536.84C1355.13 1538.06 1354.66 1539.34 1353.44 1539.91C1352.32 1540.23 1350.86 1539.85 1350.29 1538.63ZM1252.37 1561.76C1251.08 1561.72 1249.98 1560.75 1250.02 1559.46C1250.05 1558.17 1251.03 1557.07 1252.32 1557.11C1253.61 1557.14 1254.7 1558.12 1254.67 1559.41C1254.64 1560.27 1254.02 1561.2 1253.32 1561.52C1252.97 1561.69 1252.8 1561.77 1252.37 1561.76ZM1336.46 1520.89C1335.45 1520.09 1335.4 1518.62 1336.2 1517.61C1337 1516.6 1338.47 1516.55 1339.48 1517.35C1340.49 1518.15 1340.54 1519.62 1339.74 1520.63C1339.47 1520.96 1339.13 1521.13 1338.95 1521.21C1338.25 1521.54 1337.14 1521.42 1336.46 1520.89ZM1256.74 1538.89C1255.64 1538.35 1255.16 1536.87 1255.7 1535.77C1256.25 1534.66 1257.72 1534.18 1258.83 1534.73C1259.93 1535.27 1260.41 1536.75 1259.87 1537.85C1259.68 1538.36 1259.24 1538.78 1258.72 1539.03C1258.11 1539.1 1257.51 1539.17 1256.74 1538.89ZM1316.32 1510.99C1315.12 1510.7 1314.3 1509.39 1314.59 1508.19C1314.88 1506.99 1316.19 1506.17 1317.39 1506.46C1318.58 1506.74 1319.41 1508.06 1319.12 1509.25C1319.02 1509.94 1318.48 1510.61 1317.79 1510.94C1317.44 1511.1 1317.01 1511.09 1316.32 1510.99ZM1270.65 1520.06C1269.91 1518.92 1270.11 1517.55 1271 1516.71C1272.13 1515.97 1273.5 1516.17 1274.34 1517.05C1275.26 1518.11 1274.88 1519.56 1274 1520.4C1273.82 1520.48 1273.65 1520.57 1273.48 1520.65C1272.43 1521.14 1271.23 1520.85 1270.65 1520.06ZM1294.13 1510.76C1292.82 1511.16 1291.56 1510.27 1291.33 1508.89C1290.94 1507.58 1291.83 1506.32 1293.21 1506.09C1294.51 1505.7 1295.78 1506.59 1296 1507.97C1296.32 1509.1 1295.77 1510.2 1294.73 1510.69C1294.56 1510.78 1294.38 1510.86 1294.13 1510.76Z" fill="url(#paint25_linear)" fill-opacity="0.15"/>
<path d="M1320.5 1592.94C1338.78 1584.38 1346.66 1562.62 1338.1 1544.34C1329.54 1526.06 1307.78 1518.18 1289.5 1526.74C1271.22 1535.3 1263.34 1557.06 1271.9 1575.34C1280.46 1593.62 1302.22 1601.5 1320.5 1592.94Z" fill="url(#paint26_linear)" fill-opacity="0.15"/>
<defs>
<linearGradient id="paint0_linear" x1="917.935" y1="1200.74" x2="958.228" y2="1286.78" gradientUnits="userSpaceOnUse">
<stop stop-color="#00E094"/>
<stop offset="1" stop-color="#00E094" stop-opacity="0.5"/>
</linearGradient>
<linearGradient id="paint1_linear" x1="924.376" y1="1214.27" x2="951.952" y2="1273.15" gradientUnits="userSpaceOnUse">
<stop stop-color="#00E094"/>
<stop offset="1" stop-color="#00E094" stop-opacity="0.5"/>
</linearGradient>
<linearGradient id="paint2_linear" x1="613.337" y1="1808.55" x2="648.663" y2="1883.99" gradientUnits="userSpaceOnUse">
<stop stop-color="#00E094"/>
<stop offset="1" stop-color="#00E094" stop-opacity="0.5"/>
</linearGradient>
<linearGradient id="paint3_linear" x1="619.532" y1="1822.01" x2="642.375" y2="1870.79" gradientUnits="userSpaceOnUse">
<stop stop-color="#00E094"/>
<stop offset="1" stop-color="#00E094" stop-opacity="0.5"/>
</linearGradient>
<linearGradient id="paint4_linear" x1="154.333" y1="1752.6" x2="212.371" y2="1876.53" gradientUnits="userSpaceOnUse">
<stop stop-color="#00E094"/>
<stop offset="1" stop-color="#00E094" stop-opacity="0.5"/>
</linearGradient>
<linearGradient id="paint5_linear" x1="163.666" y1="1772.52" x2="203.152" y2="1856.84" gradientUnits="userSpaceOnUse">
<stop stop-color="#00E094"/>
<stop offset="1" stop-color="#00E094" stop-opacity="0.5"/>
</linearGradient>
<linearGradient id="paint6_linear" x1="1024.01" y1="1972.67" x2="1034.29" y2="1994.62" gradientUnits="userSpaceOnUse">
<stop stop-color="#00E094"/>
<stop offset="1" stop-color="#00E094" stop-opacity="0.5"/>
</linearGradient>
<linearGradient id="paint7_linear" x1="850.031" y1="1616.14" x2="860.31" y2="1638.09" gradientUnits="userSpaceOnUse">
<stop stop-color="#00E094"/>
<stop offset="1" stop-color="#00E094" stop-opacity="0.5"/>
</linearGradient>
<linearGradient id="paint8_linear" x1="459.442" y1="1360.42" x2="469.722" y2="1382.37" gradientUnits="userSpaceOnUse">
<stop stop-color="#00E094"/>
<stop offset="1" stop-color="#00E094" stop-opacity="0.5"/>
</linearGradient>
<linearGradient id="paint9_linear" x1="425.41" y1="2012.12" x2="435.689" y2="2034.07" gradientUnits="userSpaceOnUse">
<stop stop-color="#00E094"/>
<stop offset="1" stop-color="#00E094" stop-opacity="0.5"/>
</linearGradient>
<linearGradient id="paint10_linear" x1="657.617" y1="1133.15" x2="667.896" y2="1155.1" gradientUnits="userSpaceOnUse">
<stop stop-color="#00E094"/>
<stop offset="1" stop-color="#00E094" stop-opacity="0.5"/>
</linearGradient>
<linearGradient id="paint11_linear" x1="338" y1="1300.67" x2="348.28" y2="1322.62" gradientUnits="userSpaceOnUse">
<stop stop-color="#00E094"/>
<stop offset="1" stop-color="#00E094" stop-opacity="0.5"/>
</linearGradient>
<linearGradient id="paint12_linear" x1="1398.95" y1="1631.18" x2="1409.23" y2="1653.13" gradientUnits="userSpaceOnUse">
<stop stop-color="#00E094"/>
<stop offset="1" stop-color="#00E094" stop-opacity="0.5"/>
</linearGradient>
<linearGradient id="paint13_linear" x1="651.589" y1="1981.18" x2="661.868" y2="2003.13" gradientUnits="userSpaceOnUse">
<stop stop-color="#00E094"/>
<stop offset="1" stop-color="#00E094" stop-opacity="0.5"/>
</linearGradient>
<linearGradient id="paint14_linear" x1="1179.89" y1="908.956" x2="1190.17" y2="930.907" gradientUnits="userSpaceOnUse">
<stop stop-color="#00E094"/>
<stop offset="1" stop-color="#00E094" stop-opacity="0.5"/>
</linearGradient>
<linearGradient id="paint15_linear" x1="1260.74" y1="659.314" x2="1271.02" y2="681.264" gradientUnits="userSpaceOnUse">
<stop stop-color="#00E094"/>
<stop offset="1" stop-color="#00E094" stop-opacity="0.5"/>
</linearGradient>
<linearGradient id="paint16_linear" x1="486.833" y1="937.2" x2="873.867" y2="1763.65" gradientUnits="userSpaceOnUse">
<stop stop-color="#00E094"/>
<stop offset="1" stop-color="#00E094" stop-opacity="0.5"/>
</linearGradient>
<linearGradient id="paint17_linear" x1="-13.8197" y1="1458.85" x2="251.655" y2="2025.73" gradientUnits="userSpaceOnUse">
<stop stop-color="#00E094"/>
<stop offset="1" stop-color="#00E094" stop-opacity="0.5"/>
</linearGradient>
<linearGradient id="paint18_linear" x1="703.981" y1="996.519" x2="1144.13" y2="1936.38" gradientUnits="userSpaceOnUse">
<stop stop-color="#00E094"/>
<stop offset="1" stop-color="#00E094" stop-opacity="0.5"/>
</linearGradient>
<linearGradient id="paint19_linear" x1="431.124" y1="931.639" x2="970.639" y2="2083.69" gradientUnits="userSpaceOnUse">
<stop stop-color="#00E094"/>
<stop offset="1" stop-color="#00E094" stop-opacity="0.5"/>
</linearGradient>
<linearGradient id="paint20_linear" x1="1579.86" y1="1134.59" x2="1757.55" y2="1514.01" gradientUnits="userSpaceOnUse">
<stop stop-color="#00E094"/>
<stop offset="1" stop-color="#00E094" stop-opacity="0.5"/>
</linearGradient>
<linearGradient id="paint21_linear" x1="675.883" y1="1149.02" x2="1060.63" y2="1970.6" gradientUnits="userSpaceOnUse">
<stop stop-color="#00E094"/>
<stop offset="1" stop-color="#00E094" stop-opacity="0.5"/>
</linearGradient>
<linearGradient id="paint22_linear" x1="642.834" y1="1919.61" x2="644.728" y2="1919.28" gradientUnits="userSpaceOnUse">
<stop stop-color="#00E094"/>
<stop offset="1" stop-color="#00E094" stop-opacity="0.5"/>
</linearGradient>
<linearGradient id="paint23_linear" x1="87.0201" y1="1426.07" x2="378.193" y2="2047.82" gradientUnits="userSpaceOnUse">
<stop stop-color="#00E094"/>
<stop offset="1" stop-color="#00E094" stop-opacity="0.5"/>
</linearGradient>
<linearGradient id="paint24_linear" x1="1352.36" y1="1131.34" x2="1353.71" y2="1132.71" gradientUnits="userSpaceOnUse">
<stop stop-color="#00E094"/>
<stop offset="1" stop-color="#00E094" stop-opacity="0.5"/>
</linearGradient>
<linearGradient id="paint25_linear" x1="1282.02" y1="1511.23" x2="1327.59" y2="1608.52" gradientUnits="userSpaceOnUse">
<stop stop-color="#00E094"/>
<stop offset="1" stop-color="#00E094" stop-opacity="0.5"/>
</linearGradient>
<linearGradient id="paint26_linear" x1="1289.5" y1="1526.74" x2="1320.5" y2="1592.94" gradientUnits="userSpaceOnUse">
<stop stop-color="#00E094"/>
<stop offset="1" stop-color="#00E094" stop-opacity="0.5"/>
</linearGradient>
</defs>
</svg>
