<svg width="3163" height="2431" viewBox="0 0 3163 2431" fill="none" xmlns="http://www.w3.org/2000/svg">
<path d="M2748.86 777.151C2748.12 775.583 2748.77 773.792 2750.34 773.058C2751.91 772.324 2753.7 772.972 2754.43 774.54C2755.17 776.108 2754.52 777.898 2752.95 778.633C2751.3 779.193 2749.51 778.544 2748.86 777.151ZM2721.07 779.966C2719.54 779.41 2718.72 777.668 2719.28 776.133C2719.84 774.598 2721.58 773.782 2723.11 774.338C2724.65 774.894 2725.46 776.636 2724.91 778.171C2724.63 778.938 2724.1 779.613 2723.4 779.939C2722.7 780.266 2721.84 780.243 2721.07 779.966ZM2770.38 756.877C2768.84 756.321 2768.03 754.579 2768.58 753.045C2769.14 751.51 2770.88 750.694 2772.41 751.25C2773.95 751.806 2774.76 753.548 2774.21 755.082C2773.93 755.85 2773.4 756.525 2772.7 756.851C2771.92 757.003 2771.14 757.155 2770.38 756.877ZM2697.52 758.707C2696.79 757.139 2697.44 755.349 2698.83 754.696C2700.4 753.962 2702.19 754.61 2702.92 756.178C2703.66 757.746 2703.01 759.536 2701.44 760.271C2699.97 760.749 2698.18 760.101 2697.52 758.707ZM2767.3 725.818C2766.57 724.25 2767.21 722.459 2768.61 721.806C2770.18 721.072 2771.97 721.721 2772.62 723.114C2772.62 723.114 2772.62 723.114 2772.7 723.288C2773.44 724.856 2772.79 726.647 2771.22 727.381C2769.83 728.034 2768.04 727.385 2767.3 725.818ZM2697.81 730.746C2696.28 730.19 2695.46 728.448 2696.02 726.913C2696.57 725.378 2698.31 724.563 2699.85 725.118C2701.38 725.674 2702.2 727.416 2701.64 728.951C2701.37 729.718 2700.83 730.393 2700.14 730.719C2699.36 730.872 2698.58 731.024 2697.81 730.746ZM2747.03 707.483C2745.5 706.927 2744.68 705.185 2745.24 703.651C2745.79 702.116 2747.53 701.3 2749.07 701.856C2750.6 702.412 2751.42 704.154 2750.86 705.688C2750.59 706.456 2750.05 707.13 2749.36 707.457C2748.58 707.609 2747.8 707.761 2747.03 707.483ZM2715.97 707.374C2715.23 705.806 2715.88 704.016 2717.45 703.281C2719.02 702.547 2720.81 703.195 2721.54 704.763C2722.28 706.331 2721.63 708.122 2720.23 708.774C2718.41 709.416 2716.62 708.768 2715.97 707.374Z" fill="url(#paint0_linear)" fill-opacity="0.1"/>
<path d="M2746.58 765.474C2760.05 759.166 2765.85 743.133 2759.54 729.663C2753.24 716.193 2737.2 710.387 2723.73 716.695C2710.26 723.004 2704.46 739.037 2710.76 752.507C2717.07 765.977 2733.11 771.782 2746.58 765.474Z" fill="url(#paint1_linear)" fill-opacity="0.1"/>
<path d="M1826.3 1026.09C1824.66 1026.22 1823.13 1025.24 1822.92 1023.42C1822.79 1021.78 1823.78 1020.26 1825.59 1020.05C1827.23 1019.92 1828.75 1020.9 1828.97 1022.72C1829.19 1024.1 1828.47 1025.29 1827.25 1025.86C1826.9 1026.02 1826.73 1026.1 1826.3 1026.09ZM1849.87 1012.93C1848.7 1011.78 1848.83 1009.8 1849.98 1008.63C1851.13 1007.45 1853.11 1007.59 1854.28 1008.74C1855.46 1009.89 1855.32 1011.86 1854.17 1013.04C1853.9 1013.37 1853.73 1013.46 1853.38 1013.62C1852.16 1014.19 1850.71 1013.81 1849.87 1012.93ZM1796.16 1020.24C1794.71 1019.43 1794.07 1017.6 1794.88 1016.16C1795.69 1014.72 1797.52 1014.08 1798.96 1014.89C1800.4 1015.7 1801.04 1017.53 1800.23 1018.97C1799.87 1019.56 1799.43 1019.98 1798.91 1020.22C1798.12 1020.81 1797.09 1020.87 1796.16 1020.24ZM1865.39 988.455C1863.76 988.155 1862.6 986.576 1863.07 984.867C1863.37 983.24 1864.95 982.075 1866.66 982.55C1868.28 982.85 1869.45 984.429 1869.15 986.056C1868.95 986.998 1868.24 987.754 1867.37 988.162C1866.68 988.488 1866.15 988.733 1865.39 988.455ZM1775.13 998.013C1774.39 996.445 1775.04 994.655 1776.61 993.92C1778.18 993.186 1779.97 993.835 1780.7 995.402C1781.43 996.97 1780.79 998.761 1779.39 999.414C1777.57 1000.06 1775.78 999.407 1775.13 998.013ZM1859.71 958.189C1858.98 956.621 1859.54 954.656 1860.94 954.004C1862.5 953.269 1864.29 953.918 1864.95 955.312C1864.95 955.312 1864.95 955.312 1865.03 955.486C1865.76 957.054 1865.11 958.844 1863.55 959.578C1862.23 960.405 1860.44 959.757 1859.71 958.189ZM1773.75 971.042C1772.13 970.742 1770.96 969.163 1771.44 967.454C1771.74 965.827 1773.31 964.662 1775.02 965.137C1776.65 965.436 1777.81 967.015 1777.51 968.643C1777.32 969.584 1776.61 970.341 1775.74 970.749C1775.04 971.075 1774.44 971.146 1773.75 971.042ZM1841.11 938.435C1839.67 937.623 1839.03 935.799 1839.84 934.357C1840.65 932.915 1842.48 932.274 1843.92 933.085C1845.36 933.897 1846 935.72 1845.19 937.162C1844.83 937.756 1844.39 938.175 1843.87 938.419C1843.08 939.001 1841.96 938.887 1841.11 938.435ZM1785.87 944.761C1784.7 943.612 1784.83 941.637 1785.98 940.461C1787.13 939.286 1789.11 939.423 1790.28 940.572C1791.46 941.721 1791.32 943.696 1790.17 944.872C1789.91 945.209 1789.73 945.291 1789.38 945.454C1788.16 946.025 1786.79 945.818 1785.87 944.761ZM1814.56 933.45C1812.92 933.58 1811.4 932.594 1811.19 930.782C1811.06 929.143 1812.04 927.619 1813.86 927.408C1815.5 927.278 1817.02 928.264 1817.23 930.076C1817.45 931.459 1816.73 932.645 1815.52 933.216C1815.17 933.379 1814.99 933.461 1814.56 933.45Z" fill="url(#paint2_linear)" fill-opacity="0.1"/>
<path d="M1833.95 1006.15C1850.21 998.536 1857.22 979.181 1849.61 962.921C1841.99 946.661 1822.64 939.653 1806.38 947.267C1790.12 954.882 1783.11 974.236 1790.72 990.497C1798.34 1006.76 1817.69 1013.77 1833.95 1006.15Z" fill="url(#paint3_linear)" fill-opacity="0.1"/>
<path d="M1526.48 1615.55C1525.75 1613.98 1526.4 1612.19 1527.97 1611.45C1529.53 1610.72 1531.32 1611.37 1532.06 1612.93C1532.79 1614.5 1532.14 1616.29 1530.58 1617.03C1529.01 1617.76 1527.22 1617.11 1526.48 1615.55ZM1498.78 1618.53C1497.25 1617.98 1496.43 1616.24 1496.99 1614.7C1497.54 1613.17 1499.29 1612.35 1500.82 1612.91C1502.35 1613.46 1503.17 1615.2 1502.62 1616.74C1502.34 1617.51 1501.8 1618.18 1501.11 1618.51C1500.33 1618.66 1499.55 1618.81 1498.78 1618.53ZM1548.26 1595.36C1546.72 1594.81 1545.91 1593.07 1546.46 1591.53C1547.02 1590 1548.76 1589.18 1550.3 1589.74C1551.83 1590.29 1552.65 1592.03 1552.09 1593.57C1551.81 1594.34 1551.28 1595.01 1550.58 1595.34C1549.8 1595.49 1549.03 1595.64 1548.26 1595.36ZM1475.32 1597.02C1474.59 1595.45 1475.24 1593.66 1476.81 1592.93C1478.37 1592.19 1480.17 1592.84 1480.9 1594.41C1481.63 1595.98 1480.99 1597.77 1479.59 1598.42C1477.85 1599.24 1476.06 1598.59 1475.32 1597.02ZM1545.18 1564.3C1545.1 1564.13 1545.1 1564.13 1545.18 1564.3C1544.45 1562.74 1545.1 1560.95 1546.67 1560.21C1548.23 1559.48 1550.02 1560.13 1550.76 1561.69C1551.49 1563.26 1550.84 1565.05 1549.28 1565.79C1547.71 1566.52 1545.84 1565.7 1545.18 1564.3ZM1475.69 1569.23C1474.16 1568.68 1473.34 1566.93 1473.9 1565.4C1474.46 1563.87 1476.2 1563.05 1477.73 1563.61C1479.27 1564.16 1480.08 1565.9 1479.53 1567.44C1479.25 1568.21 1478.72 1568.88 1478.02 1569.21C1477.24 1569.36 1476.46 1569.51 1475.69 1569.23ZM1524.91 1545.97C1523.38 1545.41 1522.56 1543.67 1523.12 1542.14C1523.67 1540.6 1525.42 1539.79 1526.95 1540.34C1528.49 1540.9 1529.3 1542.64 1528.75 1544.18C1528.47 1544.94 1527.94 1545.62 1527.24 1545.94C1526.46 1546.1 1525.68 1546.25 1524.91 1545.97ZM1493.77 1545.69C1493.03 1544.12 1493.68 1542.33 1495.08 1541.68C1496.64 1540.94 1498.43 1541.59 1499.09 1542.98C1499.82 1544.55 1499.17 1546.34 1497.61 1547.08C1496.29 1547.9 1494.5 1547.25 1493.77 1545.69Z" fill="url(#paint4_linear)" fill-opacity="0.1"/>
<path d="M1524.38 1603.79C1537.85 1597.48 1543.65 1581.45 1537.34 1567.98C1531.04 1554.51 1515 1548.7 1501.53 1555.01C1488.06 1561.32 1482.26 1577.35 1488.56 1590.82C1494.87 1604.29 1510.91 1610.09 1524.38 1603.79Z" fill="url(#paint5_linear)" fill-opacity="0.1"/>
<path d="M361.574 1874.96C360.84 1873.39 361.488 1871.6 363.056 1870.86C364.624 1870.13 366.414 1870.78 367.067 1872.17C367.801 1873.74 367.153 1875.53 365.759 1876.18C364.099 1877.17 362.308 1876.53 361.574 1874.96ZM333.873 1877.95C332.338 1877.39 331.522 1875.65 332.078 1874.11C332.634 1872.58 334.376 1871.76 335.91 1872.32C337.445 1872.87 338.261 1874.62 337.705 1876.15C337.427 1876.92 336.894 1877.59 336.197 1877.92C335.418 1878.07 334.64 1878.22 333.873 1877.95ZM383.092 1854.68C381.558 1854.13 380.742 1852.39 381.298 1850.85C381.853 1849.32 383.595 1848.5 385.13 1849.06C386.665 1849.61 387.481 1851.35 386.925 1852.89C386.647 1853.66 386.114 1854.33 385.417 1854.66C384.72 1854.98 383.941 1855.14 383.092 1854.68ZM310.241 1856.51C309.507 1854.95 310.155 1853.16 311.723 1852.42C313.291 1851.69 315.081 1852.34 315.816 1853.9C316.55 1855.47 315.901 1857.26 314.334 1858C312.766 1858.73 310.975 1858.08 310.241 1856.51ZM380.099 1823.8C380.017 1823.62 380.017 1823.62 380.099 1823.8C379.365 1822.23 380.013 1820.44 381.407 1819.79C382.975 1819.05 384.765 1819.7 385.418 1821.1C385.418 1821.1 385.418 1821.1 385.5 1821.27C386.234 1822.84 385.585 1824.63 384.018 1825.36C382.542 1825.84 380.752 1825.19 380.099 1823.8ZM310.529 1828.55C308.994 1828 308.178 1826.25 308.734 1824.72C309.289 1823.18 311.032 1822.37 312.566 1822.92C314.101 1823.48 314.917 1825.22 314.361 1826.76C314.083 1827.52 313.55 1828.2 312.853 1828.53C312.156 1828.85 311.296 1828.83 310.529 1828.55ZM359.923 1805.21C358.388 1804.65 357.572 1802.91 358.128 1801.38C358.683 1799.84 360.426 1799.03 361.96 1799.58C363.495 1800.14 364.311 1801.88 363.755 1803.41C363.477 1804.18 362.944 1804.86 362.247 1805.18C361.55 1805.51 360.772 1805.66 359.923 1805.21ZM328.684 1805.18C327.95 1803.61 328.599 1801.82 330.166 1801.09C331.734 1800.35 333.525 1801 334.259 1802.57C334.993 1804.14 334.345 1805.93 332.951 1806.58C331.209 1807.4 329.419 1806.75 328.684 1805.18Z" fill="url(#paint6_linear)" fill-opacity="0.1"/>
<path d="M359.292 1863.28C372.761 1856.97 378.567 1840.94 372.259 1827.47C365.951 1814 349.918 1808.19 336.448 1814.5C322.978 1820.81 317.172 1836.84 323.48 1850.31C329.788 1863.78 345.822 1869.59 359.292 1863.28Z" fill="url(#paint7_linear)" fill-opacity="0.1"/>
<path d="M1080.26 1616.13C1078.7 1616.44 1077.01 1615.53 1076.62 1613.8C1076.32 1612.25 1077.22 1610.55 1078.95 1610.16C1080.51 1609.86 1082.21 1610.76 1082.59 1612.49C1082.81 1613.88 1082.18 1615.24 1080.96 1615.81C1080.61 1615.97 1080.43 1616.05 1080.26 1616.13ZM1104.19 1602.38C1103.19 1601.15 1103.33 1599.17 1104.73 1598.09C1105.96 1597.09 1107.94 1597.22 1109.02 1598.63C1110.02 1599.86 1109.89 1601.84 1108.48 1602.92C1108.31 1603 1108.13 1603.08 1107.79 1603.24C1106.57 1603.82 1105.11 1603.43 1104.19 1602.38ZM1049.03 1615.68C1047.41 1615.38 1046.42 1613.72 1046.89 1612.01C1047.19 1610.38 1048.85 1609.39 1050.56 1609.86C1052.19 1610.16 1053.18 1611.82 1052.7 1613.53C1052.51 1614.48 1051.8 1615.23 1051.1 1615.56C1050.58 1615.8 1049.8 1615.96 1049.03 1615.68ZM1124.13 1580.08C1122.69 1579.27 1122.04 1577.45 1122.68 1576.09C1123.49 1574.65 1125.32 1574 1126.68 1574.64C1128.12 1575.45 1128.76 1577.28 1128.12 1578.64C1127.76 1579.23 1127.32 1579.65 1126.63 1579.98C1125.76 1580.38 1124.9 1580.36 1124.13 1580.08ZM1021.16 1601.97C1019.81 1600.9 1019.6 1599.09 1020.66 1597.74C1021.73 1596.39 1023.54 1596.18 1024.89 1597.24C1026.24 1598.31 1026.46 1600.12 1025.39 1601.47C1025.12 1601.81 1024.85 1602.15 1024.33 1602.39C1023.29 1602.88 1022.17 1602.77 1021.16 1601.97ZM1132.35 1551.38C1130.63 1551.34 1129.38 1550.01 1129.42 1548.29C1129.46 1546.57 1130.79 1545.32 1132.51 1545.36C1134.23 1545.4 1135.48 1546.73 1135.44 1548.45C1135.41 1549.74 1134.78 1550.67 1133.74 1551.16C1133.13 1551.23 1132.78 1551.39 1132.35 1551.38ZM1002 1577.38C1001.26 1575.81 1001.91 1574.02 1003.48 1573.29C1005.05 1572.55 1006.84 1573.2 1007.57 1574.77C1008.31 1576.34 1007.66 1578.13 1006.26 1578.78C1004.52 1579.59 1002.73 1578.95 1002 1577.38ZM1123.25 1520.6C1123.25 1520.6 1123.16 1520.42 1123.25 1520.6C1123.16 1520.42 1123.16 1520.42 1123.25 1520.6C1122.43 1518.85 1123.08 1517.06 1124.65 1516.33C1126.21 1515.6 1128.01 1516.24 1128.74 1517.81L1128.82 1517.99L1128.9 1518.16C1129.64 1519.73 1128.99 1521.52 1127.42 1522.25C1125.69 1522.64 1123.9 1521.99 1123.25 1520.6ZM998.31 1550C996.59 1549.96 995.334 1548.64 995.378 1546.92C995.422 1545.2 996.745 1543.94 998.465 1543.98C1000.19 1544.03 1001.44 1545.35 1001.4 1547.07C1001.36 1548.36 1000.74 1549.29 999.693 1549.78C999.17 1550.03 998.74 1550.01 998.31 1550ZM1105.59 1497.85C1104.24 1496.79 1104.03 1494.97 1105.09 1493.62C1106.16 1492.27 1107.97 1492.06 1109.32 1493.13C1110.67 1494.2 1110.88 1496.01 1109.82 1497.36C1109.55 1497.7 1109.11 1498.12 1108.76 1498.28C1107.71 1498.77 1106.6 1498.65 1105.59 1497.85ZM1003.97 1520.8C1002.52 1519.99 1001.88 1518.17 1002.52 1516.81C1003.33 1515.37 1005.15 1514.72 1006.51 1515.36C1007.96 1516.17 1008.6 1518 1007.96 1519.36C1007.6 1519.95 1007.16 1520.37 1006.46 1520.7C1005.67 1521.28 1004.81 1521.26 1003.97 1520.8ZM1080 1485.41C1078.38 1485.11 1077.39 1483.45 1077.69 1481.82C1077.99 1480.19 1079.65 1479.2 1081.35 1479.68C1082.98 1479.98 1083.97 1481.64 1083.5 1483.35C1083.3 1484.29 1082.59 1485.04 1081.9 1485.37C1081.29 1485.44 1080.69 1485.51 1080 1485.41ZM1021.62 1496.82C1020.62 1495.59 1020.76 1493.61 1022.16 1492.53C1023.39 1491.53 1025.37 1491.66 1026.45 1493.07C1027.45 1494.3 1027.31 1496.27 1025.91 1497.36C1025.74 1497.44 1025.56 1497.52 1025.21 1497.68C1023.99 1498.25 1022.54 1497.87 1021.62 1496.82ZM1051.61 1485.11C1050.05 1485.41 1048.36 1484.51 1047.97 1482.78C1047.67 1481.22 1048.57 1479.52 1050.3 1479.14C1051.86 1478.83 1053.56 1479.74 1053.94 1481.47C1054.17 1482.85 1053.53 1484.21 1052.31 1484.78C1052.04 1485.12 1051.79 1485.03 1051.61 1485.11Z" fill="url(#paint8_linear)" fill-opacity="0.1"/>
<path d="M1085.15 1589.84C1108.44 1578.94 1118.47 1551.22 1107.57 1527.94C1096.66 1504.65 1068.95 1494.62 1045.67 1505.52C1022.38 1516.43 1012.35 1544.14 1023.25 1567.43C1034.15 1590.71 1061.87 1600.74 1085.15 1589.84Z" fill="url(#paint9_linear)" fill-opacity="0.1"/>
<path d="M1916.29 1727.62C1922.35 1724.78 1924.96 1717.56 1922.12 1711.5C1919.28 1705.44 1912.07 1702.83 1906.01 1705.67C1899.94 1708.51 1897.33 1715.72 1900.17 1721.78C1903.01 1727.84 1910.22 1730.46 1916.29 1727.62Z" fill="url(#paint10_linear)" fill-opacity="0.1"/>
<path d="M1742.31 1371.09C1748.37 1368.25 1750.98 1361.04 1748.15 1354.98C1745.31 1348.91 1738.09 1346.3 1732.03 1349.14C1725.97 1351.98 1723.36 1359.19 1726.2 1365.25C1729.03 1371.32 1736.25 1373.93 1742.31 1371.09Z" fill="url(#paint11_linear)" fill-opacity="0.1"/>
<path d="M1351.72 1115.37C1357.78 1112.53 1360.4 1105.31 1357.56 1099.25C1354.72 1093.19 1347.5 1090.58 1341.44 1093.42C1335.38 1096.25 1332.77 1103.47 1335.61 1109.53C1338.45 1115.59 1345.66 1118.21 1351.72 1115.37Z" fill="url(#paint12_linear)" fill-opacity="0.1"/>
<path d="M83.5102 1245.36C86.3656 1251.46 83.7721 1258.62 77.6747 1261.48C71.5774 1264.33 64.4152 1261.74 61.5597 1255.64C58.7043 1249.55 61.2978 1242.38 67.3951 1239.53C73.4925 1236.67 80.6547 1239.27 83.5102 1245.36Z" fill="url(#paint13_linear)" fill-opacity="0.1"/>
<path d="M116.484 1187.86C122.546 1185.02 125.158 1177.81 122.32 1171.75C119.481 1165.69 112.266 1163.07 106.205 1165.91C100.143 1168.75 97.5307 1175.97 100.369 1182.03C103.208 1188.09 110.423 1190.7 116.484 1187.86Z" fill="url(#paint14_linear)" fill-opacity="0.1"/>
<path d="M163.597 1507.49C160.813 1501.4 153.622 1498.72 147.535 1501.5C141.447 1504.29 138.769 1511.48 141.553 1517.57C144.336 1523.65 151.527 1526.33 157.615 1523.55C163.702 1520.76 166.38 1513.57 163.597 1507.49Z" fill="url(#paint15_linear)" fill-opacity="0.1"/>
<path d="M868.91 1207.01C871.765 1213.11 869.172 1220.27 863.074 1223.13C856.977 1225.98 849.815 1223.39 846.959 1217.29C844.104 1211.19 846.697 1204.03 852.795 1201.18C858.892 1198.32 866.054 1200.91 868.91 1207.01Z" fill="url(#paint16_linear)" fill-opacity="0.1"/>
<path d="M936.62 2159.43C942.681 2156.59 945.294 2149.37 942.455 2143.31C939.617 2137.25 932.402 2134.64 926.34 2137.48C920.279 2140.32 917.666 2147.53 920.505 2153.59C923.344 2159.65 930.559 2162.27 936.62 2159.43Z" fill="url(#paint17_linear)" fill-opacity="0.1"/>
<path d="M1317.69 1767.07C1323.75 1764.23 1326.36 1757.01 1323.52 1750.95C1320.69 1744.89 1313.47 1742.28 1307.41 1745.12C1301.35 1747.95 1298.74 1755.17 1301.57 1761.23C1304.41 1767.29 1311.63 1769.9 1317.69 1767.07Z" fill="url(#paint18_linear)" fill-opacity="0.1"/>
<path d="M1549.9 888.099C1555.96 885.261 1558.57 878.046 1555.73 871.984C1552.89 865.923 1545.68 863.31 1539.62 866.149C1533.56 868.988 1530.94 876.203 1533.78 882.264C1536.62 888.325 1543.84 890.938 1549.9 888.099Z" fill="url(#paint19_linear)" fill-opacity="0.1"/>
<path d="M1230.28 1055.62C1236.34 1052.78 1238.95 1045.57 1236.11 1039.51C1233.28 1033.45 1226.06 1030.83 1220 1033.67C1213.94 1036.51 1211.33 1043.73 1214.16 1049.79C1217 1055.85 1224.22 1058.46 1230.28 1055.62Z" fill="url(#paint20_linear)" fill-opacity="0.1"/>
<path d="M760.904 1562.41C763.759 1568.51 761.166 1575.67 755.068 1578.52C748.971 1581.38 741.809 1578.79 738.953 1572.69C736.098 1566.59 738.691 1559.43 744.789 1556.57C750.886 1553.72 758.048 1556.31 760.904 1562.41Z" fill="url(#paint21_linear)" fill-opacity="0.1"/>
<path d="M520.539 2045.22C523.395 2051.31 520.801 2058.48 514.704 2061.33C508.607 2064.19 501.444 2061.59 498.589 2055.5C495.734 2049.4 498.327 2042.24 504.424 2039.38C510.522 2036.53 517.684 2039.12 520.539 2045.22Z" fill="url(#paint22_linear)" fill-opacity="0.1"/>
<path d="M582.77 2346.38C588.832 2343.54 591.444 2336.33 588.606 2330.27C585.767 2324.2 578.552 2321.59 572.491 2324.43C566.429 2327.27 563.817 2334.48 566.655 2340.55C569.494 2346.61 576.709 2349.22 582.77 2346.38Z" fill="url(#paint23_linear)" fill-opacity="0.1"/>
<path d="M323.801 1475.89C326.657 1481.98 324.063 1489.14 317.966 1492C311.868 1494.86 304.706 1492.26 301.851 1486.16C298.995 1480.07 301.589 1472.91 307.686 1470.05C313.784 1467.19 320.946 1469.79 323.801 1475.89Z" fill="url(#paint24_linear)" fill-opacity="0.1"/>
<path d="M2291.23 1386.13C2297.29 1383.29 2299.9 1376.08 2297.06 1370.02C2294.23 1363.96 2287.01 1361.34 2280.95 1364.18C2274.89 1367.02 2272.27 1374.23 2275.11 1380.3C2277.95 1386.36 2285.17 1388.97 2291.23 1386.13Z" fill="url(#paint25_linear)" fill-opacity="0.1"/>
<path d="M1549.7 1720.01C1552.56 1726.11 1549.97 1733.27 1543.87 1736.13C1537.77 1738.98 1530.61 1736.39 1527.75 1730.29C1524.9 1724.19 1527.49 1717.03 1533.59 1714.18C1539.69 1711.32 1546.85 1713.91 1549.7 1720.01Z" fill="url(#paint26_linear)" fill-opacity="0.1"/>
<path d="M2072.17 663.907C2078.23 661.068 2080.84 653.853 2078 647.792C2075.17 641.73 2067.95 639.118 2061.89 641.956C2055.83 644.795 2053.22 652.01 2056.05 658.071C2058.89 664.133 2066.11 666.745 2072.17 663.907Z" fill="url(#paint27_linear)" fill-opacity="0.1"/>
<path d="M2362.9 381.186C2368.96 378.348 2371.58 371.133 2368.74 365.072C2365.9 359.01 2358.68 356.397 2352.62 359.236C2346.56 362.075 2343.95 369.29 2346.79 375.351C2349.63 381.413 2356.84 384.025 2362.9 381.186Z" fill="url(#paint28_linear)" fill-opacity="0.1"/>
<path d="M2891.47 766.441C2897.53 763.602 2900.15 756.387 2897.31 750.326C2894.47 744.265 2887.25 741.652 2881.19 744.49C2875.13 747.329 2872.52 754.544 2875.36 760.606C2878.2 766.667 2885.41 769.28 2891.47 766.441Z" fill="url(#paint29_linear)" fill-opacity="0.1"/>
<path d="M2737.95 381.006C2744.01 378.167 2746.62 370.952 2743.78 364.891C2740.94 358.829 2733.73 356.217 2727.67 359.055C2721.61 361.894 2718.99 369.109 2721.83 375.171C2724.67 381.232 2731.88 383.845 2737.95 381.006Z" fill="url(#paint30_linear)" fill-opacity="0.1"/>
<path d="M2580.72 102.876C2583.57 108.973 2580.98 116.135 2574.88 118.991C2568.79 121.846 2561.62 119.253 2558.77 113.155C2555.91 107.058 2558.51 99.8957 2564.6 97.0402C2570.7 94.1848 2577.86 96.7783 2580.72 102.876Z" fill="url(#paint31_linear)" fill-opacity="0.1"/>
<path d="M2158.85 398.149C2161.71 404.247 2159.12 411.409 2153.02 414.264C2146.92 417.12 2139.76 414.526 2136.9 408.429C2134.05 402.332 2136.64 395.169 2142.74 392.314C2148.84 389.458 2156 392.052 2158.85 398.149Z" fill="url(#paint32_linear)" fill-opacity="0.1"/>
<path d="M2873.48 1007.89C2876.34 1013.98 2873.74 1021.15 2867.65 1024C2861.55 1026.86 2854.39 1024.26 2851.53 1018.17C2848.68 1012.07 2851.27 1004.91 2857.37 1002.05C2863.46 999.196 2870.63 1001.79 2873.48 1007.89Z" fill="url(#paint33_linear)" fill-opacity="0.1"/>
<path d="M3014.68 928.381C3020.74 925.542 3023.35 918.327 3020.51 912.266C3017.68 906.204 3010.46 903.592 3004.4 906.43C2998.34 909.269 2995.72 916.484 2998.56 922.545C3001.4 928.607 3008.62 931.219 3014.68 928.381Z" fill="url(#paint34_linear)" fill-opacity="0.1"/>
<path d="M3102.08 1244.74C3108.14 1241.9 3110.75 1234.68 3107.91 1228.62C3105.08 1222.56 3097.86 1219.95 3091.8 1222.78C3085.74 1225.62 3083.12 1232.84 3085.96 1238.9C3088.8 1244.96 3096.02 1247.57 3102.08 1244.74Z" fill="url(#paint35_linear)" fill-opacity="0.1"/>
<path d="M2786.45 1189.9C2792.51 1187.06 2795.13 1179.85 2792.29 1173.79C2789.45 1167.72 2782.23 1165.11 2776.17 1167.95C2770.11 1170.79 2767.5 1178 2770.34 1184.07C2773.17 1190.13 2780.39 1192.74 2786.45 1189.9Z" fill="url(#paint36_linear)" fill-opacity="0.1"/>
<path d="M558.171 1451.09C564.232 1448.26 566.845 1441.04 564.006 1434.98C561.168 1428.92 553.953 1426.31 547.891 1429.14C541.83 1431.98 539.217 1439.2 542.056 1445.26C544.894 1451.32 552.109 1453.93 558.171 1451.09Z" fill="url(#paint37_linear)" fill-opacity="0.1"/>
<path d="M655.143 1981.12C661.205 1978.28 663.818 1971.06 660.979 1965C658.14 1958.94 650.925 1956.33 644.864 1959.17C638.802 1962.01 636.19 1969.22 639.028 1975.28C641.867 1981.34 649.082 1983.96 655.143 1981.12Z" fill="url(#paint38_linear)" fill-opacity="0.1"/>
<path d="M2188.08 1294.24L2187.05 1294.3L1737.06 1361.23L1736.72 1360.96L1346.8 1105.77L1065.73 1548.38L1065.3 1548.37L750.673 1568.69L650.934 1970.77L650.586 1970.93L510.146 2051.14L509.156 2049.48L649.247 1969.43L749.09 1566.67L749.694 1566.6L1064.66 1546.54L1346.18 1103.09L1347.03 1103.54L1737.54 1359.09L2185.8 1292.55L2065.68 651.863L2067.05 652.071L2734.15 739.854L2731.85 370.264L2568.95 108.597L2570.53 107.433L2733.76 369.797L2733.84 369.971L2736.07 742.141L2734.96 742.026L2068.29 654.254L2188.08 1294.24Z" fill="url(#paint39_linear)" fill-opacity="0.1"/>
<path d="M1514.3 1580.46L1065.82 1548.55L650.319 1971.27L649.726 1970.91L345.802 1839.01L749.46 1565.64L857.652 1209.73L1065.95 1546.58L1511.35 1578.24L1345.21 1104.18L1544.46 875.138L1545.98 876.554L1347.52 1104.59L1514.3 1580.46ZM350.031 1838.52L649.781 1968.76L1064.13 1547.22L858.135 1214.39L751.147 1566.98L750.799 1567.14L350.031 1838.52Z" fill="url(#paint40_linear)" fill-opacity="0.1"/>
<path d="M1912.8 1722.45L1736.87 1361.74L1513.45 1580.01L1312.6 1757.56L1311.92 1757.02L1065.79 1549.41L931.637 2152.42L747.837 1568.53L749.661 1567.89L931.405 2144.66L1064.6 1545.51L1312.58 1754.8L1512.37 1578.61L1737.64 1358.41L1909.49 1710.84L1819.35 978.151L1346.47 1105.51L1224.77 1045.67L1225.67 1043.97L1346.6 1103.53L1819.06 976.164L1819.66 976.093L2066.35 652.398L2066.53 652.316L2469.02 481.242L2355.38 369.203L2357.88 369.095L2737.82 368.955L2472.8 481.598L2737.21 741.396L2735.48 741.782L1821.35 977.428L1912.8 1722.45ZM1822.61 975.136L2733.11 740.344L2470.71 482.576L2067.69 653.895L1822.61 975.136ZM2471.11 480.263L2727.96 371.025L2360.32 371.137L2471.11 480.263Z" fill="url(#paint41_linear)" fill-opacity="0.1"/>
<path d="M3096.15 1234.34L2862.52 1012.6L2619.25 934.922L2187.04 1294.73L2186.36 1294.2L1820.81 978.532L1738.09 1361.17L1737.15 1360.97L1390.45 1302.85L1065.74 1548.38L1065.56 1548.46L607.78 1734.38L651.544 1973.88L496.033 1779.7L345.584 1840.81L423.661 1689.12L69.7884 1246.9L552.716 1438.99L857.619 1211.02L858.049 1211.04L1390 1300.51L1819.23 976.082L1819.52 974.885L1820.54 975.685L2615.17 933.01L2065.81 653.502L2066.09 652.735L2146.86 402.918L2148.82 403.485L2068.33 652.534L2619.3 932.772L2863.6 1010.82L2863.68 1010.99L3097.65 1233L3096.15 1234.34ZM1822.72 977.635L2187.02 1291.98L2615.98 934.752L1822.72 977.635ZM498.205 1778.9L648.291 1966.48L606.038 1735.19L498.205 1778.9ZM1392.65 1301.18L1736.43 1358.98L1818.55 979.163L1392.65 1301.18ZM607.487 1732.39L1064.75 1546.72L1387.88 1302.35L858.25 1213.28L554.751 1440.16L755.415 1568.38L570.971 1532.4L607.487 1732.39ZM496.959 1777.14L605.664 1733.03L568.832 1531.92L512.488 1520.92L426.078 1688.84L496.959 1777.14ZM350.076 1836.8L494.961 1777.87L425.255 1690.71L350.076 1836.8ZM570.596 1530.24L745.45 1564.34L554.44 1442.22L570.596 1530.24ZM76.0354 1251.63L424.658 1687.16L510.431 1520.61L307.063 1480.96L549.254 1439.76L76.0354 1251.63ZM513.567 1519.14L568.457 1529.76L552.605 1443.29L513.567 1519.14ZM318.335 1480.99L511.428 1518.65L551.104 1441.45L318.335 1480.99Z" fill="url(#paint42_linear)" fill-opacity="0.1"/>
<path d="M2781.96 1180.32L2780.32 1180.45L2189.55 1294.19L2286.62 1374.48L2285.46 1376.09L2184.34 1292.6L2186.84 1292.49L2778.57 1178.51L2617.82 933.681L2734.58 739.865L2735.27 739.969L2885.17 753.887L2884.86 755.944L2735.56 741.956L2620.14 933.654L2781.96 1180.32Z" fill="url(#paint43_linear)" fill-opacity="0.1"/>
<path d="M2623.99 944.596C2630.05 941.757 2632.67 934.542 2629.83 928.481C2626.99 922.42 2619.77 919.807 2613.71 922.646C2607.65 925.484 2605.04 932.699 2607.88 938.761C2610.71 944.822 2617.93 947.435 2623.99 944.596Z" fill="url(#paint44_linear)" fill-opacity="0.1"/>
<path d="M1911.97 1717.96L1910.95 1717.59L1512.58 1580.42L1328.15 1476.89L1313.56 1756.89L1312.86 1757.22L911.87 1886.59L932.633 2150.46L930.854 2149.38L647.69 1969.74L909.672 1885.07L856.688 1210.4L858.386 1211.3L1326.17 1473.57L1345.58 1103.16L1346.78 1103.45L1979.26 1245.68L2010.56 1032.2L1818 977.084L2040.39 829.181L2066.56 651.026L2067.91 652.093L2174.52 740.028L2736.16 366.761L2733.91 370.576L2403.56 929.298L2784.77 1181.77L2294.44 1113.58L2187.38 1294.57L2186.7 1294.46L1980.83 1248.13L1911.97 1717.96ZM1328.21 1474.74L1513.4 1578.55L1910.32 1715.33L1978.87 1247.56L1347.58 1105.62L1328.21 1474.74ZM652.409 1970.29L930.327 2146.44L910.047 1887.23L652.409 1970.29ZM2295.52 1111.81L2776.02 1177.16L2402.4 930.903L2295.52 1111.81ZM911.751 1884.52L1311.62 1755.46L1326.2 1475.89L859.005 1213.99L911.751 1884.52ZM1981.15 1246.07L2186.5 1292.22L2292.48 1113.02L2012.35 1032.85L1981.15 1246.07ZM2012.66 1030.79L2293.55 1111.24L2400.79 929.743L2174.1 742.771L2042.07 830.516L2012.66 1030.79ZM2175.85 741.525L2401.87 927.964L2729.88 373.312L2175.85 741.525ZM1822.58 976.427L2010.7 1030.22L2039.8 832.006L1822.58 976.427ZM2067.75 654.929L2042.31 827.854L2172.41 741.437L2067.75 654.929Z" fill="url(#paint45_linear)" fill-opacity="0.1"/>
<path d="M649.35 1969.82L576.991 2335.16L578.878 2335.53L651.237 1970.19L649.35 1969.82Z" fill="url(#paint46_linear)" fill-opacity="0.1"/>
<path d="M110.561 1176.44L72.083 1248.8L73.7816 1249.7L112.26 1177.34L110.561 1176.44Z" fill="url(#paint47_linear)" fill-opacity="0.1"/>
<path d="M152.422 1511.48L152.793 1513.37L313.046 1481.91L312.675 1480.02L152.422 1511.48Z" fill="url(#paint48_linear)" fill-opacity="0.1"/>
<path d="M1511.93 1579.68L1537.74 1725.54L1539.64 1725.21L1513.82 1579.35L1511.93 1579.68Z" fill="url(#paint49_linear)" fill-opacity="0.1"/>
<path d="M3009.19 916.31L2862.76 1010.84L2863.81 1012.46L3010.23 917.926L3009.19 916.31Z" fill="url(#paint50_linear)" fill-opacity="0.1"/>
<path d="M1315.94 1754.72L1315.51 1754.7L347.069 1839.9L311.721 1480.48L312.418 1480.15L861.707 1209.32L350.227 1837.58L1314.61 1752.79L1816.99 979.467L750.717 1566.97L749.727 1565.31L1823.08 973.858L1820.84 977.242L1315.94 1754.72ZM313.756 1481.65L348.796 1836.33L854.498 1215.25L313.756 1481.65Z" fill="url(#paint51_linear)" fill-opacity="0.1"/>
<path d="M2732.17 369.344L1736.54 1359.34L1737.89 1360.71L2733.53 370.708L2732.17 369.344Z" fill="url(#paint52_linear)" fill-opacity="0.1"/>
<path d="M2198.53 1346.49C2197.23 1346.89 2195.96 1345.99 2195.74 1344.61C2195.34 1343.31 2196.23 1342.04 2197.62 1341.82C2198.92 1341.42 2200.19 1342.32 2200.41 1343.7C2200.72 1344.82 2200.18 1345.93 2199.13 1346.42C2198.88 1346.33 2198.7 1346.41 2198.53 1346.49ZM2217.48 1335.7C2216.74 1334.56 2216.94 1333.19 2217.83 1332.36C2218.88 1331.44 2220.34 1331.82 2221.17 1332.7C2221.92 1333.84 2221.71 1335.21 2220.83 1336.05C2220.65 1336.13 2220.48 1336.21 2220.31 1336.29C2219.26 1336.78 2218.06 1336.49 2217.48 1335.7ZM2174.18 1346.21C2172.99 1345.92 2172.16 1344.61 2172.45 1343.41C2172.74 1342.21 2174.05 1341.39 2175.25 1341.67C2176.44 1341.96 2177.27 1343.28 2176.98 1344.47C2176.88 1345.16 2176.34 1345.83 2175.65 1346.16C2175.3 1346.32 2174.69 1346.39 2174.18 1346.21ZM2232.9 1318.28C2231.8 1317.74 2231.32 1316.26 2231.86 1315.16C2232.41 1314.06 2233.88 1313.58 2234.99 1314.12C2236.09 1314.67 2236.57 1316.14 2236.03 1317.25C2235.84 1317.76 2235.4 1318.18 2234.88 1318.42C2234.27 1318.49 2233.67 1318.56 2232.9 1318.28ZM2152.34 1335.41C2151.33 1334.61 2151.28 1333.14 2152.08 1332.13C2152.88 1331.12 2154.35 1331.07 2155.36 1331.87C2156.37 1332.67 2156.42 1334.13 2155.62 1335.15C2155.35 1335.48 2155.01 1335.65 2154.83 1335.73C2153.96 1336.14 2153.02 1335.94 2152.34 1335.41ZM2239.33 1295.73C2238.04 1295.7 2236.95 1294.72 2236.98 1293.43C2237.02 1292.14 2237.99 1291.05 2239.28 1291.08C2240.57 1291.12 2241.66 1292.09 2241.63 1293.38C2241.61 1294.24 2241.16 1295.09 2240.29 1295.5C2240.11 1295.58 2239.76 1295.74 2239.33 1295.73ZM2137.18 1316.17C2136.6 1314.95 2137.07 1313.67 2138.29 1313.1C2139.51 1312.53 2140.79 1312.99 2141.36 1314.21C2141.93 1315.43 2141.46 1316.71 2140.24 1317.28C2139.28 1317.95 2137.75 1317.39 2137.18 1316.17ZM2232.29 1271.63C2232.21 1271.45 2232.21 1271.45 2232.29 1271.63C2231.64 1270.23 2232.1 1268.95 2233.32 1268.38C2234.54 1267.81 2235.82 1268.27 2236.39 1269.49C2236.39 1269.49 2236.39 1269.49 2236.47 1269.67C2236.47 1269.67 2236.47 1269.67 2236.56 1269.84C2237.13 1271.06 2236.66 1272.34 2235.44 1272.91C2234.32 1273.23 2232.86 1272.85 2232.29 1271.63ZM2134.37 1294.76C2133.08 1294.72 2131.98 1293.75 2132.02 1292.46C2132.05 1291.17 2133.03 1290.07 2134.32 1290.11C2135.61 1290.14 2136.7 1291.12 2136.67 1292.41C2136.64 1293.27 2136.02 1294.2 2135.32 1294.52C2134.97 1294.69 2134.8 1294.77 2134.37 1294.76ZM2218.46 1253.89C2217.45 1253.09 2217.4 1251.62 2218.2 1250.61C2219 1249.6 2220.47 1249.55 2221.48 1250.35C2222.49 1251.15 2222.54 1252.62 2221.74 1253.63C2221.47 1253.96 2221.13 1254.13 2220.95 1254.21C2220.25 1254.54 2219.14 1254.42 2218.46 1253.89ZM2138.74 1271.89C2137.64 1271.35 2137.16 1269.87 2137.7 1268.77C2138.25 1267.66 2139.72 1267.18 2140.83 1267.73C2141.93 1268.27 2142.41 1269.75 2141.87 1270.85C2141.68 1271.36 2141.24 1271.78 2140.72 1272.03C2140.11 1272.1 2139.51 1272.17 2138.74 1271.89ZM2198.32 1243.99C2197.12 1243.7 2196.3 1242.39 2196.59 1241.19C2196.88 1239.99 2198.19 1239.17 2199.39 1239.46C2200.58 1239.75 2201.41 1241.06 2201.12 1242.25C2201.02 1242.94 2200.48 1243.62 2199.79 1243.94C2199.44 1244.1 2199.01 1244.09 2198.32 1243.99ZM2152.65 1253.06C2151.91 1251.92 2152.11 1250.55 2153 1249.71C2154.13 1248.97 2155.5 1249.17 2156.34 1250.05C2157.26 1251.11 2156.88 1252.56 2156 1253.4C2155.82 1253.48 2155.65 1253.57 2155.48 1253.65C2154.43 1254.14 2153.23 1253.85 2152.65 1253.06ZM2176.13 1243.76C2174.82 1244.16 2173.56 1243.27 2173.33 1241.89C2172.94 1240.58 2173.83 1239.32 2175.21 1239.09C2176.51 1238.7 2177.78 1239.59 2178 1240.97C2178.32 1242.1 2177.77 1243.2 2176.73 1243.69C2176.56 1243.78 2176.38 1243.86 2176.13 1243.76Z" fill="url(#paint53_linear)" fill-opacity="0.1"/>
<path d="M2202.5 1325.94C2220.78 1317.38 2228.66 1295.62 2220.1 1277.34C2211.54 1259.06 2189.78 1251.18 2171.5 1259.74C2153.22 1268.3 2145.34 1290.06 2153.9 1308.34C2162.46 1326.62 2184.22 1334.5 2202.5 1325.94Z" fill="url(#paint54_linear)" fill-opacity="0.1"/>
<defs>
<linearGradient id="paint0_linear" x1="2717.45" y1="703.281" x2="2752.78" y2="778.714" gradientUnits="userSpaceOnUse">
<stop stop-color="white"/>
<stop offset="1" stop-color="#FCFCFC" stop-opacity="0"/>
</linearGradient>
<linearGradient id="paint1_linear" x1="2723.73" y1="716.695" x2="2746.58" y2="765.474" gradientUnits="userSpaceOnUse">
<stop stop-color="white"/>
<stop offset="1" stop-color="#FCFCFC" stop-opacity="0"/>
</linearGradient>
<linearGradient id="paint2_linear" x1="1799.94" y1="933.74" x2="1840.23" y2="1019.78" gradientUnits="userSpaceOnUse">
<stop stop-color="white"/>
<stop offset="1" stop-color="#FCFCFC" stop-opacity="0"/>
</linearGradient>
<linearGradient id="paint3_linear" x1="1806.38" y1="947.267" x2="1833.95" y2="1006.15" gradientUnits="userSpaceOnUse">
<stop stop-color="white"/>
<stop offset="1" stop-color="#FCFCFC" stop-opacity="0"/>
</linearGradient>
<linearGradient id="paint4_linear" x1="1495.34" y1="1541.55" x2="1530.66" y2="1616.99" gradientUnits="userSpaceOnUse">
<stop stop-color="white"/>
<stop offset="1" stop-color="#FCFCFC" stop-opacity="0"/>
</linearGradient>
<linearGradient id="paint5_linear" x1="1501.53" y1="1555.01" x2="1524.38" y2="1603.79" gradientUnits="userSpaceOnUse">
<stop stop-color="white"/>
<stop offset="1" stop-color="#FCFCFC" stop-opacity="0"/>
</linearGradient>
<linearGradient id="paint6_linear" x1="330.166" y1="1801.09" x2="365.419" y2="1876.36" gradientUnits="userSpaceOnUse">
<stop stop-color="white"/>
<stop offset="1" stop-color="#FCFCFC" stop-opacity="0"/>
</linearGradient>
<linearGradient id="paint7_linear" x1="336.448" y1="1814.5" x2="359.292" y2="1863.28" gradientUnits="userSpaceOnUse">
<stop stop-color="white"/>
<stop offset="1" stop-color="#FCFCFC" stop-opacity="0"/>
</linearGradient>
<linearGradient id="paint8_linear" x1="1036.33" y1="1485.6" x2="1094.37" y2="1609.53" gradientUnits="userSpaceOnUse">
<stop stop-color="white"/>
<stop offset="1" stop-color="#FCFCFC" stop-opacity="0"/>
</linearGradient>
<linearGradient id="paint9_linear" x1="1045.67" y1="1505.52" x2="1085.15" y2="1589.84" gradientUnits="userSpaceOnUse">
<stop stop-color="white"/>
<stop offset="1" stop-color="#FCFCFC" stop-opacity="0"/>
</linearGradient>
<linearGradient id="paint10_linear" x1="1906.01" y1="1705.67" x2="1916.29" y2="1727.62" gradientUnits="userSpaceOnUse">
<stop stop-color="white"/>
<stop offset="1" stop-color="#FCFCFC" stop-opacity="0"/>
</linearGradient>
<linearGradient id="paint11_linear" x1="1732.03" y1="1349.14" x2="1742.31" y2="1371.09" gradientUnits="userSpaceOnUse">
<stop stop-color="white"/>
<stop offset="1" stop-color="#FCFCFC" stop-opacity="0"/>
</linearGradient>
<linearGradient id="paint12_linear" x1="1341.44" y1="1093.42" x2="1351.72" y2="1115.37" gradientUnits="userSpaceOnUse">
<stop stop-color="white"/>
<stop offset="1" stop-color="#FCFCFC" stop-opacity="0"/>
</linearGradient>
<linearGradient id="paint13_linear" x1="67.3951" y1="1239.53" x2="77.6747" y2="1261.48" gradientUnits="userSpaceOnUse">
<stop stop-color="white"/>
<stop offset="1" stop-color="#FCFCFC" stop-opacity="0"/>
</linearGradient>
<linearGradient id="paint14_linear" x1="106.205" y1="1165.91" x2="116.484" y2="1187.86" gradientUnits="userSpaceOnUse">
<stop stop-color="white"/>
<stop offset="1" stop-color="#FCFCFC" stop-opacity="0"/>
</linearGradient>
<linearGradient id="paint15_linear" x1="141.553" y1="1517.57" x2="163.597" y2="1507.49" gradientUnits="userSpaceOnUse">
<stop stop-color="white"/>
<stop offset="1" stop-color="#FCFCFC" stop-opacity="0"/>
</linearGradient>
<linearGradient id="paint16_linear" x1="852.795" y1="1201.18" x2="863.074" y2="1223.13" gradientUnits="userSpaceOnUse">
<stop stop-color="white"/>
<stop offset="1" stop-color="#FCFCFC" stop-opacity="0"/>
</linearGradient>
<linearGradient id="paint17_linear" x1="926.34" y1="2137.48" x2="936.62" y2="2159.43" gradientUnits="userSpaceOnUse">
<stop stop-color="white"/>
<stop offset="1" stop-color="#FCFCFC" stop-opacity="0"/>
</linearGradient>
<linearGradient id="paint18_linear" x1="1307.41" y1="1745.12" x2="1317.69" y2="1767.07" gradientUnits="userSpaceOnUse">
<stop stop-color="white"/>
<stop offset="1" stop-color="#FCFCFC" stop-opacity="0"/>
</linearGradient>
<linearGradient id="paint19_linear" x1="1539.62" y1="866.149" x2="1549.9" y2="888.099" gradientUnits="userSpaceOnUse">
<stop stop-color="white"/>
<stop offset="1" stop-color="#FCFCFC" stop-opacity="0"/>
</linearGradient>
<linearGradient id="paint20_linear" x1="1220" y1="1033.67" x2="1230.28" y2="1055.62" gradientUnits="userSpaceOnUse">
<stop stop-color="white"/>
<stop offset="1" stop-color="#FCFCFC" stop-opacity="0"/>
</linearGradient>
<linearGradient id="paint21_linear" x1="744.789" y1="1556.57" x2="755.068" y2="1578.52" gradientUnits="userSpaceOnUse">
<stop stop-color="white"/>
<stop offset="1" stop-color="#FCFCFC" stop-opacity="0"/>
</linearGradient>
<linearGradient id="paint22_linear" x1="504.424" y1="2039.38" x2="514.704" y2="2061.33" gradientUnits="userSpaceOnUse">
<stop stop-color="white"/>
<stop offset="1" stop-color="#FCFCFC" stop-opacity="0"/>
</linearGradient>
<linearGradient id="paint23_linear" x1="572.491" y1="2324.43" x2="582.77" y2="2346.38" gradientUnits="userSpaceOnUse">
<stop stop-color="white"/>
<stop offset="1" stop-color="#FCFCFC" stop-opacity="0"/>
</linearGradient>
<linearGradient id="paint24_linear" x1="307.686" y1="1470.05" x2="317.966" y2="1492" gradientUnits="userSpaceOnUse">
<stop stop-color="white"/>
<stop offset="1" stop-color="#FCFCFC" stop-opacity="0"/>
</linearGradient>
<linearGradient id="paint25_linear" x1="2280.95" y1="1364.18" x2="2291.23" y2="1386.13" gradientUnits="userSpaceOnUse">
<stop stop-color="white"/>
<stop offset="1" stop-color="#FCFCFC" stop-opacity="0"/>
</linearGradient>
<linearGradient id="paint26_linear" x1="1533.59" y1="1714.18" x2="1543.87" y2="1736.13" gradientUnits="userSpaceOnUse">
<stop stop-color="white"/>
<stop offset="1" stop-color="#FCFCFC" stop-opacity="0"/>
</linearGradient>
<linearGradient id="paint27_linear" x1="2061.89" y1="641.956" x2="2072.17" y2="663.907" gradientUnits="userSpaceOnUse">
<stop stop-color="white"/>
<stop offset="1" stop-color="#FCFCFC" stop-opacity="0"/>
</linearGradient>
<linearGradient id="paint28_linear" x1="2352.62" y1="359.236" x2="2362.9" y2="381.187" gradientUnits="userSpaceOnUse">
<stop stop-color="white"/>
<stop offset="1" stop-color="#FCFCFC" stop-opacity="0"/>
</linearGradient>
<linearGradient id="paint29_linear" x1="2881.19" y1="744.491" x2="2891.47" y2="766.441" gradientUnits="userSpaceOnUse">
<stop stop-color="white"/>
<stop offset="1" stop-color="#FCFCFC" stop-opacity="0"/>
</linearGradient>
<linearGradient id="paint30_linear" x1="2727.67" y1="359.055" x2="2737.95" y2="381.006" gradientUnits="userSpaceOnUse">
<stop stop-color="white"/>
<stop offset="1" stop-color="#FCFCFC" stop-opacity="0"/>
</linearGradient>
<linearGradient id="paint31_linear" x1="2564.6" y1="97.0402" x2="2574.88" y2="118.991" gradientUnits="userSpaceOnUse">
<stop stop-color="white"/>
<stop offset="1" stop-color="#FCFCFC" stop-opacity="0"/>
</linearGradient>
<linearGradient id="paint32_linear" x1="2142.74" y1="392.314" x2="2153.02" y2="414.264" gradientUnits="userSpaceOnUse">
<stop stop-color="white"/>
<stop offset="1" stop-color="#FCFCFC" stop-opacity="0"/>
</linearGradient>
<linearGradient id="paint33_linear" x1="2857.37" y1="1002.05" x2="2867.65" y2="1024" gradientUnits="userSpaceOnUse">
<stop stop-color="white"/>
<stop offset="1" stop-color="#FCFCFC" stop-opacity="0"/>
</linearGradient>
<linearGradient id="paint34_linear" x1="3004.4" y1="906.43" x2="3014.68" y2="928.381" gradientUnits="userSpaceOnUse">
<stop stop-color="white"/>
<stop offset="1" stop-color="#FCFCFC" stop-opacity="0"/>
</linearGradient>
<linearGradient id="paint35_linear" x1="3091.8" y1="1222.78" x2="3102.08" y2="1244.74" gradientUnits="userSpaceOnUse">
<stop stop-color="white"/>
<stop offset="1" stop-color="#FCFCFC" stop-opacity="0"/>
</linearGradient>
<linearGradient id="paint36_linear" x1="2776.17" y1="1167.95" x2="2786.45" y2="1189.9" gradientUnits="userSpaceOnUse">
<stop stop-color="white"/>
<stop offset="1" stop-color="#FCFCFC" stop-opacity="0"/>
</linearGradient>
<linearGradient id="paint37_linear" x1="547.891" y1="1429.14" x2="558.171" y2="1451.09" gradientUnits="userSpaceOnUse">
<stop stop-color="white"/>
<stop offset="1" stop-color="#FCFCFC" stop-opacity="0"/>
</linearGradient>
<linearGradient id="paint38_linear" x1="644.864" y1="1959.17" x2="655.143" y2="1981.12" gradientUnits="userSpaceOnUse">
<stop stop-color="white"/>
<stop offset="1" stop-color="#FCFCFC" stop-opacity="0"/>
</linearGradient>
<linearGradient id="paint39_linear" x1="1368.83" y1="670.2" x2="1755.87" y2="1496.65" gradientUnits="userSpaceOnUse">
<stop stop-color="white"/>
<stop offset="1" stop-color="#FCFCFC" stop-opacity="0"/>
</linearGradient>
<linearGradient id="paint40_linear" x1="868.18" y1="1191.85" x2="1133.65" y2="1758.73" gradientUnits="userSpaceOnUse">
<stop stop-color="white"/>
<stop offset="1" stop-color="#FCFCFC" stop-opacity="0"/>
</linearGradient>
<linearGradient id="paint41_linear" x1="1585.98" y1="729.519" x2="2026.13" y2="1669.38" gradientUnits="userSpaceOnUse">
<stop stop-color="white"/>
<stop offset="1" stop-color="#FCFCFC" stop-opacity="0"/>
</linearGradient>
<linearGradient id="paint42_linear" x1="1313.12" y1="664.639" x2="1852.64" y2="1816.69" gradientUnits="userSpaceOnUse">
<stop stop-color="white"/>
<stop offset="1" stop-color="#FCFCFC" stop-opacity="0"/>
</linearGradient>
<linearGradient id="paint43_linear" x1="2461.86" y1="867.585" x2="2639.55" y2="1247.01" gradientUnits="userSpaceOnUse">
<stop stop-color="white"/>
<stop offset="1" stop-color="#FCFCFC" stop-opacity="0"/>
</linearGradient>
<linearGradient id="paint44_linear" x1="2613.71" y1="922.646" x2="2623.99" y2="944.596" gradientUnits="userSpaceOnUse">
<stop stop-color="white"/>
<stop offset="1" stop-color="#FCFCFC" stop-opacity="0"/>
</linearGradient>
<linearGradient id="paint45_linear" x1="1557.88" y1="882.023" x2="1942.63" y2="1703.6" gradientUnits="userSpaceOnUse">
<stop stop-color="white"/>
<stop offset="1" stop-color="#FCFCFC" stop-opacity="0"/>
</linearGradient>
<linearGradient id="paint46_linear" x1="613.171" y1="2152.49" x2="615.058" y2="2152.86" gradientUnits="userSpaceOnUse">
<stop stop-color="white"/>
<stop offset="1" stop-color="#FCFCFC" stop-opacity="0"/>
</linearGradient>
<linearGradient id="paint47_linear" x1="91.3221" y1="1212.62" x2="93.0207" y2="1213.52" gradientUnits="userSpaceOnUse">
<stop stop-color="white"/>
<stop offset="1" stop-color="#FCFCFC" stop-opacity="0"/>
</linearGradient>
<linearGradient id="paint48_linear" x1="152.608" y1="1512.43" x2="312.86" y2="1480.97" gradientUnits="userSpaceOnUse">
<stop stop-color="white"/>
<stop offset="1" stop-color="#FCFCFC" stop-opacity="0"/>
</linearGradient>
<linearGradient id="paint49_linear" x1="1524.83" y1="1652.61" x2="1526.73" y2="1652.28" gradientUnits="userSpaceOnUse">
<stop stop-color="white"/>
<stop offset="1" stop-color="#FCFCFC" stop-opacity="0"/>
</linearGradient>
<linearGradient id="paint50_linear" x1="2935.98" y1="963.577" x2="2937.02" y2="965.193" gradientUnits="userSpaceOnUse">
<stop stop-color="white"/>
<stop offset="1" stop-color="#FCFCFC" stop-opacity="0"/>
</linearGradient>
<linearGradient id="paint51_linear" x1="969.02" y1="1159.07" x2="1260.19" y2="1780.82" gradientUnits="userSpaceOnUse">
<stop stop-color="white"/>
<stop offset="1" stop-color="#FCFCFC" stop-opacity="0"/>
</linearGradient>
<linearGradient id="paint52_linear" x1="2234.36" y1="864.344" x2="2235.71" y2="865.708" gradientUnits="userSpaceOnUse">
<stop stop-color="white"/>
<stop offset="1" stop-color="#FCFCFC" stop-opacity="0"/>
</linearGradient>
<linearGradient id="paint53_linear" x1="2164.02" y1="1244.23" x2="2209.59" y2="1341.52" gradientUnits="userSpaceOnUse">
<stop stop-color="white"/>
<stop offset="1" stop-color="#FCFCFC" stop-opacity="0"/>
</linearGradient>
<linearGradient id="paint54_linear" x1="2171.5" y1="1259.74" x2="2202.5" y2="1325.94" gradientUnits="userSpaceOnUse">
<stop stop-color="white"/>
<stop offset="1" stop-color="#FCFCFC" stop-opacity="0"/>
</linearGradient>
</defs>
</svg>
