<?xml version="1.0" encoding="utf-8"?>
<!-- Generator: Adobe Illustrator 25.2.3, SVG Export Plug-In . SVG Version: 6.00 Build 0)  -->
<svg version="1.1" id="Layer_1" xmlns="http://www.w3.org/2000/svg" xmlns:xlink="http://www.w3.org/1999/xlink" x="0px" y="0px"
	 viewBox="0 0 848 1060.4" style="enable-background:new 0 0 848 1060.4;" xml:space="preserve">
<style type="text/css">
	.st0{opacity:0.2;}
	.st1{fill:url(#SVGID_1_);}
	.st2{fill:url(#SVGID_2_);}
	.st3{fill:url(#SVGID_3_);}
	.st4{fill:url(#SVGID_4_);}
	.st5{fill:url(#SVGID_5_);}
	.st6{fill:url(#SVGID_6_);}
	.st7{fill:url(#SVGID_7_);}
	.st8{fill:url(#SVGID_8_);}
	.st9{fill:url(#SVGID_9_);}
	.st10{fill:url(#SVGID_10_);}
	.st11{fill:url(#SVGID_11_);}
	.st12{fill:url(#SVGID_12_);}
	.st13{fill:url(#SVGID_13_);}
	.st14{fill:url(#SVGID_14_);}
	.st15{fill:url(#SVGID_15_);}
	.st16{fill:url(#SVGID_16_);}
	.st17{fill:url(#SVGID_17_);}
	.st18{fill:url(#SVGID_18_);}
	.st19{fill:url(#SVGID_19_);}
	.st20{fill:url(#SVGID_20_);}
	.st21{fill:url(#SVGID_21_);}
	.st22{fill:url(#SVGID_22_);}
	.st23{fill:url(#SVGID_23_);}
	.st24{fill:url(#SVGID_24_);}
	.st25{fill:url(#SVGID_25_);}
	.st26{fill:url(#SVGID_26_);}
	.st27{fill:url(#SVGID_27_);}
	.st28{fill:url(#SVGID_28_);}
	.st29{fill:url(#SVGID_29_);}
	.st30{fill:url(#SVGID_30_);}
	.st31{fill:url(#SVGID_31_);}
	.st32{fill:url(#SVGID_32_);}
	.st33{fill:url(#SVGID_33_);}
	.st34{fill:url(#SVGID_34_);}
	.st35{fill:url(#SVGID_35_);}
	.st36{fill:url(#SVGID_36_);}
	.st37{fill:url(#SVGID_37_);}
	.st38{fill:url(#SVGID_38_);}
	.st39{fill:url(#SVGID_39_);}
	.st40{fill:url(#SVGID_40_);}
	.st41{fill:url(#SVGID_41_);}
	.st42{fill:url(#SVGID_42_);}
	.st43{fill:url(#SVGID_43_);}
	.st44{fill:url(#SVGID_44_);}
</style>
<g class="st0">
	
		<linearGradient id="SVGID_1_" gradientUnits="userSpaceOnUse" x1="488" y1="1275.479" x2="488" y2="1965.37" gradientTransform="matrix(1 0 0 1 0 -822)">
		<stop  offset="0" style="stop-color:#00E0A4"/>
		<stop  offset="1" style="stop-color:#00182E"/>
	</linearGradient>
	<path class="st1" d="M532.1,1053c-11.4-2.1-22.7-4.7-33.8-7.7c-4.1-1.1-8.2-2.3-12.2-3.5c-3-0.9-5.9-1.8-8.9-2.8
		c-2.1-0.7-4.2-1.4-6.3-2.1c-3.3-1.1-6.5-2.3-9.7-3.5c-3.5-1.3-6.9-2.6-10.3-4l-7-127.4l15-71.8l72.5,220.2L532.1,1053z"/>
	
		<linearGradient id="SVGID_2_" gradientUnits="userSpaceOnUse" x1="736.65" y1="-442219.6875" x2="736.65" y2="-56431.293" gradientTransform="matrix(1 0 0 1 0 -822)">
		<stop  offset="0" style="stop-color:#00E0A4"/>
		<stop  offset="1" style="stop-color:#00182E"/>
	</linearGradient>
	<path class="st2" d="M781.4,902l-7.4,126.7c-3.5,1.4-6.9,2.8-10.4,4.1c-3.5,1.3-7,2.6-10.5,3.8c-1.7,0.6-3.5,1.2-5.3,1.8
		c-3,1-6,1.9-9.1,2.9c-15.4,4.7-31,8.6-46.8,11.6l0.2-0.8l0.1-0.3L765.5,827L781.4,902z"/>
	
		<linearGradient id="SVGID_3_" gradientUnits="userSpaceOnUse" x1="610.1502" y1="1998.08" x2="610.1502" y2="1505.673" gradientTransform="matrix(1 0 0 1 0 -822)">
		<stop  offset="0" style="stop-color:#00E0B5"/>
		<stop  offset="1" style="stop-color:#000B08"/>
	</linearGradient>
	<path class="st3" d="M707.7,993.6l-39.2,63l-2,0.3c-0.7,0.1-1.5,0.2-2.2,0.3c-0.6,0.1-1.3,0.2-1.9,0.2l-4.1,0.5
		c-2.9,0.3-5.8,0.6-8.7,0.8c-12.4,1.1-24.9,1.7-37.5,1.7h-0.7c-12.5,0-24.9-0.5-37.3-1.6c-2.7-0.3-5.4-0.5-8.1-0.8
		c-1.2-0.1-2.5-0.2-3.7-0.4l-2-0.2l-1.9-0.2l-2.1-0.2l-39.1-63.2l-8.6-154.4l41.2,111.8l49,8.8l31-0.1l46.5-9.1l35.4-107.3
		L707.7,993.6z"/>
	
		<linearGradient id="SVGID_4_" gradientUnits="userSpaceOnUse" x1="678.2877" y1="1374.4398" x2="743.3471" y2="1449.8917" gradientTransform="matrix(1 0 0 1 0 -822)">
		<stop  offset="0" style="stop-color:#00917B"/>
		<stop  offset="1" style="stop-color:#00BD86"/>
	</linearGradient>
	<path class="st4" d="M669.1,557.8l62.6,36l0.2,41.4L669.1,557.8z"/>
	
		<linearGradient id="SVGID_5_" gradientUnits="userSpaceOnUse" x1="882.0561" y1="1393.3256" x2="941.981" y2="1436.6106" gradientTransform="matrix(1 0 0 1 0 -822)">
		<stop  offset="0" style="stop-color:#004F75"/>
		<stop  offset="1" style="stop-color:#006186"/>
	</linearGradient>
	<path class="st5" d="M888.1,575.7l43.3-10.6l-20.4,69L888.1,575.7z"/>
	
		<linearGradient id="SVGID_6_" gradientUnits="userSpaceOnUse" x1="719.6912" y1="1503.2999" x2="851.6852" y2="1395.525" gradientTransform="matrix(1 0 0 1 0 -822)">
		<stop  offset="0" style="stop-color:#00E0A3"/>
		<stop  offset="1" style="stop-color:#00298F"/>
	</linearGradient>
	<path class="st6" d="M731.8,635.2l6.4,67.2l30.6-44.6l35.9-56.7L731.8,635.2z"/>
	
		<linearGradient id="SVGID_7_" gradientUnits="userSpaceOnUse" x1="778.7458" y1="1511.1189" x2="1001.7398" y2="1329.0398" gradientTransform="matrix(1 0 0 1 0 -822)">
		<stop  offset="0" style="stop-color:#00E094"/>
		<stop  offset="1" style="stop-color:#000051"/>
	</linearGradient>
	<path class="st7" d="M888.1,575.7l-51.4,13.6l-32,11.8l-35.9,56.7l-30.6,44.6l42.3,2.2l79.5-15l51-55.5L888.1,575.7z"/>
	
		<linearGradient id="SVGID_8_" gradientUnits="userSpaceOnUse" x1="749.778" y1="1535.1866" x2="710.8839" y2="1546.2136" gradientTransform="matrix(1 0 0 1 0 -822)">
		<stop  offset="0" style="stop-color:#005773"/>
		<stop  offset="1" style="stop-color:#003B1B"/>
	</linearGradient>
	<path class="st8" d="M707.7,728l30.4-25.6l8.8,25.7L707.7,728z"/>
	
		<linearGradient id="SVGID_9_" gradientUnits="userSpaceOnUse" x1="754.7855" y1="1517.3275" x2="765.4124" y2="1542.2485" gradientTransform="matrix(1 0 0 1 0 -822)">
		<stop  offset="0" style="stop-color:#00E094"/>
		<stop  offset="1" style="stop-color:#000051"/>
	</linearGradient>
	<path class="st9" d="M738.2,702.4l42.3,2.2L747,728.1L738.2,702.4z"/>
	
		<linearGradient id="SVGID_10_" gradientUnits="userSpaceOnUse" x1="714.6208" y1="1549.7542" x2="745.5308" y2="1592.0321" gradientTransform="matrix(1 0 0 1 0 -822)">
		<stop  offset="0" style="stop-color:#000700"/>
		<stop  offset="1" style="stop-color:#002B16"/>
	</linearGradient>
	<path class="st10" d="M707.7,728H747l-42.1,30.5L707.7,728z"/>
	
		<linearGradient id="SVGID_11_" gradientUnits="userSpaceOnUse" x1="646.5583" y1="1411.5796" x2="741.3223" y2="1482.3146" gradientTransform="matrix(1 0 0 1 0 -822)">
		<stop  offset="0" style="stop-color:#00ABB5"/>
		<stop  offset="1" style="stop-color:#00AD95"/>
	</linearGradient>
	<path class="st11" d="M669.1,557.8l62.7,77.4L693.2,673L669.1,557.8z"/>
	
		<linearGradient id="SVGID_12_" gradientUnits="userSpaceOnUse" x1="689.0484" y1="1501.6721" x2="740.0004" y2="1555.1472" gradientTransform="matrix(1 0 0 1 0 -822)">
		<stop  offset="0" style="stop-color:#00C77A"/>
		<stop  offset="1" style="stop-color:#00C797"/>
	</linearGradient>
	<path class="st12" d="M707.7,728l30.4-25.6l-45-29.4L707.7,728z"/>
	
		<linearGradient id="SVGID_13_" gradientUnits="userSpaceOnUse" x1="691.6432" y1="1454.2097" x2="750.2141" y2="1515.6827" gradientTransform="matrix(1 0 0 1 0 -822)">
		<stop  offset="0" style="stop-color:#00D4B0"/>
		<stop  offset="1" style="stop-color:#00A1B5"/>
	</linearGradient>
	<path class="st13" d="M731.8,635.2l6.4,67.2l-45-29.4L731.8,635.2z"/>
	
		<linearGradient id="SVGID_14_" gradientUnits="userSpaceOnUse" x1="551.424" y1="1658.3762" x2="725.4109" y2="1516.3173" gradientTransform="matrix(1 0 0 1 0 -822)">
		<stop  offset="0" style="stop-color:#00E088"/>
		<stop  offset="1" style="stop-color:#00E0B5"/>
	</linearGradient>
	<path class="st14" d="M693.2,673l-37.4,112.1l49.2-26.5l2.8-30.5L693.2,673z"/>
	
		<linearGradient id="SVGID_15_" gradientUnits="userSpaceOnUse" x1="642.1113" y1="1677.7975" x2="745.7752" y2="1582.1074" gradientTransform="matrix(1 0 0 1 0 -822)">
		<stop  offset="0" style="stop-color:#00E094"/>
		<stop  offset="1" style="stop-color:#00E0B5"/>
	</linearGradient>
	<path class="st15" d="M696.3,796l8.6-37.5L655.7,785l21.4,60.3l31.8,7.1L696.3,796z"/>
	
		<linearGradient id="SVGID_16_" gradientUnits="userSpaceOnUse" x1="82988.9063" y1="-40481.5664" x2="97163.0078" y2="-47751.9688" gradientTransform="matrix(1 0 0 1 0 -822)">
		<stop  offset="0" style="stop-color:#00C77A"/>
		<stop  offset="1" style="stop-color:#00C797"/>
	</linearGradient>
	<path class="st16" d="M669.2,888l-31.4,46.1l-7.9,25.6l46.5-9.1L669.2,888z"/>
	
		<linearGradient id="SVGID_17_" gradientUnits="userSpaceOnUse" x1="553.1565" y1="1379.2111" x2="481.6975" y2="1446.5632" gradientTransform="matrix(1 0 0 1 0 -822)">
		<stop  offset="0" style="stop-color:#00917B"/>
		<stop  offset="1" style="stop-color:#00BD86"/>
	</linearGradient>
	<path class="st17" d="M492.1,635.6l-0.3-41.4l62.1-36.2L492.1,635.6z"/>
	
		<linearGradient id="SVGID_18_" gradientUnits="userSpaceOnUse" x1="337.6025" y1="1404.8025" x2="296.5127" y2="1425.0297" gradientTransform="matrix(1 0 0 1 0 -822)">
		<stop  offset="0" style="stop-color:#004F75"/>
		<stop  offset="1" style="stop-color:#006186"/>
	</linearGradient>
	<path class="st18" d="M312.3,635.1L290.8,566l43.7,10.5L312.3,635.1z"/>
	
		<linearGradient id="SVGID_19_" gradientUnits="userSpaceOnUse" x1="500.6834" y1="1498.1385" x2="406.7813" y2="1444.1602" gradientTransform="matrix(1 0 0 1 0 -822)">
		<stop  offset="0" style="stop-color:#00E0A3"/>
		<stop  offset="1" style="stop-color:#00298F"/>
	</linearGradient>
	<path class="st19" d="M492.1,635.6l-6.8,67.3l-30-44.6l-36.7-56.7L492.1,635.6z"/>
	
		<linearGradient id="SVGID_20_" gradientUnits="userSpaceOnUse" x1="462.7812" y1="1545.7357" x2="330.2421" y2="1402.4382" gradientTransform="matrix(1 0 0 1 0 -822)">
		<stop  offset="0" style="stop-color:#00E094"/>
		<stop  offset="1" style="stop-color:#000051"/>
	</linearGradient>
	<path class="st20" d="M334.5,576.5l51.8,13.5l32.2,11.7l36.7,56.7l30,44.6l-41.1,2.3l-80-14.7l-51.8-55.4L334.5,576.5z"/>
	
		<linearGradient id="SVGID_21_" gradientUnits="userSpaceOnUse" x1="30640.4141" y1="22338.625" x2="33468.1172" y2="24288.9238" gradientTransform="matrix(1 0 0 1 0 -822)">
		<stop  offset="0" style="stop-color:#005773"/>
		<stop  offset="1" style="stop-color:#003B1B"/>
	</linearGradient>
	<path class="st21" d="M477.9,728.6l7.4-25.7l32,25.5L477.9,728.6z"/>
	
		<linearGradient id="SVGID_22_" gradientUnits="userSpaceOnUse" x1="469.9873" y1="1518.2345" x2="459.4039" y2="1542.5701" gradientTransform="matrix(1 0 0 1 0 -822)">
		<stop  offset="0" style="stop-color:#00E094"/>
		<stop  offset="1" style="stop-color:#000051"/>
	</linearGradient>
	<path class="st22" d="M477.9,728.6l-33.8-23.4l41.1-2.3L477.9,728.6z"/>
	
		<linearGradient id="SVGID_23_" gradientUnits="userSpaceOnUse" x1="509.123" y1="1546.2533" x2="497.463" y2="1569.2789" gradientTransform="matrix(1 0 0 1 0 -822)">
		<stop  offset="0" style="stop-color:#000700"/>
		<stop  offset="1" style="stop-color:#002B16"/>
	</linearGradient>
	<path class="st23" d="M520.5,758.9L478,728.6l39.4-0.2L520.5,758.9z"/>
	
		<linearGradient id="SVGID_24_" gradientUnits="userSpaceOnUse" x1="573.3899" y1="1424.0846" x2="492.9907" y2="1459.7101" gradientTransform="matrix(1 0 0 1 0 -822)">
		<stop  offset="0" style="stop-color:#00ABB5"/>
		<stop  offset="1" style="stop-color:#00AD95"/>
	</linearGradient>
	<path class="st24" d="M531.2,673.4l-39.1-37.7l61.8-77.6L531.2,673.4z"/>
	
		<linearGradient id="SVGID_25_" gradientUnits="userSpaceOnUse" x1="538.9686" y1="1504.03" x2="498.7026" y2="1539.8613" gradientTransform="matrix(1 0 0 1 0 -822)">
		<stop  offset="0" style="stop-color:#00C77A"/>
		<stop  offset="1" style="stop-color:#00C797"/>
	</linearGradient>
	<path class="st25" d="M531.2,673.3l-45.9,29.5l32,25.5L531.2,673.3z"/>
	
		<linearGradient id="SVGID_26_" gradientUnits="userSpaceOnUse" x1="515.2688" y1="1473.7275" x2="471.47" y2="1506.0729" gradientTransform="matrix(1 0 0 1 0 -822)">
		<stop  offset="0" style="stop-color:#00D4B0"/>
		<stop  offset="1" style="stop-color:#00A1B5"/>
	</linearGradient>
	<path class="st26" d="M531.2,673.3l-45.9,29.5l6.8-67.3L531.2,673.3z"/>
	
		<linearGradient id="SVGID_27_" gradientUnits="userSpaceOnUse" x1="582.236" y1="1561.7909" x2="516.464" y2="1540.2091" gradientTransform="matrix(1 0 0 1 0 -822)">
		<stop  offset="0" style="stop-color:#00E088"/>
		<stop  offset="1" style="stop-color:#00E0B5"/>
	</linearGradient>
	<path class="st27" d="M531.2,673.3l36.3,111.4l-47-25.8l-3.2-30.5L531.2,673.3z"/>
	
		<linearGradient id="SVGID_28_" gradientUnits="userSpaceOnUse" x1="583.9534" y1="1662.8303" x2="567.1276" y2="1713.3719" gradientTransform="matrix(1 0 0 1 0 -822)">
		<stop  offset="0" style="stop-color:#00E094"/>
		<stop  offset="1" style="stop-color:#00E0B5"/>
	</linearGradient>
	<path class="st28" d="M557.9,888.3l-8.5-42.6l64.2,5L557.9,888.3z"/>
	
		<linearGradient id="SVGID_29_" gradientUnits="userSpaceOnUse" x1="105758.1797" y1="-58924.1211" x2="128043.6797" y2="-71747.8281" gradientTransform="matrix(1 0 0 1 0 -822)">
		<stop  offset="0" style="stop-color:#00E094"/>
		<stop  offset="1" style="stop-color:#00E0B5"/>
	</linearGradient>
	<path class="st29" d="M520.5,758.9l10.3,35.5l-18,59.6l36.6-8.3l18.1-61L520.5,758.9z"/>
	
		<linearGradient id="SVGID_30_" gradientUnits="userSpaceOnUse" x1="605.5727" y1="1769.3951" x2="543.9442" y2="1736.2446" gradientTransform="matrix(1 0 0 1 0 -822)">
		<stop  offset="0" style="stop-color:#00C77A"/>
		<stop  offset="1" style="stop-color:#00C797"/>
	</linearGradient>
	<path class="st30" d="M557.9,888.3l30.4,45.9l10.6,25.6l-49-8.9L557.9,888.3z"/>
	
		<linearGradient id="SVGID_31_" gradientUnits="userSpaceOnUse" x1="34557.4961" y1="-57689.2969" x2="36579.4961" y2="-61230.6953" gradientTransform="matrix(1 0 0 1 0 -822)">
		<stop  offset="0" style="stop-color:#00C77A"/>
		<stop  offset="1" style="stop-color:#00C797"/>
	</linearGradient>
	<path class="st31" d="M637.8,934.1l-24.4-2.5v-0.1h-0.3h-0.3v0.1l-24.4,2.6l10.6,25.6l31-0.1L637.8,934.1z"/>
	
		<linearGradient id="SVGID_32_" gradientUnits="userSpaceOnUse" x1="665.629" y1="1714.5" x2="562.9551" y2="1714.5" gradientTransform="matrix(1 0 0 1 0 -822)">
		<stop  offset="0" style="stop-color:#004D45"/>
		<stop  offset="0.11" style="stop-color:#003630"/>
		<stop  offset="0.24" style="stop-color:#00221E"/>
		<stop  offset="0.37" style="stop-color:#001613"/>
		<stop  offset="0.5" style="stop-color:#00120F"/>
		<stop  offset="0.67" style="stop-color:#001512"/>
		<stop  offset="0.78" style="stop-color:#001E1A"/>
		<stop  offset="0.88" style="stop-color:#002D28"/>
		<stop  offset="0.97" style="stop-color:#00423B"/>
		<stop  offset="1" style="stop-color:#004D45"/>
	</linearGradient>
	<path class="st32" d="M669.2,888l-55.6-36.8v-0.4l-0.3,0.2l-0.3-0.2v0.4l-55.1,37.1l30.4,45.9l24.8-2.6l24.8,2.5L669.2,888z"/>
	
		<linearGradient id="SVGID_33_" gradientUnits="userSpaceOnUse" x1="612.2001" y1="1666.26" x2="612.2001" y2="1498.344" gradientTransform="matrix(1 0 0 1 0 -822)">
		<stop  offset="0" style="stop-color:#00C584"/>
		<stop  offset="1" style="stop-color:#00E0A9"/>
	</linearGradient>
	<path class="st33" d="M655.8,785.1L693.2,673l-80.9,5l-81.1-4.7l36.3,111.4l-18.1,61l63.6,5l0,0h0.3h0.3l0,0l63.5-5.3L655.8,785.1z
		"/>
	
		<linearGradient id="SVGID_34_" gradientUnits="userSpaceOnUse" x1="611.4891" y1="1512.9203" x2="618.3031" y2="1342.5753" gradientTransform="matrix(1 0 0 1 0 -822)">
		<stop  offset="0" style="stop-color:#00C7B5"/>
		<stop  offset="1" style="stop-color:#00ABB5"/>
	</linearGradient>
	<path class="st34" d="M612.6,678l80.6-5l-24.1-115.2l-57.8,13.5L553.9,558l-22.7,115.3l80.7,4.7l0,0h0.3H612.6L612.6,678z"/>
	
		<linearGradient id="SVGID_35_" gradientUnits="userSpaceOnUse" x1="688.9999" y1="1776.634" x2="688.9999" y2="1661.4611" gradientTransform="matrix(1 0 0 1 0 -822)">
		<stop  offset="0" style="stop-color:#007F9B"/>
		<stop  offset="1" style="stop-color:#00C693"/>
	</linearGradient>
	<path class="st35" d="M677.1,845.4l-8,42.6l7.2,62.6l32.6-98.1L677.1,845.4z"/>
	
		<linearGradient id="SVGID_36_" gradientUnits="userSpaceOnUse" x1="535.35" y1="-76445.4063" x2="535.35" y2="-104807.7031" gradientTransform="matrix(1 0 0 1 0 -822)">
		<stop  offset="0" style="stop-color:#007F9B"/>
		<stop  offset="1" style="stop-color:#00C693"/>
	</linearGradient>
	<path class="st36" d="M549.4,845.7l-36.6,8.3l37.1,96.9l8-62.7L549.4,845.7z"/>
	
		<linearGradient id="SVGID_37_" gradientUnits="userSpaceOnUse" x1="597.8279" y1="1693.969" x2="419.3929" y2="1550.042" gradientTransform="matrix(1 0 0 1 0 -822)">
		<stop  offset="0" style="stop-color:#00C696"/>
		<stop  offset="1" style="stop-color:#00959B"/>
	</linearGradient>
	<path class="st37" d="M549.4,845.7l-36.6,8.3l-34.9-125.4l42.5,30.3l27.8,35.6L549.4,845.7z"/>
	
		<linearGradient id="SVGID_38_" gradientUnits="userSpaceOnUse" x1="152356.5781" y1="-64495.0234" x2="196884.5781" y2="-83908.4219" gradientTransform="matrix(1 0 0 1 0 -822)">
		<stop  offset="0" style="stop-color:#00C696"/>
		<stop  offset="1" style="stop-color:#00959B"/>
	</linearGradient>
	<path class="st38" d="M677.1,845.4l31.8,7.1L747,728.1l-42.1,30.5l-26.7,41.1L677.1,845.4z"/>
	
		<linearGradient id="SVGID_39_" gradientUnits="userSpaceOnUse" x1="642.6215" y1="1662.676" x2="659.6912" y2="1713.1178" gradientTransform="matrix(1 0 0 1 0 -822)">
		<stop  offset="0" style="stop-color:#00E094"/>
		<stop  offset="1" style="stop-color:#00E0B5"/>
	</linearGradient>
	<path class="st39" d="M613,850.7l64.2-5.4l-8,42.6L613,850.7z"/>
	
		<linearGradient id="SVGID_40_" gradientUnits="userSpaceOnUse" x1="-3121.0527" y1="-24168.0977" x2="-2861.0527" y2="-22368.5977" gradientTransform="matrix(1 0 0 1 0 -822)">
		<stop  offset="0" style="stop-color:#00E094"/>
		<stop  offset="1" style="stop-color:#00E0B5"/>
	</linearGradient>
	<path class="st40" d="M586.5,868.4h57.2L613,850.7L586.5,868.4z"/>
	
		<linearGradient id="SVGID_41_" gradientUnits="userSpaceOnUse" x1="946.2" y1="-950258.6875" x2="946.2" y2="-2142520.75" gradientTransform="matrix(1 0 0 1 0 -822)">
		<stop  offset="0" style="stop-color:#00E094"/>
		<stop  offset="1" style="stop-color:#000051"/>
	</linearGradient>
	<path class="st41" d="M1060.1,481.9l-24.3,9.4l-6-5.7l1.9-14.8l107.8-119.6l83.5-170.6l-16.2-4.2l-69.3,135.1l1.9-21.5l24.1-152.9
		L1145.6,1.6l-15-4.3l6.5,118.2l-42.6,201.7l-54.8,74l-6.3-49.6l35.4-88.1l7.4-119.8l-12.5-0.5l-9.1,86.3l-33.1,81.3l-13.4,12.4
		l-8.8-15l-1.5-87l-13.1,1.3l-3.6,108.9l3.6,91.6l-39.5,34.1l-75.1,33.6l-54.8,6.8l60.8-80.4l-4-45.5l-5.5,0.6l-4.4,20.1L776,496.8
		L730.5,509l-61.1,49.4l62.2,35.4l28-33.6l29.1-8l61.8-11l37-6.6l68.2-4l76.7-4.5l124.8-92.4l-9.9-15.3L1060.1,481.9z"/>
	
		<linearGradient id="SVGID_42_" gradientUnits="userSpaceOnUse" x1="276.95" y1="-946514.6875" x2="276.95" y2="-2134100.75" gradientTransform="matrix(1 0 0 1 0 -822)">
		<stop  offset="0" style="stop-color:#00E094"/>
		<stop  offset="1" style="stop-color:#000051"/>
	</linearGradient>
	<path class="st42" d="M445.5,497.3l-86.7-114.4l-4.6-20l-5.5-0.6l-3.6,45.3l61,80.2l-54.6-6.8l-74.8-33.6l-39.5-34l3-91.2
		l-4.3-108.4l-13-1.2l-0.9,86.6l-8.6,14.9L200,301.8L166.6,221l-9.5-85.9l-12.4,0.6l8.1,119.2l35.7,87.6l-5.9,49.4l-54.7-73.7
		L84.4,117.7L90,0L75.3,4.3L58.4,139.1L83.3,291l2,21.4L16,178.3l-16,4.2L83.6,352L191,471l2,14.7l-5.9,5.7L163,482l-86.8-63.2
		L66.6,434l124.2,92l76.2,4.6l67.7,4.1l36.8,6.7l61.7,11.1l29,8l29.6,33.6l62.1-36.2l-63-48.4L445.5,497.3z"/>
	
		<linearGradient id="SVGID_43_" gradientUnits="userSpaceOnUse" x1="508.7" y1="1910.97" x2="508.7" y2="1563.4401" gradientTransform="matrix(1 0 0 1 0 -822)">
		<stop  offset="0" style="stop-color:#00E0AB"/>
		<stop  offset="1" style="stop-color:#00182E"/>
	</linearGradient>
	<path class="st43" d="M558.5,1057.1l-2.1-0.2c-5.5-0.7-11-1.5-16.5-2.4c-0.8-0.1-1.6-0.3-2.4-0.4l-5.4-1
		c-11.4-2.1-22.7-4.7-33.8-7.7c-4.1-1.1-8.2-2.3-12.2-3.5c-3-0.9-5.9-1.8-8.9-2.8L464.8,977l-5.9-146.7L478,728.7l34.9,125.4
		l4.5,139.6L558.5,1057.1z"/>
	
		<linearGradient id="SVGID_44_" gradientUnits="userSpaceOnUse" x1="716.2999" y1="-127377.7031" x2="716.2999" y2="-410337.6875" gradientTransform="matrix(1 0 0 1 0 -822)">
		<stop  offset="0" style="stop-color:#00E0AB"/>
		<stop  offset="1" style="stop-color:#00182E"/>
	</linearGradient>
	<path class="st44" d="M766.2,830.1l-5.9,146.7l-0.2,0.2l-12.3,61.3c-3,1-6,1.9-9.1,2.9c-15.4,4.7-31,8.6-46.8,11.6
		c-1.8,0.3-3.6,0.7-5.5,1l-1.3,0.2c-0.1,0-0.1,0-0.2,0c-5.5,0.9-11,1.8-16.5,2.5l-2,0.2l41.1-63.2l1.3-141.1l38.1-124.3l18.6,98.8
		L766.2,830.1z"/>
</g>
</svg>
