<svg width="581" height="823" viewBox="0 0 581 823" fill="none" xmlns="http://www.w3.org/2000/svg">
<g opacity="0.3">
<g opacity="0.8">
<path d="M412.75 817.079C403.931 815.452 395.205 813.451 386.604 811.137C383.414 810.261 380.256 809.385 377.128 808.416C374.814 807.728 372.531 807.008 370.217 806.258C368.59 805.726 366.933 805.163 365.306 804.6C362.773 803.725 360.271 802.849 357.769 801.911C355.08 800.91 352.421 799.909 349.794 798.846L344.415 700.206L355.987 644.6L412.062 815.015L412.75 817.079Z" fill="url(#paint0_linear)"/>
<path d="M605.683 700.206L599.96 798.283C597.27 799.378 594.581 800.41 591.891 801.442C589.202 802.474 586.481 803.443 583.76 804.382C582.415 804.851 581.039 805.32 579.663 805.758C577.349 806.54 575.003 807.259 572.657 807.978C560.75 811.627 548.649 814.614 536.41 816.923L536.598 816.297L536.66 816.047L593.424 642.035L605.683 700.206Z" fill="url(#paint1_linear)"/>
<path d="M548.639 771.105L518.302 819.831L516.77 820.019C516.207 820.081 515.644 820.175 515.081 820.238C514.612 820.3 514.111 820.363 513.642 820.394L510.484 820.769C508.232 821.02 506.011 821.238 503.76 821.426C494.169 822.271 484.494 822.708 474.737 822.74H474.174C464.51 822.74 454.877 822.333 445.339 821.489C443.243 821.301 441.148 821.113 439.052 820.894C438.114 820.801 437.145 820.707 436.207 820.582L434.674 820.394L433.204 820.206L431.578 820.019L401.304 771.074L394.611 651.574L426.48 738.111L464.385 744.96L488.404 744.897L524.369 737.829L551.735 654.795L548.639 771.105Z" fill="url(#paint2_linear)"/>
<path d="M518.74 433.841L567.153 461.706L567.278 493.731L518.74 433.841Z" fill="url(#paint3_linear)"/>
<path d="M567.277 493.731L572.219 545.741L595.925 511.214L623.728 467.304L567.277 493.731Z" fill="url(#paint4_linear)"/>
<path d="M688.279 447.664L648.497 458.172L623.728 467.304L595.925 511.214L572.219 545.741L604.963 547.43L666.512 535.858L705.98 492.887L688.279 447.664Z" fill="url(#paint5_linear)"/>
<path d="M548.669 565.569L572.219 545.741L579.068 565.6L548.669 565.569Z" fill="url(#paint6_linear)"/>
<path d="M572.219 545.741L604.963 547.43L579.068 565.6L572.219 545.741Z" fill="url(#paint7_linear)"/>
<path d="M548.67 565.569L579.069 565.6L546.512 589.181L548.67 565.569Z" fill="url(#paint8_linear)"/>
<path d="M518.74 433.841L567.278 493.731L537.411 523.004L518.74 433.841Z" fill="url(#paint9_linear)"/>
<path d="M548.669 565.569L572.219 545.741L537.41 523.004L548.669 565.569Z" fill="url(#paint10_linear)"/>
<path d="M567.277 493.731L572.219 545.741L537.41 523.004L567.277 493.731Z" fill="url(#paint11_linear)"/>
<path d="M537.41 523.004L508.45 609.729L546.511 589.181L548.669 565.569L537.41 523.004Z" fill="url(#paint12_linear)"/>
<path d="M539.85 618.173L546.511 589.181L508.45 609.729L524.994 656.39L549.608 661.863L539.85 618.173Z" fill="url(#paint13_linear)"/>
<path d="M518.833 689.354L494.533 725.069L488.403 744.897L524.369 737.829L518.833 689.354Z" fill="url(#paint14_linear)"/>
<path d="M381.757 494.044L381.507 462.019L429.607 433.965L381.757 494.044Z" fill="url(#paint15_linear)"/>
<path d="M242.617 493.669L226.01 440.189L259.818 448.289L242.617 493.669Z" fill="url(#paint16_linear)"/>
<path d="M381.758 494.044L376.503 546.116L353.266 511.62L324.838 467.773L381.758 494.044Z" fill="url(#paint17_linear)"/>
<path d="M259.817 448.29L299.88 458.704L324.837 467.774L353.266 511.621L376.503 546.116L344.665 547.93L282.741 536.578L242.616 493.669L259.817 448.29Z" fill="url(#paint18_linear)"/>
<path d="M370.812 566.038L376.504 546.116L401.273 565.85L370.812 566.038Z" fill="url(#paint19_linear)"/>
<path d="M370.811 566.038L344.665 547.93L376.503 546.116L370.811 566.038Z" fill="url(#paint20_linear)"/>
<path d="M403.744 589.494L370.812 566.038L401.273 565.851L403.744 589.494Z" fill="url(#paint21_linear)"/>
<path d="M412.031 523.254L381.757 494.044L429.607 433.965L412.031 523.254Z" fill="url(#paint22_linear)"/>
<path d="M412.031 523.254L376.503 546.116L401.272 565.85L412.031 523.254Z" fill="url(#paint23_linear)"/>
<path d="M412.031 523.254L376.503 546.116L381.757 494.044L412.031 523.254Z" fill="url(#paint24_linear)"/>
<path d="M412.031 523.254L440.147 609.447L403.743 589.494L401.272 565.85L412.031 523.254Z" fill="url(#paint25_linear)"/>
<path d="M432.672 689.603L426.104 656.64L475.831 660.549L432.672 689.603Z" fill="url(#paint26_linear)"/>
<path d="M403.743 589.494L411.718 616.953L397.801 663.083L426.104 656.641L440.147 609.447L403.743 589.494Z" fill="url(#paint27_linear)"/>
<path d="M432.672 689.604L456.19 725.163L464.384 744.991L426.479 738.111L432.672 689.604Z" fill="url(#paint28_linear)"/>
<path d="M494.533 725.069L475.612 723.161V723.099L475.362 723.13L475.112 723.099V723.161L456.19 725.163L464.384 744.991L488.403 744.897L494.533 725.069Z" fill="url(#paint29_linear)"/>
<path d="M518.833 689.353L475.831 660.894V660.55L475.581 660.706L475.33 660.55V660.894L432.672 689.604L456.19 725.163L475.362 723.13L494.533 725.069L518.833 689.353Z" fill="url(#paint30_linear)"/>
<path d="M508.45 609.729L537.41 523.004L474.767 526.882L412.03 523.255L440.146 609.447L426.104 656.641L475.33 660.519V660.55L475.58 660.519L475.83 660.55V660.519L524.994 656.39L508.45 609.729Z" fill="url(#paint31_linear)"/>
<path d="M475.017 526.882L537.41 523.004L518.739 433.841L474.016 444.255L429.607 433.966L412.03 523.255L474.517 526.882V526.914L474.767 526.882L475.017 526.914V526.882Z" fill="url(#paint32_linear)"/>
<path d="M524.994 656.39L518.833 689.354L524.369 737.829L549.607 661.863L524.994 656.39Z" fill="url(#paint33_linear)"/>
<path d="M426.104 656.64L397.801 663.083L426.48 738.11L432.672 689.603L426.104 656.64Z" fill="url(#paint34_linear)"/>
<path d="M426.105 656.64L397.801 663.083L370.812 566.038L403.744 589.494L425.292 617.078L426.105 656.64Z" fill="url(#paint35_linear)"/>
<path d="M524.995 656.39L549.608 661.863L579.069 565.6L546.512 589.181L525.84 620.956L524.995 656.39Z" fill="url(#paint36_linear)"/>
<path d="M475.33 660.55L524.994 656.39L518.833 689.354L475.33 660.55Z" fill="url(#paint37_linear)"/>
<path d="M454.814 674.217H499.068L475.331 660.55L454.814 674.217Z" fill="url(#paint38_linear)"/>
<path d="M821.383 375.044L802.587 382.331L797.958 377.922L799.428 366.475L882.837 273.934L947.451 141.861L934.941 138.64L881.274 243.191L882.775 226.553L901.446 108.241L887.56 3.3151L875.988 0L880.992 91.5093L848.029 247.632L805.652 304.927L800.804 266.553L828.232 198.374L833.924 105.614L824.26 105.208L817.255 171.979L791.609 234.872L781.258 244.473L774.471 232.902L773.283 165.599L763.15 166.568L760.366 250.822L763.181 321.721L732.594 348.086L674.486 374.106L632.047 379.36L679.084 317.124L676.019 281.909L671.765 282.378L668.325 297.953L601.523 386.616L566.308 396.061L518.989 434.278L567.152 461.706L588.857 435.717L611.343 429.525L659.193 420.987L687.809 415.889L740.569 412.793L799.96 409.321L896.567 337.796L888.936 325.975L821.383 375.044Z" fill="url(#paint39_linear)"/>
<path d="M345.666 386.991L278.551 298.484L275.017 282.972L270.795 282.503L267.98 317.593L315.205 379.704L272.922 374.419L215.032 348.43L184.477 322.128L186.791 251.51L183.476 167.6L173.406 166.662L172.687 233.683L166.056 245.193L155.705 235.654L129.872 173.105L122.491 106.615L112.921 107.053L119.176 199.344L146.823 267.178L142.225 305.396L99.9107 248.351L66.2593 93.1356L70.5752 2.12671L59.1913 5.47309L46.1185 109.836L65.3836 227.429L66.9473 243.973L13.249 140.11L0.895508 143.331L65.6338 274.528L148.793 366.663L150.325 378.047L145.79 382.425L127.12 375.169L59.9106 326.287L52.4672 338.047L148.574 409.29L207.526 412.887L259.943 416.045L288.434 421.206L336.159 429.806L358.614 436.03L381.507 462.019L429.607 433.966L380.819 396.467L345.666 386.991Z" fill="url(#paint40_linear)"/>
<path d="M433.203 820.237L431.577 820.05C427.292 819.487 423.039 818.861 418.817 818.173C418.191 818.079 417.566 817.954 416.94 817.861L412.781 817.11C403.961 815.484 395.236 813.482 386.635 811.168C383.445 810.292 380.287 809.416 377.159 808.447C374.845 807.759 372.562 807.04 370.247 806.289L360.615 758.189L356.018 644.662L370.842 566.101L397.832 663.146L401.334 771.168L433.203 820.237Z" fill="url(#paint41_linear)"/>
<path d="M593.924 644.599L589.326 758.126L589.139 758.314L579.631 805.726C577.317 806.508 574.971 807.227 572.626 807.946C560.718 811.596 548.617 814.582 536.379 816.891C534.971 817.141 533.564 817.423 532.157 817.673L531.156 817.861C531.093 817.861 531.062 817.892 530.999 817.892C526.777 818.611 522.524 819.268 518.239 819.831L516.707 820.019L548.545 771.074L549.514 661.832L579.006 565.6L593.392 642.066L593.924 644.599Z" fill="url(#paint42_linear)"/>
</g>
</g>
<defs>
<linearGradient id="paint0_linear" x1="378.583" y1="353.074" x2="378.583" y2="887.04" gradientUnits="userSpaceOnUse">
<stop stop-color="#00E0A4"/>
<stop offset="1" stop-color="#00182E"/>
</linearGradient>
<linearGradient id="paint1_linear" x1="167467" y1="-342905" x2="167467" y2="-44311" gradientUnits="userSpaceOnUse">
<stop stop-color="#00E0A4"/>
<stop offset="1" stop-color="#00182E"/>
</linearGradient>
<linearGradient id="paint2_linear" x1="473.173" y1="912.354" x2="473.173" y2="531.236" gradientUnits="userSpaceOnUse">
<stop stop-color="#00E0B5"/>
<stop offset="1" stop-color="#000B08"/>
</linearGradient>
<linearGradient id="paint3_linear" x1="527.73" y1="428.077" x2="578.048" y2="486.433" gradientUnits="userSpaceOnUse">
<stop stop-color="#00917B"/>
<stop offset="1" stop-color="#00BD86"/>
</linearGradient>
<linearGradient id="paint4_linear" x1="558.593" y1="530.223" x2="660.754" y2="446.807" gradientUnits="userSpaceOnUse">
<stop stop-color="#00E0A3"/>
<stop offset="1" stop-color="#00298F"/>
</linearGradient>
<linearGradient id="paint5_linear" x1="604.413" y1="536.414" x2="777.008" y2="395.488" gradientUnits="userSpaceOnUse">
<stop stop-color="#00E094"/>
<stop offset="1" stop-color="#000051"/>
</linearGradient>
<linearGradient id="paint6_linear" x1="581.212" y1="554.091" x2="551.109" y2="562.626" gradientUnits="userSpaceOnUse">
<stop stop-color="#005773"/>
<stop offset="1" stop-color="#003B1B"/>
</linearGradient>
<linearGradient id="paint7_linear" x1="827334" y1="-648154" x2="828278" y2="-645940" gradientUnits="userSpaceOnUse">
<stop stop-color="#00E094"/>
<stop offset="1" stop-color="#000051"/>
</linearGradient>
<linearGradient id="paint8_linear" x1="552.719" y1="566.295" x2="576.643" y2="599.017" gradientUnits="userSpaceOnUse">
<stop stop-color="#000700"/>
<stop offset="1" stop-color="#002B16"/>
</linearGradient>
<linearGradient id="paint9_linear" x1="518.211" y1="435.79" x2="591.556" y2="490.538" gradientUnits="userSpaceOnUse">
<stop stop-color="#00ABB5"/>
<stop offset="1" stop-color="#00AD95"/>
</linearGradient>
<linearGradient id="paint10_linear" x1="538.479" y1="524.074" x2="577.915" y2="565.463" gradientUnits="userSpaceOnUse">
<stop stop-color="#00C77A"/>
<stop offset="1" stop-color="#00C797"/>
</linearGradient>
<linearGradient id="paint11_linear" x1="538.824" y1="488.929" x2="584.157" y2="536.507" gradientUnits="userSpaceOnUse">
<stop stop-color="#00D4B0"/>
<stop offset="1" stop-color="#00A1B5"/>
</linearGradient>
<linearGradient id="paint12_linear" x1="428.38" y1="650.278" x2="563.042" y2="540.327" gradientUnits="userSpaceOnUse">
<stop stop-color="#00E088"/>
<stop offset="1" stop-color="#00E0B5"/>
</linearGradient>
<linearGradient id="paint13_linear" x1="497.924" y1="664.509" x2="578.158" y2="590.446" gradientUnits="userSpaceOnUse">
<stop stop-color="#00E094"/>
<stop offset="1" stop-color="#00E0B5"/>
</linearGradient>
<linearGradient id="paint14_linear" x1="72665.4" y1="-15526.4" x2="83636" y2="-21153.5" gradientUnits="userSpaceOnUse">
<stop stop-color="#00C77A"/>
<stop offset="1" stop-color="#00C797"/>
</linearGradient>
<linearGradient id="paint15_linear" x1="-2.48264e+06" y1="-3.97045e+06" x2="-2.49207e+06" y2="-3.96157e+06" gradientUnits="userSpaceOnUse">
<stop stop-color="#00917B"/>
<stop offset="1" stop-color="#00BD86"/>
</linearGradient>
<linearGradient id="paint16_linear" x1="-1.33605e+06" y1="-3.62952e+06" x2="-1.34205e+06" y2="-3.62656e+06" gradientUnits="userSpaceOnUse">
<stop stop-color="#004F75"/>
<stop offset="1" stop-color="#006186"/>
</linearGradient>
<linearGradient id="paint17_linear" x1="-397325" y1="-89056.3" x2="-421107" y2="-102727" gradientUnits="userSpaceOnUse">
<stop stop-color="#00E0A3"/>
<stop offset="1" stop-color="#00298F"/>
</linearGradient>
<linearGradient id="paint18_linear" x1="-939333" y1="-65095.1" x2="-994133" y2="-124342" gradientUnits="userSpaceOnUse">
<stop stop-color="#00E094"/>
<stop offset="1" stop-color="#000051"/>
</linearGradient>
<linearGradient id="paint19_linear" x1="51802.8" y1="-24066.8" x2="53991.3" y2="-22557.3" gradientUnits="userSpaceOnUse">
<stop stop-color="#005773"/>
<stop offset="1" stop-color="#003B1B"/>
</linearGradient>
<linearGradient id="paint20_linear" x1="-952605" y1="-642292" x2="-953898" y2="-639320" gradientUnits="userSpaceOnUse">
<stop stop-color="#00E094"/>
<stop offset="1" stop-color="#000051"/>
</linearGradient>
<linearGradient id="paint21_linear" x1="-915450" y1="-700379" x2="-917009" y2="-697291" gradientUnits="userSpaceOnUse">
<stop stop-color="#000700"/>
<stop offset="1" stop-color="#002B16"/>
</linearGradient>
<linearGradient id="paint22_linear" x1="-3.06589e+06" y1="-9.53719e+06" x2="-3.08003e+06" y2="-9.53091e+06" gradientUnits="userSpaceOnUse">
<stop stop-color="#00ABB5"/>
<stop offset="1" stop-color="#00AD95"/>
</linearGradient>
<linearGradient id="paint23_linear" x1="-1.28219e+06" y1="-2.08099e+06" x2="-1.28745e+06" y2="-2.0763e+06" gradientUnits="userSpaceOnUse">
<stop stop-color="#00C77A"/>
<stop offset="1" stop-color="#00C797"/>
</linearGradient>
<linearGradient id="paint24_linear" x1="-1.33477e+06" y1="-2.57591e+06" x2="-1.34167e+06" y2="-2.57082e+06" gradientUnits="userSpaceOnUse">
<stop stop-color="#00D4B0"/>
<stop offset="1" stop-color="#00A1B5"/>
</linearGradient>
<linearGradient id="paint25_linear" x1="-258379" y1="-80978.2" x2="-284411" y2="-89519.7" gradientUnits="userSpaceOnUse">
<stop stop-color="#00E088"/>
<stop offset="1" stop-color="#00E0B5"/>
</linearGradient>
<linearGradient id="paint26_linear" x1="-2.03062e+06" y1="-1.12922e+06" x2="-2.03265e+06" y2="-1.12311e+06" gradientUnits="userSpaceOnUse">
<stop stop-color="#00E094"/>
<stop offset="1" stop-color="#00E0B5"/>
</linearGradient>
<linearGradient id="paint27_linear" x1="72145" y1="-63116.4" x2="89393.4" y2="-73041.7" gradientUnits="userSpaceOnUse">
<stop stop-color="#00E094"/>
<stop offset="1" stop-color="#00E0B5"/>
</linearGradient>
<linearGradient id="paint28_linear" x1="-250867" y1="-22125.7" x2="-262259" y2="-28253.7" gradientUnits="userSpaceOnUse">
<stop stop-color="#00C77A"/>
<stop offset="1" stop-color="#00C797"/>
</linearGradient>
<linearGradient id="paint29_linear" x1="80693.3" y1="-14483.9" x2="82258.3" y2="-17224.9" gradientUnits="userSpaceOnUse">
<stop stop-color="#00C77A"/>
<stop offset="1" stop-color="#00C797"/>
</linearGradient>
<linearGradient id="paint30_linear" x1="516.081" y1="692.856" x2="436.612" y2="692.856" gradientUnits="userSpaceOnUse">
<stop stop-color="#004D45"/>
<stop offset="0.11" stop-color="#003630"/>
<stop offset="0.24" stop-color="#00221E"/>
<stop offset="0.37" stop-color="#001613"/>
<stop offset="0.5" stop-color="#00120F"/>
<stop offset="0.67" stop-color="#001512"/>
<stop offset="0.78" stop-color="#001E1A"/>
<stop offset="0.88" stop-color="#002D28"/>
<stop offset="0.97" stop-color="#00423B"/>
<stop offset="1" stop-color="#004D45"/>
</linearGradient>
<linearGradient id="paint31_linear" x1="474.72" y1="655.533" x2="474.72" y2="525.569" gradientUnits="userSpaceOnUse">
<stop stop-color="#00C584"/>
<stop offset="1" stop-color="#00E0A9"/>
</linearGradient>
<linearGradient id="paint32_linear" x1="474.171" y1="536.853" x2="479.445" y2="405.009" gradientUnits="userSpaceOnUse">
<stop stop-color="#00C7B5"/>
<stop offset="1" stop-color="#00ABB5"/>
</linearGradient>
<linearGradient id="paint33_linear" x1="534.22" y1="740.96" x2="534.22" y2="651.818" gradientUnits="userSpaceOnUse">
<stop stop-color="#007F9B"/>
<stop offset="1" stop-color="#00C693"/>
</linearGradient>
<linearGradient id="paint34_linear" x1="67055.7" y1="-59801.6" x2="67055.7" y2="-81753.7" gradientUnits="userSpaceOnUse">
<stop stop-color="#007F9B"/>
<stop offset="1" stop-color="#00C693"/>
</linearGradient>
<linearGradient id="paint35_linear" x1="463.608" y1="676.978" x2="325.502" y2="565.581" gradientUnits="userSpaceOnUse">
<stop stop-color="#00C696"/>
<stop offset="1" stop-color="#00959B"/>
</linearGradient>
<linearGradient id="paint36_linear" x1="115201" y1="-56795" x2="149665" y2="-71820.7" gradientUnits="userSpaceOnUse">
<stop stop-color="#00C696"/>
<stop offset="1" stop-color="#00959B"/>
</linearGradient>
<linearGradient id="paint37_linear" x1="1.79589e+06" y1="-1.14753e+06" x2="1.79796e+06" y2="-1.14142e+06" gradientUnits="userSpaceOnUse">
<stop stop-color="#00E094"/>
<stop offset="1" stop-color="#00E0B5"/>
</linearGradient>
<linearGradient id="paint38_linear" x1="90624.5" y1="-32782.5" x2="90825.4" y2="-31389.8" gradientUnits="userSpaceOnUse">
<stop stop-color="#00E094"/>
<stop offset="1" stop-color="#00E0B5"/>
</linearGradient>
<linearGradient id="paint39_linear" x1="1.25502e+06" y1="-736119" x2="1.25502e+06" y2="-1.65891e+06" gradientUnits="userSpaceOnUse">
<stop stop-color="#00E094"/>
<stop offset="1" stop-color="#000051"/>
</linearGradient>
<linearGradient id="paint40_linear" x1="545207" y1="-733221" x2="545207" y2="-1.65239e+06" gradientUnits="userSpaceOnUse">
<stop stop-color="#00E094"/>
<stop offset="1" stop-color="#000051"/>
</linearGradient>
<linearGradient id="paint41_linear" x1="394.61" y1="844.935" x2="394.61" y2="575.952" gradientUnits="userSpaceOnUse">
<stop stop-color="#00E0AB"/>
<stop offset="1" stop-color="#00182E"/>
</linearGradient>
<linearGradient id="paint42_linear" x1="182706" y1="-99222.4" x2="182706" y2="-318228" gradientUnits="userSpaceOnUse">
<stop stop-color="#00E0AB"/>
<stop offset="1" stop-color="#00182E"/>
</linearGradient>
</defs>
</svg>
