<svg width="24" height="24" viewBox="0 0 24 24" fill="none" xmlns="http://www.w3.org/2000/svg">
<g style="mix-blend-mode:overlay" clip-path="url(#clip0)">
<path d="M19.0003 7.33329H17.8337V4.99996C17.8337 1.77996 15.2203 -0.833374 12.0003 -0.833374C8.78032 -0.833374 6.16699 1.77996 6.16699 4.99996V7.33329H5.00033C3.71699 7.33329 2.66699 8.38329 2.66699 9.66663V21.3333C2.66699 22.6166 3.71699 23.6666 5.00033 23.6666H19.0003C20.2837 23.6666 21.3337 22.6166 21.3337 21.3333V9.66663C21.3337 8.38329 20.2837 7.33329 19.0003 7.33329ZM8.50032 4.99996C8.50032 3.06329 10.0637 1.49996 12.0003 1.49996C13.937 1.49996 15.5003 3.06329 15.5003 4.99996V7.33329H8.50032V4.99996ZM19.0003 21.3333H5.00033V9.66663H19.0003V21.3333ZM12.0003 17.8333C13.2837 17.8333 14.3337 16.7833 14.3337 15.5C14.3337 14.2166 13.2837 13.1666 12.0003 13.1666C10.717 13.1666 9.66699 14.2166 9.66699 15.5C9.66699 16.7833 10.717 17.8333 12.0003 17.8333Z" fill="white"/>
</g>
<defs>
<clipPath id="clip0">
<rect width="24" height="24" fill="white"/>
</clipPath>
</defs>
</svg>
