<svg width="24" height="24" viewBox="0 0 24 24" fill="none" xmlns="http://www.w3.org/2000/svg">
<g style="mix-blend-mode:overlay" clip-path="url(#clip0)">
<g clip-path="url(#clip1)">
<path d="M11.632 27.6381C12.2858 27.979 13.084 27.1881 12.7366 26.5348C12.5348 26.0023 11.7698 25.8607 11.3791 26.2666C10.9651 26.6562 11.1001 27.4261 11.632 27.6381ZM4.5992 26.88C4.9964 27.0435 5.4992 26.6796 5.4587 26.2467C5.50086 25.7767 4.9262 25.4308 4.52135 25.6542C3.98495 25.8619 4.0463 26.7327 4.5992 26.88ZM19.0031 25.641C18.3824 25.716 18.2842 26.6919 18.8818 26.8884C19.3453 27.1144 19.7705 26.6905 19.8384 26.2512C19.7411 25.876 19.427 25.5325 19.0031 25.641ZM6.19941 23.8867C6.86346 24.3067 7.81101 23.6812 7.70886 22.9099C7.67436 22.1311 6.63996 21.6799 6.05631 22.2064C5.49201 22.6199 5.57751 23.5687 6.19941 23.8867ZM16.3366 23.4411C16.6328 24.2046 17.8333 24.2277 18.1705 23.4844C18.5038 22.906 18.0938 22.1897 17.5 21.9931C16.7134 21.8462 15.9662 22.6966 16.3366 23.4411ZM10.7851 22.0364C10.7786 22.6927 11.3764 23.1817 12.0001 23.2264C12.4138 23.1434 12.8647 22.9672 13.0421 22.5497C13.3729 21.9739 13.0792 21.181 12.4816 20.9167C12.2083 20.7635 11.8852 20.821 11.5876 20.8388C11.1326 21.0622 10.7495 21.5002 10.7851 22.0364ZM0.326289 21.0802C0.932891 21.4531 1.75129 20.7725 1.52164 20.1136C1.39519 19.5436 0.62899 19.3117 0.190989 19.6756C-0.276563 20.0165 -0.202462 20.8363 0.326289 21.0802ZM22.7851 21.0814C23.2998 21.481 24.1491 21.0226 24.0877 20.3728C24.1222 19.7803 23.388 19.3334 22.8771 19.6385C22.3144 19.8914 22.257 20.7571 22.7851 21.0814ZM13.7263 19.9016C14.5756 20.2067 15.5843 19.8416 16.0684 19.0844C16.7069 18.1588 16.3672 16.7491 15.3763 16.2179C14.3495 15.5897 12.8503 16.1222 12.4711 17.2688C12.0406 18.2953 12.6677 19.5799 13.7263 19.9016ZM8.74327 19.8007C9.68452 20.245 10.9513 19.8722 11.4059 18.9094C11.941 17.9722 11.5273 16.6672 10.5707 16.1833C9.61297 15.6394 8.26176 16.0517 7.79826 17.0579C7.27851 18.031 7.74006 19.3526 8.74327 19.8007ZM3.7538 18.0949C3.82535 18.7013 4.39745 19.096 4.97465 19.1368C5.59656 19.0618 6.09336 18.5788 6.16101 17.9494C6.12021 17.3263 5.63871 16.7173 4.9784 16.721C4.25195 16.6585 3.61505 17.3812 3.7538 18.0949ZM18.491 19.0049C19.2368 19.439 20.2725 18.8071 20.2393 17.9503C20.2905 17.0425 19.1443 16.4027 18.4016 16.9352C17.6302 17.3786 17.6903 18.6274 18.491 19.0049ZM6.71541 15.8054C7.58766 16.0454 8.58501 15.6343 9.01282 14.8325C9.48142 14.0255 9.28987 12.9044 8.56207 12.3125C7.62861 11.4443 5.90706 11.7929 5.41026 12.9778C4.83935 14.0639 5.53281 15.5195 6.71541 15.8054ZM16.1668 15.8099C17.0147 16.0525 18.0109 15.7256 18.4667 14.9531C19.0694 14.0696 18.7817 12.7519 17.8844 12.1823C16.9445 11.521 15.4886 11.8682 14.9714 12.9023C14.3444 13.972 14.9753 15.4837 16.1668 15.8099ZM1.10524 14.8019C1.85869 15.0869 2.6939 14.2555 2.38865 13.5085C2.20219 12.8279 1.24309 12.5764 0.747641 13.0781C0.167889 13.5493 0.382539 14.5976 1.10524 14.8019ZM21.5278 13.7179C21.5061 14.3422 21.9628 14.8951 22.603 14.9296C23.119 14.8478 23.6208 14.4316 23.58 13.8698C23.6272 13.1279 22.7332 12.6236 22.1011 12.9722C21.8049 13.1228 21.6529 13.4267 21.5278 13.7179ZM-2.59947 14.4355C-2.14617 14.6333 -1.58547 14.2405 -1.68897 13.7371C-1.71327 13.1671 -2.55477 12.9479 -2.86392 13.4242C-3.13707 13.7549 -2.97357 14.2649 -2.59947 14.4355ZM25.9821 14.4469C26.3013 14.6741 26.8134 14.5108 26.9398 14.1379C27.1543 13.7306 26.761 13.1726 26.3026 13.2415C25.6591 13.1828 25.4509 14.1635 25.9821 14.4469ZM9.17752 11.7107C10.3703 12.0209 11.6525 11.0263 11.66 9.79806C11.7379 8.55696 10.475 7.4564 9.25402 7.74305C8.31021 7.895 7.56966 8.80416 7.60026 9.75786C7.59771 10.67 8.28606 11.5178 9.17752 11.7107ZM13.9013 11.7133C15.112 12.0517 16.4324 11.0392 16.4132 9.78261C16.4771 8.56446 15.2537 7.50095 14.0582 7.7426C12.9332 7.8881 12.1031 9.12411 12.4172 10.2158C12.5758 10.9433 13.1836 11.5349 13.9013 11.7133ZM4.79345 10.9573C5.63121 11.1002 6.41661 10.1656 6.07686 9.37011C5.82906 8.52246 4.59545 8.29251 4.05005 8.98491C3.4103 9.64986 3.8879 10.8655 4.79345 10.9573ZM18.6467 10.9199C19.3937 11.2328 20.3107 10.5866 20.2533 9.77586C20.2833 8.88336 19.1512 8.26791 18.4207 8.78886C17.5933 9.25656 17.7439 10.633 18.6467 10.9199ZM22.5189 7.0361C22.2264 7.58135 22.7577 8.30405 23.3631 8.2031C23.6644 8.2082 23.8752 7.97075 24.0681 7.77155C24.1077 7.44845 24.1741 7.06295 23.9059 6.81395C23.5417 6.353 22.7167 6.48455 22.5189 7.0361ZM0.323739 8.0513C0.889541 8.42796 1.70374 7.8662 1.57654 7.2047C1.50889 6.6197 0.771941 6.28535 0.286539 6.6173C-0.234412 6.91865 -0.215212 7.77665 0.323739 8.0513ZM11.5018 6.8267C12.2425 7.15355 13.1861 6.5087 13.1159 5.69285C13.1708 4.79134 12.0037 4.16704 11.2795 4.70839C10.475 5.17325 10.6091 6.5408 11.5018 6.8267ZM6.32451 5.6189C6.95541 5.95085 7.80201 5.37754 7.74456 4.67149C7.76376 4.09174 7.19796 3.59764 6.62586 3.68329C6.15201 3.69349 5.84301 4.11829 5.69106 4.52224C5.69886 4.96249 5.88006 5.45285 6.32451 5.6189ZM16.8116 5.6087C17.4604 6.00965 18.3824 5.4338 18.3211 4.67869C18.3377 3.88954 17.2957 3.38404 16.6916 3.90244C16.1068 4.30879 16.1782 5.2856 16.8116 5.6087ZM18.6353 1.10013C18.3467 1.53678 18.6865 2.06284 19.1551 2.16244C19.5319 2.08579 19.9303 1.80243 19.8511 1.36563C19.7962 0.774483 18.9316 0.59313 18.6353 1.10013ZM4.15865 1.47933C4.27355 1.82538 4.55195 2.16934 4.95935 2.07934C5.55321 2.03719 5.72946 1.14213 5.2097 0.866282C4.7423 0.55113 4.20005 0.982683 4.15865 1.47933ZM11.1428 1.08228C11.2565 1.59423 11.9192 1.84324 12.356 1.57128C12.6446 1.44738 12.7289 1.12443 12.803 0.849932C12.7634 0.706982 12.728 0.563881 12.6932 0.420929C12.5144 0.208979 12.2846 -0.00297165 11.987 0.00467873C11.434 -0.0601215 10.9351 0.565081 11.1428 1.08228Z" fill="white"/>
</g>
</g>
<defs>
<clipPath id="clip0">
<rect width="24" height="24" fill="white"/>
</clipPath>
<clipPath id="clip1">
<rect width="28" height="28" fill="white" transform="translate(-2 -2)"/>
</clipPath>
</defs>
</svg>
