<svg width="50" height="50" viewBox="0 0 50 50" fill="none" xmlns="http://www.w3.org/2000/svg">
<path d="M22 34C22 34.55 22.45 35 23 35H27C27.55 35 28 34.55 28 34V33H22V34ZM25 15C21.14 15 18 18.14 18 22C18 24.38 19.19 26.47 21 27.74V30C21 30.55 21.45 31 22 31H28C28.55 31 29 30.55 29 30V27.74C30.81 26.47 32 24.38 32 22C32 18.14 28.86 15 25 15ZM27.85 26.1L27 26.7V29H23V26.7L22.15 26.1C20.8 25.16 20 23.63 20 22C20 19.24 22.24 17 25 17C27.76 17 30 19.24 30 22C30 23.63 29.2 25.16 27.85 26.1Z" fill="url(#paint0_linear)"/>
<circle cx="25" cy="25" r="24" stroke="url(#paint1_angular)" stroke-width="2"/>
<defs>
<linearGradient id="paint0_linear" x1="25" y1="25" x2="25" y2="38" gradientUnits="userSpaceOnUse">
<stop stop-color="white"/>
<stop offset="1" stop-color="white" stop-opacity="0"/>
</linearGradient>
<radialGradient id="paint1_angular" cx="0" cy="0" r="1" gradientUnits="userSpaceOnUse" gradientTransform="translate(25.5 24.5) rotate(48.2705) scale(24.7891)">
<stop offset="0.245309" stop-color="#1DC7A0" stop-opacity="0"/>
<stop offset="0.485849" stop-color="#0DF2F2"/>
<stop offset="0.739943" stop-color="#3CC8C8" stop-opacity="0"/>
<stop offset="0.977581" stop-color="#00C77A"/>
</radialGradient>
</defs>
</svg>
