<svg width="215" height="52" viewBox="0 0 215 52" fill="none" xmlns="http://www.w3.org/2000/svg">
<path d="M79.5284 44.2386C81.625 44.2386 83.1761 43.446 84.3011 42.0483H84.4034L84.608 44H87.3693V34.4545H79.7074V37.5312H83.2017C83.1506 39.3466 81.8722 40.5398 79.5625 40.5398C76.9716 40.5398 75.4375 38.6051 75.4375 35.2472C75.4375 31.9148 77.108 30.0057 79.6392 30.0057C81.3267 30.0057 82.5881 30.8153 82.9631 32.2472H87.2159C86.7983 28.7443 83.5938 26.3068 79.5625 26.3068C74.9006 26.3068 71.1335 29.5881 71.1335 35.2983C71.1335 40.821 74.5511 44.2386 79.5284 44.2386ZM96.7216 44.2472C100.156 44.2472 102.415 42.5852 102.892 40.0114L99.0653 39.9006C98.7415 40.7699 97.8892 41.2386 96.7983 41.2386C95.196 41.2386 94.2074 40.1733 94.2074 38.571V38.4602H102.935V37.4205C102.935 33.108 100.31 30.7386 96.5938 30.7386C92.6392 30.7386 90.0994 33.4489 90.0994 37.5057C90.0994 41.6989 92.6051 44.2472 96.7216 44.2472ZM94.2074 36.0398C94.267 34.7358 95.2983 33.7472 96.679 33.7472C98.0511 33.7472 99.0398 34.7017 99.0568 36.0398H94.2074ZM106.063 44H110.231V36.892C110.239 35.3409 111.322 34.3097 112.634 34.3097C113.137 34.3097 113.538 34.4631 113.904 34.6335L115.131 31.2074C114.629 30.9176 113.989 30.7301 113.299 30.7301C111.867 30.7301 110.725 31.5653 110.248 33.2955H110.112V30.9091H106.063V44ZM122.924 44.2472C127.04 44.2472 129.538 41.5284 129.538 37.4972C129.538 33.4574 127.04 30.7386 122.924 30.7386C118.808 30.7386 116.31 33.4574 116.31 37.4972C116.31 41.5284 118.808 44.2472 122.924 44.2472ZM122.95 41.1023C121.407 41.1023 120.555 39.6364 120.555 37.4716C120.555 35.2983 121.407 33.8239 122.95 33.8239C124.441 33.8239 125.293 35.2983 125.293 37.4716C125.293 39.6364 124.441 41.1023 122.95 41.1023ZM135.638 44H139.695L142.84 33.4148H142.977L146.121 44H150.187L155.258 26.5455H150.604L147.962 38.0085H147.817L144.809 26.5455H141.008L137.999 37.983H137.854L135.221 26.5455H130.559L135.638 44ZM161.305 44.1875C163.283 44.1875 164.459 43.0881 164.987 41.8778H165.115V44H169.24V30.9091H165.072V33.1506H164.987C164.493 31.9489 163.351 30.7386 161.288 30.7386C158.553 30.7386 156.072 32.8438 156.072 37.4631C156.072 41.9205 158.416 44.1875 161.305 44.1875ZM162.754 40.9403C161.212 40.9403 160.351 39.5682 160.351 37.4545C160.351 35.3494 161.203 33.9943 162.754 33.9943C164.28 33.9943 165.166 35.3153 165.166 37.4545C165.166 39.5767 164.271 40.9403 162.754 40.9403ZM172.876 26.5455V40.3693C172.884 43.0795 174.299 44.2131 177.376 44.0767C178.381 44.0256 178.859 43.8807 179.234 43.7614L178.603 40.821C178.475 40.8722 178.305 40.8977 177.972 40.9062C177.333 40.9062 177.052 40.5909 177.043 39.9091V26.5455H172.876ZM181.798 26.5455V40.3693C181.806 43.0795 183.221 44.2131 186.298 44.0767C187.303 44.0256 187.781 43.8807 188.156 43.7614L187.525 40.821C187.397 40.8722 187.227 40.8977 186.894 40.9062C186.255 40.9062 185.974 40.5909 185.965 39.9091V26.5455H181.798ZM196.487 44.2472C199.922 44.2472 202.18 42.5852 202.658 40.0114L198.831 39.9006C198.507 40.7699 197.655 41.2386 196.564 41.2386C194.962 41.2386 193.973 40.1733 193.973 38.571V38.4602H202.7V37.4205C202.7 33.108 200.075 30.7386 196.359 30.7386C192.405 30.7386 189.865 33.4489 189.865 37.5057C189.865 41.6989 192.371 44.2472 196.487 44.2472ZM193.973 36.0398C194.033 34.7358 195.064 33.7472 196.445 33.7472C197.817 33.7472 198.805 34.7017 198.822 36.0398H193.973ZM213.218 30.9091H210.857V27.7727H206.69V30.9091H204.96V33.9773H206.69V40.3438C206.664 42.9943 208.386 44.3239 211.326 44.1875C212.332 44.1364 213.056 43.9318 213.457 43.8125L212.826 40.804C212.647 40.8466 212.229 40.9318 211.914 40.9318C211.241 40.9318 210.857 40.6591 210.857 39.8835V33.9773H213.218V30.9091Z" fill="white"/>
<path d="M27.1736 50.8346C26.6377 50.7358 24.9632 50.4355 24.4405 50.2948C24.2467 50.2416 24.0547 50.1884 23.8646 50.1295C23.724 50.0877 23.5852 50.044 23.4446 49.9983C23.3458 49.966 23.245 49.9318 23.1462 49.8976C22.9923 49.8444 22.8402 49.7912 22.6881 49.7342C22.5247 49.6733 22.3631 49.6125 22.2035 49.5479L21.8766 43.5533L22.5798 40.174L25.3338 47.8601L27.1736 50.8346Z" fill="white"/>
<path d="M37.7545 43.5533L37.4067 49.5137C37.2432 49.5802 37.0798 49.6429 36.9163 49.7057C36.7528 49.7684 36.5875 49.8273 36.4221 49.8843C36.3404 49.9128 36.2568 49.9413 36.1732 49.968C36.0325 50.0155 35.89 50.0592 35.7474 50.1029C35.0237 50.3247 34.2883 50.5061 33.5446 50.6465L32.351 50.8346L34.282 47.8601L37.0094 40.0181L37.7545 43.5533Z" fill="white"/>
<path d="M34.2877 47.8621L32.4441 50.8232L32.351 50.8346C32.3168 50.8384 32.2826 50.8442 32.2483 50.8479C32.2198 50.8518 32.1894 50.8556 32.1609 50.8575L31.9689 50.8803C31.8321 50.8955 31.6972 50.9088 31.5603 50.9202C30.9774 50.9715 30.3895 50.9981 29.7965 51H29.7623C29.175 51 28.5896 50.9753 28.0099 50.924C27.8826 50.9126 27.7552 50.9012 27.6279 50.8879C27.5709 50.8822 27.512 50.8765 27.4549 50.8689L27.3618 50.8575L27.1736 50.8346L25.3338 47.8601L24.9271 40.5978L26.8638 45.8569L29.1674 46.2731L30.6271 46.2693L32.8128 45.8398L34.4759 40.7936L34.2877 47.8621Z" fill="white"/>
<path d="M42.7741 28.2057L44.8115 27.7077L43.8498 30.954L42.7741 28.2057Z" fill="white"/>
<path d="M35.4205 31.0053L35.7208 34.1661L37.1615 32.0678L38.8511 29.3993L35.4205 31.0053Z" fill="white"/>
<path d="M42.7741 28.2057L40.3565 28.8443L38.8511 29.3993L37.1615 32.0678L35.7208 34.1661L37.7108 34.2687L41.4512 33.5655L43.8498 30.954L42.7741 28.2057Z" fill="white"/>
<path d="M34.2896 35.3711L35.7208 34.1661L36.137 35.373L34.2896 35.3711Z" fill="white"/>
<path d="M35.7208 34.1661L37.7108 34.2687L36.137 35.373L35.7208 34.1661Z" fill="white"/>
<path d="M34.2896 35.3711L36.137 35.373L34.1585 36.8061L34.2896 35.3711Z" fill="white"/>
<path d="M32.4707 27.3656L35.4205 31.0053L33.6054 32.7843L32.4707 27.3656Z" fill="white"/>
<path d="M34.2896 35.3711L35.7208 34.1661L33.6054 32.7843L34.2896 35.3711Z" fill="white"/>
<path d="M35.4205 31.0053L35.7208 34.1661L33.6054 32.7843L35.4205 31.0053Z" fill="white"/>
<path d="M33.6054 32.7843L31.8454 38.0548L34.1585 36.8061L34.2896 35.3711L33.6054 32.7843Z" fill="white"/>
<path d="M32.9022 38.7371L34.1585 36.8061L31.8454 38.0548L32.8508 40.8905L34.3466 41.2231L32.9022 38.7371Z" fill="white"/>
<path d="M32.4764 42.8938L30.9996 45.0643L30.6271 46.2693L32.8128 45.8398L32.4764 42.8938Z" fill="white"/>
<path d="M15.69 31.0015L14.6808 27.7514L16.7354 28.2437L15.69 31.0015Z" fill="white"/>
<path d="M24.1459 31.0243L23.8266 34.1889L22.4145 32.0925L20.6868 29.4278L24.1459 31.0243Z" fill="white"/>
<path d="M16.7354 28.2437L19.1701 28.8766L20.6868 29.4278L22.4145 32.0925L23.8266 34.1889L21.8918 34.2991L18.1285 33.6092L15.69 31.0015L16.7354 28.2437Z" fill="white"/>
<path d="M23.4807 35.3996L23.8266 34.1889L25.3319 35.3882L23.4807 35.3996Z" fill="white"/>
<path d="M23.4807 35.3996L21.8918 34.2991L23.8266 34.1889L23.4807 35.3996Z" fill="white"/>
<path d="M25.4821 36.8251L23.4807 35.3996L25.3319 35.3882L25.4821 36.8251Z" fill="white"/>
<path d="M25.9858 32.7995L24.1459 31.0243L27.0539 27.3732L25.9858 32.7995Z" fill="white"/>
<path d="M25.9858 32.7995L23.8266 34.1889L25.3319 35.3882L25.9858 32.7995Z" fill="white"/>
<path d="M25.9857 32.7995L23.8266 34.1889L24.1459 31.0243L25.9857 32.7995Z" fill="white"/>
<path d="M25.9857 32.7995L27.6944 38.0377L25.4821 36.8251L25.3335 35.4034L25.9857 32.7995Z" fill="white"/>
<path d="M27.2402 42.909L26.841 40.9057L29.863 41.1433L27.2402 42.909Z" fill="white"/>
<path d="M25.4821 36.8251L26.753 38.452L25.1209 41.2973L26.841 40.9057L27.6944 38.0377L25.4821 36.8251Z" fill="white"/>
<path d="M27.2402 42.909L28.6695 45.07L29.1674 46.275L26.8638 45.8569L27.2402 42.909Z" fill="white"/>
<path d="M30.9996 45.0643L29.8497 44.9484V44.9446L29.8345 44.9465L29.8193 44.9446V44.9484L28.6695 45.07L29.1674 46.275L30.6271 46.2693L30.9996 45.0643Z" fill="white"/>
<path d="M32.4764 42.8938L29.863 41.1642V41.1433L29.8478 41.1528L29.8326 41.1433V41.1642L27.2402 42.909L28.6694 45.07L29.8345 44.9465L30.9996 45.0643L32.4764 42.8938Z" fill="white"/>
<path d="M31.8454 38.0548L33.6054 32.7843L29.7984 33.02L25.9857 32.7995L27.6944 38.0377L26.841 40.9057L29.8326 41.1414V41.1433L29.8478 41.1414L29.863 41.1433V41.1414L32.8508 40.8905L31.8454 38.0548Z" fill="white"/>
<path d="M29.7509 33.02L33.6054 32.7843L32.4707 27.3656L29.7528 27.9985L27.0539 27.3732L25.9857 32.7995L29.7832 33.0219L29.7984 33.02L29.8136 33.0219L29.7509 33.02Z" fill="white"/>
<path d="M32.8508 40.8905L32.4764 42.8938L32.8128 45.8398L34.3466 41.2231L32.8508 40.8905Z" fill="white"/>
<path d="M26.841 40.9057L25.1209 41.2973L26.8638 45.8569L27.2402 42.909L26.841 40.9057Z" fill="white"/>
<path d="M26.841 40.9057L25.121 41.2973L23.4807 35.3996L25.4821 36.8251L26.7916 38.5014L26.841 40.9057Z" fill="white"/>
<path d="M32.8508 40.8905L34.3466 41.2231L36.137 35.373L34.1585 36.806L32.9022 38.7371L32.8508 40.8905Z" fill="white"/>
<path d="M29.8326 41.1433L32.8508 40.8905L32.4764 42.8938L29.8326 41.1433Z" fill="white"/>
<path d="M28.6162 41.9829L29.8478 41.1528L31.1697 42.029L29.8326 41.1433L28.6162 41.9829Z" fill="white"/>
<path d="M50.8631 23.7924L49.7209 24.2353L49.4396 23.9673L49.5289 23.2716L54.5979 17.6477L58.5246 9.62128L57.7643 9.42551L54.5029 15.7793L54.5941 14.7682L55.7288 7.5781L54.8849 1.20147L54.1816 1L54.4857 6.56126L52.4825 16.0492L49.9071 19.5312L49.6125 17.1991L51.2794 13.0557L51.6253 7.41844L51.038 7.39373L50.6123 11.4516L49.0537 15.2738L48.4246 15.8573L48.0122 15.154L47.94 11.0639L47.3242 11.1228L47.155 16.2431L47.3261 20.5518L45.4672 22.1541L41.9359 23.7354L39.3567 24.0547L42.2153 20.2724L42.029 18.1323L41.7705 18.1608L41.5614 19.1073L37.5017 24.4956L35.3616 25.0696L32.4859 27.3922L35.4205 31.0053L36.7319 27.4796L38.0985 27.1033L42.7455 26.2746L49.5612 25.8755L55.4323 21.5288L54.9685 20.8103L50.8631 23.7924Z" fill="white"/>
<path d="M21.9526 24.5184L17.8738 19.1397L17.6591 18.1969L17.4025 18.1684L17.2314 20.3009L20.1014 24.0756L17.5317 23.7544L14.0136 22.175L12.1567 20.5765L12.2974 16.2849L12.0959 11.1855L11.4839 11.1285L11.4402 15.2015L11.0373 15.901L10.4081 15.3213L8.83822 11.52L8.38967 7.47926L7.80807 7.50587L8.1882 13.1146L9.86836 17.2371L9.58897 19.5597L7.01741 16.0929L4.97233 6.66009L5.23461 1.12924L4.54278 1.33261L3.74832 7.67502L4.91911 14.8214L5.01414 15.8268L1.75075 9.51484L1 9.7106L4.93431 17.6838L9.9881 23.283L10.0812 23.9749L9.80564 24.241L8.67096 23.8L4.5865 20.8293L4.13415 21.544L9.9748 25.8736L16.743 26.2841L21.3748 27.1204L22.7395 27.4986L24.1459 31.0243L27.0539 27.3732L24.0889 25.0943L21.9526 24.5184Z" fill="white"/>
<path d="M27.2725 50.8479L27.1736 50.8365C26.9722 50.7977 26.6586 50.7403 26.402 50.693C26.364 50.6872 26.326 50.6775 26.2879 50.6718L26.0406 50.6256C25.5046 50.5267 24.9651 50.4374 24.4424 50.2967C24.2486 50.2435 24.0566 50.1903 23.8665 50.1314C23.7259 50.0896 23.5871 50.0459 23.4465 50.0002L22.8611 47.0771L22.5817 40.1778L23.4826 35.4034L25.1229 41.301L25.3357 47.8658L27.2725 50.8479Z" fill="white"/>
<path d="M37.0075 40.02L36.7604 47.0733L36.749 47.0847L36.1713 49.966C36.0306 50.0135 35.8881 50.0573 35.7455 50.101C35.0218 50.3228 34.2864 50.5042 33.5427 50.6446C33.4571 50.6598 33.3716 50.6769 33.2861 50.6921L33.2253 50.7035C33.2215 50.7035 33.2196 50.7054 33.2158 50.7054C32.9592 50.7491 32.7007 50.789 32.4403 50.8232L32.3472 50.8346L34.282 47.8601L34.341 41.2212L36.1332 35.373L37.0075 40.02Z" fill="white"/>
<path d="M27.1736 50.8346C26.6377 50.7358 24.9632 50.4355 24.4405 50.2948C24.2467 50.2416 24.0547 50.1884 23.8646 50.1295C23.724 50.0877 23.5852 50.044 23.4446 49.9983C23.3458 49.966 23.245 49.9318 23.1462 49.8976C22.9923 49.8444 22.8402 49.7912 22.6881 49.7342C22.5247 49.6733 22.3631 49.6125 22.2035 49.5479L21.8766 43.5533L22.5798 40.174L25.3338 47.8601M27.1736 50.8346L25.3338 47.8601M27.1736 50.8346L27.3618 50.8575L27.4549 50.8689C27.512 50.8765 27.5709 50.8822 27.6279 50.8879C27.7552 50.9012 27.8826 50.9126 28.0099 50.924C28.5896 50.9753 29.175 51 29.7623 51H29.7965C30.3895 50.9981 30.9774 50.9715 31.5603 50.9202C31.6972 50.9088 31.8321 50.8955 31.9689 50.8803L32.1609 50.8575C32.1894 50.8556 32.2198 50.8518 32.2483 50.848C32.2826 50.8441 32.3168 50.8384 32.351 50.8346M25.3338 47.8601L24.9271 40.5978L26.8638 45.8569M32.351 50.8346L33.5446 50.6465C34.2883 50.5061 35.0237 50.3247 35.7474 50.1029C35.89 50.0592 36.0325 50.0155 36.1732 49.968C36.2568 49.9413 36.3404 49.9128 36.4221 49.8843C36.5875 49.8273 36.7528 49.7684 36.9163 49.7057C37.0798 49.6429 37.2432 49.5802 37.4067 49.5137L37.7545 43.5533L37.0094 40.0181L34.282 47.8601M32.351 50.8346L34.282 47.8601M32.351 50.8346L32.4441 50.8232L34.2877 47.8621L34.4759 40.7936L32.8128 45.8398L30.6271 46.2693L29.1674 46.2731L26.8638 45.8569M34.282 47.8601L32.3472 50.8346L32.4403 50.8232C32.7007 50.789 32.9592 50.7491 33.2158 50.7054C33.2196 50.7054 33.2215 50.7035 33.2253 50.7035L33.2861 50.6921C33.3716 50.6769 33.4571 50.6598 33.5427 50.6446C34.2864 50.5042 35.0218 50.3228 35.7455 50.101C35.8881 50.0573 36.0306 50.0136 36.1713 49.966L36.749 47.0847L36.7604 47.0733L37.0075 40.02L36.1332 35.373L34.3409 41.2212L34.282 47.8601ZM26.8638 45.8569L29.1674 46.275M26.8638 45.8569L27.2402 42.909L28.6695 45.07M35.4205 31.0053L32.4707 27.3656L33.6054 32.7843M35.4205 31.0053L35.7208 34.1661M35.4205 31.0053L38.8511 29.3993M35.4205 31.0053L33.6054 32.7843M35.4205 31.0053L32.4859 27.3922L35.3616 25.0696L37.5017 24.4956L41.5614 19.1073L41.7705 18.1608L42.029 18.1323L42.2153 20.2724L39.3567 24.0547L41.9359 23.7354L45.4672 22.1541L47.3261 20.5518L47.155 16.2431L47.3242 11.1228L47.94 11.0639L48.0122 15.154L48.4246 15.8573L49.0537 15.2738L50.6123 11.4516L51.038 7.39373L51.6253 7.41844L51.2794 13.0557L49.6125 17.1991L49.9071 19.5312L52.4825 16.0492L54.4857 6.56126L54.1816 1L54.8849 1.20147L55.7288 7.5781L54.5941 14.7682L54.5029 15.7793L57.7643 9.42551L58.5246 9.62128L54.5979 17.6477L49.5289 23.2716L49.4396 23.9673L49.7209 24.2353L50.8631 23.7924L54.9685 20.8103L55.4323 21.5288L49.5612 25.8755L42.7455 26.2746L38.0985 27.1033L36.7319 27.4796L35.4205 31.0053ZM42.7741 28.2057L44.8115 27.7077L43.8498 30.954M42.7741 28.2057L43.8498 30.954M42.7741 28.2057L40.3565 28.8443L38.8511 29.3993M43.8498 30.954L41.4512 33.5655L37.7108 34.2687M35.7208 34.1661L37.1615 32.0678L38.8511 29.3993M35.7208 34.1661L37.7108 34.2687M35.7208 34.1661L34.2896 35.3711M35.7208 34.1661L36.137 35.373M35.7208 34.1661L33.6054 32.7843M37.7108 34.2687L36.137 35.373M34.2896 35.3711L36.137 35.373M34.2896 35.3711L34.1585 36.8061M34.2896 35.3711L33.6054 32.7843M36.137 35.373L34.1585 36.8061M36.137 35.373L34.3466 41.2231M36.137 35.373L34.1585 36.8061L32.9022 38.7371M34.1585 36.8061L31.8454 38.0548M34.1585 36.8061L32.9022 38.7371M33.6054 32.7843L31.8454 38.0548M31.8454 38.0548L32.8508 40.8905M31.8454 38.0548L33.6054 32.7843M32.9022 38.7371L34.3466 41.2231M32.9022 38.7371L32.8508 40.8905M32.8508 40.8905L34.3466 41.2231M32.8508 40.8905L29.863 41.1414V41.1433L29.8478 41.1414L29.8326 41.1433M32.8508 40.8905L32.4764 42.8938M32.8508 40.8905L29.8326 41.1433M34.3466 41.2231L32.8128 45.8398L32.4764 42.8938M32.4764 42.8938L30.9996 45.0643M32.4764 42.8938L32.8128 45.8398L30.6271 46.2693M32.4764 42.8938L29.863 41.1642V41.1433M32.4764 42.8938L30.9996 45.0643L29.8345 44.9465L28.6694 45.07L27.2402 42.909M30.9996 45.0643L30.6271 46.2693M30.9996 45.0643L29.8497 44.9484V44.9446L29.8345 44.9465L29.8193 44.9446V44.9484L28.6695 45.07M30.6271 46.2693L29.1674 46.275M24.1459 31.0243L27.0539 27.3732M24.1459 31.0243L23.8266 34.1889M24.1459 31.0243L20.6868 29.4278M24.1459 31.0243L25.9858 32.7995M24.1459 31.0243L25.9857 32.7995M24.1459 31.0243L22.7395 27.4986L21.3748 27.1204L16.743 26.2841L9.9748 25.8736L4.13415 21.544L4.5865 20.8293L8.67096 23.8L9.80564 24.241L10.0812 23.9749L9.9881 23.283L4.93431 17.6838L1 9.7106L1.75075 9.51484L5.01414 15.8268L4.91911 14.8214L3.74832 7.67502L4.54278 1.33261L5.23461 1.12924L4.97233 6.66009L7.01741 16.0929L9.58897 19.5597L9.86836 17.2371L8.1882 13.1146L7.80807 7.50587L8.38967 7.47926L8.83822 11.52L10.4081 15.3213L11.0373 15.901L11.4402 15.2015L11.4839 11.1285L12.0959 11.1855L12.2974 16.2849L12.1567 20.5765L14.0136 22.175L17.5317 23.7544L20.1014 24.0756L17.2314 20.3009L17.4025 18.1684L17.6591 18.1969L17.8738 19.1397L21.9526 24.5184L24.0889 25.0943L27.0539 27.3732M27.0539 27.3732L25.9858 32.7995M27.0539 27.3732L29.7528 27.9985L32.4707 27.3656L33.6054 32.7843M27.0539 27.3732L25.9857 32.7995M15.69 31.0015L14.6808 27.7514L16.7354 28.2437M15.69 31.0015L16.7354 28.2437M15.69 31.0015L18.1285 33.6092L21.8918 34.2991L23.8266 34.1889M16.7354 28.2437L19.1701 28.8766L20.6868 29.4278M23.8266 34.1889L22.4145 32.0925L20.6868 29.4278M23.8266 34.1889L23.4807 35.3996L25.3319 35.3882M23.8266 34.1889L25.3319 35.3882M23.8266 34.1889L21.8918 34.2991L23.4807 35.3996L23.8266 34.1889ZM23.8266 34.1889L25.9858 32.7995M23.8266 34.1889L25.9857 32.7995M25.3319 35.3882L25.9858 32.7995M25.4821 36.8251L23.4807 35.3996M25.4821 36.8251L25.3319 35.3882L23.4807 35.3996M25.4821 36.8251L26.7916 38.5014L26.841 40.9057L25.121 41.2973L23.4807 35.3996M25.9857 32.7995L27.6944 38.0377M25.9857 32.7995L25.3335 35.4034L25.4821 36.8251M25.9857 32.7995L29.7984 33.02M25.9857 32.7995L27.6944 38.0377L26.841 40.9057L29.8326 41.1414V41.1433M25.9857 32.7995L29.7832 33.0219L29.7984 33.02M27.6944 38.0377L25.4821 36.8251M27.6944 38.0377L26.841 40.9057M25.4821 36.8251L26.753 38.452L25.1209 41.2973M27.2402 42.909L26.841 40.9057M27.2402 42.909L29.863 41.1433M27.2402 42.909L29.8326 41.1642V41.1433M27.2402 42.909L26.8638 45.8569L25.1209 41.2973M26.841 40.9057L29.863 41.1433M26.841 40.9057L25.1209 41.2973M29.863 41.1433L29.8478 41.1528M28.6695 45.07L29.1674 46.275M29.8478 41.1528L29.8326 41.1433M29.8478 41.1528L28.6162 41.9829L29.8326 41.1433M29.8478 41.1528L31.1697 42.029L29.8326 41.1433M33.6054 32.7843L29.7984 33.02M33.6054 32.7843L29.7509 33.02L29.8136 33.0219L29.7984 33.02M29.8326 41.1433L32.4764 42.8938M27.2725 50.8479L27.1736 50.8365C26.9722 50.7977 26.6586 50.7403 26.402 50.693C26.364 50.6873 26.326 50.6775 26.2879 50.6718L26.0406 50.6256C25.5046 50.5267 24.9651 50.4374 24.4424 50.2967C24.2486 50.2435 24.0566 50.1903 23.8665 50.1314C23.7259 50.0896 23.5871 50.0459 23.4465 50.0002L22.8611 47.0771L22.5817 40.1778L23.4826 35.4034L25.1229 41.301L25.3357 47.8658L27.2725 50.8479Z" stroke="black" stroke-width="0.399133"/>
</svg>
