<svg width="174" height="37" viewBox="0 0 174 37" fill="none" xmlns="http://www.w3.org/2000/svg">
<path d="M59.9403 30.1989C61.6875 30.1989 62.9801 29.5384 63.9176 28.3736H64.0028L64.1733 30H66.4744V22.0455H60.0895V24.6094H63.0014C62.9588 26.1222 61.8935 27.1165 59.9688 27.1165C57.8097 27.1165 56.5312 25.5043 56.5312 22.706C56.5312 19.929 57.9233 18.3381 60.0327 18.3381C61.4389 18.3381 62.4901 19.0128 62.8026 20.206H66.3466C65.9986 17.2869 63.3281 15.2557 59.9688 15.2557C56.0838 15.2557 52.9446 17.9901 52.9446 22.7486C52.9446 27.3509 55.7926 30.1989 59.9403 30.1989ZM74.4347 30.206C77.2969 30.206 79.179 28.821 79.5767 26.6761L76.3878 26.5838C76.1179 27.3082 75.4077 27.6989 74.4986 27.6989C73.1634 27.6989 72.3395 26.8111 72.3395 25.4759V25.3835H79.6122V24.517C79.6122 20.9233 77.4247 18.9489 74.3281 18.9489C71.0327 18.9489 68.9162 21.2074 68.9162 24.5881C68.9162 28.0824 71.0043 30.206 74.4347 30.206ZM72.3395 23.3665C72.3892 22.2798 73.2486 21.456 74.3991 21.456C75.5426 21.456 76.3665 22.2514 76.3807 23.3665H72.3395ZM82.386 30H85.859V24.0767C85.8661 22.7841 86.7681 21.9247 87.8619 21.9247C88.2809 21.9247 88.6147 22.0526 88.9201 22.1946L89.9428 19.3395C89.5238 19.098 88.9911 18.9418 88.4158 18.9418C87.2227 18.9418 86.271 19.6378 85.8732 21.0795H85.7596V19.0909H82.386V30ZM96.6033 30.206C100.034 30.206 102.115 27.9403 102.115 24.581C102.115 21.2145 100.034 18.9489 96.6033 18.9489C93.1729 18.9489 91.092 21.2145 91.092 24.581C91.092 27.9403 93.1729 30.206 96.6033 30.206ZM96.6246 27.5852C95.3391 27.5852 94.6289 26.3636 94.6289 24.5597C94.6289 22.7486 95.3391 21.5199 96.6246 21.5199C97.8675 21.5199 98.5778 22.7486 98.5778 24.5597C98.5778 26.3636 97.8675 27.5852 96.6246 27.5852ZM107.365 30H110.746L113.367 21.179H113.48L116.101 30H119.489L123.715 15.4545H119.837L117.635 25.0071H117.515L115.007 15.4545H111.84L109.333 24.9858H109.212L107.017 15.4545H103.132L107.365 30ZM128.921 30.1562C130.569 30.1562 131.549 29.2401 131.989 28.2315H132.096V30H135.533V19.0909H132.06V20.9588H131.989C131.577 19.9574 130.626 18.9489 128.907 18.9489C126.627 18.9489 124.56 20.7031 124.56 24.5526C124.56 28.267 126.513 30.1562 128.921 30.1562ZM130.129 27.4503C128.843 27.4503 128.126 26.3068 128.126 24.5455C128.126 22.7912 128.836 21.6619 130.129 21.6619C131.4 21.6619 132.138 22.7628 132.138 24.5455C132.138 26.3139 131.393 27.4503 130.129 27.4503ZM138.73 15.4545V26.9744C138.737 29.233 139.916 30.1776 142.48 30.0639C143.318 30.0213 143.716 29.9006 144.028 29.8011L143.502 27.3509C143.396 27.3935 143.254 27.4148 142.977 27.4219C142.444 27.4219 142.21 27.1591 142.203 26.5909V15.4545H138.73ZM146.331 15.4545V26.9744C146.338 29.233 147.517 30.1776 150.081 30.0639C150.919 30.0213 151.317 29.9006 151.63 29.8011L151.104 27.3509C150.998 27.3935 150.855 27.4148 150.578 27.4219C150.046 27.4219 149.811 27.1591 149.804 26.5909V15.4545H146.331ZM158.739 30.206C161.602 30.206 163.484 28.821 163.881 26.6761L160.692 26.5838C160.423 27.3082 159.712 27.6989 158.803 27.6989C157.468 27.6989 156.644 26.8111 156.644 25.4759V25.3835H163.917V24.517C163.917 20.9233 161.729 18.9489 158.633 18.9489C155.337 18.9489 153.221 21.2074 153.221 24.5881C153.221 28.0824 155.309 30.206 158.739 30.206ZM156.644 23.3665C156.694 22.2798 157.553 21.456 158.704 21.456C159.847 21.456 160.671 22.2514 160.685 23.3665H156.644ZM172.848 19.0909H170.881V16.4773H167.408V19.0909H165.966V21.6477H167.408V26.9531C167.387 29.1619 168.821 30.2699 171.272 30.1562C172.11 30.1136 172.713 29.9432 173.047 29.8438L172.522 27.3366C172.373 27.3722 172.025 27.4432 171.762 27.4432C171.201 27.4432 170.881 27.2159 170.881 26.5696V21.6477H172.848V19.0909Z" fill="white"/>
<path d="M19.3216 35.8843C18.9464 35.8151 17.7742 35.6048 17.4084 35.5064C17.2727 35.4691 17.1383 35.4319 17.0052 35.3906C16.9068 35.3614 16.8097 35.3308 16.7112 35.2988C16.642 35.2762 16.5715 35.2523 16.5023 35.2283C16.3946 35.1911 16.2881 35.1538 16.1817 35.1139C16.0673 35.0713 15.9542 35.0288 15.8424 34.9835L15.6136 30.7873L16.1059 28.4218L18.0337 33.8021L19.3216 35.8843Z" fill="white"/>
<path d="M26.7281 30.7873L26.4847 34.9596C26.3702 35.0062 26.2558 35.0501 26.1414 35.094C26.027 35.1379 25.9112 35.1791 25.7955 35.219C25.7383 35.239 25.6797 35.2589 25.6212 35.2776C25.5228 35.3108 25.423 35.3414 25.3232 35.372C24.8166 35.5273 24.3018 35.6543 23.7812 35.7525L22.9457 35.8843L24.2974 33.8021L26.2066 28.3127L26.7281 30.7873Z" fill="white"/>
<path d="M24.3014 33.8034L23.0109 35.8763L22.9457 35.8843C22.9217 35.8869 22.8978 35.8909 22.8738 35.8936C22.8539 35.8962 22.8326 35.8989 22.8126 35.9002L22.6783 35.9162C22.5825 35.9268 22.488 35.9361 22.3922 35.9441C21.9842 35.98 21.5727 35.9987 21.1576 36H21.1336C20.7225 36 20.3127 35.9827 19.9069 35.9468C19.8178 35.9388 19.7287 35.9308 19.6395 35.9215C19.5996 35.9175 19.5584 35.9135 19.5185 35.9082L19.4533 35.9002L19.3216 35.8843L18.0337 33.8021L17.749 28.7185L19.1047 32.3998L20.7172 32.6912L21.739 32.6885L23.269 32.3878L24.4331 28.8555L24.3014 33.8034Z" fill="white"/>
<path d="M30.2418 20.044L31.6681 19.6954L30.9949 21.9678L30.2418 20.044Z" fill="white"/>
<path d="M25.0944 22.0037L25.3046 24.2163L26.313 22.7474L27.4958 20.8795L25.0944 22.0037Z" fill="white"/>
<path d="M30.2418 20.044L28.5495 20.491L27.4958 20.8795L26.313 22.7474L25.3046 24.2163L26.6975 24.2881L29.3159 23.7958L30.9949 21.9678L30.2418 20.044Z" fill="white"/>
<path d="M24.3027 25.0597L25.3046 24.2163L25.5959 25.0611L24.3027 25.0597Z" fill="white"/>
<path d="M25.3046 24.2163L26.6975 24.2881L25.5959 25.0611L25.3046 24.2163Z" fill="white"/>
<path d="M24.3027 25.0597L25.5959 25.0611L24.2109 26.0642L24.3027 25.0597Z" fill="white"/>
<path d="M23.0295 19.4559L25.0944 22.0037L23.8238 23.249L23.0295 19.4559Z" fill="white"/>
<path d="M24.3027 25.0597L25.3046 24.2163L23.8238 23.249L24.3027 25.0597Z" fill="white"/>
<path d="M25.0944 22.0037L25.3046 24.2163L23.8238 23.249L25.0944 22.0037Z" fill="white"/>
<path d="M23.8238 23.249L22.5918 26.9383L24.2109 26.0642L24.3027 25.0597L23.8238 23.249Z" fill="white"/>
<path d="M23.3315 27.416L24.2109 26.0642L22.5918 26.9383L23.2956 28.9234L24.3426 29.1562L23.3315 27.416Z" fill="white"/>
<path d="M23.0335 30.3256L21.9997 31.845L21.739 32.6885L23.269 32.3878L23.0335 30.3256Z" fill="white"/>
<path d="M11.283 22.0011L10.5765 19.726L12.0148 20.0706L11.283 22.0011Z" fill="white"/>
<path d="M17.2022 22.017L16.9786 24.2322L15.9901 22.7647L14.7808 20.8995L17.2022 22.017Z" fill="white"/>
<path d="M12.0148 20.0706L13.7191 20.5136L14.7808 20.8995L15.9901 22.7647L16.9786 24.2322L15.6242 24.3094L12.99 23.8264L11.283 22.0011L12.0148 20.0706Z" fill="white"/>
<path d="M16.7365 25.0797L16.9786 24.2322L18.0324 25.0717L16.7365 25.0797Z" fill="white"/>
<path d="M16.7365 25.0797L15.6242 24.3094L16.9786 24.2322L16.7365 25.0797Z" fill="white"/>
<path d="M18.1375 26.0775L16.7365 25.0797L18.0324 25.0717L18.1375 26.0775Z" fill="white"/>
<path d="M18.49 23.2597L17.2022 22.017L19.2377 19.4612L18.49 23.2597Z" fill="white"/>
<path d="M18.49 23.2597L16.9786 24.2322L18.0324 25.0717L18.49 23.2597Z" fill="white"/>
<path d="M18.49 23.2597L16.9786 24.2322L17.2022 22.017L18.49 23.2597Z" fill="white"/>
<path d="M18.49 23.2597L19.6861 26.9264L18.1374 26.0775L18.0335 25.0824L18.49 23.2597Z" fill="white"/>
<path d="M19.3681 30.3363L19.0887 28.934L21.2041 29.1003L19.3681 30.3363Z" fill="white"/>
<path d="M18.1374 26.0775L19.0271 27.2164L17.8847 29.2081L19.0887 28.934L19.6861 26.9264L18.1374 26.0775Z" fill="white"/>
<path d="M19.3681 30.3363L20.3686 31.849L20.7172 32.6925L19.1047 32.3998L19.3681 30.3363Z" fill="white"/>
<path d="M21.9997 31.845L21.1948 31.7639V31.7612L21.1842 31.7625L21.1735 31.7612V31.7639L20.3686 31.849L20.7172 32.6925L21.739 32.6885L21.9997 31.845Z" fill="white"/>
<path d="M23.0335 30.3256L21.2041 29.1149V29.1003L21.1935 29.107L21.1828 29.1003V29.1149L19.3681 30.3363L20.3686 31.849L21.1842 31.7625L21.9997 31.845L23.0335 30.3256Z" fill="white"/>
<path d="M22.5918 26.9383L23.8238 23.249L21.1589 23.414L18.49 23.2597L19.6861 26.9264L19.0887 28.934L21.1828 29.099V29.1003L21.1935 29.099L21.2041 29.1003V29.099L23.2956 28.9234L22.5918 26.9383Z" fill="white"/>
<path d="M21.1256 23.414L23.8238 23.249L23.0295 19.4559L21.127 19.899L19.2377 19.4612L18.49 23.2597L21.1482 23.4153L21.1589 23.414L21.1695 23.4153L21.1256 23.414Z" fill="white"/>
<path d="M23.2956 28.9234L23.0335 30.3257L23.269 32.3878L24.3426 29.1562L23.2956 28.9234Z" fill="white"/>
<path d="M19.0887 28.934L17.8847 29.2081L19.1047 32.3998L19.3681 30.3363L19.0887 28.934Z" fill="white"/>
<path d="M19.0887 28.934L17.8847 29.2081L16.7365 25.0797L18.1375 26.0775L19.0541 27.251L19.0887 28.934Z" fill="white"/>
<path d="M23.2956 28.9234L24.3426 29.1562L25.5959 25.0611L24.2109 26.0642L23.3315 27.416L23.2956 28.9234Z" fill="white"/>
<path d="M21.1828 29.1003L23.2956 28.9234L23.0335 30.3257L21.1828 29.1003Z" fill="white"/>
<path d="M20.3314 29.688L21.1935 29.107L22.1188 29.7203L21.1828 29.1003L20.3314 29.688Z" fill="white"/>
<path d="M35.9042 16.9547L35.1046 17.2647L34.9077 17.0771L34.9702 16.5901L38.5185 12.6534L41.2672 7.03489L40.735 6.89786L38.452 11.3455L38.5159 10.6377L39.3101 5.60467L38.7194 1.14103L38.2271 1L38.44 4.89288L37.0377 11.5345L35.235 13.9718L35.0288 12.3394L36.1956 9.43901L36.4377 5.49291L36.0266 5.47561L35.7286 8.31611L34.6376 10.9916L34.1972 11.4001L33.9085 10.9078L33.858 8.0447L33.4269 8.08594L33.3085 11.6702L33.4282 14.6863L32.1271 15.8078L29.6551 16.9148L27.8497 17.1383L29.8507 14.4907L29.7203 12.9926L29.5394 13.0126L29.393 13.6751L26.5512 17.4469L25.0531 17.8487L23.0401 19.4745L25.0944 22.0037L26.0123 19.5357L26.9689 19.2723L30.2219 18.6922L34.9928 18.4129L39.1026 15.3701L38.778 14.8672L35.9042 16.9547Z" fill="white"/>
<path d="M15.6668 17.4629L12.8117 13.6978L12.6613 13.0379L12.4817 13.0179L12.362 14.5107L14.371 17.1529L12.5722 16.9281L10.1096 15.8225L8.80971 14.7036L8.90816 11.6994L8.76713 8.12985L8.33873 8.08993L8.30813 10.9411L8.02608 11.4307L7.5857 11.0249L6.48675 8.36401L6.17277 5.53548L5.76565 5.55411L6.03174 9.48025L7.20785 12.366L7.01228 13.9918L5.21219 11.5651L3.78063 4.96206L3.96423 1.09047L3.47995 1.23283L2.92382 5.67252L3.74338 10.675L3.8099 11.3788L1.52553 6.96039L1 7.09742L3.75402 12.6786L7.29167 16.5981L7.35686 17.0824L7.16395 17.2687L6.36967 16.96L3.51055 14.8805L3.1939 15.3808L7.28236 18.4115L12.0201 18.6989L15.2624 19.2843L16.2176 19.549L17.2022 22.017L19.2377 19.4612L17.1622 17.866L15.6668 17.4629Z" fill="white"/>
<path d="M19.3907 35.8935L19.3215 35.8856C19.1805 35.8584 18.961 35.8182 18.7814 35.7851C18.7548 35.7811 18.7282 35.7743 18.7016 35.7703L18.5284 35.7379C18.1532 35.6687 17.7756 35.6062 17.4097 35.5077C17.274 35.4705 17.1396 35.4332 17.0066 35.392C16.9081 35.3627 16.811 35.3321 16.7125 35.3002L16.3028 33.2539L16.1072 28.4244L16.7378 25.0824L17.886 29.2107L18.035 33.8061L19.3907 35.8935Z" fill="white"/>
<path d="M26.2053 28.314L26.0323 33.2513L26.0243 33.2593L25.6199 35.2762C25.5214 35.3095 25.4216 35.3401 25.3219 35.3707C24.8153 35.5259 24.3005 35.653 23.7799 35.7512C23.72 35.7618 23.6601 35.7738 23.6003 35.7845L23.5577 35.7924C23.555 35.7924 23.5537 35.7938 23.551 35.7938C23.3714 35.8244 23.1905 35.8523 23.0082 35.8763L22.943 35.8842L24.2974 33.8021L24.3387 29.1549L25.5933 25.0611L26.2053 28.314Z" fill="white"/>
<path d="M19.3216 35.8842C18.9464 35.8151 17.7742 35.6048 17.4084 35.5064C17.2727 35.4691 17.1383 35.4319 17.0052 35.3906C16.9068 35.3614 16.8097 35.3308 16.7112 35.2988C16.642 35.2762 16.5715 35.2523 16.5023 35.2283C16.3946 35.1911 16.2881 35.1538 16.1817 35.1139C16.0673 35.0713 15.9542 35.0288 15.8424 34.9835L15.6136 30.7873L16.1059 28.4218L18.0337 33.8021M19.3216 35.8842L18.0337 33.8021M19.3216 35.8842L19.4533 35.9002L19.5185 35.9082C19.5584 35.9135 19.5996 35.9175 19.6395 35.9215C19.7287 35.9308 19.8178 35.9388 19.9069 35.9468C20.3127 35.9827 20.7225 36 21.1336 36H21.1576C21.5727 35.9987 21.9842 35.98 22.3922 35.9441C22.488 35.9361 22.5825 35.9268 22.6783 35.9162L22.8126 35.9002C22.8326 35.8989 22.8539 35.8962 22.8738 35.8936C22.8978 35.8909 22.9217 35.8869 22.9457 35.8843M18.0337 33.8021L17.749 28.7185L19.1047 32.3998M22.9457 35.8843L23.7812 35.7525C24.3018 35.6543 24.8166 35.5273 25.3232 35.372C25.423 35.3414 25.5228 35.3108 25.6212 35.2776C25.6797 35.2589 25.7383 35.239 25.7955 35.219C25.9112 35.1791 26.027 35.1379 26.1414 35.094C26.2558 35.0501 26.3702 35.0062 26.4847 34.9596L26.7281 30.7873L26.2066 28.3127L24.2974 33.8021M22.9457 35.8843L24.2974 33.8021M22.9457 35.8843L23.0109 35.8763L24.3014 33.8034L24.4331 28.8555L23.269 32.3878L21.739 32.6885L20.7172 32.6912L19.1047 32.3998M24.2974 33.8021L22.943 35.8842L23.0082 35.8763C23.1905 35.8523 23.3714 35.8244 23.551 35.7938C23.5537 35.7938 23.555 35.7924 23.5577 35.7924L23.6003 35.7845C23.6601 35.7738 23.72 35.7618 23.7799 35.7512C24.3005 35.653 24.8153 35.5259 25.3219 35.3707C25.4216 35.3401 25.5214 35.3095 25.6199 35.2762L26.0243 33.2593L26.0323 33.2513L26.2053 28.314L25.5933 25.0611L24.3387 29.1549L24.2974 33.8021ZM19.1047 32.3998L20.7172 32.6925M19.1047 32.3998L19.3681 30.3363L20.3686 31.849M25.0944 22.0037L23.0295 19.4559L23.8238 23.249M25.0944 22.0037L25.3046 24.2163M25.0944 22.0037L27.4958 20.8795M25.0944 22.0037L23.8238 23.249M25.0944 22.0037L23.0401 19.4745L25.0531 17.8487L26.5512 17.4469L29.393 13.6751L29.5394 13.0126L29.7203 12.9926L29.8507 14.4907L27.8497 17.1383L29.6551 16.9148L32.1271 15.8078L33.4282 14.6863L33.3085 11.6702L33.4269 8.08594L33.858 8.0447L33.9085 10.9078L34.1972 11.4001L34.6376 10.9916L35.7286 8.31611L36.0266 5.47561L36.4377 5.49291L36.1956 9.43901L35.0288 12.3394L35.235 13.9718L37.0377 11.5345L38.44 4.89288L38.2272 1L38.7194 1.14103L39.3101 5.60467L38.5159 10.6377L38.452 11.3455L40.735 6.89786L41.2672 7.03489L38.5185 12.6534L34.9702 16.5901L34.9077 17.0771L35.1046 17.2647L35.9042 16.9547L38.778 14.8672L39.1026 15.3701L34.9928 18.4129L30.2219 18.6922L26.9689 19.2723L26.0123 19.5357L25.0944 22.0037ZM30.2418 20.044L31.6681 19.6954L30.9949 21.9678M30.2418 20.044L30.9949 21.9678M30.2418 20.044L28.5495 20.491L27.4958 20.8795M30.9949 21.9678L29.3159 23.7958L26.6975 24.2881M25.3046 24.2163L26.313 22.7474L27.4958 20.8795M25.3046 24.2163L26.6975 24.2881M25.3046 24.2163L24.3027 25.0598M25.3046 24.2163L25.5959 25.0611M25.3046 24.2163L23.8238 23.249M26.6975 24.2881L25.5959 25.0611M24.3027 25.0598L25.5959 25.0611M24.3027 25.0598L24.2109 26.0642M24.3027 25.0598L23.8238 23.249M25.5959 25.0611L24.2109 26.0642M25.5959 25.0611L24.3426 29.1562M25.5959 25.0611L24.2109 26.0642L23.3315 27.416M24.2109 26.0642L22.5918 26.9383M24.2109 26.0642L23.3315 27.416M23.8238 23.249L22.5918 26.9383M22.5918 26.9383L23.2956 28.9234M22.5918 26.9383L23.8238 23.249M23.3315 27.416L24.3426 29.1562M23.3315 27.416L23.2956 28.9234M23.2956 28.9234L24.3426 29.1562M23.2956 28.9234L21.2041 29.099V29.1003L21.1935 29.099L21.1828 29.1003M23.2956 28.9234L23.0335 30.3257M23.2956 28.9234L21.1828 29.1003M24.3426 29.1562L23.269 32.3878L23.0335 30.3257M23.0335 30.3256L21.9997 31.845M23.0335 30.3256L23.269 32.3878L21.739 32.6885M23.0335 30.3256L21.2041 29.1149V29.1003M23.0335 30.3256L21.9997 31.845L21.1842 31.7625L20.3686 31.849L19.3681 30.3363M21.9997 31.845L21.739 32.6885M21.9997 31.845L21.1948 31.7639V31.7612L21.1842 31.7625L21.1735 31.7612V31.7639L20.3686 31.849M21.739 32.6885L20.7172 32.6925M17.2022 22.017L19.2377 19.4612M17.2022 22.017L16.9786 24.2322M17.2022 22.017L14.7808 20.8995M17.2022 22.017L18.49 23.2597M17.2022 22.017L18.49 23.2597M17.2022 22.017L16.2176 19.549L15.2624 19.2843L12.0201 18.6989L7.28236 18.4115L3.1939 15.3808L3.51055 14.8805L6.36967 16.96L7.16395 17.2687L7.35686 17.0824L7.29167 16.5981L3.75402 12.6786L1 7.09742L1.52553 6.96039L3.8099 11.3788L3.74338 10.675L2.92382 5.67252L3.47995 1.23283L3.96423 1.09047L3.78063 4.96206L5.21219 11.5651L7.01228 13.9918L7.20785 12.366L6.03174 9.48025L5.76565 5.55411L6.17277 5.53548L6.48675 8.36401L7.5857 11.0249L8.02608 11.4307L8.30813 10.9411L8.33873 8.08993L8.76713 8.12985L8.90816 11.6994L8.80971 14.7036L10.1096 15.8225L12.5722 16.9281L14.371 17.1529L12.362 14.5107L12.4817 13.0179L12.6613 13.0379L12.8117 13.6978L15.6668 17.4629L17.1622 17.866L19.2377 19.4612M19.2377 19.4612L18.49 23.2597M19.2377 19.4612L21.127 19.899L23.0295 19.4559L23.8238 23.249M19.2377 19.4612L18.49 23.2597M11.283 22.0011L10.5765 19.726L12.0148 20.0706M11.283 22.0011L12.0148 20.0706M11.283 22.0011L12.99 23.8264L15.6242 24.3094L16.9786 24.2322M12.0148 20.0706L13.7191 20.5136L14.7808 20.8995M16.9786 24.2322L15.9901 22.7647L14.7808 20.8995M16.9786 24.2322L16.7365 25.0797L18.0324 25.0717M16.9786 24.2322L18.0324 25.0717M16.9786 24.2322L15.6242 24.3094L16.7365 25.0797L16.9786 24.2322ZM16.9786 24.2322L18.49 23.2597M16.9786 24.2322L18.49 23.2597M18.0324 25.0717L18.49 23.2597M18.1375 26.0775L16.7365 25.0797M18.1375 26.0775L18.0324 25.0717L16.7365 25.0797M18.1375 26.0775L19.0541 27.251L19.0887 28.934L17.8847 29.2081L16.7365 25.0797M18.49 23.2597L19.6861 26.9264M18.49 23.2597L18.0335 25.0824L18.1374 26.0775M18.49 23.2597L21.1589 23.414M18.49 23.2597L19.6861 26.9264L19.0887 28.934L21.1828 29.099V29.1003M18.49 23.2597L21.1482 23.4153L21.1589 23.414M19.6861 26.9264L18.1374 26.0775M19.6861 26.9264L19.0887 28.934M18.1374 26.0775L19.0271 27.2164L17.8847 29.2081M19.3681 30.3363L19.0887 28.934M19.3681 30.3363L21.2041 29.1003M19.3681 30.3363L21.1828 29.1149V29.1003M19.3681 30.3363L19.1047 32.3998L17.8847 29.2081M19.0887 28.934L21.2041 29.1003M19.0887 28.934L17.8847 29.2081M21.2041 29.1003L21.1935 29.107M20.3686 31.849L20.7172 32.6925M21.1935 29.107L21.1828 29.1003M21.1935 29.107L20.3314 29.688L21.1828 29.1003M21.1935 29.107L22.1188 29.7203L21.1828 29.1003M23.8238 23.249L21.1589 23.414M23.8238 23.249L21.1256 23.414L21.1695 23.4153L21.1589 23.414M21.1828 29.1003L23.0335 30.3257M19.3907 35.8935L19.3215 35.8856C19.1805 35.8584 18.961 35.8182 18.7814 35.7851C18.7548 35.7811 18.7282 35.7742 18.7016 35.7703L18.5284 35.7379C18.1532 35.6687 17.7756 35.6062 17.4097 35.5077C17.274 35.4705 17.1396 35.4332 17.0066 35.392C16.9081 35.3627 16.811 35.3321 16.7125 35.3002L16.3028 33.2539L16.1072 28.4244L16.7378 25.0824L17.886 29.2107L18.035 33.8061L19.3907 35.8935Z" stroke="black" stroke-width="0.399133"/>
</svg>
