<?xml version="1.0" encoding="utf-8"?>
<!-- Generator: Adobe Illustrator 25.2.3, SVG Export Plug-In . SVG Version: 6.00 Build 0)  -->
<svg version="1.1" id="Layer_1" xmlns="http://www.w3.org/2000/svg" xmlns:xlink="http://www.w3.org/1999/xlink" x="0px" y="0px"
	 viewBox="0 0 24 24" style="enable-background:new 0 0 24 24;" xml:space="preserve">
<style type="text/css">
	.st0{opacity:0.1;fill-rule:evenodd;clip-rule:evenodd;fill:#FFFFFF;enable-background:new    ;}
	.st1{fill:#FFFFFF;}
</style>
<path class="st0" d="M0,12C0,5.4,5.4,0,12,0c6.6,0,12,5.4,12,12c0,6.6-5.4,12-12,12C5.4,24,0,18.6,0,12z"/>
<g>
	<g>
		<path class="st1" d="M13,12c0,2.4-1.9,4.4-4.3,4.4s-4.3-2-4.3-4.4s1.9-4.4,4.3-4.4S13,9.6,13,12 M17.8,12c0,2.3-1,4.1-2.2,4.1
			s-2.2-1.8-2.2-4.1s1-4.1,2.2-4.1S17.8,9.7,17.8,12 M19.7,12c0,2-0.3,3.7-0.8,3.7S18.2,14,18.2,12s0.3-3.7,0.8-3.7
			C19.4,8.3,19.7,10,19.7,12"/>
	</g>
</g>
</svg>
